<?xml version="1.0" encoding="utf-8"?>
<!-- Generator: Adobe Illustrator 26.0.0, SVG Export Plug-In . SVG Version: 6.00 Build 0)  -->
<svg version="1.1" id="Capa_1" xmlns="http://www.w3.org/2000/svg" xmlns:xlink="http://www.w3.org/1999/xlink" x="0px" y="0px"
	 viewBox="0 0 250 113" style="enable-background:new 0 0 250 113;" xml:space="preserve">
<style type="text/css">
	.st0{fill:#FFFFFF;}
	.st1{fill:#011B8D;}
	.st2{fill:none;}
</style>
<g>
	<ellipse class="st0" cx="43.52" cy="19.87" rx="3.72" ry="3.87"/>
	<path class="st0" d="M31.13,23.74c2.05,0,3.72-1.73,3.72-3.87c0-2.14-1.66-3.87-3.72-3.87s-3.72,1.73-3.72,3.87
		C27.41,22,29.07,23.74,31.13,23.74z"/>
	<polygon class="st1" points="34.84,48.88 39.8,48.88 37.32,39.85 	"/>
	<path class="st2" d="M39.29,6.05c-0.02,0-0.04,0-0.06,0c-1.29,0-2.58,0-3.87,0c-13.83,0-25.05,11.67-25.05,26.07
		c0,14.4,11.21,26.07,25.05,26.07c1.31,0,2.62,0,3.93,0c13.83,0,25.05-11.67,25.05-26.07C64.34,17.72,53.12,6.05,39.29,6.05z"/>
	<path class="st0" d="M177.33,50.58c-0.08-0.01-0.19-0.02-0.32-0.02h-1.59v1.99h1.52c0.33,0,0.55-0.06,0.69-0.18
		c0.1-0.09,0.17-0.22,0.19-0.39c0.01-0.08,0.02-0.23,0.02-0.44c0-0.3-0.02-0.51-0.05-0.62C177.73,50.74,177.58,50.62,177.33,50.58z"
		/>
	<path class="st0" d="M183.39,50.91c-0.06-0.13-0.16-0.23-0.29-0.29c-0.11-0.05-0.26-0.08-0.46-0.1c-0.14-0.01-0.33-0.01-0.55-0.01
		c-0.47,0-0.78,0.03-0.93,0.1c-0.25,0.11-0.4,0.4-0.44,0.87c-0.01,0.15-0.02,0.59-0.02,1.3c0,0.39,0.01,0.66,0.02,0.8
		c0.02,0.26,0.06,0.45,0.13,0.59c0.06,0.13,0.16,0.23,0.29,0.28c0.16,0.07,0.51,0.11,1.03,0.11c0.46,0,0.77-0.03,0.93-0.1
		c0.24-0.11,0.38-0.4,0.43-0.88c0.01-0.13,0.02-0.53,0.02-1.21c0-0.46-0.01-0.76-0.02-0.89C183.49,51.23,183.45,51.04,183.39,50.91z
		"/>
	<path class="st0" d="M106.79,50.58c-0.08-0.01-0.19-0.02-0.32-0.02h-1.59v1.99h1.52c0.33,0,0.55-0.06,0.69-0.18
		c0.1-0.09,0.17-0.22,0.19-0.39c0.01-0.08,0.02-0.23,0.02-0.44c0-0.3-0.02-0.51-0.05-0.62C107.19,50.74,107.03,50.62,106.79,50.58z"
		/>
	<polygon class="st0" points="110.63,53.5 112.56,53.5 111.59,50.46 	"/>
	<polygon class="st0" points="152.93,53.5 154.86,53.5 153.89,50.46 	"/>
	<path class="st0" d="M142.18,50.66c-0.15-0.06-0.35-0.09-0.6-0.09h-1.59v3.93h1.53c0.49,0,0.81-0.12,0.97-0.35
		c0.12-0.17,0.19-0.43,0.21-0.77c0.02-0.21,0.02-0.5,0.02-0.86c0-0.5-0.02-0.87-0.05-1.11C142.63,51.01,142.46,50.76,142.18,50.66z"
		/>
	<path class="st0" d="M96.57,50.54c-0.07-0.01-0.2-0.01-0.39-0.01h-1.33v2.07h1.22c0.39,0,0.65-0.03,0.78-0.09
		c0.15-0.06,0.24-0.19,0.29-0.4c0.03-0.11,0.04-0.27,0.04-0.49c0-0.34-0.02-0.58-0.07-0.72C97.04,50.69,96.86,50.57,96.57,50.54z"/>
	<path class="st0" d="M171.74,50.58c-0.08-0.01-0.19-0.02-0.32-0.02h-1.59v1.99h1.52c0.33,0,0.55-0.06,0.69-0.18
		c0.1-0.09,0.17-0.22,0.19-0.39c0.01-0.08,0.02-0.23,0.02-0.44c0-0.3-0.02-0.51-0.05-0.62C172.14,50.74,171.98,50.62,171.74,50.58z"
		/>
	<path class="st0" d="M166.65,50.91c-0.06-0.13-0.16-0.23-0.29-0.29c-0.11-0.05-0.26-0.08-0.46-0.1c-0.14-0.01-0.33-0.01-0.55-0.01
		c-0.47,0-0.78,0.03-0.93,0.1c-0.25,0.11-0.4,0.4-0.44,0.87c-0.01,0.15-0.02,0.59-0.02,1.3c0,0.39,0.01,0.66,0.02,0.8
		c0.02,0.26,0.06,0.45,0.13,0.59c0.06,0.13,0.16,0.23,0.29,0.28c0.16,0.07,0.51,0.11,1.03,0.11c0.46,0,0.77-0.03,0.93-0.1
		c0.24-0.11,0.38-0.4,0.43-0.88c0.01-0.13,0.02-0.53,0.02-1.21c0-0.46-0.01-0.76-0.02-0.89C166.75,51.23,166.71,51.04,166.65,50.91z
		"/>
	<polygon class="st0" points="127.17,53.5 129.1,53.5 128.13,50.46 	"/>
	<path class="st0" d="M236.91,50.91c-0.06-0.13-0.16-0.23-0.29-0.29c-0.11-0.05-0.26-0.08-0.46-0.1c-0.14-0.01-0.33-0.01-0.55-0.01
		c-0.47,0-0.78,0.03-0.93,0.1c-0.25,0.11-0.4,0.4-0.44,0.87c-0.01,0.15-0.02,0.59-0.02,1.3c0,0.39,0.01,0.66,0.02,0.8
		c0.02,0.26,0.06,0.45,0.13,0.59c0.06,0.13,0.16,0.23,0.29,0.28c0.16,0.07,0.51,0.11,1.03,0.11c0.46,0,0.77-0.03,0.93-0.1
		c0.24-0.11,0.38-0.4,0.43-0.88c0.01-0.13,0.02-0.53,0.02-1.21c0-0.46-0.01-0.76-0.02-0.89C237.01,51.23,236.97,51.04,236.91,50.91z
		"/>
	<path class="st0" d="M198.09,50.54c-0.07-0.01-0.2-0.01-0.39-0.01h-1.33v2.07h1.22c0.39,0,0.65-0.03,0.78-0.09
		c0.15-0.06,0.24-0.19,0.29-0.4c0.02-0.11,0.04-0.27,0.04-0.49c0-0.34-0.02-0.58-0.07-0.72C198.56,50.69,198.38,50.57,198.09,50.54z
		"/>
	<polygon class="st0" points="221.38,53.5 223.31,53.5 222.34,50.46 	"/>
	<path class="st0" d="M203.61,50.58c-0.08-0.01-0.19-0.02-0.32-0.02h-1.59v1.99h1.52c0.33,0,0.55-0.06,0.69-0.18
		c0.1-0.09,0.17-0.22,0.19-0.39c0.01-0.08,0.02-0.23,0.02-0.44c0-0.3-0.02-0.51-0.05-0.62C204.01,50.74,203.85,50.62,203.61,50.58z"
		/>
	<path class="st0" d="M86.03,50.91c-0.06-0.13-0.16-0.23-0.29-0.29c-0.11-0.05-0.26-0.08-0.46-0.1c-0.14-0.01-0.33-0.01-0.55-0.01
		c-0.47,0-0.78,0.03-0.93,0.1c-0.25,0.11-0.4,0.4-0.44,0.87c-0.01,0.15-0.02,0.59-0.02,1.3c0,0.39,0.01,0.66,0.02,0.8
		c0.02,0.26,0.06,0.45,0.13,0.59c0.06,0.13,0.16,0.23,0.29,0.28c0.16,0.07,0.51,0.11,1.03,0.11c0.46,0,0.77-0.03,0.93-0.1
		c0.24-0.11,0.38-0.4,0.43-0.88c0.01-0.13,0.02-0.53,0.02-1.21c0-0.46-0.01-0.76-0.02-0.89C86.14,51.23,86.1,51.04,86.03,50.91z"/>
	<path class="st0" d="M91.66,50.91c-0.06-0.13-0.16-0.23-0.29-0.29c-0.11-0.05-0.26-0.08-0.46-0.1c-0.14-0.01-0.33-0.01-0.55-0.01
		c-0.47,0-0.78,0.03-0.93,0.1c-0.25,0.11-0.4,0.4-0.44,0.87c-0.01,0.15-0.02,0.59-0.02,1.3c0,0.39,0.01,0.66,0.02,0.8
		c0.02,0.26,0.06,0.45,0.13,0.59c0.06,0.13,0.16,0.23,0.29,0.28c0.16,0.07,0.51,0.11,1.03,0.11c0.46,0,0.77-0.03,0.93-0.1
		c0.24-0.11,0.38-0.4,0.43-0.88c0.01-0.13,0.02-0.53,0.02-1.21c0-0.46-0.01-0.76-0.02-0.89C91.77,51.23,91.73,51.04,91.66,50.91z"/>
	<g>
		<polygon class="st0" points="119.56,81.34 121.45,81.34 120.5,78.35 		"/>
		<path class="st0" d="M96.59,78.42h-1.3v2.05h1.19c0.47,0,0.78-0.06,0.9-0.17c0.13-0.11,0.19-0.38,0.19-0.8
			c0-0.49-0.05-0.79-0.16-0.9C97.31,78.48,97.03,78.42,96.59,78.42z"/>
		<path class="st0" d="M129.35,78.42h-1.58v1.97h1.5c0.36,0,0.6-0.07,0.71-0.2c0.12-0.13,0.18-0.4,0.18-0.8
			c0-0.41-0.05-0.67-0.15-0.79C129.91,78.48,129.69,78.42,129.35,78.42z"/>
		<path class="st0" d="M87.98,78.39c-0.7,0-1.11,0.09-1.23,0.28c-0.12,0.19-0.18,0.84-0.18,1.95c0,0.82,0.07,1.32,0.21,1.49
			c0.14,0.17,0.55,0.25,1.23,0.25c0.65,0,1.04-0.09,1.17-0.28c0.13-0.19,0.19-0.76,0.19-1.72c0-0.96-0.06-1.53-0.18-1.71
			C89.06,78.47,88.65,78.39,87.98,78.39z"/>
		<polygon class="st0" points="150.89,81.34 152.78,81.34 151.83,78.35 		"/>
		<polygon class="st0" points="47.44,81.34 49.33,81.34 48.37,78.35 		"/>
		<polygon class="st0" points="63.18,81.34 65.08,81.34 64.12,78.35 		"/>
		<path class="st0" d="M79.94,78.42h-1.3v2.05h1.19c0.47,0,0.78-0.06,0.9-0.17c0.13-0.11,0.19-0.38,0.19-0.8
			c0-0.49-0.05-0.79-0.16-0.9C80.66,78.48,80.38,78.42,79.94,78.42z"/>
		<path class="st0" d="M210.26,78.42h-1.56v3.91h1.49c0.5,0,0.83-0.12,0.97-0.36c0.15-0.24,0.22-0.77,0.22-1.59
			c0-0.85-0.07-1.39-0.2-1.62C211.06,78.54,210.75,78.42,210.26,78.42z"/>
		<path class="st0" d="M0.37,73.46v13.83H249.6V73.46H0.37z M42.46,81.4c0,0.8-0.14,1.32-0.42,1.55c-0.28,0.23-0.9,0.35-1.86,0.35
			c-1.09,0-1.76-0.19-2.01-0.56c-0.25-0.37-0.38-1.36-0.38-2.97c0-0.95,0.17-1.57,0.51-1.87c0.34-0.3,1.05-0.45,2.13-0.45
			c0.79,0,1.31,0.12,1.58,0.37c0.26,0.25,0.4,0.73,0.4,1.46l0,0.13h-1.05v-0.15c0-0.37-0.07-0.62-0.2-0.72
			c-0.14-0.1-0.45-0.16-0.93-0.16c-0.65,0-1.04,0.08-1.17,0.25c-0.13,0.17-0.2,0.66-0.2,1.47c0,1.1,0.06,1.75,0.18,1.95
			c0.12,0.2,0.5,0.3,1.14,0.3c0.52,0,0.86-0.06,1.01-0.17c0.15-0.11,0.23-0.36,0.23-0.74l-0.01-0.26h1.05V81.4z M49.92,83.25
			l-0.35-1.1h-2.38l-0.34,1.1h-1.11l1.84-5.75h1.57l1.86,5.75H49.92z M57.9,81.47c0,0.74-0.12,1.23-0.35,1.47
			c-0.23,0.24-0.71,0.36-1.43,0.36c-0.77,0-1.26-0.12-1.49-0.35c-0.23-0.23-0.34-0.74-0.34-1.53L54.3,81h1
			c0.02,0.21,0.02,0.37,0.02,0.48c0,0.1,0,0.22,0.01,0.37c0.02,0.35,0.28,0.52,0.8,0.52c0.31,0,0.5-0.06,0.59-0.19
			c0.09-0.12,0.13-0.41,0.13-0.84V77.5h1.05V81.47z M65.67,83.25l-0.35-1.1h-2.38l-0.34,1.1h-1.11l1.84-5.75h1.57l1.86,5.75H65.67z
			 M81.62,81.01c-0.25,0.25-0.75,0.38-1.5,0.38l-0.24,0h-1.23v1.86h-1.05V77.5h2.23h0.27c0.75,0,1.25,0.14,1.51,0.41
			c0.26,0.27,0.39,0.79,0.39,1.57C81.99,80.25,81.87,80.76,81.62,81.01z M89.99,82.79C89.7,83.13,89,83.3,87.89,83.3
			c-1,0-1.65-0.17-1.95-0.51c-0.29-0.34-0.44-1.08-0.44-2.23c0-1.37,0.14-2.23,0.43-2.58c0.29-0.35,1-0.53,2.12-0.53
			c1,0,1.65,0.17,1.94,0.52c0.29,0.35,0.43,1.12,0.43,2.32C90.43,81.61,90.28,82.44,89.99,82.79z M98.27,81.01
			c-0.25,0.25-0.75,0.38-1.5,0.38l-0.24,0h-1.23v1.86h-1.05V77.5h2.23h0.27c0.75,0,1.25,0.14,1.51,0.41
			c0.26,0.27,0.39,0.79,0.39,1.57C98.64,80.25,98.52,80.76,98.27,81.01z M107.01,81.32c0,0.8-0.15,1.33-0.44,1.59
			c-0.3,0.26-0.9,0.39-1.81,0.39c-0.96,0-1.59-0.12-1.89-0.37c-0.3-0.24-0.45-0.76-0.45-1.54V77.5h1.05v3.89
			c0,0.42,0.07,0.69,0.22,0.81c0.15,0.11,0.49,0.17,1.03,0.17c0.55,0,0.9-0.06,1.04-0.17c0.14-0.12,0.21-0.4,0.21-0.85V77.5h1.05
			V81.32z M114.72,83.25h-3.63V77.5h1.05v4.77h2.59V83.25z M122.05,83.25l-0.35-1.1h-2.38l-0.34,1.1h-1.11l1.84-5.75h1.57l1.86,5.75
			H122.05z M131.16,81.98v1.27h-1.05V82.2c0-0.59-0.28-0.89-0.84-0.89h-1.51v1.94h-1.05V77.5h2.72c0.68,0,1.14,0.12,1.4,0.37
			c0.26,0.24,0.38,0.69,0.38,1.33c0,0.58-0.06,0.98-0.19,1.19c-0.13,0.21-0.39,0.36-0.79,0.44v0.04
			C130.86,80.91,131.16,81.28,131.16,81.98z M146.05,83.25h-3.63V77.5h1.05v4.77h2.59V83.25z M153.38,83.25l-0.35-1.1h-2.38
			l-0.34,1.1h-1.11l1.84-5.75h1.57l1.86,5.75H153.38z M171.75,83.25h-1.05v-3.13c0-0.25,0.01-0.53,0.02-0.85l0.02-0.43l0.02-0.43
			h-0.03l-0.13,0.4l-0.12,0.4c-0.11,0.36-0.2,0.63-0.26,0.8l-1.21,3.24h-0.95l-1.23-3.22c-0.07-0.18-0.16-0.44-0.27-0.8l-0.13-0.4
			l-0.12-0.4h-0.03l0.02,0.42l0.02,0.42c0.02,0.33,0.02,0.6,0.02,0.84v3.13h-1.05V77.5H167l0.99,2.66c0.07,0.19,0.16,0.45,0.27,0.8
			l0.12,0.4l0.13,0.4h0.04l0.12-0.4l0.12-0.4c0.1-0.33,0.19-0.6,0.26-0.79l0.97-2.67h1.74V83.25z M179.52,83.25h-3.8V77.5h3.78v0.92
			h-2.73v1.48h2.59v0.8h-2.59v1.62h2.75V83.25z M187.85,81.98v1.27h-1.05V82.2c0-0.59-0.28-0.89-0.84-0.89h-1.51v1.94h-1.05V77.5
			h2.72c0.68,0,1.14,0.12,1.4,0.37c0.26,0.24,0.38,0.69,0.38,1.33c0,0.58-0.06,0.98-0.19,1.19c-0.13,0.21-0.39,0.36-0.79,0.44v0.04
			C187.54,80.91,187.85,81.28,187.85,81.98z M196.31,81.4c0,0.8-0.14,1.32-0.42,1.55c-0.28,0.23-0.9,0.35-1.86,0.35
			c-1.09,0-1.76-0.19-2.01-0.56c-0.25-0.37-0.38-1.36-0.38-2.97c0-0.95,0.17-1.57,0.51-1.87c0.34-0.3,1.05-0.45,2.13-0.45
			c0.79,0,1.31,0.12,1.58,0.37c0.26,0.25,0.4,0.73,0.4,1.46l0,0.13h-1.05v-0.15c0-0.37-0.07-0.62-0.2-0.72
			c-0.14-0.1-0.45-0.16-0.93-0.16c-0.65,0-1.04,0.08-1.17,0.25c-0.13,0.17-0.2,0.66-0.2,1.47c0,1.1,0.06,1.75,0.18,1.95
			c0.12,0.2,0.5,0.3,1.14,0.3c0.52,0,0.86-0.06,1.01-0.17c0.15-0.11,0.23-0.36,0.23-0.74l-0.01-0.26h1.05V81.4z M203.77,83.25h-3.8
			V77.5h3.78v0.92h-2.73v1.48h2.59v0.8h-2.59v1.62h2.75V83.25z M212.08,82.64c-0.25,0.41-0.81,0.61-1.68,0.61h-2.75V77.5h2.71
			c0.77,0,1.31,0.18,1.62,0.53c0.31,0.35,0.46,0.97,0.46,1.84C212.45,81.31,212.33,82.23,212.08,82.64z"/>
		<path class="st0" d="M186.03,78.42h-1.58v1.97h1.5c0.36,0,0.6-0.07,0.71-0.2s0.18-0.4,0.18-0.8c0-0.41-0.05-0.67-0.15-0.79
			C186.59,78.48,186.37,78.42,186.03,78.42z"/>
	</g>
	<path class="st2" d="M107.75,52.91c0.28-0.11,0.47-0.32,0.56-0.62c0.06-0.21,0.1-0.52,0.1-0.95c0-0.34-0.03-0.61-0.08-0.8
		c-0.1-0.33-0.28-0.57-0.56-0.72c-0.26-0.15-0.66-0.22-1.2-0.22h-2.77v5.88h1.08v-1.96h1.52c0.28-0.01,0.5,0.05,0.64,0.19
		c0.14,0.14,0.21,0.38,0.21,0.71v1.06h1.1v-1.28c0.01-0.72-0.31-1.1-0.96-1.14V53C107.55,52.97,107.67,52.94,107.75,52.91z"/>
	<path class="st2" d="M80.63,53.66c0,0.34-0.06,0.58-0.19,0.69c-0.15,0.13-0.51,0.2-1.09,0.2c-0.5,0-0.83-0.06-0.98-0.17
		c-0.12-0.09-0.21-0.25-0.25-0.46c-0.05-0.24-0.07-0.79-0.07-1.66c0-0.51,0.01-0.86,0.03-1.04c0.05-0.37,0.23-0.59,0.55-0.65
		c0.2-0.04,0.48-0.06,0.86-0.06c0.44,0,0.73,0.05,0.86,0.14c0.14,0.11,0.22,0.36,0.23,0.75c0,0.02,0,0.07,0,0.15h1.07
		c-0.01-0.35-0.02-0.59-0.04-0.72c-0.07-0.62-0.35-1.01-0.84-1.17c-0.22-0.07-0.59-0.11-1.11-0.11c-0.45,0-0.77,0.01-0.96,0.02
		c-0.42,0.03-0.76,0.13-1.02,0.29c-0.34,0.21-0.55,0.5-0.65,0.88c-0.08,0.31-0.12,0.75-0.12,1.33c0,0.96,0.03,1.63,0.08,2.02
		c0.06,0.46,0.24,0.81,0.54,1.05c0.18,0.15,0.39,0.25,0.62,0.31c0.23,0.05,0.59,0.08,1.07,0.08c0.65,0,1.08-0.02,1.29-0.06
		c0.49-0.09,0.83-0.32,1.01-0.7c0.11-0.22,0.16-0.62,0.16-1.19c0-0.03,0-0.1,0-0.2h-1.07C80.63,53.5,80.63,53.6,80.63,53.66z"/>
	<path class="st2" d="M97.48,49.75c-0.2-0.09-0.46-0.14-0.79-0.15c-0.11,0-0.33,0-0.65,0h-2.29v5.88h1.08v-1.9h1.26
		c0.61-0.01,0.97-0.03,1.07-0.05c0.41-0.08,0.71-0.29,0.89-0.64c0.14-0.28,0.21-0.72,0.21-1.32c0-0.64-0.1-1.1-0.3-1.4
		C97.85,49.98,97.68,49.84,97.48,49.75z"/>
	<path class="st2" d="M86.32,49.74c-0.29-0.13-0.78-0.2-1.46-0.2c-0.32,0-0.59,0.01-0.81,0.03c-0.35,0.02-0.64,0.09-0.86,0.2
		c-0.26,0.12-0.46,0.29-0.6,0.51c-0.14,0.21-0.23,0.5-0.29,0.86c-0.04,0.26-0.06,0.8-0.06,1.59c0,0.31,0,0.57,0.01,0.79
		c0.01,0.34,0.06,0.64,0.14,0.9c0.12,0.38,0.35,0.66,0.67,0.84c0.17,0.1,0.38,0.17,0.62,0.21c0.24,0.04,0.57,0.06,0.99,0.06
		c0.29,0,0.56-0.01,0.79-0.03c0.37-0.03,0.68-0.1,0.92-0.22c0.25-0.12,0.43-0.29,0.57-0.5c0.13-0.22,0.22-0.5,0.27-0.86
		c0.04-0.24,0.05-0.72,0.05-1.45c0-0.69-0.02-1.16-0.06-1.39C87.11,50.41,86.81,49.96,86.32,49.74z"/>
	<path class="st2" d="M91.94,49.74c-0.29-0.13-0.77-0.2-1.46-0.2c-0.32,0-0.59,0.01-0.81,0.03c-0.35,0.02-0.64,0.09-0.86,0.2
		c-0.26,0.12-0.46,0.29-0.6,0.51c-0.14,0.21-0.23,0.5-0.29,0.86c-0.04,0.26-0.06,0.8-0.06,1.59c0,0.31,0,0.57,0.01,0.79
		c0.01,0.34,0.06,0.64,0.14,0.9c0.12,0.38,0.35,0.66,0.67,0.84c0.17,0.1,0.38,0.17,0.62,0.21c0.24,0.04,0.57,0.06,0.99,0.06
		c0.29,0,0.56-0.01,0.79-0.03c0.38-0.03,0.68-0.1,0.92-0.22c0.25-0.12,0.43-0.29,0.57-0.5c0.13-0.22,0.22-0.5,0.27-0.86
		c0.04-0.24,0.05-0.72,0.05-1.45c0-0.69-0.02-1.16-0.06-1.39C92.74,50.41,92.44,49.96,91.94,49.74z"/>
	<polygon class="st2" points="110.77,49.59 108.89,55.47 110.02,55.47 110.37,54.34 112.81,54.34 113.17,55.47 114.28,55.47 
		112.38,49.59 	"/>
	<path class="st2" d="M124.76,49.59l-1.05,3.33c-0.11,0.34-0.26,0.88-0.45,1.6h-0.03c-0.2-0.77-0.35-1.3-0.44-1.6l-1.06-3.33h-1.11
		l1.8,5.88h1.65l1.82-5.88H124.76z"/>
	<rect x="118.93" y="49.59" class="st2" width="1.08" height="5.88"/>
	<polygon class="st2" points="113.86,50.58 115.49,50.58 115.49,55.47 116.57,55.47 116.57,50.59 118.25,50.59 118.25,49.59 
		113.86,49.59 	"/>
	<rect x="126.84" y="15.18" class="st2" width="8.61" height="24.21"/>
	<polygon class="st2" points="211.49,36.82 198.33,36.82 212.55,17.56 212.55,15.18 190.85,15.18 190.85,17.81 202.88,17.81 
		188.83,36.82 188.83,39.39 211.49,39.39 	"/>
	<polygon class="st2" points="218.79,34.14 227.7,34.14 229.45,39.39 238.08,39.39 229.84,15.18 222.3,15.18 213.54,39.39 
		216.9,39.39 	"/>
	<polygon class="st2" points="167.37,24.07 179.64,39.39 186.21,39.39 186.21,15.18 183.31,15.18 183.31,31.73 169.91,15.18 
		164.4,15.18 164.4,39.39 167.37,39.39 	"/>
	<polygon class="st2" points="82.15,34.14 91.06,34.14 92.82,39.39 101.44,39.39 93.21,15.18 85.66,15.18 76.91,39.39 80.26,39.39 	
		"/>
	<polygon class="st2" points="124.51,36.93 112.28,36.93 112.28,15.18 103.76,15.18 103.76,39.39 124.51,39.39 	"/>
	<path class="st2" d="M39.29,6.05c-0.02,0-0.04,0-0.06,0c-1.29,0-2.58,0-3.87,0c-13.83,0-25.05,11.67-25.05,26.07
		c0,14.4,11.21,26.07,25.05,26.07c1.31,0,2.62,0,3.93,0c13.83,0,25.05-11.67,25.05-26.07C64.34,17.72,53.12,6.05,39.29,6.05z"/>
	<polygon class="st2" points="127.31,49.59 125.43,55.47 126.56,55.47 126.92,54.34 129.35,54.34 129.71,55.47 130.82,55.47 
		128.92,49.59 	"/>
	<polygon class="st2" points="142.97,34.14 151.88,34.14 153.63,39.39 162.26,39.39 154.02,15.18 146.48,15.18 137.72,39.39 
		141.08,39.39 	"/>
	<polygon class="st2" points="100.07,52.87 102.7,52.87 102.7,52.05 100.07,52.05 100.07,50.53 102.85,50.53 102.85,49.59 
		98.98,49.59 98.98,55.47 102.87,55.47 102.87,54.53 100.07,54.53 	"/>
	<path class="st2" d="M134.78,52.14c-0.19-0.04-0.53-0.07-1.01-0.1c-0.45-0.03-0.72-0.04-0.81-0.06c-0.29-0.03-0.47-0.11-0.54-0.25
		c-0.07-0.12-0.1-0.29-0.1-0.52c0-0.33,0.08-0.54,0.24-0.64c0.09-0.05,0.2-0.09,0.34-0.11c0.14-0.02,0.37-0.03,0.67-0.03
		c0.24,0,0.42,0.01,0.53,0.03c0.19,0.03,0.32,0.11,0.38,0.22c0.07,0.11,0.1,0.31,0.1,0.62h1.05c0-0.09,0-0.15,0-0.2
		c0-0.31-0.04-0.57-0.11-0.76c-0.13-0.36-0.41-0.6-0.82-0.71c-0.24-0.06-0.64-0.09-1.2-0.09c-0.34,0-0.65,0.01-0.93,0.04
		c-0.37,0.03-0.67,0.13-0.9,0.31c-0.3,0.23-0.45,0.68-0.45,1.35c0,0.5,0.07,0.87,0.22,1.1c0.18,0.27,0.49,0.45,0.93,0.52
		c0.14,0.03,0.45,0.05,0.93,0.08c0.63,0.04,0.99,0.08,1.08,0.11c0.21,0.08,0.31,0.3,0.31,0.65c0,0.34-0.05,0.57-0.14,0.68
		c-0.07,0.09-0.18,0.14-0.31,0.18c-0.13,0.03-0.34,0.05-0.64,0.05c-0.41,0-0.67,0-0.76-0.01c-0.23-0.02-0.39-0.1-0.47-0.23
		c-0.05-0.08-0.09-0.17-0.1-0.27c-0.02-0.1-0.03-0.26-0.03-0.49h-1.04c0.01,0.51,0.04,0.87,0.11,1.07c0.12,0.36,0.37,0.6,0.74,0.71
		c0.26,0.08,0.74,0.12,1.44,0.12c0.37,0,0.69-0.01,0.97-0.04c0.41-0.04,0.72-0.17,0.95-0.4c0.12-0.13,0.21-0.3,0.26-0.51
		c0.06-0.21,0.08-0.5,0.08-0.87c0-0.44-0.05-0.76-0.15-0.97C135.48,52.43,135.19,52.23,134.78,52.14z"/>
	<path class="st2" d="M214.25,52.14c-0.19-0.04-0.53-0.07-1.01-0.1c-0.45-0.03-0.72-0.04-0.81-0.06c-0.29-0.03-0.47-0.11-0.54-0.25
		c-0.07-0.12-0.1-0.29-0.1-0.52c0-0.33,0.08-0.54,0.24-0.64c0.09-0.05,0.2-0.09,0.34-0.11c0.14-0.02,0.37-0.03,0.67-0.03
		c0.24,0,0.42,0.01,0.53,0.03c0.19,0.03,0.32,0.11,0.38,0.22c0.07,0.11,0.1,0.31,0.1,0.62h1.05c0-0.09,0-0.15,0-0.2
		c0-0.31-0.04-0.57-0.11-0.76c-0.13-0.36-0.41-0.6-0.82-0.71c-0.24-0.06-0.64-0.09-1.2-0.09c-0.34,0-0.65,0.01-0.93,0.04
		c-0.37,0.03-0.67,0.13-0.9,0.31c-0.3,0.23-0.45,0.68-0.45,1.35c0,0.5,0.07,0.87,0.22,1.1c0.18,0.27,0.49,0.45,0.93,0.52
		c0.14,0.03,0.45,0.05,0.93,0.08c0.63,0.04,0.99,0.08,1.08,0.11c0.21,0.08,0.31,0.3,0.31,0.65c0,0.34-0.05,0.57-0.14,0.68
		c-0.07,0.09-0.18,0.14-0.31,0.18c-0.13,0.03-0.34,0.05-0.64,0.05c-0.41,0-0.67,0-0.76-0.01c-0.23-0.02-0.39-0.1-0.47-0.23
		c-0.05-0.08-0.09-0.17-0.1-0.27c-0.02-0.1-0.03-0.26-0.03-0.49h-1.04c0.01,0.51,0.04,0.87,0.11,1.07c0.12,0.36,0.37,0.6,0.74,0.71
		c0.26,0.08,0.74,0.12,1.44,0.12c0.37,0,0.69-0.01,0.97-0.04c0.41-0.04,0.72-0.17,0.95-0.4c0.12-0.13,0.21-0.3,0.26-0.51
		c0.06-0.21,0.08-0.5,0.08-0.87c0-0.44-0.05-0.76-0.15-0.97C214.95,52.43,214.67,52.23,214.25,52.14z"/>
	<polygon class="st2" points="220.04,49.59 215.65,49.59 215.65,50.58 217.28,50.58 217.28,55.47 218.36,55.47 218.36,50.59 
		220.04,50.59 	"/>
	<path class="st2" d="M199.01,49.75c-0.2-0.09-0.46-0.14-0.79-0.15c-0.11,0-0.33,0-0.65,0h-2.29v5.88h1.08v-1.9h1.26
		c0.61-0.01,0.97-0.03,1.07-0.05c0.41-0.08,0.71-0.29,0.89-0.64c0.14-0.28,0.21-0.72,0.21-1.32c0-0.64-0.1-1.1-0.3-1.4
		C199.37,49.98,199.21,49.84,199.01,49.75z"/>
	<path class="st2" d="M204.57,52.91c0.28-0.11,0.47-0.32,0.56-0.62c0.06-0.21,0.1-0.52,0.1-0.95c0-0.34-0.03-0.61-0.08-0.8
		c-0.1-0.33-0.28-0.57-0.56-0.72c-0.26-0.15-0.66-0.22-1.2-0.22h-2.77v5.88h1.08v-1.96h1.52c0.28-0.01,0.5,0.05,0.64,0.19
		c0.14,0.14,0.21,0.38,0.21,0.71v1.06h1.1v-1.28c0.01-0.72-0.31-1.1-0.96-1.14V53C204.37,52.97,204.49,52.94,204.57,52.91z"/>
	<path class="st2" d="M229.48,52.32c-0.09,0.23-0.22,0.64-0.39,1.21l-0.12,0.4h-0.04l-0.13-0.4c-0.18-0.59-0.32-1-0.4-1.22
		l-1.01-2.72h-1.75v5.88h1.07v-3.2c0-0.28-0.02-0.71-0.05-1.29l-0.02-0.43h0.03l0.13,0.4c0.19,0.61,0.32,1.02,0.4,1.22l1.25,3.29
		h0.98l1.24-3.31c0.07-0.2,0.2-0.61,0.39-1.22l0.13-0.41h0.03l-0.02,0.43c-0.03,0.57-0.04,1-0.04,1.31v3.2h1.07v-5.88h-1.78
		L229.48,52.32z"/>
	<path class="st2" d="M237.19,49.74c-0.29-0.13-0.77-0.2-1.46-0.2c-0.32,0-0.59,0.01-0.81,0.03c-0.35,0.02-0.64,0.09-0.86,0.2
		c-0.26,0.12-0.46,0.29-0.6,0.51c-0.14,0.21-0.23,0.5-0.29,0.86c-0.04,0.26-0.06,0.8-0.06,1.59c0,0.31,0,0.57,0.01,0.79
		c0.01,0.34,0.06,0.64,0.14,0.9c0.12,0.38,0.35,0.66,0.67,0.84c0.17,0.1,0.38,0.17,0.62,0.21c0.24,0.04,0.57,0.06,0.99,0.06
		c0.29,0,0.56-0.01,0.79-0.03c0.38-0.03,0.68-0.1,0.92-0.22c0.25-0.12,0.43-0.29,0.57-0.5c0.13-0.22,0.22-0.5,0.27-0.86
		c0.04-0.24,0.05-0.72,0.05-1.45c0-0.69-0.02-1.16-0.06-1.39C237.99,50.41,237.69,49.96,237.19,49.74z"/>
	<path class="st2" d="M190.31,51.14c-0.07,0.12-0.19,0.36-0.37,0.71l-0.12,0.24h-0.03l-0.12-0.24c-0.18-0.37-0.3-0.61-0.36-0.71
		l-0.85-1.55h-1.24l2.04,3.63v2.24h1.08v-2.24l2.09-3.63h-1.26L190.31,51.14z"/>
	<polygon class="st2" points="221.52,49.59 219.64,55.47 220.77,55.47 221.12,54.34 223.56,54.34 223.92,55.47 225.03,55.47 
		223.13,49.59 	"/>
	<polygon class="st2" points="207.18,52.87 209.82,52.87 209.82,52.05 207.18,52.05 207.18,50.53 209.96,50.53 209.96,49.59 
		206.1,49.59 206.1,55.47 209.99,55.47 209.99,54.53 207.18,54.53 	"/>
	<polygon class="st2" points="160.91,51.99 158.29,51.99 158.29,49.59 157.21,49.59 157.21,55.47 158.29,55.47 158.29,52.96 
		160.91,52.96 160.91,55.47 162,55.47 162,49.59 160.91,49.59 	"/>
	<polygon class="st2" points="145.71,52.87 148.34,52.87 148.34,52.05 145.71,52.05 145.71,50.53 148.49,50.53 148.49,49.59 
		144.63,49.59 144.63,55.47 148.51,55.47 148.51,54.53 145.71,54.53 	"/>
	<path class="st2" d="M183.67,49.74c-0.29-0.13-0.78-0.2-1.46-0.2c-0.32,0-0.59,0.01-0.81,0.03c-0.35,0.02-0.64,0.09-0.86,0.2
		c-0.26,0.12-0.46,0.29-0.6,0.51c-0.14,0.21-0.23,0.5-0.29,0.86c-0.04,0.26-0.06,0.8-0.06,1.59c0,0.31,0,0.57,0.01,0.79
		c0.01,0.34,0.06,0.64,0.14,0.9c0.12,0.38,0.35,0.66,0.67,0.84c0.17,0.1,0.38,0.17,0.62,0.21c0.24,0.04,0.57,0.06,0.99,0.06
		c0.29,0,0.56-0.01,0.79-0.03c0.38-0.03,0.68-0.1,0.92-0.22c0.25-0.12,0.43-0.29,0.57-0.5c0.13-0.22,0.22-0.5,0.27-0.86
		c0.04-0.24,0.05-0.72,0.05-1.45c0-0.69-0.02-1.16-0.06-1.39C184.47,50.41,184.16,49.96,183.67,49.74z"/>
	<path class="st2" d="M166.93,49.74c-0.29-0.13-0.78-0.2-1.46-0.2c-0.32,0-0.59,0.01-0.82,0.03c-0.35,0.02-0.64,0.09-0.86,0.2
		c-0.26,0.12-0.46,0.29-0.6,0.51c-0.14,0.21-0.23,0.5-0.29,0.86c-0.04,0.26-0.06,0.8-0.06,1.59c0,0.31,0,0.57,0.01,0.79
		c0.01,0.34,0.06,0.64,0.14,0.9c0.12,0.38,0.35,0.66,0.67,0.84c0.17,0.1,0.38,0.17,0.62,0.21c0.24,0.04,0.57,0.06,0.99,0.06
		c0.3,0,0.56-0.01,0.79-0.03c0.38-0.03,0.68-0.1,0.92-0.22c0.25-0.12,0.43-0.29,0.57-0.5c0.13-0.22,0.22-0.5,0.27-0.86
		c0.04-0.24,0.05-0.72,0.05-1.45c0-0.69-0.02-1.16-0.06-1.39C167.73,50.41,167.42,49.96,166.93,49.74z"/>
	<polygon class="st2" points="153.07,49.59 151.19,55.47 152.32,55.47 152.67,54.34 155.11,54.34 155.47,55.47 156.58,55.47 
		154.68,49.59 	"/>
	<path class="st2" d="M143.28,50.1c-0.16-0.17-0.37-0.3-0.63-0.38c-0.26-0.08-0.58-0.12-0.96-0.12h-2.79v5.88h2.82
		c0.52,0,0.92-0.08,1.22-0.24c0.26-0.14,0.46-0.34,0.59-0.61c0.14-0.26,0.22-0.61,0.25-1.05c0.02-0.28,0.03-0.78,0.03-1.52
		c0-0.25-0.01-0.45-0.02-0.59C143.75,50.87,143.58,50.41,143.28,50.1z"/>
	<path class="st2" d="M178.3,52.91c0.28-0.11,0.47-0.32,0.56-0.62c0.06-0.21,0.1-0.52,0.1-0.95c0-0.34-0.03-0.61-0.08-0.8
		c-0.1-0.33-0.28-0.57-0.56-0.72c-0.26-0.15-0.65-0.22-1.2-0.22h-2.77v5.88h1.08v-1.96h1.52c0.28-0.01,0.5,0.05,0.64,0.19
		c0.14,0.14,0.21,0.38,0.21,0.71v1.06h1.1v-1.28c0.01-0.72-0.31-1.1-0.96-1.14V53C178.09,52.97,178.21,52.94,178.3,52.91z"/>
	<path class="st2" d="M172.7,52.91c0.28-0.11,0.47-0.32,0.56-0.62c0.06-0.21,0.1-0.52,0.1-0.95c0-0.34-0.03-0.61-0.08-0.8
		c-0.1-0.33-0.28-0.57-0.56-0.72c-0.26-0.15-0.66-0.22-1.2-0.22h-2.77v5.88h1.08v-1.96h1.52c0.28-0.01,0.5,0.05,0.64,0.19
		c0.14,0.14,0.21,0.38,0.21,0.71v1.06h1.1v-1.28c0.01-0.72-0.31-1.1-0.96-1.14V53C172.5,52.97,172.62,52.94,172.7,52.91z"/>
	<path class="st0" d="M233.03,0.08L0.4,0.08v51.88c0,9.55,7.45,17.29,16.62,17.29h232.62V17.37C249.63,7.82,242.21,0.08,233.03,0.08
		z M222.3,15.18h7.54l8.24,24.21h-8.63l-1.76-5.25h-8.91l-1.89,5.25h-3.36L222.3,15.18z M238.13,43.01v2.47H76.96v-2.47H238.13z
		 M188.83,36.82l14.05-19.01h-12.03v-2.63h21.7v2.38l-14.22,19.26h13.16v2.57h-22.65V36.82z M164.4,15.18h5.51l13.4,16.55V15.18h2.9
		v24.21h-6.57l-12.27-15.32v15.32h-2.97V15.18z M146.48,15.18h7.54l8.24,24.21h-8.63l-1.76-5.25h-8.91l-1.89,5.25h-3.36
		L146.48,15.18z M126.84,15.18h8.61v24.21h-8.61V15.18z M103.76,15.18h8.52v21.74h12.23v2.47h-20.74V15.18z M39.29,58.19
		c-1.31,0-2.62,0-3.93,0c-13.83,0-25.05-11.67-25.05-26.07c0-14.4,11.21-26.07,25.05-26.07c1.29,0,2.58,0,3.87,0
		c0.02,0,0.04,0,0.06,0c13.83,0,25.05,11.67,25.05,26.07C64.34,46.52,53.12,58.19,39.29,58.19z M85.66,15.18h7.54l8.24,24.21h-8.63
		l-1.76-5.25h-8.91l-1.89,5.25h-3.36L85.66,15.18z M81.69,53.57c0,0.58-0.05,0.97-0.16,1.19c-0.19,0.38-0.53,0.62-1.01,0.7
		c-0.21,0.04-0.64,0.06-1.29,0.06c-0.48,0-0.84-0.03-1.07-0.08c-0.23-0.05-0.43-0.15-0.62-0.31c-0.3-0.24-0.47-0.59-0.54-1.05
		c-0.06-0.39-0.08-1.06-0.08-2.02c0-0.58,0.04-1.02,0.12-1.33c0.09-0.38,0.31-0.67,0.65-0.88c0.25-0.16,0.59-0.25,1.02-0.29
		c0.19-0.01,0.51-0.02,0.96-0.02c0.52,0,0.89,0.04,1.11,0.11c0.49,0.16,0.76,0.55,0.84,1.17c0.02,0.13,0.03,0.37,0.04,0.72h-1.07
		c0-0.08,0-0.13,0-0.15c-0.01-0.39-0.08-0.64-0.23-0.75c-0.13-0.09-0.42-0.14-0.86-0.14c-0.38,0-0.66,0.02-0.86,0.06
		c-0.32,0.06-0.5,0.28-0.55,0.65c-0.02,0.18-0.03,0.53-0.03,1.04c0,0.87,0.02,1.42,0.07,1.66c0.04,0.21,0.12,0.37,0.25,0.46
		c0.15,0.11,0.48,0.17,0.98,0.17c0.58,0,0.95-0.07,1.09-0.2c0.13-0.12,0.19-0.35,0.19-0.69c0-0.07,0-0.16,0-0.29h1.07
		C81.69,53.47,81.69,53.54,81.69,53.57z M87.23,53.92c-0.05,0.36-0.14,0.65-0.27,0.86c-0.13,0.21-0.32,0.38-0.57,0.5
		c-0.24,0.12-0.55,0.19-0.92,0.22c-0.23,0.02-0.49,0.03-0.79,0.03c-0.42,0-0.75-0.02-0.99-0.06c-0.24-0.04-0.45-0.11-0.62-0.21
		c-0.33-0.18-0.55-0.46-0.67-0.84c-0.08-0.25-0.13-0.55-0.14-0.9c-0.01-0.22-0.01-0.48-0.01-0.79c0-0.8,0.02-1.33,0.06-1.59
		c0.05-0.36,0.15-0.64,0.29-0.86c0.14-0.22,0.34-0.38,0.6-0.51c0.23-0.11,0.51-0.18,0.86-0.2c0.23-0.02,0.5-0.03,0.81-0.03
		c0.68,0,1.17,0.07,1.46,0.2c0.5,0.22,0.8,0.67,0.91,1.34c0.04,0.23,0.06,0.7,0.06,1.39C87.28,53.2,87.26,53.68,87.23,53.92z
		 M92.85,53.92c-0.05,0.36-0.14,0.65-0.27,0.86c-0.13,0.21-0.32,0.38-0.57,0.5c-0.24,0.12-0.55,0.19-0.92,0.22
		c-0.23,0.02-0.49,0.03-0.79,0.03c-0.42,0-0.75-0.02-0.99-0.06c-0.24-0.04-0.45-0.11-0.62-0.21c-0.33-0.18-0.55-0.46-0.67-0.84
		c-0.08-0.25-0.13-0.55-0.14-0.9c-0.01-0.22-0.01-0.48-0.01-0.79c0-0.8,0.02-1.33,0.06-1.59c0.05-0.36,0.15-0.64,0.29-0.86
		c0.14-0.22,0.34-0.38,0.6-0.51c0.23-0.11,0.51-0.18,0.86-0.2c0.23-0.02,0.5-0.03,0.81-0.03c0.68,0,1.17,0.07,1.46,0.2
		c0.5,0.22,0.8,0.67,0.91,1.34c0.04,0.23,0.06,0.7,0.06,1.39C92.91,53.2,92.89,53.68,92.85,53.92z M98.07,52.89
		c-0.18,0.34-0.48,0.56-0.89,0.64c-0.1,0.02-0.46,0.03-1.07,0.05h-1.26v1.9h-1.08v-5.88h2.29c0.32,0,0.53,0,0.65,0
		c0.33,0.01,0.59,0.06,0.79,0.15c0.2,0.09,0.37,0.23,0.5,0.42c0.2,0.29,0.3,0.76,0.3,1.4C98.28,52.17,98.21,52.61,98.07,52.89z
		 M102.87,55.47h-3.89v-5.88h3.86v0.94h-2.78v1.52h2.63v0.83h-2.63v1.66h2.8V55.47z M108.35,54.19v1.28h-1.1v-1.06
		c0-0.33-0.07-0.57-0.21-0.71c-0.15-0.13-0.36-0.2-0.64-0.19h-1.52v1.96h-1.08v-5.88h2.77c0.54,0,0.94,0.07,1.2,0.22
		c0.28,0.16,0.46,0.4,0.56,0.72c0.05,0.2,0.08,0.46,0.08,0.8c0,0.43-0.03,0.74-0.1,0.95c-0.09,0.3-0.28,0.51-0.56,0.62
		c-0.09,0.03-0.21,0.06-0.37,0.09v0.04C108.04,53.09,108.36,53.47,108.35,54.19z M113.17,55.47l-0.36-1.13h-2.44l-0.35,1.13h-1.13
		l1.88-5.88h1.61l1.91,5.88H113.17z M118.25,50.59h-1.68v4.88h-1.08v-4.89h-1.63v-0.99h4.39V50.59z M120.01,55.47h-1.08v-5.88h1.08
		V55.47z M122.43,55.47l-1.8-5.88h1.11l1.06,3.33c0.1,0.3,0.24,0.83,0.44,1.6h0.03c0.19-0.72,0.34-1.25,0.45-1.6l1.05-3.33h1.13
		l-1.82,5.88H122.43z M129.71,55.47l-0.36-1.13h-2.44l-0.35,1.13h-1.13l1.88-5.88h1.61l1.91,5.88H129.71z M135.69,54.57
		c-0.05,0.21-0.14,0.38-0.26,0.51c-0.22,0.23-0.54,0.36-0.95,0.4c-0.27,0.03-0.6,0.04-0.97,0.04c-0.7,0-1.18-0.04-1.44-0.12
		c-0.37-0.12-0.62-0.36-0.74-0.71c-0.07-0.2-0.11-0.56-0.11-1.07h1.04c0,0.23,0.01,0.4,0.03,0.49c0.02,0.09,0.05,0.18,0.1,0.27
		c0.08,0.13,0.24,0.21,0.47,0.23c0.09,0.01,0.35,0.01,0.76,0.01c0.29,0,0.51-0.02,0.64-0.05c0.13-0.03,0.24-0.09,0.31-0.18
		c0.09-0.11,0.14-0.33,0.14-0.68c0-0.36-0.1-0.58-0.31-0.65c-0.09-0.03-0.45-0.07-1.08-0.11c-0.47-0.03-0.78-0.06-0.93-0.08
		c-0.44-0.07-0.75-0.25-0.93-0.52c-0.15-0.24-0.22-0.6-0.22-1.1c0-0.67,0.15-1.13,0.45-1.35c0.23-0.18,0.53-0.28,0.9-0.31
		c0.28-0.03,0.59-0.04,0.93-0.04c0.56,0,0.96,0.03,1.2,0.09c0.41,0.11,0.69,0.35,0.82,0.71c0.07,0.2,0.11,0.45,0.11,0.76
		c0,0.05,0,0.11,0,0.2h-1.05c0-0.31-0.04-0.52-0.1-0.62c-0.07-0.11-0.2-0.19-0.38-0.22c-0.12-0.02-0.29-0.03-0.53-0.03
		c-0.3,0-0.53,0.01-0.67,0.03c-0.14,0.02-0.26,0.06-0.34,0.11c-0.16,0.1-0.24,0.31-0.24,0.64c0,0.23,0.03,0.41,0.1,0.52
		c0.07,0.13,0.26,0.22,0.54,0.25c0.09,0.01,0.36,0.03,0.81,0.06c0.49,0.03,0.83,0.06,1.01,0.1c0.41,0.09,0.69,0.29,0.84,0.59
		c0.1,0.2,0.15,0.53,0.15,0.97C135.77,54.07,135.75,54.36,135.69,54.57z M143.79,53.58c-0.03,0.43-0.11,0.78-0.25,1.05
		c-0.14,0.26-0.33,0.47-0.59,0.61c-0.3,0.16-0.71,0.24-1.22,0.24h-2.82v-5.88h2.79c0.39,0,0.71,0.04,0.96,0.12
		c0.26,0.08,0.47,0.21,0.63,0.38c0.3,0.32,0.47,0.77,0.52,1.36c0.01,0.14,0.02,0.34,0.02,0.59
		C143.82,52.79,143.81,53.3,143.79,53.58z M148.51,55.47h-3.89v-5.88h3.86v0.94h-2.78v1.52h2.63v0.83h-2.63v1.66h2.8V55.47z
		 M155.47,55.47l-0.36-1.13h-2.44l-0.35,1.13h-1.13l1.88-5.88h1.61l1.91,5.88H155.47z M162,55.47h-1.08v-2.51h-2.62v2.51h-1.08
		v-5.88h1.08v2.4h2.62v-2.4H162V55.47z M167.84,53.92c-0.05,0.36-0.14,0.65-0.27,0.86c-0.13,0.21-0.32,0.38-0.57,0.5
		c-0.24,0.12-0.55,0.19-0.92,0.22c-0.23,0.02-0.49,0.03-0.79,0.03c-0.42,0-0.75-0.02-0.99-0.06c-0.24-0.04-0.45-0.11-0.62-0.21
		c-0.33-0.18-0.55-0.46-0.67-0.84c-0.08-0.25-0.13-0.55-0.14-0.9c-0.01-0.22-0.01-0.48-0.01-0.79c0-0.8,0.02-1.33,0.06-1.59
		c0.05-0.36,0.15-0.64,0.29-0.86c0.14-0.22,0.34-0.38,0.6-0.51c0.23-0.11,0.51-0.18,0.86-0.2c0.23-0.02,0.5-0.03,0.82-0.03
		c0.68,0,1.17,0.07,1.46,0.2c0.5,0.22,0.8,0.67,0.91,1.34c0.04,0.23,0.06,0.7,0.06,1.39C167.89,53.2,167.87,53.68,167.84,53.92z
		 M173.3,54.19v1.28h-1.1v-1.06c0-0.33-0.07-0.57-0.21-0.71c-0.15-0.13-0.36-0.2-0.64-0.19h-1.52v1.96h-1.08v-5.88h2.77
		c0.54,0,0.94,0.07,1.2,0.22c0.28,0.16,0.46,0.4,0.56,0.72c0.06,0.2,0.08,0.46,0.08,0.8c0,0.43-0.03,0.74-0.1,0.95
		c-0.09,0.3-0.28,0.51-0.56,0.62c-0.09,0.03-0.21,0.06-0.37,0.09v0.04C172.99,53.09,173.31,53.47,173.3,54.19z M178.89,54.19v1.28
		h-1.1v-1.06c0-0.33-0.07-0.57-0.21-0.71c-0.15-0.13-0.36-0.2-0.64-0.19h-1.52v1.96h-1.08v-5.88h2.77c0.54,0,0.94,0.07,1.2,0.22
		c0.28,0.16,0.46,0.4,0.56,0.72c0.05,0.2,0.08,0.46,0.08,0.8c0,0.43-0.03,0.74-0.1,0.95c-0.09,0.3-0.28,0.51-0.56,0.62
		c-0.09,0.03-0.21,0.06-0.37,0.09v0.04C178.58,53.09,178.9,53.47,178.89,54.19z M184.58,53.92c-0.05,0.36-0.14,0.65-0.27,0.86
		c-0.13,0.21-0.32,0.38-0.57,0.5c-0.24,0.12-0.55,0.19-0.92,0.22c-0.23,0.02-0.49,0.03-0.79,0.03c-0.42,0-0.75-0.02-0.99-0.06
		c-0.24-0.04-0.45-0.11-0.62-0.21c-0.33-0.18-0.55-0.46-0.67-0.84c-0.08-0.25-0.13-0.55-0.14-0.9c-0.01-0.22-0.01-0.48-0.01-0.79
		c0-0.8,0.02-1.33,0.06-1.59c0.05-0.36,0.15-0.64,0.29-0.86c0.14-0.22,0.34-0.38,0.6-0.51c0.23-0.11,0.51-0.18,0.86-0.2
		c0.23-0.02,0.5-0.03,0.81-0.03c0.68,0,1.17,0.07,1.46,0.2c0.5,0.22,0.8,0.67,0.91,1.34c0.04,0.23,0.06,0.7,0.06,1.39
		C184.63,53.2,184.61,53.68,184.58,53.92z M190.34,53.23v2.24h-1.08v-2.24l-2.04-3.63h1.24l0.85,1.55c0.06,0.11,0.18,0.35,0.36,0.71
		l0.12,0.24h0.03l0.12-0.24c0.18-0.36,0.3-0.59,0.37-0.71l0.86-1.55h1.26L190.34,53.23z M199.59,52.89
		c-0.18,0.34-0.48,0.56-0.89,0.64c-0.1,0.02-0.46,0.03-1.07,0.05h-1.26v1.9h-1.08v-5.88h2.29c0.32,0,0.54,0,0.65,0
		c0.33,0.01,0.59,0.06,0.79,0.15c0.2,0.09,0.37,0.23,0.5,0.42c0.2,0.29,0.3,0.76,0.3,1.4C199.8,52.17,199.73,52.61,199.59,52.89z
		 M205.16,54.19v1.28h-1.1v-1.06c0-0.33-0.07-0.57-0.21-0.71c-0.15-0.13-0.36-0.2-0.64-0.19h-1.52v1.96h-1.08v-5.88h2.77
		c0.54,0,0.94,0.07,1.2,0.22c0.28,0.16,0.46,0.4,0.56,0.72c0.06,0.2,0.08,0.46,0.08,0.8c0,0.43-0.03,0.74-0.1,0.95
		c-0.09,0.3-0.28,0.51-0.56,0.62c-0.09,0.03-0.21,0.06-0.37,0.09v0.04C204.86,53.09,205.18,53.47,205.16,54.19z M209.99,55.47h-3.89
		v-5.88h3.86v0.94h-2.78v1.52h2.63v0.83h-2.63v1.66h2.8V55.47z M215.16,54.57c-0.05,0.21-0.14,0.38-0.26,0.51
		c-0.22,0.23-0.54,0.36-0.95,0.4c-0.27,0.03-0.6,0.04-0.97,0.04c-0.7,0-1.18-0.04-1.44-0.12c-0.37-0.12-0.62-0.36-0.74-0.71
		c-0.07-0.2-0.11-0.56-0.11-1.07h1.04c0,0.23,0.01,0.4,0.03,0.49c0.02,0.09,0.05,0.18,0.1,0.27c0.08,0.13,0.24,0.21,0.47,0.23
		c0.09,0.01,0.35,0.01,0.76,0.01c0.29,0,0.51-0.02,0.64-0.05c0.13-0.03,0.24-0.09,0.31-0.18c0.09-0.11,0.14-0.33,0.14-0.68
		c0-0.36-0.1-0.58-0.31-0.65c-0.09-0.03-0.45-0.07-1.08-0.11c-0.47-0.03-0.78-0.06-0.93-0.08c-0.44-0.07-0.75-0.25-0.93-0.52
		c-0.15-0.24-0.22-0.6-0.22-1.1c0-0.67,0.15-1.13,0.45-1.35c0.23-0.18,0.53-0.28,0.9-0.31c0.28-0.03,0.59-0.04,0.93-0.04
		c0.56,0,0.96,0.03,1.2,0.09c0.41,0.11,0.69,0.35,0.82,0.71c0.07,0.2,0.11,0.45,0.11,0.76c0,0.05,0,0.11,0,0.2h-1.05
		c0-0.31-0.04-0.52-0.1-0.62c-0.07-0.11-0.2-0.19-0.38-0.22c-0.12-0.02-0.29-0.03-0.53-0.03c-0.3,0-0.53,0.01-0.67,0.03
		c-0.14,0.02-0.25,0.06-0.34,0.11c-0.16,0.1-0.24,0.31-0.24,0.64c0,0.23,0.03,0.41,0.1,0.52c0.07,0.13,0.26,0.22,0.54,0.25
		c0.09,0.01,0.36,0.03,0.81,0.06c0.49,0.03,0.83,0.06,1.01,0.1c0.41,0.09,0.69,0.29,0.84,0.59c0.1,0.2,0.15,0.53,0.15,0.97
		C215.24,54.07,215.22,54.36,215.16,54.57z M218.36,55.47h-1.08v-4.89h-1.63v-0.99h4.39v0.99h-1.68V55.47z M223.92,55.47l-0.36-1.13
		h-2.44l-0.35,1.13h-1.13l1.88-5.88h1.61l1.91,5.88H223.92z M232.26,55.47h-1.07v-3.2c0-0.3,0.01-0.74,0.04-1.31l0.02-0.43h-0.03
		l-0.13,0.41c-0.19,0.61-0.32,1.02-0.39,1.22l-1.24,3.31h-0.98l-1.25-3.29c-0.08-0.21-0.21-0.61-0.4-1.22l-0.13-0.4h-0.03l0.02,0.43
		c0.03,0.57,0.05,1,0.05,1.29v3.2h-1.07v-5.88h1.75l1.01,2.72c0.08,0.22,0.21,0.63,0.4,1.22l0.13,0.4h0.04l0.12-0.4
		c0.17-0.58,0.3-0.98,0.39-1.21l0.99-2.73h1.78V55.47z M238.1,53.92c-0.05,0.36-0.14,0.65-0.27,0.86c-0.13,0.21-0.32,0.38-0.57,0.5
		c-0.24,0.12-0.55,0.19-0.92,0.22c-0.23,0.02-0.49,0.03-0.79,0.03c-0.42,0-0.75-0.02-0.99-0.06c-0.24-0.04-0.45-0.11-0.62-0.21
		c-0.33-0.18-0.55-0.46-0.67-0.84c-0.08-0.25-0.13-0.55-0.14-0.9c-0.01-0.22-0.01-0.48-0.01-0.79c0-0.8,0.02-1.33,0.06-1.59
		c0.05-0.36,0.15-0.64,0.29-0.86c0.14-0.22,0.34-0.38,0.6-0.51c0.23-0.11,0.51-0.18,0.86-0.2c0.23-0.02,0.5-0.03,0.81-0.03
		c0.68,0,1.17,0.07,1.46,0.2c0.5,0.22,0.8,0.67,0.91,1.34c0.04,0.23,0.06,0.7,0.06,1.39C238.15,53.2,238.14,53.68,238.1,53.92z"/>
	<path class="st2" d="M124.76,49.59l-1.05,3.33c-0.11,0.34-0.26,0.88-0.45,1.6h-0.03c-0.2-0.77-0.35-1.3-0.44-1.6l-1.06-3.33h-1.11
		l1.8,5.88h1.65l1.82-5.88H124.76z"/>
	<polygon class="st2" points="127.31,49.59 125.43,55.47 126.56,55.47 126.92,54.34 129.35,54.34 129.71,55.47 130.82,55.47 
		128.92,49.59 	"/>
	<rect x="118.93" y="49.59" class="st2" width="1.08" height="5.88"/>
	<polygon class="st2" points="113.86,50.58 115.49,50.58 115.49,55.47 116.57,55.47 116.57,50.59 118.25,50.59 118.25,49.59 
		113.86,49.59 	"/>
	<path class="st2" d="M143.28,50.1c-0.16-0.17-0.37-0.3-0.63-0.38c-0.26-0.08-0.58-0.12-0.96-0.12h-2.79v5.88h2.82
		c0.52,0,0.92-0.08,1.22-0.24c0.26-0.14,0.46-0.34,0.59-0.61c0.14-0.26,0.22-0.61,0.25-1.05c0.02-0.28,0.03-0.78,0.03-1.52
		c0-0.25-0.01-0.45-0.02-0.59C143.75,50.87,143.58,50.41,143.28,50.1z"/>
	<polygon class="st2" points="145.71,52.87 148.34,52.87 148.34,52.05 145.71,52.05 145.71,50.53 148.49,50.53 148.49,49.59 
		144.63,49.59 144.63,55.47 148.51,55.47 148.51,54.53 145.71,54.53 	"/>
	<polygon class="st2" points="153.07,49.59 151.19,55.47 152.32,55.47 152.67,54.34 155.11,54.34 155.47,55.47 156.58,55.47 
		154.68,49.59 	"/>
	<path class="st2" d="M134.78,52.14c-0.19-0.04-0.53-0.07-1.01-0.1c-0.45-0.03-0.72-0.04-0.81-0.06c-0.29-0.03-0.47-0.11-0.54-0.25
		c-0.07-0.12-0.1-0.29-0.1-0.52c0-0.33,0.08-0.54,0.24-0.64c0.09-0.05,0.2-0.09,0.34-0.11c0.14-0.02,0.37-0.03,0.67-0.03
		c0.24,0,0.42,0.01,0.53,0.03c0.19,0.03,0.32,0.11,0.38,0.22c0.07,0.11,0.1,0.31,0.1,0.62h1.05c0-0.09,0-0.15,0-0.2
		c0-0.31-0.04-0.57-0.11-0.76c-0.13-0.36-0.41-0.6-0.82-0.71c-0.24-0.06-0.64-0.09-1.2-0.09c-0.34,0-0.65,0.01-0.93,0.04
		c-0.37,0.03-0.67,0.13-0.9,0.31c-0.3,0.23-0.45,0.68-0.45,1.35c0,0.5,0.07,0.87,0.22,1.1c0.18,0.27,0.49,0.45,0.93,0.52
		c0.14,0.03,0.45,0.05,0.93,0.08c0.63,0.04,0.99,0.08,1.08,0.11c0.21,0.08,0.31,0.3,0.31,0.65c0,0.34-0.05,0.57-0.14,0.68
		c-0.07,0.09-0.18,0.14-0.31,0.18c-0.13,0.03-0.34,0.05-0.64,0.05c-0.41,0-0.67,0-0.76-0.01c-0.23-0.02-0.39-0.1-0.47-0.23
		c-0.05-0.08-0.09-0.17-0.1-0.27c-0.02-0.1-0.03-0.26-0.03-0.49h-1.04c0.01,0.51,0.04,0.87,0.11,1.07c0.12,0.36,0.37,0.6,0.74,0.71
		c0.26,0.08,0.74,0.12,1.44,0.12c0.37,0,0.69-0.01,0.97-0.04c0.41-0.04,0.72-0.17,0.95-0.4c0.12-0.13,0.21-0.3,0.26-0.51
		c0.06-0.21,0.08-0.5,0.08-0.87c0-0.44-0.05-0.76-0.15-0.97C135.48,52.43,135.19,52.23,134.78,52.14z"/>
	<polygon class="st2" points="110.77,49.59 108.89,55.47 110.02,55.47 110.37,54.34 112.81,54.34 113.17,55.47 114.28,55.47 
		112.38,49.59 	"/>
	<path class="st2" d="M107.75,52.91c0.28-0.11,0.47-0.32,0.56-0.62c0.06-0.21,0.1-0.52,0.1-0.95c0-0.34-0.03-0.61-0.08-0.8
		c-0.1-0.33-0.28-0.57-0.56-0.72c-0.26-0.15-0.66-0.22-1.2-0.22h-2.77v5.88h1.08v-1.96h1.52c0.28-0.01,0.5,0.05,0.64,0.19
		c0.14,0.14,0.21,0.38,0.21,0.71v1.06h1.1v-1.28c0.01-0.72-0.31-1.1-0.96-1.14V53C107.55,52.97,107.67,52.94,107.75,52.91z"/>
	<polygon class="st2" points="160.91,51.99 158.29,51.99 158.29,49.59 157.21,49.59 157.21,55.47 158.29,55.47 158.29,52.96 
		160.91,52.96 160.91,55.47 162,55.47 162,49.59 160.91,49.59 	"/>
	<path class="st2" d="M80.63,53.66c0,0.34-0.06,0.58-0.19,0.69c-0.15,0.13-0.51,0.2-1.09,0.2c-0.5,0-0.83-0.06-0.98-0.17
		c-0.12-0.09-0.21-0.25-0.25-0.46c-0.05-0.24-0.07-0.79-0.07-1.66c0-0.51,0.01-0.86,0.03-1.04c0.05-0.37,0.23-0.59,0.55-0.65
		c0.2-0.04,0.48-0.06,0.86-0.06c0.44,0,0.73,0.05,0.86,0.14c0.14,0.11,0.22,0.36,0.23,0.75c0,0.02,0,0.07,0,0.15h1.07
		c-0.01-0.35-0.02-0.59-0.04-0.72c-0.07-0.62-0.35-1.01-0.84-1.17c-0.22-0.07-0.59-0.11-1.11-0.11c-0.45,0-0.77,0.01-0.96,0.02
		c-0.42,0.03-0.76,0.13-1.02,0.29c-0.34,0.21-0.55,0.5-0.65,0.88c-0.08,0.31-0.12,0.75-0.12,1.33c0,0.96,0.03,1.63,0.08,2.02
		c0.06,0.46,0.24,0.81,0.54,1.05c0.18,0.15,0.39,0.25,0.62,0.31c0.23,0.05,0.59,0.08,1.07,0.08c0.65,0,1.08-0.02,1.29-0.06
		c0.49-0.09,0.83-0.32,1.01-0.7c0.11-0.22,0.16-0.62,0.16-1.19c0-0.03,0-0.1,0-0.2h-1.07C80.63,53.5,80.63,53.6,80.63,53.66z"/>
	<path class="st2" d="M86.32,49.74c-0.29-0.13-0.78-0.2-1.46-0.2c-0.32,0-0.59,0.01-0.81,0.03c-0.35,0.02-0.64,0.09-0.86,0.2
		c-0.26,0.12-0.46,0.29-0.6,0.51c-0.14,0.21-0.23,0.5-0.29,0.86c-0.04,0.26-0.06,0.8-0.06,1.59c0,0.31,0,0.57,0.01,0.79
		c0.01,0.34,0.06,0.64,0.14,0.9c0.12,0.38,0.35,0.66,0.67,0.84c0.17,0.1,0.38,0.17,0.62,0.21c0.24,0.04,0.57,0.06,0.99,0.06
		c0.29,0,0.56-0.01,0.79-0.03c0.37-0.03,0.68-0.1,0.92-0.22c0.25-0.12,0.43-0.29,0.57-0.5c0.13-0.22,0.22-0.5,0.27-0.86
		c0.04-0.24,0.05-0.72,0.05-1.45c0-0.69-0.02-1.16-0.06-1.39C87.11,50.41,86.81,49.96,86.32,49.74z"/>
	<path class="st2" d="M91.94,49.74c-0.29-0.13-0.77-0.2-1.46-0.2c-0.32,0-0.59,0.01-0.81,0.03c-0.35,0.02-0.64,0.09-0.86,0.2
		c-0.26,0.12-0.46,0.29-0.6,0.51c-0.14,0.21-0.23,0.5-0.29,0.86c-0.04,0.26-0.06,0.8-0.06,1.59c0,0.31,0,0.57,0.01,0.79
		c0.01,0.34,0.06,0.64,0.14,0.9c0.12,0.38,0.35,0.66,0.67,0.84c0.17,0.1,0.38,0.17,0.62,0.21c0.24,0.04,0.57,0.06,0.99,0.06
		c0.29,0,0.56-0.01,0.79-0.03c0.38-0.03,0.68-0.1,0.92-0.22c0.25-0.12,0.43-0.29,0.57-0.5c0.13-0.22,0.22-0.5,0.27-0.86
		c0.04-0.24,0.05-0.72,0.05-1.45c0-0.69-0.02-1.16-0.06-1.39C92.74,50.41,92.44,49.96,91.94,49.74z"/>
	<polygon class="st2" points="100.07,52.87 102.7,52.87 102.7,52.05 100.07,52.05 100.07,50.53 102.85,50.53 102.85,49.59 
		98.98,49.59 98.98,55.47 102.87,55.47 102.87,54.53 100.07,54.53 	"/>
	<path class="st2" d="M97.48,49.75c-0.2-0.09-0.46-0.14-0.79-0.15c-0.11,0-0.33,0-0.65,0h-2.29v5.88h1.08v-1.9h1.26
		c0.61-0.01,0.97-0.03,1.07-0.05c0.41-0.08,0.71-0.29,0.89-0.64c0.14-0.28,0.21-0.72,0.21-1.32c0-0.64-0.1-1.1-0.3-1.4
		C97.85,49.98,97.68,49.84,97.48,49.75z"/>
	<path class="st2" d="M237.19,49.74c-0.29-0.13-0.77-0.2-1.46-0.2c-0.32,0-0.59,0.01-0.81,0.03c-0.35,0.02-0.64,0.09-0.86,0.2
		c-0.26,0.12-0.46,0.29-0.6,0.51c-0.14,0.21-0.23,0.5-0.29,0.86c-0.04,0.26-0.06,0.8-0.06,1.59c0,0.31,0,0.57,0.01,0.79
		c0.01,0.34,0.06,0.64,0.14,0.9c0.12,0.38,0.35,0.66,0.67,0.84c0.17,0.1,0.38,0.17,0.62,0.21c0.24,0.04,0.57,0.06,0.99,0.06
		c0.29,0,0.56-0.01,0.79-0.03c0.38-0.03,0.68-0.1,0.92-0.22c0.25-0.12,0.43-0.29,0.57-0.5c0.13-0.22,0.22-0.5,0.27-0.86
		c0.04-0.24,0.05-0.72,0.05-1.45c0-0.69-0.02-1.16-0.06-1.39C237.99,50.41,237.69,49.96,237.19,49.74z"/>
	<polygon class="st2" points="220.04,49.59 215.65,49.59 215.65,50.58 217.28,50.58 217.28,55.47 218.36,55.47 218.36,50.59 
		220.04,50.59 	"/>
	<path class="st2" d="M214.25,52.14c-0.19-0.04-0.53-0.07-1.01-0.1c-0.45-0.03-0.72-0.04-0.81-0.06c-0.29-0.03-0.47-0.11-0.54-0.25
		c-0.07-0.12-0.1-0.29-0.1-0.52c0-0.33,0.08-0.54,0.24-0.64c0.09-0.05,0.2-0.09,0.34-0.11c0.14-0.02,0.37-0.03,0.67-0.03
		c0.24,0,0.42,0.01,0.53,0.03c0.19,0.03,0.32,0.11,0.38,0.22c0.07,0.11,0.1,0.31,0.1,0.62h1.05c0-0.09,0-0.15,0-0.2
		c0-0.31-0.04-0.57-0.11-0.76c-0.13-0.36-0.41-0.6-0.82-0.71c-0.24-0.06-0.64-0.09-1.2-0.09c-0.34,0-0.65,0.01-0.93,0.04
		c-0.37,0.03-0.67,0.13-0.9,0.31c-0.3,0.23-0.45,0.68-0.45,1.35c0,0.5,0.07,0.87,0.22,1.1c0.18,0.27,0.49,0.45,0.93,0.52
		c0.14,0.03,0.45,0.05,0.93,0.08c0.63,0.04,0.99,0.08,1.08,0.11c0.21,0.08,0.31,0.3,0.31,0.65c0,0.34-0.05,0.57-0.14,0.68
		c-0.07,0.09-0.18,0.14-0.31,0.18c-0.13,0.03-0.34,0.05-0.64,0.05c-0.41,0-0.67,0-0.76-0.01c-0.23-0.02-0.39-0.1-0.47-0.23
		c-0.05-0.08-0.09-0.17-0.1-0.27c-0.02-0.1-0.03-0.26-0.03-0.49h-1.04c0.01,0.51,0.04,0.87,0.11,1.07c0.12,0.36,0.37,0.6,0.74,0.71
		c0.26,0.08,0.74,0.12,1.44,0.12c0.37,0,0.69-0.01,0.97-0.04c0.41-0.04,0.72-0.17,0.95-0.4c0.12-0.13,0.21-0.3,0.26-0.51
		c0.06-0.21,0.08-0.5,0.08-0.87c0-0.44-0.05-0.76-0.15-0.97C214.95,52.43,214.67,52.23,214.25,52.14z"/>
	<polygon class="st2" points="207.18,52.87 209.82,52.87 209.82,52.05 207.18,52.05 207.18,50.53 209.96,50.53 209.96,49.59 
		206.1,49.59 206.1,55.47 209.99,55.47 209.99,54.53 207.18,54.53 	"/>
	<path class="st2" d="M204.57,52.91c0.28-0.11,0.47-0.32,0.56-0.62c0.06-0.21,0.1-0.52,0.1-0.95c0-0.34-0.03-0.61-0.08-0.8
		c-0.1-0.33-0.28-0.57-0.56-0.72c-0.26-0.15-0.66-0.22-1.2-0.22h-2.77v5.88h1.08v-1.96h1.52c0.28-0.01,0.5,0.05,0.64,0.19
		c0.14,0.14,0.21,0.38,0.21,0.71v1.06h1.1v-1.28c0.01-0.72-0.31-1.1-0.96-1.14V53C204.37,52.97,204.49,52.94,204.57,52.91z"/>
	<path class="st2" d="M199.01,49.75c-0.2-0.09-0.46-0.14-0.79-0.15c-0.11,0-0.33,0-0.65,0h-2.29v5.88h1.08v-1.9h1.26
		c0.61-0.01,0.97-0.03,1.07-0.05c0.41-0.08,0.71-0.29,0.89-0.64c0.14-0.28,0.21-0.72,0.21-1.32c0-0.64-0.1-1.1-0.3-1.4
		C199.37,49.98,199.21,49.84,199.01,49.75z"/>
	<polygon class="st2" points="221.52,49.59 219.64,55.47 220.77,55.47 221.12,54.34 223.56,54.34 223.92,55.47 225.03,55.47 
		223.13,49.59 	"/>
	<path class="st2" d="M229.48,52.32c-0.09,0.23-0.22,0.64-0.39,1.21l-0.12,0.4h-0.04l-0.13-0.4c-0.18-0.59-0.32-1-0.4-1.22
		l-1.01-2.72h-1.75v5.88h1.07v-3.2c0-0.28-0.02-0.71-0.05-1.29l-0.02-0.43h0.03l0.13,0.4c0.19,0.61,0.32,1.02,0.4,1.22l1.25,3.29
		h0.98l1.24-3.31c0.07-0.2,0.2-0.61,0.39-1.22l0.13-0.41h0.03l-0.02,0.43c-0.03,0.57-0.04,1-0.04,1.31v3.2h1.07v-5.88h-1.78
		L229.48,52.32z"/>
	<path class="st2" d="M178.3,52.91c0.28-0.11,0.47-0.32,0.56-0.62c0.06-0.21,0.1-0.52,0.1-0.95c0-0.34-0.03-0.61-0.08-0.8
		c-0.1-0.33-0.28-0.57-0.56-0.72c-0.26-0.15-0.65-0.22-1.2-0.22h-2.77v5.88h1.08v-1.96h1.52c0.28-0.01,0.5,0.05,0.64,0.19
		c0.14,0.14,0.21,0.38,0.21,0.71v1.06h1.1v-1.28c0.01-0.72-0.31-1.1-0.96-1.14V53C178.09,52.97,178.21,52.94,178.3,52.91z"/>
	<path class="st2" d="M183.67,49.74c-0.29-0.13-0.78-0.2-1.46-0.2c-0.32,0-0.59,0.01-0.81,0.03c-0.35,0.02-0.64,0.09-0.86,0.2
		c-0.26,0.12-0.46,0.29-0.6,0.51c-0.14,0.21-0.23,0.5-0.29,0.86c-0.04,0.26-0.06,0.8-0.06,1.59c0,0.31,0,0.57,0.01,0.79
		c0.01,0.34,0.06,0.64,0.14,0.9c0.12,0.38,0.35,0.66,0.67,0.84c0.17,0.1,0.38,0.17,0.62,0.21c0.24,0.04,0.57,0.06,0.99,0.06
		c0.29,0,0.56-0.01,0.79-0.03c0.38-0.03,0.68-0.1,0.92-0.22c0.25-0.12,0.43-0.29,0.57-0.5c0.13-0.22,0.22-0.5,0.27-0.86
		c0.04-0.24,0.05-0.72,0.05-1.45c0-0.69-0.02-1.16-0.06-1.39C184.47,50.41,184.16,49.96,183.67,49.74z"/>
	<path class="st2" d="M172.7,52.91c0.28-0.11,0.47-0.32,0.56-0.62c0.06-0.21,0.1-0.52,0.1-0.95c0-0.34-0.03-0.61-0.08-0.8
		c-0.1-0.33-0.28-0.57-0.56-0.72c-0.26-0.15-0.66-0.22-1.2-0.22h-2.77v5.88h1.08v-1.96h1.52c0.28-0.01,0.5,0.05,0.64,0.19
		c0.14,0.14,0.21,0.38,0.21,0.71v1.06h1.1v-1.28c0.01-0.72-0.31-1.1-0.96-1.14V53C172.5,52.97,172.62,52.94,172.7,52.91z"/>
	<path class="st2" d="M166.93,49.74c-0.29-0.13-0.78-0.2-1.46-0.2c-0.32,0-0.59,0.01-0.82,0.03c-0.35,0.02-0.64,0.09-0.86,0.2
		c-0.26,0.12-0.46,0.29-0.6,0.51c-0.14,0.21-0.23,0.5-0.29,0.86c-0.04,0.26-0.06,0.8-0.06,1.59c0,0.31,0,0.57,0.01,0.79
		c0.01,0.34,0.06,0.64,0.14,0.9c0.12,0.38,0.35,0.66,0.67,0.84c0.17,0.1,0.38,0.17,0.62,0.21c0.24,0.04,0.57,0.06,0.99,0.06
		c0.3,0,0.56-0.01,0.79-0.03c0.38-0.03,0.68-0.1,0.92-0.22c0.25-0.12,0.43-0.29,0.57-0.5c0.13-0.22,0.22-0.5,0.27-0.86
		c0.04-0.24,0.05-0.72,0.05-1.45c0-0.69-0.02-1.16-0.06-1.39C167.73,50.41,167.42,49.96,166.93,49.74z"/>
	<path class="st2" d="M190.31,51.14c-0.07,0.12-0.19,0.36-0.37,0.71l-0.12,0.24h-0.03l-0.12-0.24c-0.18-0.37-0.3-0.61-0.36-0.71
		l-0.85-1.55h-1.24l2.04,3.63v2.24h1.08v-2.24l2.09-3.63h-1.26L190.31,51.14z"/>
	<polygon class="st0" points="143.81,31.68 151.07,31.68 147.58,20.98 	"/>
	<polygon class="st0" points="83,31.68 90.26,31.68 86.77,20.98 	"/>
	<polygon class="st0" points="223.4,20.98 219.63,31.68 226.89,31.68 	"/>
	<polygon class="st2" points="34.84,48.88 39.8,48.88 37.32,39.85 	"/>
	<ellipse class="st2" cx="43.52" cy="19.87" rx="3.72" ry="3.87"/>
	<path class="st2" d="M31.13,23.74c2.05,0,3.72-1.73,3.72-3.87c0-2.14-1.66-3.87-3.72-3.87s-3.72,1.73-3.72,3.87
		C27.41,22,29.07,23.74,31.13,23.74z"/>
	<path class="st2" d="M54.67,24.38H19.98l-2.48,5.16h9.91l-4.16,16.23l-0.17,0.67l-0.42,1.63l-0.21,0.81h4.96l0.45-1.55l0.45-1.56
		l0.21-0.74l0.47-1.64l2.13-7.41l1.77,6.14l1.95-7.43l-7.43-7.74h3.72l4.96,5.16h2.48l4.96-5.16h3.72L39.8,34.7l1.9,7.26l0.58-2.1
		h2.48l0.85,3.1l0.57,2.08l0.2,0.74l0.43,1.56l0.43,1.55h4.96l-0.22-0.81l-2.26-8.22h2.48l-3.72-10.32h8.67L54.67,24.38z
		 M37.32,31.47c-1.71,0-3.1-1.44-3.1-3.22s1.39-3.22,3.1-3.22s3.1,1.44,3.1,3.22S39.03,31.47,37.32,31.47z"/>
	<path class="st0" d="M48.47,29.54h8.67l-2.48-5.16H19.98l-2.48,5.16h9.91l-4.16,16.23l-0.17,0.67l-0.42,1.63l-0.21,0.81h4.96
		l0.45-1.55l0.45-1.56l0.21-0.74l0.47-1.64l2.13-7.41l1.77,6.14l1.95-7.43l-7.43-7.74h3.72l4.96,5.16h2.48l4.96-5.16h3.72L39.8,34.7
		l1.9,7.26l0.58-2.1h2.48l0.85,3.1l0.57,2.08l0.2,0.74l0.43,1.56l0.43,1.55h4.96l-0.22-0.81l-2.26-8.22h2.48L48.47,29.54z
		 M37.32,31.47c-1.71,0-3.1-1.44-3.1-3.22s1.39-3.22,3.1-3.22s3.1,1.44,3.1,3.22S39.03,31.47,37.32,31.47z"/>
	<polygon class="st0" points="34.84,48.88 39.8,48.88 37.32,39.85 	"/>
	<path class="st0" d="M244.85,105.11c0.19-0.92,0.26-1.56,0.21-1.94c-0.05-0.38-0.27-0.56-0.68-0.56c-0.38,0-0.68,0.18-0.9,0.53
		c-0.23,0.35-0.42,0.92-0.58,1.71c-0.2,0.98-0.27,1.68-0.23,2.08c0.05,0.4,0.28,0.6,0.69,0.6c0.4,0,0.7-0.18,0.91-0.54
		C244.47,106.62,244.66,106,244.85,105.11z M240.39,105.15c0.3-1.45,0.82-2.56,1.57-3.34c0.75-0.77,1.68-1.16,2.79-1.16
		c1.11,0,1.89,0.38,2.32,1.14c0.43,0.76,0.5,1.86,0.21,3.3c-0.29,1.41-0.8,2.5-1.53,3.25c-0.73,0.75-1.64,1.13-2.72,1.13
		c-1.14,0-1.94-0.37-2.38-1.11C240.19,107.62,240.11,106.55,240.39,105.15z M239.55,103.04c-0.31-0.27-0.63-0.4-0.95-0.4
		c-0.83,0-1.4,0.81-1.73,2.42c-0.33,1.64-0.1,2.46,0.72,2.46c0.31,0,0.68-0.12,1.11-0.36l-0.41,1.99c-0.7,0.24-1.27,0.36-1.73,0.36
		c-0.94,0-1.6-0.37-1.99-1.11c-0.39-0.74-0.46-1.76-0.19-3.05c0.36-1.77,0.9-2.99,1.61-3.66c0.71-0.67,1.53-1.01,2.43-1.01
		c0.6,0,1.11,0.13,1.53,0.38L239.55,103.04z M231.08,100.89h2.37l-1.7,8.35h-2.37L231.08,100.89z M231.39,98.12
		c0.08-0.38,0.28-0.71,0.62-0.99c0.34-0.28,0.7-0.42,1.09-0.42c0.39,0,0.69,0.14,0.91,0.41c0.22,0.28,0.29,0.61,0.21,1
		c-0.08,0.39-0.28,0.72-0.62,1c-0.33,0.28-0.69,0.42-1.08,0.42c-0.39,0-0.7-0.14-0.92-0.42C231.38,98.84,231.31,98.51,231.39,98.12z
		 M227.85,109.24h-2.51l-0.72-2.13l-1.63,2.13h-2.6l3.31-4.14l-1.32-4.2h2.41l0.69,2.07l1.44-2.07h2.44l-3.06,4.18L227.85,109.24z
		 M221.24,96.83l-3.25,2.91h-1.74l1.95-2.91H221.24z M218.1,104.2c0.14-0.71,0.18-1.24,0.11-1.58c-0.07-0.34-0.27-0.51-0.6-0.51
		c-0.38,0-0.69,0.17-0.91,0.5c-0.23,0.34-0.42,0.87-0.57,1.59H218.1z M220.06,105.57h-4.2c-0.14,0.9-0.17,1.49-0.07,1.77
		c0.1,0.28,0.35,0.42,0.75,0.42c0.51,0,0.86-0.33,1.04-1h2.09c-0.26,0.87-0.71,1.54-1.34,2.01c-0.63,0.47-1.39,0.7-2.27,0.7
		c-1.14,0-1.92-0.38-2.36-1.14c-0.43-0.76-0.5-1.87-0.2-3.34c0.26-1.3,0.81-2.35,1.62-3.15c0.82-0.8,1.75-1.2,2.81-1.2
		c0.75,0,1.33,0.22,1.75,0.66c0.42,0.44,0.64,0.98,0.67,1.64C220.38,103.6,220.28,104.48,220.06,105.57z M211.34,109.24h-2.5
		l1.43-9.94h-0.04l-3.88,9.94h-1.87l0.26-10h-0.04l-2.7,10h-2.5l3.73-12.15h3.31l-0.29,8.01h0.04l3.09-8.01h3.26L211.34,109.24z
		 M192.79,104.2c0.14-0.71,0.18-1.24,0.11-1.58c-0.07-0.34-0.27-0.51-0.6-0.51c-0.38,0-0.69,0.17-0.91,0.5
		c-0.23,0.34-0.42,0.87-0.57,1.59H192.79z M194.74,105.57h-4.2c-0.14,0.9-0.17,1.49-0.07,1.77c0.1,0.28,0.35,0.42,0.75,0.42
		c0.51,0,0.86-0.33,1.04-1h2.09c-0.26,0.87-0.71,1.54-1.34,2.01c-0.63,0.47-1.39,0.7-2.27,0.7c-1.14,0-1.92-0.38-2.36-1.14
		c-0.43-0.76-0.5-1.87-0.2-3.34c0.26-1.3,0.81-2.35,1.62-3.15c0.82-0.8,1.75-1.2,2.81-1.2c0.75,0,1.33,0.22,1.75,0.66
		c0.42,0.44,0.64,0.98,0.67,1.64C195.06,103.6,194.96,104.48,194.74,105.57z M183.43,102.75c-0.63,0-1.1,0.78-1.42,2.34
		c-0.31,1.5-0.12,2.26,0.54,2.26c0.35,0,0.64-0.18,0.87-0.53c0.22-0.35,0.42-0.92,0.58-1.71c0.32-1.58,0.14-2.36-0.55-2.36H183.43z
		 M185.53,109.24h-2.37l0.28-1.38h-0.04c-0.65,1.08-1.42,1.62-2.32,1.62c-0.62,0-1.11-0.32-1.47-0.95
		c-0.36-0.63-0.37-1.79-0.02-3.48c0.29-1.42,0.73-2.51,1.32-3.26c0.59-0.75,1.29-1.13,2.1-1.13c0.87,0,1.37,0.56,1.51,1.69h0.04
		l1.24-6.1h2.37L185.53,109.24z M173.29,103.2c-0.54-0.52-1.01-0.78-1.42-0.78c-0.45,0-0.72,0.18-0.79,0.54
		c-0.05,0.23,0.26,0.54,0.93,0.94c0.66,0.39,1.12,0.82,1.37,1.3c0.25,0.47,0.3,1.04,0.17,1.7c-0.15,0.75-0.54,1.36-1.16,1.85
		c-0.62,0.49-1.33,0.73-2.13,0.73c-0.57,0-1.05-0.08-1.44-0.23c-0.39-0.15-0.8-0.4-1.22-0.73l1.36-1.73
		c0.05,0.03,0.12,0.08,0.19,0.16c0.5,0.47,0.92,0.7,1.27,0.7c0.22,0,0.4-0.06,0.56-0.18c0.16-0.12,0.25-0.27,0.29-0.45
		c0.03-0.16-0.03-0.34-0.21-0.52c-0.17-0.19-0.52-0.46-1.06-0.83c-0.53-0.37-0.9-0.73-1.1-1.1c-0.2-0.36-0.25-0.79-0.14-1.3
		c0.16-0.76,0.54-1.39,1.16-1.88c0.61-0.49,1.33-0.73,2.15-0.73c0.91,0,1.73,0.31,2.46,0.92L173.29,103.2z M163.66,102.75
		c-0.57,0-1,0.71-1.29,2.13c-0.17,0.85-0.22,1.46-0.14,1.85c0.08,0.39,0.3,0.58,0.66,0.58c0.35,0,0.63-0.18,0.85-0.52
		c0.22-0.35,0.41-0.91,0.57-1.68c0.17-0.82,0.2-1.41,0.11-1.79c-0.09-0.38-0.33-0.56-0.71-0.56H163.66z M165.82,109.24h-2.37
		l0.29-1.41h-0.04c-0.61,1.1-1.37,1.65-2.28,1.65c-0.65,0-1.15-0.32-1.5-0.94c-0.36-0.63-0.37-1.76-0.04-3.38
		c0.61-3,1.74-4.5,3.39-4.5c0.9,0,1.4,0.58,1.52,1.73h0.04l0.3-1.49h2.39L165.82,109.24z M159.25,103.08
		c-0.38-0.08-0.65-0.12-0.82-0.12c-1.13,0-1.81,0.59-2.05,1.76l-0.92,4.52h-2.37l1.7-8.35H157l-0.41,1.99h0.04
		c0.67-1.45,1.7-2.2,3.1-2.23L159.25,103.08z M150.24,104.2c0.14-0.71,0.18-1.24,0.11-1.58c-0.07-0.34-0.27-0.51-0.6-0.51
		c-0.38,0-0.69,0.17-0.91,0.5c-0.23,0.34-0.42,0.87-0.57,1.59H150.24z M152.19,105.57h-4.2c-0.14,0.9-0.17,1.49-0.07,1.77
		c0.1,0.28,0.35,0.42,0.75,0.42c0.51,0,0.86-0.33,1.04-1h2.09c-0.26,0.87-0.71,1.54-1.34,2.01c-0.63,0.47-1.39,0.7-2.27,0.7
		c-1.14,0-1.92-0.38-2.36-1.14c-0.43-0.76-0.5-1.87-0.2-3.34c0.26-1.3,0.81-2.35,1.62-3.15c0.82-0.8,1.75-1.2,2.81-1.2
		c0.75,0,1.33,0.22,1.75,0.66c0.42,0.44,0.64,0.98,0.67,1.64C152.51,103.6,152.41,104.48,152.19,105.57z M142.27,100.89h2.37
		l-1.7,8.35h-2.37L142.27,100.89z M142.57,98.12c0.08-0.38,0.28-0.71,0.62-0.99c0.34-0.28,0.7-0.42,1.09-0.42
		c0.39,0,0.69,0.14,0.91,0.41c0.22,0.28,0.29,0.61,0.21,1c-0.08,0.39-0.28,0.72-0.62,1c-0.33,0.28-0.69,0.42-1.08,0.42
		c-0.39,0-0.7-0.14-0.92-0.42C142.56,98.84,142.49,98.51,142.57,98.12z M140.16,103.04c-0.31-0.27-0.63-0.4-0.95-0.4
		c-0.83,0-1.4,0.81-1.73,2.42c-0.33,1.64-0.1,2.46,0.72,2.46c0.31,0,0.68-0.12,1.11-0.36l-0.41,1.99c-0.7,0.24-1.27,0.36-1.73,0.36
		c-0.94,0-1.6-0.37-1.99-1.11c-0.39-0.74-0.46-1.76-0.19-3.05c0.36-1.77,0.9-2.99,1.61-3.66c0.71-0.67,1.53-1.01,2.43-1.01
		c0.6,0,1.11,0.13,1.53,0.38L140.16,103.04z M129.86,100.89l-0.31,1.54h0.04c0.49-0.62,0.94-1.07,1.36-1.35
		c0.42-0.29,0.87-0.43,1.35-0.43c0.59,0,1.01,0.26,1.27,0.76c0.25,0.51,0.29,1.19,0.12,2.03l-1.18,5.79h-2.37l0.98-4.82
		c0.08-0.42,0.06-0.74-0.06-0.98c-0.12-0.24-0.34-0.36-0.65-0.36c-0.66,0-1.09,0.51-1.3,1.54l-0.94,4.62h-2.37l1.7-8.35H129.86z
		 M121.54,102.75c-0.57,0-1,0.71-1.29,2.13c-0.17,0.85-0.22,1.46-0.14,1.85c0.08,0.39,0.3,0.58,0.66,0.58
		c0.35,0,0.63-0.18,0.85-0.52c0.22-0.35,0.41-0.91,0.56-1.68c0.17-0.82,0.2-1.41,0.11-1.79c-0.09-0.38-0.33-0.56-0.71-0.56H121.54z
		 M123.7,109.24h-2.37l0.29-1.41h-0.04c-0.61,1.1-1.37,1.65-2.28,1.65c-0.65,0-1.15-0.32-1.5-0.94c-0.36-0.63-0.37-1.76-0.04-3.38
		c0.61-3,1.74-4.5,3.39-4.5c0.9,0,1.4,0.58,1.52,1.73h0.04l0.3-1.49h2.39L123.7,109.24z M112.63,100.89l-0.31,1.54h0.04
		c0.49-0.62,0.94-1.07,1.36-1.35c0.42-0.29,0.87-0.43,1.35-0.43c0.59,0,1.01,0.26,1.27,0.76c0.25,0.51,0.29,1.19,0.12,2.03
		l-1.18,5.79h-2.37l0.98-4.82c0.08-0.42,0.06-0.74-0.06-0.98c-0.12-0.24-0.34-0.36-0.65-0.36c-0.66,0-1.09,0.51-1.3,1.54l-0.94,4.62
		h-2.37l1.7-8.35H112.63z M105.74,100.89h2.37l-1.7,8.35h-2.37L105.74,100.89z M106.04,98.12c0.08-0.38,0.28-0.71,0.62-0.99
		c0.34-0.28,0.7-0.42,1.09-0.42c0.39,0,0.69,0.14,0.91,0.41c0.22,0.28,0.29,0.61,0.21,1c-0.08,0.39-0.28,0.72-0.62,1
		c-0.33,0.28-0.69,0.42-1.08,0.42c-0.39,0-0.7-0.14-0.92-0.42C106.04,98.84,105.97,98.51,106.04,98.12z M104.28,99.46h-3.05
		l-0.51,2.49h2.61l-0.46,2.25h-2.61l-1.03,5.04h-2.63l2.47-12.15h5.68L104.28,99.46z M90.68,103.2c-0.54-0.52-1.01-0.78-1.42-0.78
		c-0.45,0-0.72,0.18-0.79,0.54c-0.05,0.23,0.26,0.54,0.93,0.94c0.66,0.39,1.12,0.82,1.37,1.3c0.25,0.47,0.3,1.04,0.17,1.7
		c-0.15,0.75-0.54,1.36-1.16,1.85c-0.62,0.49-1.33,0.73-2.13,0.73c-0.57,0-1.05-0.08-1.44-0.23c-0.39-0.15-0.8-0.4-1.22-0.73
		l1.36-1.73c0.05,0.03,0.12,0.08,0.19,0.16c0.5,0.47,0.92,0.7,1.27,0.7c0.22,0,0.4-0.06,0.56-0.18c0.16-0.12,0.25-0.27,0.29-0.45
		c0.03-0.16-0.03-0.34-0.21-0.52c-0.17-0.19-0.52-0.46-1.06-0.83c-0.53-0.37-0.9-0.73-1.1-1.1c-0.2-0.36-0.25-0.79-0.14-1.3
		c0.16-0.76,0.54-1.39,1.16-1.88c0.61-0.49,1.33-0.73,2.15-0.73c0.91,0,1.73,0.31,2.46,0.92L90.68,103.2z M81.06,102.75
		c-0.57,0-1,0.71-1.29,2.13c-0.17,0.85-0.22,1.46-0.14,1.85c0.08,0.39,0.3,0.58,0.66,0.58c0.35,0,0.63-0.18,0.85-0.52
		c0.22-0.35,0.41-0.91,0.56-1.68c0.17-0.82,0.2-1.41,0.11-1.79c-0.09-0.38-0.33-0.56-0.71-0.56H81.06z M83.22,109.24h-2.37
		l0.29-1.41H81.1c-0.61,1.1-1.37,1.65-2.28,1.65c-0.65,0-1.15-0.32-1.5-0.94c-0.36-0.63-0.37-1.76-0.04-3.38
		c0.61-3,1.74-4.5,3.39-4.5c0.9,0,1.4,0.58,1.52,1.73h0.04l0.3-1.49h2.39L83.22,109.24z M70.32,100.89h2.32l0.05,5.48l2.33-5.48
		h2.33l-4.22,8.35h-2.23L70.32,100.89z M66.44,100.89h2.37l-1.7,8.35h-2.37L66.44,100.89z M66.74,98.12
		c0.08-0.38,0.28-0.71,0.62-0.99c0.34-0.28,0.7-0.42,1.09-0.42c0.39,0,0.69,0.14,0.91,0.41c0.22,0.28,0.29,0.61,0.21,1
		c-0.08,0.39-0.28,0.72-0.62,1c-0.33,0.28-0.69,0.42-1.08,0.42c-0.39,0-0.7-0.14-0.92-0.42C66.73,98.84,66.66,98.51,66.74,98.12z
		 M64.48,102.79H63l-1.31,6.45h-2.37l1.31-6.43h-1.47l0.39-1.91h1.47l0.48-2.37h2.37l-0.48,2.37h1.47L64.48,102.79z M54.21,102.75
		c-0.57,0-1,0.71-1.29,2.13c-0.17,0.85-0.22,1.46-0.14,1.85c0.08,0.39,0.3,0.58,0.66,0.58c0.35,0,0.63-0.18,0.85-0.52
		c0.22-0.35,0.41-0.91,0.56-1.68c0.17-0.82,0.2-1.41,0.11-1.79c-0.09-0.38-0.33-0.56-0.71-0.56H54.21z M56.38,109.24h-2.37
		l0.29-1.41h-0.04c-0.61,1.1-1.37,1.65-2.28,1.65c-0.65,0-1.15-0.32-1.5-0.94c-0.36-0.63-0.37-1.76-0.04-3.38
		c0.61-3,1.74-4.5,3.39-4.5c0.9,0,1.4,0.58,1.52,1.73h0.04l0.3-1.49h2.39L56.38,109.24z M49.8,103.08
		c-0.38-0.08-0.65-0.12-0.82-0.12c-1.13,0-1.81,0.59-2.05,1.76l-0.92,4.52h-2.37l1.7-8.35h2.21l-0.41,1.99h0.04
		c0.67-1.45,1.7-2.2,3.1-2.23L49.8,103.08z M40.79,104.2c0.14-0.71,0.18-1.24,0.11-1.58c-0.07-0.34-0.27-0.51-0.6-0.51
		c-0.38,0-0.69,0.17-0.91,0.5c-0.23,0.34-0.42,0.87-0.57,1.59H40.79z M42.74,105.57h-4.2c-0.14,0.9-0.17,1.49-0.06,1.77
		c0.1,0.28,0.35,0.42,0.75,0.42c0.51,0,0.86-0.33,1.04-1h2.09c-0.26,0.87-0.71,1.54-1.34,2.01c-0.63,0.47-1.39,0.7-2.27,0.7
		c-1.14,0-1.92-0.38-2.36-1.14c-0.43-0.76-0.5-1.87-0.2-3.34c0.26-1.3,0.81-2.35,1.62-3.15c0.82-0.8,1.75-1.2,2.81-1.2
		c0.75,0,1.33,0.22,1.75,0.66c0.42,0.44,0.64,0.98,0.67,1.64C43.06,103.6,42.96,104.48,42.74,105.57z M30.93,107.35
		c0.35,0,0.62-0.18,0.83-0.55c0.21-0.37,0.4-0.98,0.57-1.84c0.29-1.42,0.12-2.13-0.5-2.13c-0.37,0-0.66,0.18-0.89,0.53
		c-0.23,0.36-0.43,0.94-0.59,1.74C30.05,106.6,30.24,107.35,30.93,107.35z M30.98,102.21c0.67-1.04,1.41-1.55,2.2-1.55
		c0.69,0,1.2,0.32,1.55,0.95c0.35,0.63,0.35,1.77,0.02,3.39c-0.35,1.74-0.84,2.92-1.46,3.55c-0.62,0.62-1.27,0.94-1.94,0.94
		c-0.8,0-1.32-0.53-1.54-1.59l0.03-0.06H29.8l-1.04,5.1h-2.41l2.45-12.03h2.41l-0.27,1.31H30.98z M23.76,105.11
		c0.19-0.92,0.25-1.56,0.21-1.94c-0.05-0.38-0.27-0.56-0.68-0.56c-0.38,0-0.68,0.18-0.9,0.53c-0.23,0.35-0.42,0.92-0.58,1.71
		c-0.2,0.98-0.27,1.68-0.23,2.08c0.05,0.4,0.28,0.6,0.69,0.6c0.4,0,0.7-0.18,0.91-0.54C23.38,106.62,23.58,106,23.76,105.11z
		 M19.31,105.15c0.3-1.45,0.82-2.56,1.57-3.34c0.75-0.77,1.68-1.16,2.79-1.16c1.11,0,1.89,0.38,2.32,1.14
		c0.43,0.76,0.5,1.86,0.21,3.3c-0.29,1.41-0.8,2.5-1.53,3.25c-0.73,0.75-1.64,1.13-2.72,1.13c-1.14,0-1.94-0.37-2.38-1.11
		C19.1,107.62,19.02,106.55,19.31,105.15z M15.45,105.11c0.19-0.92,0.25-1.56,0.21-1.94c-0.05-0.38-0.27-0.56-0.68-0.56
		c-0.38,0-0.68,0.18-0.9,0.53c-0.23,0.35-0.42,0.92-0.58,1.71c-0.2,0.98-0.27,1.68-0.23,2.08c0.05,0.4,0.28,0.6,0.69,0.6
		c0.39,0,0.7-0.18,0.91-0.54C15.08,106.62,15.27,106,15.45,105.11z M11,105.15c0.3-1.45,0.82-2.56,1.57-3.34
		c0.75-0.77,1.68-1.16,2.79-1.16c1.11,0,1.89,0.38,2.32,1.14c0.43,0.76,0.5,1.86,0.21,3.3c-0.29,1.41-0.8,2.5-1.53,3.25
		c-0.73,0.75-1.64,1.13-2.72,1.13c-1.14,0-1.94-0.37-2.38-1.11C10.79,107.62,10.71,106.55,11,105.15z M8.94,109.01
		c-0.73,0.31-1.51,0.46-2.32,0.46c-1.46,0-2.58-0.53-3.34-1.6c-0.77-1.07-0.94-2.63-0.52-4.67c0.43-2.11,1.24-3.7,2.43-4.76
		c1.19-1.07,2.43-1.6,3.73-1.6c0.78,0,1.57,0.21,2.36,0.62l-0.52,2.55c-0.62-0.35-1.02-0.55-1.22-0.59
		c-0.19-0.05-0.41-0.07-0.64-0.07c-0.69,0-1.35,0.28-1.98,0.85c-0.63,0.56-1.09,1.54-1.37,2.92c-0.29,1.45-0.25,2.45,0.14,3
		c0.39,0.55,0.96,0.83,1.7,0.83c0.61,0,1.32-0.24,2.12-0.72L8.94,109.01z"/>
</g>
</svg>
