<?xml version="1.0" encoding="utf-8"?>
<!-- Generator: Adobe Illustrator 26.0.0, SVG Export Plug-In . SVG Version: 6.00 Build 0)  -->
<svg version="1.1" id="Capa_1" xmlns="http://www.w3.org/2000/svg" xmlns:xlink="http://www.w3.org/1999/xlink" x="0px" y="0px"
	 viewBox="0 0 173 113" style="enable-background:new 0 0 173 113;" xml:space="preserve">
<style type="text/css">
	.st0{fill:#FFFFFF;}
</style>
<g>
	<path class="st0" d="M172.66,60.36c-0.38,1.71-0.69,3.44-1.14,5.12c-1.54,5.74-4.43,10.78-8.2,15.34
		c-5.4,6.54-12.07,11.51-19.44,15.58c-9.62,5.32-19.89,8.83-30.66,10.89c-4.81,0.92-9.68,1.59-14.55,2.12
		c-5.85,0.63-11.74,0.67-17.62,0.44c-10.23-0.41-20.32-1.88-30.18-4.68c-11.05-3.14-21.44-7.69-30.71-14.58
		c-5.84-4.34-10.86-9.46-14.6-15.75c-2.77-4.66-4.56-9.68-5.07-15.06c-0.66-6.95,0.77-13.55,4.03-19.73
		c3.86-7.32,9.47-13.09,16.07-17.95c7.73-5.68,16.28-9.74,25.35-12.75c7.12-2.36,14.41-3.98,21.84-5.02
		c8.08-1.13,16.2-1.49,24.34-1.17c10.2,0.4,20.24,1.87,30.07,4.67c11.55,3.29,22.37,8.07,31.91,15.49
		c5.9,4.58,10.89,9.96,14.41,16.61c2,3.77,3.29,7.77,3.94,11.99c0.04,0.24,0.13,0.48,0.19,0.72
		C172.66,55.19,172.66,57.78,172.66,60.36z M87.08,107.28c4.7,0.02,9.38-0.29,14.05-0.83c6.71-0.78,13.29-2.14,19.73-4.18
		c9.4-2.98,18.2-7.16,25.98-13.31c6.16-4.86,11.29-10.6,14.52-17.85c3.3-7.4,4-15.03,1.85-22.88c-2.04-7.48-6.25-13.64-11.73-18.98
		c-6.7-6.52-14.61-11.17-23.21-14.69c-12.84-5.25-26.27-7.5-40.08-7.7c-3.08-0.04-6.16,0.16-9.24,0.33
		c-6.35,0.35-12.6,1.33-18.78,2.83c-10.61,2.58-20.6,6.6-29.6,12.86c-6.13,4.26-11.46,9.33-15.32,15.78
		c-6.11,10.2-7.15,20.87-2.52,31.92c2.89,6.9,7.61,12.44,13.29,17.2c6.72,5.64,14.34,9.72,22.53,12.78
		C60.96,105.22,73.85,107.23,87.08,107.28z"/>
	<path class="st0" d="M86.96,8.58c13.22,0.19,26.06,2.28,38.38,7.19c7.48,2.98,14.44,6.88,20.53,12.2c5.7,4.97,10.33,10.76,12.87,18
		c3.36,9.56,2.42,18.78-2.43,27.61c-3.92,7.13-9.64,12.61-16.32,17.13c-8.76,5.92-18.44,9.69-28.7,12.05
		c-5.49,1.26-11.05,2.11-16.68,2.42c-2.61,0.14-5.23,0.35-7.84,0.32c-11.84-0.11-23.43-1.78-34.64-5.73
		c-8.18-2.88-15.82-6.76-22.58-12.25c-5.96-4.84-10.86-10.52-13.82-17.7c-3.5-8.51-3.48-17.04,0.03-25.54
		c2.57-6.22,6.65-11.36,11.66-15.79c8.83-7.82,19.21-12.68,30.46-15.88c6.5-1.85,13.13-3.02,19.87-3.49
		C80.8,8.89,83.88,8.75,86.96,8.58z M157.76,57.15c0.17-2.11-0.13-3.98-0.49-5.84c-1.35-6.96-4.73-12.88-9.46-18.06
		c-6.33-6.94-14.1-11.8-22.69-15.42c-10.63-4.48-21.77-6.66-33.26-7.14c-7-0.29-13.97,0.1-20.9,1.22
		c-10.32,1.68-20.15,4.78-29.27,9.97c-6.1,3.47-11.57,7.71-16.04,13.17c-5.9,7.23-9.07,15.39-8.39,24.84
		c0.14,1.89,0.42,3.76,0.98,5.55c1.12,0.31,2.16,0.56,3.19,0.89c7.51,2.36,13.96,6.44,19.43,12.09c2.08,2.14,4.36,4.05,6.94,5.58
		c3.23,1.92,6.68,2.86,10.47,2.66c3.78-0.2,7.36-1.1,10.85-2.48c8.74-3.46,16.41-8.65,23.5-14.73c3.85-3.3,7.89-6.33,12.38-8.71
		c11.26-5.98,23.2-9.04,36.02-8.13c4.83,0.34,9.5,1.35,13.96,3.3C155.86,56.28,156.73,56.68,157.76,57.15z M154.49,71.86
		c-0.07-0.07-0.14-0.14-0.21-0.21c-0.05-0.05-0.08-0.12-0.14-0.16c-0.12-0.08-0.24-0.16-0.36-0.23c-5.51-3.03-11.42-4.58-17.68-4.86
		c-6.88-0.31-13.57,0.8-20.16,2.71c-6.74,1.95-13.14,4.76-19.52,7.64c-5.82,2.63-11.58,5.38-17.38,8.03
		c-8.15,3.72-16.61,5.87-25.67,4.86c-2.39-0.27-4.74-0.56-7.03-1.42c-4.16-1.56-8.01-3.68-11.81-5.92
		c-2.35-1.39-4.78-2.63-7.51-3.11c-0.49-0.08-0.99-0.06-1.65-0.1c0.21,0.35,0.26,0.49,0.35,0.59c1.6,1.69,3.21,3.38,4.83,5.05
		c0.22,0.23,0.51,0.39,0.8,0.54c3.79,1.97,7.66,3.74,11.73,5.07c3.66,1.19,7.38,2.08,11.26,2.06c3.7-0.02,7.36-0.56,10.99-1.21
		c8.2-1.45,16.24-3.51,24.15-6.08c5.97-1.94,11.86-4.08,17.34-7.2c1.02-0.58,2.13-1.02,3.24-1.42c5.26-1.88,10.75-2.39,16.29-2.53
		c4.23-0.11,8.46,0.17,12.65,0.81c3.8,0.58,7.56,1.32,11.01,3.12c0.15,0.08,0.33,0.07,0.68,0.14
		C151.96,75.99,153.23,73.92,154.49,71.86z"/>
	<path class="st0" d="M75.51,71.1c-1.14-0.34-2.19-0.66-3.31-0.99c-0.09-0.47-0.17-0.96-0.3-1.44c-0.15-0.55-0.28-1.12-0.53-1.62
		c-0.67-1.34-1.66-1.66-2.9-0.84c-0.76,0.5-1.43,1.19-2.04,1.88c-0.65,0.73-1.32,1.13-2.36,1.21c-3.92,0.29-7.71,1.12-11.2,3.08
		c-1.15,0.64-2.4,1.12-3.64,1.55c-0.66,0.23-1.41,0.26-2.12,0.26c-1.22,0-1.88-0.65-1.87-1.86c0-1.47,0.4-2.84,1.34-4
		c1.89-2.33,2.55-5.03,2.23-7.96c-0.15-1.42-0.56-2.81-0.85-4.21c-0.05-0.27-0.09-0.54-0.15-0.96c5.86,2.56,11.6,3.82,17.39,0.01
		c0.13,0.3,0.24,0.54,0.34,0.8c0.21,0.57,0.41,1.15,0.62,1.72c0.55,1.55,1.32,2.76,3.05,3.43c2.19,0.85,4.01,2.35,5.27,4.42
		C75.5,67.24,75.84,69.05,75.51,71.1z"/>
	<path class="st0" d="M37.44,49.08c-0.3-1.13-0.21-1.28,0.79-1.39c1.58-0.16,1.8-0.37,1.95-1.97c0.04-0.43,0.04-0.86,0.04-1.29
		c0-4.73,0-9.46,0-14.2c0-2.92,0-2.92-2.86-3.55c0-0.34,0-0.7,0-1.16c0.38-0.04,0.73-0.09,1.07-0.09c3.66,0,7.31-0.01,10.97,0.05
		c1.03,0.02,2.08,0.17,3.07,0.45c2.49,0.69,4.25,3.16,4.18,5.75c-0.05,1.83-0.92,3.2-2.45,4.17c-0.39,0.25-0.81,0.45-1.32,0.73
		c0.56,0.26,1.03,0.49,1.51,0.7c4.14,1.82,4.12,7.69,0.88,10.02c-1.66,1.2-3.54,1.79-5.53,1.84c-3.98,0.09-7.96,0.04-11.93,0.04
		C37.7,49.17,37.6,49.12,37.44,49.08z M45.98,38.12c0,2.64-0.02,5.3,0.02,7.97c0.01,0.6,0.48,0.9,1.1,0.96
		c1.54,0.14,3.07-0.72,3.72-2.2c0.64-1.44,0.63-2.92,0.06-4.38C50.11,38.53,48.21,37.6,45.98,38.12z M46,35.71
		c1.84-0.06,3.42-0.35,4.16-2.09c0.71-1.68,0.69-3.38-0.52-4.86c-0.94-1.14-2.23-1.22-3.64-1.09C46,30.4,46,32.99,46,35.71z"/>
	<path class="st0" d="M70.28,72.11c1.76,0.26,3.36,0.58,4.62,1.83c-1.48,4.47-3.98,7.89-8.73,9c-1.97,0.46-4.03,0.66-6.06,0.78
		c-2.79,0.17-5.59,0.19-8.36-0.31c-4.04-0.73-6.92-2.95-8.6-6.71c-0.08-0.19-0.13-0.4-0.25-0.73c0.95,0.26,1.79,0.54,2.65,0.71
		c3.56,0.7,6.9-0.06,10.13-1.56c0.65-0.3,1.29-0.63,1.89-1.01c2.09-1.33,4.4-1.88,6.84-1.91c0.46-0.01,0.93,0,1.48,0
		c0.36-0.78,0.66-1.54,1.05-2.26c0.36-0.65,0.72-1.34,1.24-1.86c0.94-0.96,1.87-0.65,2.11,0.66c0.1,0.56,0.12,1.14,0.12,1.71
		C70.4,70.97,70.33,71.5,70.28,72.11z"/>
	<path class="st0" d="M108.01,47.93c0,0.39,0,0.73,0,1.17c-2.69,0-5.31,0-7.95,0c-0.07-0.19-0.14-0.32-0.15-0.45
		c-0.01-0.21,0.02-0.42,0.04-0.66c0.21-0.1,0.39-0.23,0.58-0.28c0.68-0.18,0.88-0.66,0.88-1.3c0-1.04,0.01-2.08,0.01-3.12
		c0-2.37-0.01-4.73,0-7.1c0.01-1.09,0.06-2.17-1.47-2.29c0-0.44,0-0.78,0-1.22c2.18,0,4.31,0,6.51,0c0.09,0.31,0.19,0.64,0.3,1.05
		c0.31-0.23,0.59-0.43,0.87-0.63c1.45-1.04,3.03-1.35,4.67-0.63c1.7,0.74,2.38,2.24,2.45,3.99c0.11,2.68,0.12,5.37,0.17,8.06
		c0.01,0.39,0,0.79,0,1.18c0.01,1.6,0.01,1.6,1.46,2.31c0,0.3,0,0.64,0,1.17c-2.69,0.06-5.31,0.02-8.02,0.03
		c-0.04-0.48-0.06-0.82-0.08-1.12c1.34-0.94,1.34-0.94,1.35-2.56c0-2.65,0-5.31,0-7.96c0-0.29-0.01-0.57-0.02-0.86
		c-0.03-0.54-0.03-1.14-0.61-1.39c-0.63-0.27-1.08,0.17-1.51,0.56c-0.58,0.54-0.88,1.16-0.87,1.99c0.04,2.55,0.01,5.09,0.01,7.64
		c0,0.07,0,0.14,0,0.22C106.66,46.7,106.73,47.68,108.01,47.93z"/>
	<path class="st0" d="M139.87,46.38c0.46-0.27,0.7-0.41,1.03-0.6c0.28,0.24,0.56,0.48,0.88,0.75c-0.78,1.53-1.8,2.62-3.48,2.84
		c-1.63,0.22-2.88-0.39-3.59-2c-0.57,0.4-1.07,0.8-1.62,1.1c-0.59,0.32-1.22,0.61-1.87,0.78c-2.52,0.67-4.63-1.23-4.31-3.81
		c0.17-1.38,0.74-2.59,1.87-3.38c1.58-1.11,3.23-2.11,4.91-3.06c0.66-0.37,0.96-0.77,0.89-1.51c-0.05-0.5-0.02-1-0.03-1.5
		c0-0.78-0.23-1.41-1.04-1.7c-0.73-0.26-1.41-0.05-2.16,0.71c0.19,0.3,0.41,0.62,0.61,0.95c0.61,1,0.58,1.97-0.08,2.81
		c-0.59,0.76-1.73,1.1-2.72,0.81c-1.08-0.31-1.85-1.18-1.93-2.2c-0.12-1.45,0.47-2.62,1.56-3.48c2.3-1.83,4.95-2.21,7.72-1.46
		c1.93,0.52,3.17,2.3,3.22,4.37c0.06,2.69,0.02,5.37,0.04,8.06C139.76,45.31,139.82,45.76,139.87,46.38z M134.56,41.01
		c-0.12-0.05-0.24-0.11-0.36-0.16c-0.61,0.72-1.28,1.41-1.83,2.19c-0.4,0.57-0.52,1.26-0.21,1.94c0.23,0.5,0.62,0.82,1.19,0.69
		c0.57-0.13,1.16-0.34,1.19-1.04C134.59,43.43,134.56,42.22,134.56,41.01z"/>
	<path class="st0" d="M67.2,32.1c1.85,0.04,4.03,1.26,5.26,3.8c1.57,3.23,1.61,6.59,0.05,9.85c-1.22,2.54-3.29,3.88-6.17,3.89
		c-2.84,0.02-4.88-1.28-6.1-3.79c-1.76-3.65-1.64-7.28,0.49-10.75C62.01,33.03,63.81,32.12,67.2,32.1z M68.25,39.74
		c-0.08-1.02-0.12-2.38-0.31-3.73c-0.17-1.24-0.81-1.9-1.57-1.9c-0.81,0-1.38,0.59-1.55,1.88c-0.43,3.17-0.53,6.35-0.13,9.53
		c0.05,0.42,0.14,0.9,0.39,1.21c0.31,0.38,0.78,0.76,1.24,0.86c0.62,0.13,1.09-0.33,1.29-0.91c0.2-0.57,0.35-1.17,0.4-1.77
		C68.12,43.3,68.16,41.69,68.25,39.74z"/>
	<path class="st0" d="M98.45,40.87c0.01,2.24-0.47,4.34-1.84,6.17c-2.49,3.32-7.59,3.56-10.37,0.49c-3.04-3.36-2.98-9.81-0.03-13.25
		c2.68-3.13,8.12-2.86,10.57,0.69C98,36.74,98.46,38.74,98.45,40.87z M93.1,40.64c-0.05,0-0.1,0-0.14-0.01
		c0-1.29,0.01-2.58-0.01-3.86c-0.01-0.35-0.11-0.71-0.2-1.05c-0.27-1.04-0.79-1.59-1.49-1.6c-0.73-0.01-1.23,0.49-1.52,1.55
		c-0.04,0.14-0.09,0.28-0.1,0.42c-0.34,3.17-0.46,6.35-0.05,9.53c0.17,1.31,0.85,2.07,1.68,2.02c0.78-0.05,1.4-0.83,1.51-2.07
		C92.93,43.93,93,42.28,93.1,40.64z"/>
	<path class="st0" d="M74.79,49.08c-0.33-0.99-0.31-1.14,0.52-1.38c0.67-0.2,0.93-0.6,0.94-1.25c0.01-0.32,0.02-0.65,0.02-0.97
		c0-5.38,0-10.76,0-16.13c0-0.07,0-0.14,0-0.22c0.07-1.19,0.03-2.3-1.59-2.36c0-0.47,0-0.83,0-1.27c2.27,0,4.44,0,6.75,0
		c0.05,0.53,0.12,1.02,0.12,1.5c0.01,6.02,0.01,12.05,0.01,18.07c0,0.39,0.02,0.79,0.02,1.18c0,0.75,0.19,1.35,1.08,1.46
		c0.46,0.06,0.68,0.35,0.65,0.83c-0.04,0.51-0.36,0.65-0.81,0.65c-2.44-0.01-4.88,0-7.31-0.01C75.05,49.17,74.91,49.11,74.79,49.08z
		"/>
	<path class="st0" d="M117.38,32.64c2.25,0,4.42,0,6.7,0c0.04,0.52,0.11,0.97,0.11,1.42c0.01,3.55,0,7.1,0.01,10.65
		c0,0.61,0.03,1.22,0.05,1.83c0.02,0.6,0.26,0.98,0.9,1.16c0.89,0.24,0.88,0.31,0.58,1.4c-2.74,0-5.52,0-8.28,0
		c-0.39-0.98-0.36-1.1,0.56-1.41c0.55-0.19,0.84-0.51,0.88-1.08c0-0.07,0.03-0.14,0.03-0.21c0-3.69,0-7.38-0.02-11.07
		c0-0.68-0.27-1.15-1.02-1.29C117.07,33.89,117.11,33.34,117.38,32.64z"/>
	<path class="st0" d="M121.57,30.91c-1.62,0-2.78-1.28-2.78-3.02c0.01-1.71,1.25-3.06,2.8-3.03c1.54,0.03,2.84,1.43,2.83,3.06
		C124.42,29.59,123.15,30.92,121.57,30.91z"/>
	<path class="st0" d="M59.95,54.31c-1.75,0-3.52,0-5.27,0c-0.35-1.11-0.17-1.92,0.52-2.47c0.91-0.72,2.42-0.84,3.44-0.26
		C59.68,52.15,60.14,53.07,59.95,54.31z"/>
	<path class="st0" d="M148.14,35.85c-0.01,1.77-1.45,3.21-3.21,3.21c-1.77,0-3.22-1.45-3.2-3.21c0.02-1.8,1.4-3.19,3.2-3.21
		C146.65,32.62,148.14,34.11,148.14,35.85z M147.51,35.84c0-1.5-1.06-2.59-2.55-2.6c-1.53-0.02-2.65,1.09-2.65,2.62
		c0,1.53,1.13,2.62,2.67,2.6C146.47,38.43,147.51,37.35,147.51,35.84z"/>
	<path class="st0" d="M143.61,34.11c1.03,0.03,1.98-0.37,2.58,0.44c0.24,0.32,0.04,0.96-0.04,1.45c0.04,0.51,0.5,1.01-0.12,1.58
		c-0.51-0.45-0.4-1.74-1.61-1.18c-0.08,0.35-0.16,0.72-0.25,1.16c-0.87-0.34-0.48-1.03-0.54-1.53
		C143.56,35.45,143.61,34.84,143.61,34.11z M144.33,35.6c0.58-0.03,1.22,0.25,1.26-0.42c0.04-0.7-0.62-0.6-1.2-0.57
		C144.38,34.9,144.36,35.17,144.33,35.6z"/>
</g>
</svg>
