<?xml version="1.0" encoding="utf-8"?>
<!-- Generator: Adobe Illustrator 26.0.0, SVG Export Plug-In . SVG Version: 6.00 Build 0)  -->
<svg version="1.1" id="Capa_1" xmlns="http://www.w3.org/2000/svg" xmlns:xlink="http://www.w3.org/1999/xlink" x="0px" y="0px"
	 viewBox="0 0 171 266" style="enable-background:new 0 0 171 266;" xml:space="preserve">
<style type="text/css">
	.st0{fill:#01545C;}
</style>
<g>
	<g>
		<path class="st0" d="M152.7,254.51c1.39-2.46,2.7-4.7,3.92-6.98c1.15-2.15,2.21-4.34,3.27-6.54c0.27-0.57,0.6-0.8,1.23-0.75
			c0.82,0.06,1.65,0.06,2.47,0c0.65-0.04,0.94,0.15,1.1,0.81c2,7.88,4.03,15.76,6.05,23.64c0.06,0.24,0.09,0.49,0.16,0.91
			c-0.73,0-1.39,0-2.04,0c-1.46,0-2.92-0.07-4.37,0.01c-0.87,0.05-1.06-0.37-1.16-1.08c-0.51-3.7-1.05-7.4-1.58-11.09
			c-0.04-0.31-0.12-0.61-0.38-0.98c-0.65,1.13-1.37,2.23-1.94,3.41c-1.36,2.82-2.67,5.67-3.94,8.53c-0.26,0.58-0.53,0.85-1.18,0.8
			c-1.1-0.07-2.44,0.3-3.25-0.2c-0.77-0.47-1-1.82-1.44-2.8c-1.15-2.57-2.27-5.16-3.41-7.73c-0.12-0.28-0.27-0.55-0.41-0.83
			c-0.1-0.02-0.2-0.05-0.29-0.07c-0.49,1.1-1.15,2.15-1.44,3.3c-0.62,2.42-1.09,4.88-1.53,7.33c-0.19,1.07-0.61,1.47-1.74,1.41
			c-1.98-0.1-3.97-0.03-6.08-0.03c0.95-2.85,1.84-5.55,2.75-8.25c1.82-5.4,3.66-10.79,5.45-16.2c0.23-0.69,0.57-0.85,1.27-0.92
			c1.24-0.13,1.83,0.33,2.35,1.45c1.81,3.97,3.74,7.89,5.63,11.83C152.29,253.75,152.43,253.99,152.7,254.51z"/>
		<path class="st0" d="M107.97,265.55c-2.49,0-4.93,0.01-7.36-0.02c-0.24,0-0.63-0.28-0.69-0.5c-0.24-0.8-0.45-1.63-0.52-2.47
			c-0.07-0.79-0.32-1.21-1.16-1.31c-2.04-0.24-4.08-0.51-6.11-0.83c-1.1-0.18-1.89,0.18-2.33,1.17c-0.45,1.01-0.85,2.04-1.2,3.09
			c-0.22,0.67-0.59,0.95-1.31,0.94c-2.11-0.03-4.23-0.01-6.52-0.01c0.28-0.68,0.51-1.19,0.7-1.71c1.98-5.54,3.95-11.08,5.93-16.63
			c0.79-2.2,1.59-4.4,2.35-6.62c0.2-0.59,0.47-0.83,1.15-0.82c2.76,0.05,5.51,0.03,8.27,0.02c0.55,0,0.85,0.13,1.03,0.7
			c2.53,8.09,5.09,16.18,7.64,24.27C107.9,265.02,107.92,265.24,107.97,265.55z M98.47,253.51c-0.87-2.54-1.98-4.76-3.49-6.94
			c-1.38,2.22-2.21,4.45-2.61,6.94C94.45,253.51,96.37,253.51,98.47,253.51z"/>
		<path class="st0" d="M27.32,265.3c-2.49,0-4.8,0-7.1,0c-0.57,0-0.88-0.27-0.94-0.84c-0.08-0.72-0.23-1.45-0.22-2.17
			c0.01-0.65-0.24-0.93-0.84-1.01c-1.95-0.24-3.89-0.49-5.84-0.73c-0.09-0.01-0.19-0.01-0.28-0.02c-2.29-0.16-2.3-0.16-3.19,2
			c-0.18,0.44-0.34,0.89-0.5,1.33c-0.61,1.69-0.61,1.7-2.45,1.6c-1.93-0.1-3.85-0.23-5.85-0.34c0.08-0.3,0.1-0.51,0.18-0.7
			c3.3-7.69,5.96-15.61,8.32-23.63c0.22-0.74,0.53-0.98,1.31-0.97c2.69,0.05,5.39,0.03,8.08,0.01c0.53,0,0.86,0.09,1.06,0.67
			c2.66,7.99,5.35,15.97,8.03,23.95C27.13,264.64,27.18,264.82,27.32,265.3z M17.82,253.43c-1.04-2.33-2.03-4.54-3.1-6.93
			c-1.8,2.16-2.9,4.32-3.11,7.01C13.71,253.59,15.67,254.05,17.82,253.43z"/>
		<path class="st0" d="M32.54,265.07c3.52-5.84,6.96-11.56,10.42-17.3c-1.51-0.96-2.99-1.41-4.69-1.02
			c-1.82,0.41-3.66,0.76-5.49,1.13c-0.33,0.07-0.66,0.1-1.25,0.19c0.43-2.5,0.81-4.83,1.27-7.14c0.04-0.2,0.55-0.44,0.85-0.44
			c5.26-0.02,10.52-0.01,15.78-0.01c2.15,0,4.29,0,6.66,0c-3.91,6.01-8.14,11.62-11.26,18.07c1.86,0.59,3.65,0.29,5.41,0.15
			c1.79-0.14,3.58-0.37,5.54-0.58c-0.15,2.34-0.29,4.61-0.44,6.96C47.92,265.07,40.29,265.07,32.54,265.07z"/>
		<path class="st0" d="M131.65,264.37c-1.82,0.45-3.43,0.96-5.08,1.2c-0.55,0.08-1.36-0.38-1.76-0.84
			c-0.91-1.04-1.67-2.22-2.42-3.39c-0.75-1.17-1.42-2.4-2.13-3.59c-0.18-0.3-0.43-0.57-0.65-0.85c-0.09,0.04-0.18,0.07-0.27,0.11
			c0.08,0.57,0.12,1.15,0.24,1.71c0.3,1.36,0.66,2.71,0.95,4.06c0.1,0.46,0.12,0.94,0.14,1.41c0.03,0.84-0.37,1.31-1.25,1.31
			c-2.03,0-4.05-0.02-6.08,0.01c-0.71,0.01-0.74-0.38-0.74-0.9c0-4.37-0.01-8.74-0.01-13.11c0-3.42,0.03-6.84,0-10.26
			c-0.01-0.79,0.23-1.04,1.03-1.01c1.71,0.06,3.43,0.11,5.13,0c2.01-0.13,3.81,0.41,5.52,1.38c2.1,1.19,4.1,2.51,5.68,4.38
			c1.88,2.22,1.77,3.8-0.4,5.71c-0.69,0.61-1.39,1.2-2.07,1.82c-1.08,0.99-1.46,2.23-0.73,3.51c1.16,2.02,2.48,3.95,3.75,5.91
			C130.78,263.38,131.16,263.77,131.65,264.37z M119.33,245.37c-0.51-0.01-1.03-0.12-1.02,0.71c0.04,1.93-0.02,3.86,0.05,5.79
			c0.02,0.48,0.36,0.97,0.63,1.41c0.08,0.12,0.5,0.19,0.63,0.09c1.47-1.05,2.92-2.13,3.81-3.76c0.16-0.3,0.21-0.75,0.11-1.07
			C123.14,247.2,120.69,245.41,119.33,245.37z"/>
		<path class="st0" d="M77.3,245.58c-1.28,0.16-2.29,0.14-3.2,0.43c-2.77,0.9-4.67,2.86-5.9,5.44c-0.58,1.21-0.18,2.47,0.64,3.37
			c1.01,1.1,2.18,2.14,3.47,2.87c1.43,0.82,3.08,1.26,4.71,1.9c-0.01,0.02-0.03,0.2-0.12,0.34c-0.99,1.7-1.96,3.4-3,5.07
			c-0.15,0.25-0.62,0.53-0.86,0.46c-5.1-1.35-9.43-3.91-12.23-8.49c-2.22-3.64-1.37-7.21,0.98-10.47c2.28-3.17,5.58-4.99,9.12-6.41
			c1.81-0.73,1.84-0.72,3.03,0.85C75.06,242.41,76.11,243.94,77.3,245.58z"/>
	</g>
	<g>
		<path class="st0" d="M131.69,0.38c0.58,0.15,1.18,0.23,1.72,0.48c0.57,0.26,1.06,0.67,1.59,1.01c-0.04,0.09-0.08,0.18-0.12,0.27
			c-0.5,0.03-0.99,0.1-1.49,0.08c-4.44-0.18-8.6,0.82-12.57,2.8c-7.31,3.64-14.63,7.27-21.97,10.88c-6.28,3.09-12.63,6.05-18.87,9.2
			c-6.4,3.23-12.32,7.18-17.24,12.48c-2.78,2.99-5.06,6.33-6.89,9.97c-0.42,0.83-0.33,1.56,0.02,2.53c0.98-1.4,1.92-2.65,2.75-3.97
			c0.39-0.62,0.8-0.87,1.52-0.82c0.78,0.06,1.58,0.01,2.5,0.01c-4.29,5.8-8.52,11.51-12.82,17.32c-0.77-1.26-1.47-2.64-0.99-4
			c0.69-1.93,0.64-3.92,0.98-5.87c0.83-4.78,2.88-9.03,5.66-12.95C60.32,33,66.38,27.43,73.38,22.96c2.79-1.79,5.99-3.01,9.13-4.18
			c9.96-3.7,19.67-7.94,29.12-12.79c4.35-2.23,8.81-4.19,13.66-5.1c0.99-0.19,1.99-0.34,2.98-0.51
			C129.41,0.38,130.55,0.38,131.69,0.38z"/>
		<path class="st0" d="M124.22,199.8c5.72,3.08,11.54,4.78,18.01,5.43c-0.62,1.24-0.98,2.37-1.66,3.26
			c-2.7,3.58-6.33,5.83-10.69,6.76c-3.03,0.65-6.11,1.07-9.18,1.48c-0.69,0.09-1.44-0.28-2.16-0.44c-1.54-0.33-3.07-0.76-4.62-0.96
			c-3.77-0.48-7.54-0.87-11.2-2.04c-1.26-0.4-2.64-0.41-3.96-0.6c-0.03,0.11-0.06,0.23-0.09,0.34c3.7,1.68,7.4,3.37,11.15,5.08
			c-0.13,0.11-0.26,0.26-0.43,0.36c-0.62,0.38-1.25,0.75-1.87,1.13c-2.23,1.35-4.57,2.28-7.25,2.24c-1.58-0.02-3.17,0.11-4.74,0.3
			c-1.91,0.23-3.62-0.29-5.32-1.07c-1.93-0.88-3.92-1.62-5.83-2.54c-1.56-0.75-3.05-0.7-4.69-0.3c-4.95,1.2-9.9,2.46-14.91,3.38
			c-4.04,0.74-8.16,1-12.25,1.47c-0.02-0.09-0.04-0.19-0.06-0.28c0.2-0.08,0.4-0.18,0.61-0.24c7.05-1.96,14.14-3.75,21.12-5.93
			c5.67-1.77,11.21-3.97,16.77-6.07c2.27-0.86,4.45-1.98,6.68-2.96c1.11-0.49,2.24-0.52,3.43-0.18c4.6,1.31,9.18,2.7,13.83,3.79
			c4.81,1.13,9.67,1.1,14.47-0.31c2.45-0.72,4.94-1.35,7.36-2.17c0.9-0.31,1.65-1.05,2.47-1.59c-0.04-0.13-0.07-0.27-0.11-0.4
			c-1.54-0.25-3.08-0.51-4.62-0.76c-3.81-0.63-7.62-1.21-11.42-1.92c-0.97-0.18-1.87-0.73-2.77-1.18c-1.08-0.53-2.11-1.15-3.18-1.7
			c-0.85-0.43-0.99-1.25-0.28-1.92c4.99-4.67,9.53-9.74,13.55-15.27c8.31-11.44,14.48-23.86,17.17-37.84
			c1.22-6.36,1.31-12.78,0.76-19.22c-1.06-12.54-4.83-24.3-10.28-35.57c-1.87-3.88-2.84-8.05-4.02-12.15
			c-0.65-2.25-1.16-4.54-1.79-6.79c-0.39-1.39-0.34-2.74-0.06-4.13c0.98-4.87,1.99-9.74,2.9-14.63c0.61-3.25,0.46-6.44-1.18-9.43
			c-0.25-0.47-0.46-0.96-0.55-1.61c0.27,0.17,0.54,0.32,0.8,0.5c2.63,1.82,3.54,4.57,4.2,7.51c0.6,2.7-0.13,5.29-0.49,7.91
			c-0.47,3.48-1.13,6.94-1.53,10.43c-0.37,3.24,0.22,6.44,0.77,9.63c0.35,2.03,1.08,3.89,2.19,5.63c3.22,5.03,5.38,10.54,7.11,16.21
			c1.98,6.48,4.08,12.93,5.13,19.65c0.87,5.55,1.41,11.12,1.1,16.75c-0.34,6.07-0.62,12.14-2.02,18.1
			c-2.19,9.31-5.83,17.99-10.87,26.11c-4.08,6.58-8.91,12.55-14.49,17.92C124.97,199.22,124.66,199.44,124.22,199.8z"/>
		<path class="st0" d="M41.49,184.06c2.31-6.11,4.64-12.22,6.92-18.34c7.2-19.31,14.39-38.62,21.55-57.95
			c3.71-10.04,7.33-20.11,10.98-30.17c0.15-0.41,0.14-0.87,0.21-1.31c-0.1-0.07-0.19-0.13-0.29-0.2c-0.51,0.33-1.05,0.62-1.51,1.01
			c-1.98,1.63-3.91,3.33-5.91,4.94c-3.81,3.06-8.15,5.22-12.54,7.3c-1.91,0.91-3.84,1.78-5.85,2.56c0.22-0.18,0.42-0.37,0.65-0.53
			c11.1-7.94,21.38-16.8,30.31-27.14c3.16-3.66,5.9-7.68,8.8-11.56c0.49-0.65,0.84-1.42,1.15-2.18c1.29-3.13,2.56-6.27,3.8-9.42
			c0.78-1.99,1.32-4.02,1.19-6.2c-0.08-1.38-0.02-2.77-0.02-4.31c1.12,0.39,2.09,0.74,3.07,1.07c1.14,0.39,2.27,0.8,3.42,1.15
			c0.5,0.15,0.65,0.4,0.69,0.93c0.21,2.84-0.79,5.42-1.66,8.03c-2.26,6.79-5.94,12.78-10.19,18.47c-1.11,1.49-1.95,3.17-3.64,4.18
			c-0.43,0.25-0.66,0.91-0.9,1.42c-6.68,14.47-12.64,29.24-18.45,44.07c-9.05,23.09-18.38,46.05-28.66,68.62
			c-0.66,1.44-1.26,2.9-1.96,4.32c-0.25,0.5-0.69,0.91-1.04,1.35C41.57,184.13,41.53,184.1,41.49,184.06z"/>
		<path class="st0" d="M109,110.7c-0.13,0.1-0.24,0.14-0.27,0.21c-2.45,5.32-4.91,10.64-6.2,16.4c-0.21,0.95-0.3,1.95-0.31,2.92
			c-0.03,3.96-0.04,7.92,0.01,11.88c0.02,1.36,0.2,2.72,0.41,4.06c0.16,1.03-0.16,1.79-1.05,2.21c-1.76,0.85-3.56,1.61-5.5,2.48
			c0-4.43,0-8.65,0-12.94c0.22-0.02,0.48-0.04,0.79-0.07c0.03-0.27,0.07-0.52,0.07-0.77c0.03-2.22-0.14-4.46,0.11-6.65
			c0.79-7.08,3.03-13.57,8.19-18.78c1.91-1.93,3.68-4.01,5.67-6.19c0.2,6.04,1.83,11.42,5.99,16.09c0.58-0.78,1.25-1.4,1.6-2.17
			c2.24-4.88,3.78-10,4.9-15.25c0.03-0.15,0.09-0.31,0.08-0.47c-0.2-7.25,0.93-14.59-1.51-21.68c-0.38-1.1-0.54-2.28-0.83-3.41
			c-0.18-0.69-0.02-1.25,0.46-1.74c1.28-1.3,2.84-2.19,4.74-3.05c0.19,1.92,0.41,3.7,0.52,5.48c0.18,3.19,0.26,6.39,0.46,9.59
			c0.03,0.54,0.43,1.06,0.66,1.59c0.08,0.19,0.26,0.37,0.26,0.55c0.02,2.06,0.01,4.11,0.01,6.26c-0.95-0.15-0.96,0.42-0.96,1.08
			c-0.01,3.38,0.28,6.79-0.58,10.12c-1.69,6.5-4.84,12.2-9.51,17.05c-0.72,0.75-1.29,0.72-1.98,0.06
			c-3.01-2.86-5.06-6.18-4.84-10.49C110.46,113.41,109.63,112.13,109,110.7z"/>
		<path class="st0" d="M59.66,94.2c-0.31,1.49-0.64,2.96-0.92,4.43c-1.15,5.97-2.3,11.94-3.43,17.91c-0.14,0.71-0.15,1.46-0.33,2.16
			c-0.17,0.64-0.49,1.24-0.74,1.86c-0.07,0.17-0.2,0.34-0.19,0.51c0.06,0.86,0.16,1.73,0.46,2.63c0.14-0.26,0.3-0.51,0.41-0.79
			c1.89-4.73,3.78-9.46,5.65-14.2c0.44-1.12,0.87-2.25,1.15-3.42c0.46-1.86,1.96-2.79,3.96-2.3c-0.39,1.13-0.77,2.26-1.16,3.38
			c-5.46,15.73-10.83,31.49-17.01,46.96c-3.04,7.62-6,15.26-8.19,23.18c-0.33,1.19-0.66,2.38-0.92,3.59
			c-0.45,2.07-0.28,2.55,1.4,4.04c-1.6,0.15-3.05,0.36-4.46-0.25c-1.01-0.43-1.34-1.4-1.3-2.36c0.09-2.05,0.06-4.17,0.6-6.11
			c1.04-3.71,2.28-7.38,3.74-10.95c3.39-8.22,6.94-16.38,10.48-24.54c0.8-1.85,1.3-3.71,1.02-5.71c-0.5-3.64,0.05-7.21,0.7-10.76
			c1.69-9.27,4.5-18.24,7.23-27.24c0.28-0.94,0.62-1.72,1.64-2C59.56,94.19,59.65,94.2,59.66,94.2z"/>
		<path class="st0" d="M46.1,210.49c-1.16-1.56-0.81-2.98-0.63-4.33c0.66-5.04,3.16-9.23,6.25-13.12
			c3.96-4.99,8.74-9.15,13.49-13.35c5.03-4.45,10.1-8.86,14.98-13.46c3.79-3.58,7.07-7.61,9.18-12.47c0.15-0.35,0.28-0.7,0.42-1.06
			c0.12-0.31,0.25-0.63,0.45-1.14c0.33,0.57,0.65,0.97,0.81,1.42c0.74,2.15,1.43,4.32,2.15,6.48c0.39,1.18-0.18,1.99-1,2.74
			c-3.81,3.48-7.54,7.06-11.44,10.44c-6.63,5.74-13.41,11.32-20.06,17.05c-4.15,3.57-7.88,7.56-10.58,12.36
			c-1.09,1.93-1.7,4.13-2.6,6.18C47.19,208.97,46.65,209.63,46.1,210.49z"/>
		<path class="st0" d="M131.5,40.96c0.15,2.38-0.25,4.59-1.11,6.68c-1.86,4.54-3.82,9.04-5.74,13.55c-0.12,0.29-0.23,0.59-0.39,0.87
			c-0.93,1.68-1.09,3.41-0.29,5.19c0.41,0.91,0.23,1.47-0.72,2.03c-2.64,1.56-4.94,3.56-6.84,5.97c-2.1,2.65-4.52,4.95-7.16,7.06
			c-0.34,0.27-0.65,0.56-1.02,0.88c3.17,1.45,6.19,0.88,9.28-0.24c-2.31,4.18-6.95,5.51-10.85,3.15c-1.21-0.73-2.31-1.66-3.44-2.53
			c-0.87-0.67-1.69-1.39-2.45-2.29c0.45,0.06,0.92,0.06,1.35,0.19c1.38,0.42,2.61,0.08,3.63-0.84c1.87-1.7,3.73-3.43,5.49-5.24
			c2.05-2.11,3.94-4.38,6-6.49c0.7-0.71,1.67-1.21,2.59-1.63c1.14-0.53,1.15-0.58,0.92-1.78c-0.41-2.15-0.43-4.3,0.68-6.29
			c2.09-3.74,4.01-7.55,5.02-11.75c0.12-0.52,0.33-1.05,0.34-1.58C126.86,42.76,129.54,42.23,131.5,40.96z"/>
		<path class="st0" d="M43.14,210.41c0.55,1.06,1.12,2.19,1.7,3.3c0.41,0.78,0.3,1.37-0.43,1.97c-2.97,2.47-5.94,4.95-8.83,7.51
			c-1.19,1.06-2.19,2.33-3.28,3.51c0.05,0.14,0.1,0.28,0.15,0.42c0.68,0.04,1.4,0.24,2.02,0.07c1.28-0.33,2.59-0.71,3.73-1.34
			c3.94-2.17,7.77-4.53,11.72-6.67c5.03-2.72,9.81-5.94,15.25-7.9c0.89-0.32,1.71-0.83,2.54-1.29c1.22-0.68,2.44-1.12,3.89-0.79
			c0.85,0.19,1.76,0.18,2.69,0.27c0,0.19-0.04,0.35,0.01,0.48c0.55,1.53-0.42,1.97-1.6,2.45c-5.41,2.24-10.86,4.4-16.17,6.87
			c-5.54,2.58-10.89,5.54-16.39,8.2c-2.09,1.01-4.33,1.74-6.55,2.46c-0.71,0.23-1.57,0.11-2.35,0c-1.81-0.25-2.71-1.74-1.97-3.41
			c0.49-1.11,1.16-2.21,1.98-3.1c2.74-2.99,5.61-5.86,8.37-8.82C40.85,213.29,41.94,211.85,43.14,210.41z"/>
		<path class="st0" d="M74.49,43.85c1.48,1.81,3.76,0.39,5.5,1.54c-0.23,0.28-0.42,0.54-0.64,0.78
			c-7.38,8.26-14.24,16.92-19.86,26.49c-3.3,5.61-6.07,11.47-7.9,17.74c-0.05,0.17-0.13,0.34-0.3,0.49c0-2.26-0.02-4.52,0.02-6.79
			c0.01-0.41,0.26-0.83,0.42-1.23c0.38-0.95,1.05-1.88,1.11-2.85c0.2-3.18,1.53-5.89,2.99-8.62c5.17-9.67,11.13-18.8,18.28-27.13
			C74.2,44.16,74.31,44.05,74.49,43.85z"/>
		<path class="st0" d="M109.28,42.43c0.5-0.86,1-1.73,1.51-2.58c3.37-5.64,5.45-11.82,7.67-17.95c1.56-4.29,3.43-8.45,5.89-12.31
			c1.27-1.99,2.72-3.8,4.6-5.27c3.11-2.43,7.37-1.27,9.29,0.33c1.1,0.91,1.59,2.11,1.29,3.56c-0.13,0.62-0.3,1.22-0.51,2.1
			c-0.38-1.05-0.65-1.86-0.98-2.65c-0.99-2.33-3.75-3.21-5.85-1.79c-1.61,1.09-3,2.43-3.78,4.29c-1.73,4.15-3.51,8.27-5.2,12.43
			c-0.67,1.65-0.2,2.83,1.5,3.39c1.64,0.54,3.38,0.77,5.09,1.04c1.01,0.16,2.05,0.14,3.11,0.41c-2.08,0.62-4.13,1.4-6.25,1.78
			c-1.03,0.18-2.22-0.3-3.28-0.66c-2.06-0.7-1.99-0.72-3.26,1.03c-2.4,3.34-4.8,6.68-7.32,9.93c-0.92,1.18-2.16,2.1-3.26,3.14
			C109.45,42.57,109.36,42.5,109.28,42.43z"/>
		<path class="st0" d="M138.29,29.09c0.98-1.19,1.94-2.43,2.67-3.78c1.31-2.44,0.82-4.86-0.6-7.11c-0.57-0.91-1.24-1.76-1.93-2.58
			c-0.9-1.05-0.86-1.79,0.12-2.74c0.39-0.38,0.62-0.92,1.02-1.55c0.6,0.47,1.27,0.88,1.81,1.43c1.4,1.42,2.37,3.11,3.08,4.97
			c0.69,1.8,0.75,3.59-0.08,5.35c-2.25,4.75-6.25,7.72-10.44,10.5C133.76,33.47,136.97,30.7,138.29,29.09z"/>
		<path class="st0" d="M52.86,61.29c0,0.41,0.07,0.83-0.01,1.22c-0.49,2.22-0.31,4.42,0.2,6.59c0.64,2.71,0.37,5.33-0.53,7.92
			c-0.73,2.12-1.41,4.26-2.12,6.39c-0.08,0.25-0.22,0.49-0.43,0.93c0-1.45-0.02-2.67,0-3.89c0.06-3.8,0-7.61,0.24-11.39
			c0.14-2.12,0.73-4.21,1.24-6.29c0.15-0.6,0.73-1.1,1.11-1.65C52.67,61.17,52.77,61.23,52.86,61.29z"/>
		<path class="st0" d="M134.23,30.14c0-1.41,0.19-2.77-0.06-4.05c-0.19-0.99-0.76-2.03-1.45-2.78c-1.61-1.74-1.73-2.52-0.21-4.42
			C138.96,22.12,137.82,27.04,134.23,30.14z"/>
		<path class="st0" d="M79.06,207.05c-1.44,0-2.7,0.02-3.95-0.01c-0.54-0.01-0.85-0.27-0.79-0.9c0.06-0.66-0.01-1.33,0.03-1.99
			c0.07-1.12,1.39-2.08,2.6-1.93c1.93,0.24,2.1,0.44,2.11,2.39C79.06,205.33,79.06,206.05,79.06,207.05z"/>
		<path class="st0" d="M131.63,8.98c1.09,0,2.13,0,3.28,0c0.07,1.17,0.17,2.33,0.17,3.48c0,0.26-0.32,0.65-0.59,0.76
			c-0.39,0.17-0.87,0.2-1.3,0.19c-1.6-0.02-1.77-0.22-1.69-1.82C131.53,10.75,131.58,9.9,131.63,8.98z"/>
	</g>
</g>
</svg>
