<?xml version="1.0" encoding="utf-8"?>
<!-- Generator: Adobe Illustrator 26.0.0, SVG Export Plug-In . SVG Version: 6.00 Build 0)  -->
<svg version="1.1" id="Capa_1" xmlns="http://www.w3.org/2000/svg" xmlns:xlink="http://www.w3.org/1999/xlink" x="0px" y="0px"
	 viewBox="0 0 397 124" style="enable-background:new 0 0 397 124;" xml:space="preserve">
<style type="text/css">
	.st0{fill:#EE755C;}
	.st1{fill:#877C7A;}
</style>
<g>
	<polygon class="st0" points="165.78,71.56 183.05,52.11 166.37,52.11 166.37,44.03 196.22,44.03 196.22,50.98 178.95,70.44 
		196.22,70.44 196.22,78.51 165.78,78.51 	"/>
	<path class="st0" d="M199.79,61.37v-0.13c0-9.86,8.01-17.93,18.59-17.93c10.65,0,18.53,7.94,18.53,17.8v0.07
		c0,9.93-7.94,17.93-18.59,17.93S199.79,71.3,199.79,61.37 M227.12,61.37v-0.13c0-4.96-3.57-9.33-8.87-9.33
		c-5.23,0-8.73,4.24-8.73,9.2v0.07c0,4.96,3.57,9.33,8.8,9.33C223.68,70.57,227.12,66.33,227.12,61.37"/>
	<path class="st0" d="M240.69,61.37v-0.13c0-9.86,8.01-17.93,18.59-17.93c10.65,0,18.53,7.94,18.53,17.8v0.07
		c0,9.93-8.01,17.93-18.59,17.93C248.56,79.17,240.69,71.3,240.69,61.37 M268.02,61.37v-0.13c0-4.96-3.57-9.33-8.87-9.33
		c-5.23,0-8.73,4.24-8.73,9.2v0.07c0,4.96,3.57,9.33,8.8,9.33C264.51,70.57,268.02,66.33,268.02,61.37"/>
	<path class="st0" d="M280.13,73.35l5.29-6.35c3.37,2.71,7.21,4.1,11.18,4.1c2.58,0,3.9-0.86,3.9-2.38v-0.07
		c0-1.46-1.12-2.25-5.82-3.31c-7.35-1.65-12.97-3.77-12.97-10.85v-0.13c0-6.42,5.1-11.05,13.37-11.05c5.89,0,10.46,1.59,14.16,4.57
		l-4.76,6.75c-3.18-2.25-6.62-3.37-9.66-3.37c-2.32,0-3.44,0.99-3.44,2.25v0.07c0,1.59,1.19,2.25,5.96,3.37
		c7.94,1.72,12.84,4.3,12.84,10.72v0.07c0,7.01-5.56,11.25-13.96,11.25C290.18,79.11,284.36,77.19,280.13,73.35"/>
	<path class="st0" d="M14.64,87.38h9.2l14.69,34.68H28.27l-2.51-6.15H12.52l-2.45,6.15H0.01L14.64,87.38z M23.04,108.49l-3.84-9.79
		l-3.9,9.79H23.04z"/>
	<path class="st0" d="M66.19,119.67c-2.98,1.92-6.55,3.04-10.46,3.04c-10.65,0-18.53-7.94-18.53-17.8v-0.07
		c0-9.93,8.01-17.93,18.59-17.93s18.53,7.94,18.53,17.8v0.13c0,3.64-1.06,7.08-3.04,9.86l3.57,2.98l-4.83,5.36L66.19,119.67z
		 M59.3,113.65l-4.76-4.1l4.83-5.43l4.7,4.24c0.4-1.06,0.6-2.18,0.6-3.37v-0.13c0-5.03-3.57-9.4-8.93-9.4
		c-5.23,0-8.73,4.3-8.73,9.33v0.07c0,4.96,3.57,9.33,8.8,9.33C57.12,114.24,58.31,114.05,59.3,113.65"/>
	<path class="st0" d="M78.63,106.97V87.64h9.73v19.12c0,4.96,2.51,7.35,6.35,7.35c3.84,0,6.35-2.25,6.35-7.08V87.64h9.66v19.12
		c0,11.12-6.35,16.01-16.15,16.01C84.78,122.71,78.63,117.69,78.63,106.97"/>
	<path class="st0" d="M125.21,87.38h9.2l14.69,34.68h-10.26l-2.51-6.15h-13.3l-2.45,6.15h-10.06L125.21,87.38z M133.62,108.49
		l-3.84-9.79l-3.9,9.79H133.62z"/>
	<path class="st0" d="M151.68,87.58h16.28c5.29,0,8.93,1.39,11.25,3.77c1.99,1.99,3.04,4.63,3.04,8.01v0.07
		c0,5.29-2.78,8.73-7.08,10.59l8.21,12.04h-11.05l-6.95-10.46h-0.13h-4.1v10.46h-9.53V87.58H151.68z M167.56,104.12
		c3.24,0,5.1-1.59,5.1-4.1v-0.07c0-2.71-1.99-4.1-5.16-4.1h-6.22v8.27L167.56,104.12L167.56,104.12z"/>
	<rect x="187.48" y="87.58" class="st0" width="9.6" height="34.48"/>
	<path class="st0" d="M202.7,106.97V87.64h9.73v19.12c0,4.96,2.51,7.35,6.35,7.35c3.84,0,6.35-2.25,6.35-7.08V87.64h9.73v19.12
		c0,11.12-6.35,16.01-16.15,16.01C208.86,122.71,202.7,117.69,202.7,106.97"/>
	<polygon class="st0" points="239.96,87.58 250.08,87.58 258.29,100.94 266.49,87.58 276.62,87.58 276.62,122.05 267.09,122.05 
		267.09,102.27 258.29,115.77 258.09,115.77 249.35,102.33 249.35,122.05 239.96,122.05 	"/>
	<path class="st0" d="M280.26,116.96l5.29-6.35c3.37,2.71,7.21,4.1,11.18,4.1c2.58,0,3.97-0.86,3.97-2.38v-0.13
		c0-1.46-1.12-2.25-5.82-3.31c-7.35-1.65-12.97-3.71-12.97-10.85V97.9c0-6.42,5.1-11.05,13.3-11.05c5.89,0,10.46,1.59,14.16,4.57
		l-4.76,6.75c-3.18-2.18-6.62-3.37-9.66-3.37c-2.32,0-3.44,0.99-3.44,2.25v0.07c0,1.59,1.19,2.25,5.96,3.37
		c7.94,1.72,12.84,4.3,12.84,10.72v0.13c0,7.01-5.56,11.25-13.96,11.25C290.32,122.65,284.49,120.73,280.26,116.96"/>
	<path class="st0" d="M395.14,70.17c-5.62,0.6-13.63-5.43-23.95-4.7c-5.16,0.33-8.27,1.85-11.78,3.51
		c6.42-6.49,5.76-13.37,4.17-16.41c-3.57-7.08-12.44-9.13-18.99-9.13c-19.39,0-25.74,12.77-25.74,22.3c0,6.02,3.18,12.31,8.87,17.54
		c-9.93,6.49-12.44,13.76-12.44,21.18c0,12.64,10.92,19.52,24.09,19.52c8.54,0,18.26-3.18,24.75-8.27
		c8.4,6.88,11.91,8.14,17.73,8.14c6.55,0.07,12.71-3.31,15.15-8.6c-4.96-0.4-14.76-6.35-21.24-12.04
		c5.56-7.01,6.35-16.34,4.96-24.35C388.39,77.12,393.61,73.68,395.14,70.17 M346.3,113.32c-9,0-16.08-5.49-16.08-13.76
		c0-3.9,1.59-8.87,3.77-10.92l24.35,21.97C354.37,113.38,348.81,113.32,346.3,113.32 M368.93,96.77l-30.9-27.13
		c-3.31-2.91-4.43-5.76-4.43-8.6c0-4.24,3.77-9.46,10.32-9.46c5.49,0,10.19,3.51,10.19,10.19s-2.71,11.65-2.71,11.65h0.07
		c0,0,0,0-0.07,0c2.98,4.17,12.51,5.82,15.68,6.22C369.99,84.07,370.92,91.35,368.93,96.77"/>
	<path class="st1" d="M85.77,61.37v-0.13c0-9.86,8.01-17.93,18.59-17.93c10.65,0,18.53,7.94,18.53,17.8v0.07
		c0,9.93-8.01,17.93-18.59,17.93C93.65,79.17,85.77,71.3,85.77,61.37 M113.1,61.37v-0.13c0-4.96-3.57-9.33-8.87-9.33
		c-5.23,0-8.73,4.24-8.73,9.2v0.07c0,4.96,3.57,9.33,8.8,9.33C109.6,70.57,113.1,66.33,113.1,61.37"/>
	<polygon class="st1" points="127.33,44.03 154.86,44.03 154.86,52.44 136.86,52.44 136.86,58.26 153.14,58.26 153.14,66.2 
		136.86,66.2 136.86,78.51 127.33,78.51 	"/>
	<path class="st1" d="M24.56,0.43h-0.13h-9.2L0.61,35.1H11c0,0,2.32-5.82,2.45-6.09h12.84c0.13,0.26,2.45,6.09,2.45,6.09h10.59
		L24.56,0.43z M16.29,21.27c0.2-0.53,3.18-8.01,3.51-8.87c0.33,0.86,3.31,8.34,3.51,8.87H16.29z"/>
	<path class="st1" d="M41.24,11.21v0.07c0,7.35,6.15,9.33,12.97,10.85c4.7,1.12,5.56,1.85,5.56,3.04v0.07
		c0,1.32-1.32,2.12-3.64,2.12c-3.9,0-7.54-1.32-10.92-4.04l-0.13-0.13l-5.49,6.55l0.13,0.13c4.1,3.64,10.46,5.69,16.08,5.69
		c8.6,0,13.96-4.3,13.96-11.25v-0.07c0-6.62-5.16-9.13-12.84-10.79c-4.83-1.12-5.69-1.79-5.69-3.11v-0.07
		c0-1.26,1.19-1.99,3.18-1.99c3.04,0,6.35,1.19,9.4,3.31l0.2,0.13l4.96-7.01l-0.13-0.13c-3.84-3.04-8.47-4.57-14.1-4.57
		C46.66,0.09,41.24,4.59,41.24,11.21"/>
	<path class="st1" d="M74.79,11.21v0.07c0,7.35,6.15,9.33,12.97,10.85c4.76,1.12,5.56,1.85,5.56,3.04v0.07
		c0,1.32-1.32,2.12-3.64,2.12c-3.84,0-7.54-1.32-10.92-4.04l-0.13-0.13l-5.49,6.55l0.13,0.13c4.1,3.64,9.79,5.69,16.08,5.69
		c8.6,0,13.96-4.3,13.96-11.25v-0.07c0-6.62-5.16-9.13-12.84-10.79c-4.83-1.12-5.69-1.79-5.69-3.11v-0.07
		c0-1.26,1.19-1.99,3.18-1.99c3.04,0,6.35,1.19,9.4,3.31l0.13,0.13l4.96-7.01l-0.13-0.13c-3.84-3.04-8.47-4.57-14.1-4.57
		C80.15,0.09,74.79,4.59,74.79,11.21"/>
	<path class="st1" d="M148.44,17.9v0.07c0,10.12,7.61,17.8,17.73,17.8c6.62,0,11.32-2.38,15.22-7.74l0.13-0.13l-7.41-5.29
		l-0.13,0.13c-1.99,2.45-4.04,4.04-7.54,4.04c-4.5,0-7.87-3.84-7.87-8.87v-0.07c0-4.96,3.37-8.8,7.87-8.8c2.85,0,5.1,1.19,7.28,3.9
		l0.13,0.2l7.41-5.76l-0.13-0.13c-3.51-4.83-8.27-7.15-14.56-7.15C156.25,0.03,148.44,7.7,148.44,17.9"/>
	<polygon class="st1" points="196.61,0.69 186.89,0.69 186.89,35.1 196.81,35.1 196.81,0.69 	"/>
	<path class="st1" d="M224.34,0.43h-0.13h-9.2L200.39,35.1h10.39l2.45-6.09h12.84c0.07,0.26,2.45,6.09,2.45,6.09h10.52L224.34,0.43z
		 M216.07,21.27c0.2-0.53,3.18-8.01,3.51-8.87c0.33,0.86,3.31,8.34,3.51,8.87H216.07z"/>
	<polygon class="st1" points="266.69,0.69 236.65,0.69 236.65,9.36 246.84,9.36 246.84,35.1 256.7,35.1 256.7,9.36 266.89,9.36 
		266.89,0.69 	"/>
	<polygon class="st1" points="281.71,0.69 272.05,0.69 272.05,35.1 281.91,35.1 281.91,0.69 	"/>
	<path class="st1" d="M126.01,0.03c-10.39,0-18.53,7.87-18.53,17.87v0.07c0,9.99,8.14,17.8,18.46,17.8
		c10.39,0,18.53-7.87,18.53-17.87v-0.07C144.47,7.84,136.4,0.03,126.01,0.03 M134.48,17.96c0,5.1-3.64,8.87-8.4,8.87
		s-8.47-3.9-8.47-9v-0.07c0-5.03,3.64-8.87,8.4-8.87s8.54,3.9,8.54,8.93v0.13H134.48z"/>
	<path class="st1" d="M305.07,0.03c-10.39,0-18.53,7.87-18.53,17.87v0.07c0,9.99,8.14,17.8,18.46,17.8
		c10.39,0,18.53-7.87,18.53-17.87v-0.07C323.54,7.84,315.46,0.03,305.07,0.03 M313.54,17.96c0,5.1-3.64,8.87-8.4,8.87
		s-8.47-3.9-8.47-9v-0.07c0-5.03,3.57-8.87,8.4-8.87c4.76,0,8.54,3.9,8.54,8.93v0.13H313.54z"/>
	<path class="st1" d="M360.53,0.69H351v17.54c-0.73-0.93-13.63-17.54-13.63-17.54h-9.13V35.1h9.73V16.84
		c0.73,0.93,14.23,18.26,14.23,18.26h8.54V0.69H360.53z"/>
</g>
</svg>
