<?xml version="1.0" encoding="utf-8"?>
<!-- Generator: Adobe Illustrator 26.3.1, SVG Export Plug-In . SVG Version: 6.00 Build 0)  -->
<svg version="1.1" id="Capa_1" xmlns="http://www.w3.org/2000/svg" xmlns:xlink="http://www.w3.org/1999/xlink" x="0px" y="0px"
	 viewBox="0 0 60 60" style="enable-background:new 0 0 60 60;" xml:space="preserve">
<style type="text/css">
	.st0{fill:#0F9E39;}
	.st1{fill:#FFFFFF;}
</style>
<g>
	<circle class="st0" cx="30" cy="30" r="30"/>
	<g>
		<g>
			<g>
				<path class="st1" d="M29.84,49.95c-9.66,0-17.91-6.88-19.63-16.37c-0.07-0.4,0.19-0.78,0.59-0.85c0.4-0.07,0.78,0.19,0.85,0.59
					c1.59,8.79,9.25,15.17,18.19,15.17c10.2,0,18.49-8.3,18.49-18.49c0-10.2-8.3-18.49-18.49-18.49c-4.94,0-9.59,1.93-13.09,5.43
					c-0.28,0.29-0.75,0.29-1.03,0c-0.29-0.28-0.29-0.75,0-1.03c3.77-3.77,8.78-5.85,14.12-5.85c11,0,19.95,8.95,19.95,19.95
					C49.8,41,40.85,49.95,29.84,49.95z"/>
			</g>
			<g>
				<g>
					<path class="st1" d="M17.51,17.49c-0.62,0.66-1.66,0.7-2.33,0.08c-0.67-0.62-0.7-1.66-0.08-2.33c0.62-0.66,1.66-0.7,2.33-0.08
						C18.09,15.78,18.13,16.82,17.51,17.49z"/>
				</g>
			</g>
		</g>
		<g>
			<g>
				<path class="st1" d="M36.05,44.81c-0.28,0-0.55-0.16-0.67-0.44c-0.16-0.37,0-0.8,0.37-0.96C41.07,41.07,44.5,35.8,44.5,30
					c0-8.08-6.57-14.66-14.66-14.66c-4.34,0-8.44,1.91-11.23,5.24c-0.26,0.31-0.72,0.35-1.03,0.09c-0.31-0.26-0.35-0.72-0.09-1.03
					c3.07-3.66,7.57-5.76,12.35-5.76c8.89,0,16.12,7.23,16.12,16.12c0,6.38-3.77,12.17-9.61,14.75
					C36.25,44.79,36.15,44.81,36.05,44.81z"/>
			</g>
			<g>
				<g>
					<polygon class="st1" points="20.14,21.03 16.03,22.53 16.79,18.23 					"/>
				</g>
			</g>
		</g>
		<g>
			<g>
				<path class="st1" d="M32.44,45.9c-0.35,0-0.66-0.25-0.72-0.61c-0.07-0.4,0.2-0.77,0.6-0.84c0.36-0.06,0.73-0.14,1.09-0.23
					c0.39-0.1,0.79,0.14,0.88,0.53c0.1,0.39-0.14,0.79-0.53,0.88c-0.39,0.1-0.8,0.18-1.2,0.25C32.52,45.89,32.48,45.9,32.44,45.9z"
					/>
			</g>
			<g>
				<path class="st1" d="M29.84,46.12c-0.79,0-1.59-0.06-2.37-0.17c-0.4-0.06-0.67-0.43-0.62-0.83c0.06-0.4,0.43-0.68,0.83-0.62
					c0.71,0.1,1.43,0.16,2.16,0.16l0.16,0c0,0,0.01,0,0.01,0c0.4,0,0.73,0.32,0.73,0.72c0,0.4-0.32,0.73-0.72,0.74L29.84,46.12z
					 M25.21,45.4c-0.07,0-0.15-0.01-0.22-0.03c-0.81-0.26-1.61-0.58-2.36-0.96c-0.36-0.18-0.51-0.62-0.32-0.98
					c0.18-0.36,0.62-0.51,0.98-0.32c0.69,0.35,1.41,0.64,2.15,0.87c0.38,0.12,0.6,0.53,0.48,0.92C25.81,45.21,25.52,45.4,25.21,45.4
					z M20.87,43.23c-0.15,0-0.3-0.04-0.43-0.14c-0.69-0.5-1.34-1.05-1.95-1.65c-0.29-0.28-0.29-0.75,0-1.03
					c0.28-0.29,0.75-0.29,1.03,0c0.55,0.54,1.14,1.05,1.77,1.5c0.33,0.24,0.4,0.69,0.17,1.02C21.32,43.12,21.1,43.23,20.87,43.23z
					 M17.42,39.81c-0.22,0-0.45-0.1-0.59-0.3c-0.5-0.69-0.95-1.42-1.34-2.17c-0.18-0.36-0.04-0.8,0.32-0.98
					c0.36-0.18,0.8-0.04,0.98,0.32c0.35,0.69,0.76,1.35,1.22,1.97c0.24,0.33,0.17,0.78-0.16,1.02
					C17.72,39.76,17.57,39.81,17.42,39.81z"/>
			</g>
			<g>
				<path class="st1" d="M15.21,35.48c-0.31,0-0.59-0.2-0.69-0.5c-0.13-0.39-0.24-0.78-0.33-1.18c-0.09-0.39,0.15-0.79,0.54-0.88
					c0.39-0.09,0.79,0.15,0.88,0.54c0.09,0.36,0.19,0.72,0.3,1.07c0.12,0.38-0.09,0.8-0.47,0.92
					C15.36,35.47,15.28,35.48,15.21,35.48z"/>
			</g>
		</g>
		<g>
			<path class="st1" d="M36.46,37.35c-0.19,0-0.37-0.07-0.52-0.21l-6.62-6.62c-0.14-0.14-0.21-0.32-0.21-0.52v-9.44
				c0-0.4,0.33-0.73,0.73-0.73s0.73,0.33,0.73,0.73v9.14l6.4,6.41c0.29,0.28,0.29,0.75,0,1.03C36.84,37.28,36.65,37.35,36.46,37.35z
				"/>
		</g>
	</g>
</g>
</svg>
