<?xml version="1.0" encoding="utf-8"?>
<!-- Generator: Adobe Illustrator 26.0.0, SVG Export Plug-In . SVG Version: 6.00 Build 0)  -->
<svg version="1.1" id="Capa_1" xmlns="http://www.w3.org/2000/svg" xmlns:xlink="http://www.w3.org/1999/xlink" x="0px" y="0px"
	 viewBox="0 0 920 820" style="enable-background:new 0 0 920 820;" xml:space="preserve">
<style type="text/css">
	.st0{display:none;clip-path:url(#SVGID_00000007404462383368878410000000834302226525757352_);}
	.st1{display:inline;fill:#FECA05;}
	.st2{opacity:0.8;clip-path:url(#SVGID_00000007404462383368878410000000834302226525757352_);}
	.st3{fill:#00A59F;}
</style>
<g>
	<defs>
		<rect id="SVGID_1_" width="920" height="820"/>
	</defs>
	<clipPath id="SVGID_00000064343223791654101490000005493689738557084308_">
		<use xlink:href="#SVGID_1_"  style="overflow:visible;"/>
	</clipPath>
	<g style="display:none;clip-path:url(#SVGID_00000064343223791654101490000005493689738557084308_);">
		<path class="st1" d="M2792.06,82.25L2247.61,626.7c-29.29,29.29-76.78,29.29-106.07,0l-439.5-439.5
			c-29.29-29.29-29.29-76.78,0-106.07l544.45-544.45c29.29-29.29,76.78-29.29,106.07,0l439.5,439.5
			C2821.35,5.48,2821.35,52.97,2792.06,82.25z"/>
	</g>
	<g style="opacity:0.8;clip-path:url(#SVGID_00000064343223791654101490000005493689738557084308_);">
		<path class="st3" d="M887.38,622.54L20.56,1489.36c-29.29,29.29-76.78,29.29-106.07,0l-798.24-798.24
			c-29.29-29.29-29.29-76.78,0-106.07l866.82-866.82c29.29-29.29,76.78-29.29,106.07,0l798.24,798.24
			C916.67,545.77,916.67,593.25,887.38,622.54z"/>
	</g>
</g>
</svg>
