<?xml version="1.0" encoding="utf-8"?>
<!-- Generator: Adobe Illustrator 26.3.1, SVG Export Plug-In . SVG Version: 6.00 Build 0)  -->
<svg version="1.1" id="Capa_1" xmlns="http://www.w3.org/2000/svg" xmlns:xlink="http://www.w3.org/1999/xlink" x="0px" y="0px"
	 viewBox="0 0 515 720" style="enable-background:new 0 0 515 720;" xml:space="preserve">
<style type="text/css">
	.st0{opacity:0.75;}
	.st1{display:none;clip-path:url(#SVGID_00000165934939258524654300000000427592595534588568_);}
	.st2{display:inline;fill:#FECA05;}
	.st3{clip-path:url(#SVGID_00000165934939258524654300000000427592595534588568_);}
	.st4{fill:#00A59F;}
</style>
<g class="st0">
	<defs>
		<rect id="SVGID_1_" class="st0" width="515" height="720"/>
	</defs>
	<clipPath id="SVGID_00000113340467829993741400000015569734018416319409_">
		<use xlink:href="#SVGID_1_"  style="overflow:visible;"/>
	</clipPath>
	<g style="display:none;clip-path:url(#SVGID_00000113340467829993741400000015569734018416319409_);">
		<path class="st2" d="M2330.08,438.26l-441.7,441.7c-27.34,27.34-71.66,27.34-98.99,0l-354.47-354.47
			c-27.34-27.34-27.34-71.66,0-98.99l441.7-441.7c27.34-27.34,71.66-27.34,98.99,0l354.47,354.47
			C2357.42,366.61,2357.42,410.93,2330.08,438.26z"/>
	</g>
	<g style="clip-path:url(#SVGID_00000113340467829993741400000015569734018416319409_);">
		<path class="st4" d="M485.08,271.34l-441.7,441.7c-27.34,27.34-71.66,27.34-98.99,0l-354.47-354.47
			c-27.34-27.34-27.34-71.66,0-98.99l441.7-441.7c27.34-27.34,71.66-27.34,98.99,0l354.47,354.47
			C512.42,199.68,512.42,244,485.08,271.34z"/>
	</g>
</g>
</svg>
