<?xml version="1.0" encoding="utf-8"?>
<!-- Generator: Adobe Illustrator 26.0.0, SVG Export Plug-In . SVG Version: 6.00 Build 0)  -->
<svg version="1.1" id="Capa_1" xmlns="http://www.w3.org/2000/svg" xmlns:xlink="http://www.w3.org/1999/xlink" x="0px" y="0px"
	 viewBox="0 0 60 60" style="enable-background:new 0 0 60 60;" xml:space="preserve">
<style type="text/css">
	.st0{fill:#009E3A;}
	.st1{fill:#FFFFFF;}
</style>
<g>
	<circle class="st0" cx="30" cy="30" r="30"/>
	<path class="st1" d="M42.54,18.73c-1.05,0-2.08,0.19-3.05,0.57c-0.98-1.54-2.69-2.49-4.56-2.49c-0.95,0-1.87,0.26-2.69,0.73
		l-1.98-1.98c-0.23-0.23-0.58-0.32-0.89-0.24c-0.32,0.09-0.56,0.34-0.64,0.66c-0.05,0.19-0.24,1-0.28,2
		c-1.4-0.43-2.84-0.66-4.32-0.66c-8.37,0-15.19,7.09-15.19,15.81c0,3.82,1.33,7.51,3.74,10.39c0.17,0.21,0.43,0.33,0.7,0.33h5.73
		c0.42,0,0.78-0.28,0.89-0.68c0.72-2.75,2.38-4.6,4.12-4.6c1.74,0,3.4,1.85,4.12,4.6c0.11,0.4,0.47,0.68,0.89,0.68h5.73
		c0.27,0,0.53-0.12,0.7-0.33c1.98-2.36,3.23-5.25,3.62-8.34c0-0.02,0.01-0.05,0.01-0.08c1.05,0.45,2.19,0.68,3.34,0.68
		c4.7,0,8.52-3.82,8.52-8.52C51.06,22.55,47.24,18.73,42.54,18.73z M36.48,23.81c-0.71,0-1.29-0.58-1.29-1.29
		c0-0.71,0.58-1.29,1.29-1.29c0.71,0,1.29,0.58,1.29,1.29C37.77,23.23,37.19,23.81,36.48,23.81z"/>
</g>
</svg>
