<?xml version="1.0" encoding="utf-8"?>
<!-- Generator: Adobe Illustrator 26.3.1, SVG Export Plug-In . SVG Version: 6.00 Build 0)  -->
<svg version="1.1" id="Capa_1" xmlns="http://www.w3.org/2000/svg" xmlns:xlink="http://www.w3.org/1999/xlink" x="0px" y="0px"
	 viewBox="0 0 60 60" style="enable-background:new 0 0 60 60;" xml:space="preserve">
<style type="text/css">
	.st0{fill:#0F9E39;}
	.st1{fill:#FFFFFF;}
</style>
<circle class="st0" cx="30" cy="30" r="30"/>
<g>
	<path class="st1" d="M27.73,50.23c-0.16-0.24-0.38-0.47-0.47-0.73c-1.03-3.07-2.05-6.15-3.03-9.23c-0.17-0.54-0.27-1.13-0.27-1.7
		c-0.03-3.03-0.02-6.06-0.01-9.08c0-1.72,1-3.01,2.64-3.43c1.88-0.48,3.96,0.94,4.06,2.88c0.09,1.86,0.04,3.74,0.09,5.6
		c0.01,0.41,0.1,0.85,0.28,1.2c0.32,0.64,0.91,0.97,1.64,0.99c0.86,0.02,1.71-0.03,2.57,0.02c1.09,0.06,2.25-0.69,2.23-2.25
		c-0.01-1.34,0-2.69,0-4.03c0-0.13,0-0.25,0-0.38c0.03-0.02-0.02-0.62,0.02-0.64c-0.01-1.83,1.76-1.25,2.44-0.41
		c1.76,1.93,2.51,6.28,2.8,9.55c0.12,1.57,0.14,2.74,0.01,4.09c-0.24,2.4-0.92,4.71-1.93,6.91c-0.11,0.24-0.31,0.43-0.47,0.65
		C36.11,50.23,31.92,50.23,27.73,50.23z"/>
	<path class="st1" d="M22.61,36.7c-0.06,0.03-0.09,0.05-0.11,0.05c-1.16-0.01-2.32,0.02-3.47-0.03c-1.01-0.05-1.76-0.89-1.8-1.9
		c-0.01-0.12-0.01-0.24-0.01-0.36c0-7.46,0-14.93-0.01-22.39c0-0.74,0.15-1.41,0.79-1.83C18.35,10,18.81,9.8,19.22,9.8
		c4.95-0.03,9.9-0.02,14.85-0.02c1.1,0,1.97,0.85,2.03,1.96c0.01,0.12,0,0.24,0,0.36c0,7.42,0,14.85,0,22.27
		c0,0.84-0.2,1.04-1.05,1.04c-0.67,0-1.34,0-2.01,0c-0.8,0-1.01-0.21-1.01-1c-0.01-1.8,0.02-3.61-0.03-5.41
		c-0.05-2.09-1.78-3.98-3.85-4.29c-2.61-0.4-4.88,1.14-5.43,3.7c-0.09,0.39-0.11,0.81-0.11,1.22c-0.01,2.22,0,4.45,0,6.67
		C22.61,36.43,22.61,36.57,22.61,36.7z"/>
</g>
</svg>
