<?xml version="1.0" encoding="utf-8"?>
<!-- Generator: Adobe Illustrator 26.3.1, SVG Export Plug-In . SVG Version: 6.00 Build 0)  -->
<svg version="1.1" id="Capa_1" xmlns="http://www.w3.org/2000/svg" xmlns:xlink="http://www.w3.org/1999/xlink" x="0px" y="0px"
	 viewBox="0 0 60 60" style="enable-background:new 0 0 60 60;" xml:space="preserve">
<style type="text/css">
	.st0{fill:#FFFFFF;}
	.st1{fill:#009E3A;}
</style>
<g>
	<ellipse class="st0" cx="30" cy="30" rx="30" ry="29.5"/>
	<path class="st1" d="M56.4,30c0-7-2.6-12.9-7.8-17.9s-11.5-7.5-19-7.5s-13.8,2.5-19,7.5S2.8,23.1,2.8,30c0,0.8,0,1.7,0.1,2.5
		c9-12,24.3-17.4,41-11.9c0,0,0.6,0.1,0.5,0.6s-0.3,0.5-1.3,0.3C26.5,17.4,12,32,10,47.3H9.9c0.2,0.2,0.4,0.4,0.7,0.7
		c5.2,5,11.5,7.5,19,7.5s13.8-2.5,19-7.5c1.1-1,2-2.1,2.8-3.2c-1.6-4.5-5.8-13.7-15.8-22.6c0,0,3.6-0.3,5.1,0.3
		c1.1,0.5,8.9,6,14.5,15.1C56,35.2,56.4,32.7,56.4,30z"/>
</g>
</svg>
