<?xml version="1.0" encoding="utf-8"?>
<!-- Generator: Adobe Illustrator 26.0.0, SVG Export Plug-In . SVG Version: 6.00 Build 0)  -->
<svg version="1.1" id="Capa_1" xmlns="http://www.w3.org/2000/svg" xmlns:xlink="http://www.w3.org/1999/xlink" x="0px" y="0px"
	 viewBox="0 0 60 60" style="enable-background:new 0 0 60 60;" xml:space="preserve">
<style type="text/css">
	.st0{fill:#009E3A;}
	.st1{fill:#FFFFFF;}
</style>
<g>
	<circle class="st0" cx="30" cy="30" r="30"/>
	<g>
		<path class="st1" d="M25.26,18.01l-6.36,9.16c-0.2,0.28-0.13,0.67,0.16,0.87l16.6,11.53c0.28,0.2,0.67,0.13,0.87-0.16l6.36-9.16
			c0.2-0.28,0.13-0.67-0.16-0.87l-16.6-11.53C25.85,17.66,25.46,17.73,25.26,18.01z M34.5,35.15L23.6,27.58
			c-0.28-0.2-0.35-0.59-0.16-0.87v0c0.2-0.28,0.59-0.35,0.87-0.16l10.89,7.57c0.28,0.2,0.35,0.59,0.16,0.87v0
			C35.17,35.28,34.78,35.35,34.5,35.15z M35.99,33.01l-10.89-7.57c-0.28-0.2-0.35-0.59-0.16-0.87v0c0.2-0.28,0.59-0.35,0.87-0.16
			l10.89,7.57c0.28,0.2,0.35,0.59,0.16,0.87l0,0C36.66,33.13,36.27,33.2,35.99,33.01z M37.47,30.86L26.58,23.3
			c-0.28-0.2-0.35-0.59-0.16-0.87h0c0.2-0.28,0.59-0.35,0.87-0.16l10.89,7.57c0.28,0.2,0.35,0.59,0.16,0.87v0
			C38.15,30.99,37.76,31.06,37.47,30.86z"/>
		<path class="st1" d="M44.29,25.2c2.83-4.08,1.82-9.69-2.26-12.52c-4.08-2.83-9.69-1.82-12.52,2.26l-1.67,2.41l14.78,10.26
			L44.29,25.2z"/>
		<polygon class="st1" points="22.89,47.05 16.51,42.62 22.54,32.15 30.59,37.74 		"/>
		<g>
			<path class="st1" d="M20.14,52.58c-0.12,0-0.24-0.04-0.33-0.13c-3.31-3.04-1.17-6.69-1.15-6.73c0.14-0.23,0.44-0.3,0.67-0.17
				c0.23,0.14,0.31,0.44,0.17,0.67c-0.07,0.12-1.75,3.02,0.97,5.51c0.2,0.18,0.21,0.49,0.03,0.69
				C20.41,52.52,20.28,52.58,20.14,52.58z"/>
		</g>
	</g>
</g>
</svg>
