<?xml version="1.0" encoding="utf-8"?>
<!-- Generator: Adobe Illustrator 26.3.1, SVG Export Plug-In . SVG Version: 6.00 Build 0)  -->
<svg version="1.1" id="Capa_1" xmlns="http://www.w3.org/2000/svg" xmlns:xlink="http://www.w3.org/1999/xlink" x="0px" y="0px"
	 viewBox="0 0 60 60" style="enable-background:new 0 0 60 60;" xml:space="preserve">
<style type="text/css">
	.st0{fill:#0F9E39;}
	.st1{fill:#FFFFFF;}
</style>
<circle class="st0" cx="30" cy="30" r="30"/>
<path class="st1" d="M30,15.48c-8.02,0-14.52,6.5-14.52,14.52v2.79c0,0.93-0.75,1.68-1.68,1.68c-0.93,0-1.68-0.75-1.68-1.68V30
	c0-9.87,8-17.87,17.87-17.87s17.87,8,17.87,17.87v10.06c0,3.39-2.75,6.14-6.15,6.14l-7.7-0.01c-0.58,1-1.66,1.68-2.9,1.68h-2.23
	c-1.85,0-3.35-1.5-3.35-3.35s1.5-3.35,3.35-3.35h2.23c1.24,0,2.33,0.68,2.9,1.68l7.71,0.01c1.54,0,2.79-1.25,2.79-2.79V30
	C44.52,21.98,38.02,15.48,30,15.48z M22.18,26.65h1.12c1.24,0,2.23,1,2.23,2.23v7.82c0,1.24-1,2.23-2.23,2.23h-1.12
	c-2.46,0-4.47-2-4.47-4.47v-3.35C17.71,28.65,19.72,26.65,22.18,26.65z M37.82,26.65c2.46,0,4.47,2,4.47,4.47v3.35
	c0,2.46-2,4.47-4.47,4.47H36.7c-1.24,0-2.23-1-2.23-2.23v-7.82c0-1.24,1-2.23,2.23-2.23H37.82z"/>
</svg>
