<?xml version="1.0" encoding="utf-8"?>
<!-- Generator: Adobe Illustrator 26.3.1, SVG Export Plug-In . SVG Version: 6.00 Build 0)  -->
<svg version="1.1" id="Capa_1" xmlns="http://www.w3.org/2000/svg" xmlns:xlink="http://www.w3.org/1999/xlink" x="0px" y="0px"
	 viewBox="0 0 60 60" style="enable-background:new 0 0 60 60;" xml:space="preserve">
<style type="text/css">
	.st0{fill:#0F9E39;}
	.st1{fill-rule:evenodd;clip-rule:evenodd;fill:#FFFFFF;}
</style>
<circle class="st0" cx="30" cy="30" r="30"/>
<g>
	<path class="st1" d="M33.57,40.33c2.18,0.93,4.51,0.93,6.69,0c2.18-0.94,3.89-2.65,4.83-4.98c0.92-2.02,0.92-4.51,0-6.53
		c-0.94-2.33-2.65-4.02-4.83-4.97c-0.62-0.15-1.09-0.31-1.71-0.47c-1.56-0.31-3.42-0.15-4.98,0.47c-2.33,0.94-4.04,2.64-4.98,4.97
		c-0.77,2.02-0.77,4.51,0,6.53C29.53,37.68,31.24,39.39,33.57,40.33L33.57,40.33z M28.59,35.36 M28.59,28.83 M33.57,23.86
		 M40.25,23.86 M45.08,28.83 M45.08,35.36 M40.25,40.33 M33.42,26.97c2.18-1.4,4.8-1.4,6.84,0c5.13,3.42,2.65,11.33-3.42,11.33
		C30.77,38.3,28.29,30.39,33.42,26.97L33.42,26.97z M20.81,25.57c-0.92,0-1.86,0.16-2.48-0.62c-1.41-1.09-0.47-3.26,1.41-3.26
		c1.07,0,1.86,0,2.63,0.62c0.32,0.31,0.62,0.77,0.62,1.4C22.99,24.81,22.08,25.57,20.81,25.57L20.81,25.57z M12.74,44.67h34.67
		c1.24,0,2.33-1.08,2.33-2.33V22.47c0-1.24-0.94-2.32-2.18-2.32h-2.8l-0.62-3.42c-0.15-0.78-0.94-1.4-1.71-1.4H30.62
		c-0.94,0-1.56,0.62-1.88,1.4l-0.62,3.42h-5.6l-0.45-0.94c0-1.09-1.88-1.4-2.97-1.4c-1.54,0-3.42-0.31-4.66,0.31
		c-1.09,0.62-0.62,1.09-1.09,2.03h-0.92c-1.26,0.15-2.18,1.08-2.18,2.32v19.87C10.26,43.59,11.35,44.67,12.74,44.67L12.74,44.67z"/>
</g>
</svg>
