<?xml version="1.0" encoding="utf-8"?>
<!-- Generator: Adobe Illustrator 26.3.1, SVG Export Plug-In . SVG Version: 6.00 Build 0)  -->
<svg version="1.1" id="Capa_1" xmlns="http://www.w3.org/2000/svg" xmlns:xlink="http://www.w3.org/1999/xlink" x="0px" y="0px"
	 viewBox="0 0 60 60" style="enable-background:new 0 0 60 60;" xml:space="preserve">
<style type="text/css">
	.st0{fill:#139C39;}
	.st1{fill:#FFFFFF;}
</style>
<circle class="st0" cx="30" cy="30" r="30"/>
<path class="st1" d="M46.97,15.25c-0.06-0.58-0.53-1.03-1.12-1.06c-2.82-0.16-10.94-0.91-15.84-4.57c-0.35-0.26-0.91-0.44-1.21-0.13
	c-4.4,4.51-11.14,6.25-14.76,5.92c-0.34-0.03-0.67,0.08-0.92,0.32c-0.25,0.23-0.38,0.56-0.38,0.9c0.23,10-0.48,23.5,16.18,33.88
	c0.34,0.21,0.77,0.24,1.14,0.07C33.42,48.98,49.53,40.01,46.97,15.25z M39.32,40.54c-3.59,4.82-7.85,7.33-9.52,8.18
	c-0.06,0.03-0.12,0.04-0.18,0.04c-0.07,0-0.15-0.02-0.21-0.06c-6.39-4.08-10.55-8.97-12.73-14.92c-1.94-5.32-2.04-10.74-2.12-15.52
	l-0.01-0.64c0-0.11,0.04-0.21,0.11-0.28c0.07-0.08,0.18-0.12,0.28-0.12h0c3.96,0,9.89-1.75,14.25-5.65
	c0.13-0.12,0.33-0.13,0.48-0.03c4.78,3.17,11.61,4.1,15.25,4.37c0.19,0.01,0.35,0.17,0.36,0.36C46.14,25.92,44.13,34.09,39.32,40.54
	z"/>
<path class="st1" d="M45.02,16.38c-0.01-0.11-0.1-0.2-0.21-0.21c-3.63-0.27-10.44-1.19-15.22-4.36c-0.09-0.06-0.2-0.05-0.28,0.02
	c-4.36,3.9-10.3,5.65-14.25,5.65c-0.07,0-0.13,0.02-0.17,0.07c-0.04,0.04-0.07,0.1-0.07,0.16l0.01,0.63
	c0.08,4.73,0.18,10.1,2.1,15.36c2.15,5.88,6.26,10.7,12.57,14.74c0.07,0.04,0.16,0.05,0.23,0.01c1.64-0.84,5.85-3.32,9.39-8.08
	C43.87,34,45.86,25.93,45.02,16.38z M23.75,21.61c0-2.14,1.73-3.87,3.87-3.87h4.79c2.14,0,3.87,1.73,3.87,3.87v2.64
	c0,0.38-0.31,0.69-0.69,0.69h-0.77c-0.38,0-0.69-0.31-0.69-0.69v-2.64c0-0.94-0.77-1.71-1.71-1.71h-4.79
	c-0.94,0-1.71,0.77-1.71,1.71v2.64c0,0.38-0.31,0.69-0.69,0.69h-0.77c-0.38,0-0.69-0.31-0.69-0.69V21.61z M37.99,37.04
	c0,0.8-0.65,1.45-1.45,1.45H23.48c-0.8,0-1.45-0.65-1.45-1.45V27.02c0-0.8,0.65-1.45,1.45-1.45h13.05c0.8,0,1.45,0.65,1.45,1.45
	V37.04z"/>
<path class="st1" d="M32.37,30.55c0-1.35-1.14-2.44-2.51-2.36c-1.18,0.07-2.14,1.04-2.21,2.23c-0.05,0.92,0.42,1.72,1.15,2.16
	l-0.61,2.55c-0.08,0.33,0.17,0.65,0.51,0.65h2.63c0.34,0,0.59-0.32,0.51-0.65l-0.61-2.55C31.91,32.16,32.37,31.41,32.37,30.55z"/>
</svg>
