<?xml version="1.0" encoding="utf-8"?>
<!-- Generator: Adobe Illustrator 26.3.1, SVG Export Plug-In . SVG Version: 6.00 Build 0)  -->
<svg version="1.1" id="Capa_1" xmlns="http://www.w3.org/2000/svg" xmlns:xlink="http://www.w3.org/1999/xlink" x="0px" y="0px"
	 viewBox="0 0 60 60" style="enable-background:new 0 0 60 60;" xml:space="preserve">
<style type="text/css">
	.st0{fill:#0F9E39;}
	.st1{fill:#FFFFFF;}
</style>
<circle class="st0" cx="30" cy="30" r="30"/>
<g>
	<path class="st1" d="M25.58,32.17c0.57-1.04,1.28-1.88,2.11-2.52c0.83-0.64,1.66-1.22,2.48-1.76c0.82-0.54,1.52-1.13,2.09-1.76
		c0.57-0.64,0.86-1.32,0.86-2.04c0-0.83-0.33-1.54-0.98-2.12c-0.65-0.58-1.5-0.87-2.54-0.87c-0.76,0-1.46,0.11-2.09,0.33
		c-0.64,0.22-1.14,0.49-1.5,0.82c-0.36,0.33-0.67,0.65-0.91,0.98c-0.25,0.33-0.41,0.6-0.48,0.81l-0.19,0.32l-8.67-4.05
		c0.07-0.25,0.19-0.58,0.37-1.01c0.18-0.42,0.65-1.16,1.4-2.21c0.76-1.05,1.63-1.98,2.61-2.8c0.98-0.81,2.36-1.55,4.13-2.23
		c1.78-0.67,3.72-1.01,5.84-1.01c4.05,0,7.41,1.16,10.1,3.49c2.69,2.32,4.03,4.97,4.03,7.94c0,1.77-0.33,3.36-0.98,4.77
		c-0.65,1.41-1.45,2.58-2.39,3.5c-0.94,0.92-1.87,1.76-2.8,2.52c-0.93,0.76-1.71,1.55-2.36,2.39c-0.65,0.83-0.97,1.68-0.97,2.54
		h-9.51c-0.35-0.9-0.53-1.71-0.53-2.44C24.71,34.4,25,33.21,25.58,32.17z M25.63,42.32c0.98-0.94,2.21-1.4,3.7-1.4
		c1.48,0,2.71,0.47,3.68,1.4c0.97,0.94,1.46,2.09,1.46,3.47s-0.49,2.54-1.46,3.47c-0.97,0.94-2.2,1.4-3.68,1.4
		c-1.48,0-2.72-0.47-3.7-1.4c-0.98-0.94-1.47-2.09-1.47-3.47S24.65,43.26,25.63,42.32z"/>
</g>
</svg>
