<?xml version="1.0" encoding="utf-8"?>
<!-- Generator: Adobe Illustrator 26.0.0, SVG Export Plug-In . SVG Version: 6.00 Build 0)  -->
<svg version="1.1" id="Capa_1" xmlns="http://www.w3.org/2000/svg" xmlns:xlink="http://www.w3.org/1999/xlink" x="0px" y="0px"
	 viewBox="0 0 60 60" style="enable-background:new 0 0 60 60;" xml:space="preserve">
<style type="text/css">
	.st0{fill:#009E3A;}
	.st1{fill:#FFFFFF;stroke:#009E3A;stroke-width:0.5;stroke-miterlimit:10;}
</style>
<g>
	<circle class="st0" cx="30" cy="30" r="30"/>
	<g>
		<g>
			<path class="st1" d="M40.69,20.28c-0.37-0.93-0.34-2.07,0.09-3.16l-2.58-1.94c-1.46,1.13-3.31,1.33-4.6,0.37
				c-1.28-0.96-1.61-2.81-0.93-4.52l-2.75-2.07c-1.07,0.83-2.37,1.16-3.49,0.89l-4.83,6.44l14.12,10.6L40.69,20.28z"/>
			<path class="st1" d="M9.64,32.22c0.57,1,0.62,2.33,0.12,3.6l2.75,2.07c1.46-1.13,3.31-1.33,4.6-0.37
				c1.28,0.96,1.61,2.81,0.93,4.52l2.58,1.94c0.92-0.72,2.01-1.06,3.01-0.97l11.23-14.96l-14.12-10.6L9.64,32.22z"/>
		</g>
		<g>
			<path class="st1" d="M49.09,36.37c0.01-1,0.46-2.05,1.27-2.89l-1.67-2.77c-1.77,0.5-3.57-0.01-4.4-1.38
				c-0.83-1.38-0.44-3.2,0.84-4.54l-1.78-2.95c-1.31,0.37-2.63,0.19-3.57-0.48l-6.89,4.15l9.11,15.13L49.09,36.37z"/>
			<path class="st1" d="M15.83,35.79c0.16,1.14-0.3,2.39-1.24,3.38l1.78,2.95c1.77-0.5,3.57,0.01,4.4,1.38
				c0.83,1.38,0.44,3.2-0.84,4.54l1.67,2.77c1.13-0.32,2.26-0.23,3.15,0.23l16.03-9.65l-9.11-15.13L15.83,35.79z"/>
		</g>
	</g>
</g>
</svg>
