<?xml version="1.0" encoding="utf-8"?>
<!-- Generator: Adobe Illustrator 26.3.1, SVG Export Plug-In . SVG Version: 6.00 Build 0)  -->
<svg version="1.1" id="Capa_1" xmlns="http://www.w3.org/2000/svg" xmlns:xlink="http://www.w3.org/1999/xlink" x="0px" y="0px"
	 viewBox="0 0 100 100" style="enable-background:new 0 0 100 100;" xml:space="preserve">
<style type="text/css">
	.st0{fill:#5A2F69;}
</style>
<g>
	<path class="st0" d="M18.63,57.11c0.09-0.26,0.15-0.57,0.18-0.92c0.02-0.35,0.07-0.71,0.13-1.06c0.06-0.36,0.21-0.68,0.46-0.97
		s0.59-0.49,1.04-0.58c0.55-0.12,1.07,0.01,1.56,0.37c0.48,0.36,0.8,0.9,0.95,1.61c0.06,0.28,0.08,0.56,0.07,0.83
		c-0.01,0.28-0.04,0.5-0.1,0.69s-0.11,0.35-0.18,0.5c-0.06,0.14-0.12,0.25-0.18,0.32L22.47,58l-1.11-0.69
		c0.04-0.05,0.08-0.11,0.13-0.19s0.11-0.24,0.17-0.49c0.06-0.24,0.07-0.48,0.02-0.71c-0.06-0.28-0.18-0.49-0.35-0.63
		s-0.37-0.19-0.57-0.15c-0.23,0.05-0.39,0.2-0.48,0.46c-0.09,0.26-0.15,0.56-0.18,0.91c-0.03,0.35-0.07,0.7-0.13,1.06
		s-0.21,0.69-0.45,0.98c-0.24,0.29-0.59,0.49-1.04,0.58c-0.63,0.13-1.2,0.01-1.7-0.37c-0.5-0.38-0.83-0.97-1-1.78
		c-0.07-0.32-0.09-0.63-0.07-0.95c0.02-0.31,0.06-0.58,0.13-0.79c0.07-0.22,0.14-0.41,0.22-0.58c0.08-0.17,0.15-0.29,0.22-0.37
		l0.1-0.13l1.06,0.7c-0.04,0.06-0.09,0.13-0.16,0.23c-0.06,0.1-0.14,0.3-0.21,0.61s-0.09,0.62-0.02,0.92
		c0.07,0.35,0.21,0.61,0.42,0.78c0.21,0.17,0.44,0.22,0.69,0.17C18.38,57.52,18.54,57.37,18.63,57.11z"/>
	<path class="st0" d="M19.26,62.45l-1.75,0.13l-0.66-1.46l7.5-0.38l0.66,1.45l-5.23,5.39l-0.66-1.46l1.25-1.23L19.26,62.45z
		 M23.09,62.19l-2.44,0.17l0.7,1.55L23.09,62.19z"/>
	<path class="st0" d="M29.67,69.12l-1.07,0.82l-2.22-2.9l-1.23,0.94l1.73,2.26l-1.07,0.82l-1.73-2.26l-2.18,1.68l-0.92-1.19
		l5.56-4.27L29.67,69.12z"/>
	<path class="st0" d="M27.4,74.25l-1.53,0.86l-1.22-1.05l6.66-3.52l1.21,1.04l-2.48,7.12l-1.22-1.05l0.62-1.65L27.4,74.25z
		 M30.78,72.4l-2.15,1.19l1.29,1.11L30.78,72.4z"/>
	<path class="st0" d="M35.03,73.55l2.76,1.41c0.62,0.31,1.03,0.77,1.23,1.37s0.16,1.19-0.13,1.76c-0.13,0.25-0.28,0.46-0.47,0.64
		s-0.37,0.31-0.54,0.39c-0.17,0.08-0.34,0.14-0.5,0.18c-0.16,0.04-0.29,0.06-0.38,0.05l-0.14,0l0.13,3.04l-1.43-0.73l-0.09-2.79
		l-1.16-0.59l-1.11,2.18l-1.34-0.68L35.03,73.55z M37.62,76.68c-0.08-0.24-0.24-0.42-0.48-0.55l-1.38-0.7l-0.84,1.65l1.38,0.7
		c0.24,0.12,0.49,0.15,0.73,0.08s0.42-0.22,0.53-0.45C37.68,77.17,37.7,76.93,37.62,76.68z"/>
	<path class="st0" d="M41.1,76.32l1.44,0.44l-2.06,6.7l-1.44-0.44L41.1,76.32z"/>
	<path class="st0" d="M50.62,83.54l-0.09,1.34l-5.24-0.34l0.46-6.98l5.14,0.34l-0.09,1.35l-3.64-0.24l-0.09,1.4l2.84,0.19
		l-0.09,1.34l-2.84-0.19l-0.1,1.55L50.62,83.54z"/>
	<path class="st0" d="M57.98,76.79l1.23,6.89l-1.28,0.23l-4.17-3.78l0.78,4.38l-1.48,0.26l-1.23-6.89l1.28-0.23l4.17,3.78
		l-0.78-4.38L57.98,76.79z"/>
	<path class="st0" d="M64.67,79.74l0.26,1.74l-1.41,0.77l-0.93-7.46l1.4-0.76l5.77,4.83l-1.41,0.77l-1.32-1.16L64.67,79.74z
		 M64.14,75.93l0.35,2.43l1.5-0.81L64.14,75.93z"/>
	<path class="st0" d="M73.03,73.79c0.01-0.44-0.14-0.83-0.45-1.18l-2.79-3.07l1.11-1.01l2.79,3.07c0.57,0.63,0.84,1.35,0.79,2.17
		c-0.04,0.81-0.39,1.52-1.04,2.1c-0.65,0.59-1.38,0.86-2.19,0.83c-0.82-0.04-1.51-0.37-2.08-1l-2.79-3.07l1.11-1.01l2.79,3.07
		c0.31,0.34,0.69,0.53,1.13,0.56c0.44,0.03,0.82-0.1,1.13-0.38C72.85,74.59,73.01,74.23,73.03,73.79z"/>
	<path class="st0" d="M74.37,63.58l1.11,0.77L74.34,66l4.64,3.23l-0.86,1.23l-4.64-3.23l-1.14,1.65l-1.11-0.77L74.37,63.58z"/>
	<path class="st0" d="M75.64,63.17c-0.39-0.95-0.38-1.91,0.01-2.9s1.06-1.69,2-2.11s1.87-0.44,2.8-0.06s1.6,1.03,1.99,1.98
		c0.39,0.95,0.39,1.92-0.01,2.91c-0.4,0.99-1.06,1.69-2,2.11c-0.94,0.42-1.87,0.44-2.8,0.06C76.69,64.77,76.03,64.11,75.64,63.17z
		 M79.97,63.71c0.57-0.24,0.98-0.65,1.21-1.23c0.23-0.58,0.22-1.16-0.02-1.73c-0.25-0.57-0.67-0.97-1.27-1.21
		c-0.6-0.24-1.19-0.24-1.76,0c-0.58,0.24-0.98,0.65-1.21,1.23s-0.22,1.16,0.03,1.73c0.25,0.57,0.68,0.98,1.28,1.22
		S79.39,63.95,79.97,63.71z"/>
	<path class="st0" d="M80.61,55.98l-0.72,0.63l-0.72-0.83l-0.47,0.98l-0.83-0.45l0.57-0.97l-1.15-0.09l0.17-0.99l1.12,0.29
		l-0.22-1.1l0.93-0.14l0.12,1.08l0.95-0.54l0.47,0.84l-1.05,0.48L80.61,55.98z"/>
</g>
<g>
	<path class="st0" d="M27.73,23.88c0.54-0.47,1.14-0.7,1.79-0.67c0.65,0.03,1.2,0.29,1.64,0.79c0.44,0.5,0.63,1.08,0.57,1.73
		s-0.36,1.21-0.9,1.69l-1.09,0.95l1.52,1.73l-1.13,0.99l-4.62-5.27L27.73,23.88z M27.53,25.85l1.32,1.5l1.05-0.92
		c0.23-0.2,0.35-0.43,0.37-0.71c0.02-0.28-0.06-0.52-0.24-0.73c-0.18-0.21-0.42-0.32-0.69-0.34c-0.28-0.01-0.53,0.08-0.76,0.28
		L27.53,25.85z"/>
	<path class="st0" d="M34.99,25.19l0.26,1.74l-1.41,0.77l-0.93-7.47l1.4-0.76l5.77,4.83l-1.41,0.77l-1.32-1.16L34.99,25.19z
		 M34.45,21.38l0.35,2.43l1.5-0.81L34.45,21.38z"/>
	<path class="st0" d="M39.49,18.18c0.55-0.87,1.34-1.42,2.37-1.67s1.99-0.11,2.88,0.41c0.88,0.52,1.44,1.27,1.67,2.25
		c0.1,0.41,0.13,0.81,0.08,1.21s-0.13,0.73-0.25,0.99c-0.13,0.27-0.26,0.51-0.41,0.72c-0.14,0.21-0.27,0.37-0.38,0.47l-0.17,0.15
		c0.02,0.02,0.04,0.04,0.08,0.06c0.03,0.03,0.11,0.07,0.23,0.12s0.24,0.1,0.38,0.13s0.31,0.05,0.53,0.05c0.22,0,0.45-0.03,0.69-0.08
		l0.19-0.05l0.28,1.17l-0.29,0.07c-0.39,0.09-0.77,0.13-1.13,0.12c-0.37-0.02-0.67-0.07-0.92-0.16c-0.25-0.09-0.47-0.19-0.67-0.29
		s-0.34-0.19-0.44-0.28l-0.13-0.12c-0.14,0.05-0.3,0.1-0.5,0.15c-1.04,0.25-2,0.11-2.88-0.41c-0.88-0.52-1.44-1.27-1.67-2.25
		S38.94,19.05,39.49,18.18z M41.55,22.02c0.53,0.33,1.1,0.42,1.71,0.27c0.61-0.15,1.07-0.49,1.39-1.02c0.32-0.53,0.4-1.11,0.25-1.74
		c-0.15-0.63-0.49-1.11-1.02-1.44c-0.53-0.33-1.1-0.42-1.71-0.27c-0.61,0.15-1.07,0.49-1.39,1.02c-0.32,0.53-0.4,1.12-0.25,1.74
		C40.69,21.21,41.02,21.69,41.55,22.02z"/>
	<path class="st0" d="M52.4,21.08c0.32-0.3,0.48-0.69,0.5-1.16l0.18-4.15l1.5,0.07l-0.18,4.15c-0.04,0.85-0.36,1.55-0.96,2.1
		c-0.6,0.55-1.34,0.8-2.22,0.77c-0.87-0.04-1.59-0.36-2.14-0.96c-0.55-0.6-0.81-1.33-0.78-2.18l0.18-4.15l1.5,0.07l-0.18,4.15
		c-0.02,0.47,0.11,0.86,0.41,1.19c0.29,0.33,0.65,0.51,1.08,0.52C51.72,21.53,52.09,21.39,52.4,21.08z"/>
	<path class="st0" d="M60.97,23.36l-0.39,1.29l-5.02-1.51l2.01-6.7l4.93,1.48l-0.39,1.29l-3.49-1.05l-0.4,1.34l2.72,0.82l-0.39,1.29
		l-2.72-0.82l-0.45,1.48L60.97,23.36z"/>
	<path class="st0" d="M69.1,21.37l-0.66,1.18l-1.74-0.97l-2.75,4.93l-1.31-0.73l2.75-4.93l-1.75-0.98l0.66-1.18L69.1,21.37z"/>
	<path class="st0" d="M71.11,30.4l-0.89,1.01l-3.94-3.48l4.64-5.25l3.86,3.41l-0.9,1.01l-2.74-2.42l-0.93,1.05l2.13,1.89l-0.89,1.01
		l-2.13-1.89l-1.03,1.17L71.11,30.4z"/>
</g>
</svg>
