<?xml version="1.0" encoding="utf-8"?>
<!-- Generator: Adobe Illustrator 26.3.1, SVG Export Plug-In . SVG Version: 6.00 Build 0)  -->
<svg version="1.1" id="Capa_1" xmlns="http://www.w3.org/2000/svg" xmlns:xlink="http://www.w3.org/1999/xlink" x="0px" y="0px"
	 viewBox="0 0 100 100" style="enable-background:new 0 0 100 100;" xml:space="preserve">
<style type="text/css">
	.st0{fill:#D80480;}
</style>
<g>
	<path class="st0" d="M23.63,62.63l1.16-0.69l2.69,4.51l-1.16,0.69L20.8,66.3l1.87,3.14l-1.16,0.69l-2.82-4.73l1.16-0.69l5.52,0.85
		L23.63,62.63z"/>
	<path class="st0" d="M27.7,68.25c1.02,0.02,1.91,0.41,2.66,1.17s1.13,1.65,1.14,2.68s-0.35,1.89-1.06,2.6
		c-0.72,0.71-1.59,1.05-2.61,1.03c-1.02-0.02-1.91-0.41-2.66-1.17s-1.13-1.65-1.13-2.68c-0.01-1.03,0.35-1.89,1.06-2.6
		C25.81,68.57,26.68,68.22,27.7,68.25z M25.48,72c-0.01,0.62,0.21,1.16,0.65,1.6c0.44,0.45,0.97,0.67,1.59,0.67
		c0.62,0,1.16-0.23,1.62-0.68c0.46-0.45,0.7-0.99,0.71-1.62c0.01-0.62-0.21-1.16-0.65-1.6c-0.44-0.45-0.97-0.67-1.6-0.67
		c-0.62,0-1.17,0.23-1.63,0.68C25.72,70.84,25.48,71.37,25.48,72z"/>
	<path class="st0" d="M33.73,73.79c0.99-0.27,1.95-0.14,2.88,0.37c0.93,0.52,1.55,1.26,1.84,2.24c0.3,0.98,0.2,1.91-0.29,2.79
		s-1.23,1.46-2.21,1.72s-1.95,0.15-2.88-0.37c-0.93-0.52-1.55-1.26-1.84-2.25c-0.3-0.98-0.2-1.91,0.29-2.79
		C32.01,74.63,32.75,74.06,33.73,73.79z M32.66,78.01c0.17,0.6,0.52,1.05,1.07,1.35s1.12,0.37,1.72,0.19
		c0.6-0.18,1.05-0.55,1.36-1.11s0.39-1.15,0.22-1.75c-0.17-0.6-0.52-1.05-1.07-1.36s-1.12-0.37-1.72-0.19
		c-0.6,0.18-1.05,0.55-1.36,1.11C32.57,76.83,32.49,77.42,32.66,78.01z"/>
	<path class="st0" d="M38.89,83.02l1.84-6.76l1.45,0.39l-1.48,5.46l3.14,0.85l-0.35,1.3L38.89,83.02z"/>
	<path class="st0" d="M46.19,78.56c0.76-0.68,1.67-1.01,2.74-0.97s1.95,0.43,2.66,1.17c0.71,0.74,1.04,1.61,1,2.62
		c-0.04,1.01-0.44,1.85-1.2,2.54c-0.76,0.69-1.67,1.01-2.74,0.97c-1.07-0.04-1.95-0.43-2.66-1.17c-0.71-0.74-1.04-1.62-1-2.62
		S45.43,79.25,46.19,78.56z M47.14,82.82c0.42,0.46,0.94,0.7,1.57,0.72c0.63,0.02,1.17-0.18,1.62-0.6c0.45-0.43,0.69-0.96,0.72-1.61
		c0.02-0.65-0.17-1.2-0.59-1.66c-0.42-0.46-0.94-0.7-1.57-0.73c-0.63-0.02-1.17,0.18-1.62,0.61c-0.45,0.43-0.69,0.97-0.72,1.61
		C46.52,81.81,46.72,82.36,47.14,82.82z M49.31,75.41l1.4,0.05l-1.15,1.46l-1.1-0.04L49.31,75.41z"/>
	<path class="st0" d="M60.51,79.34l0.61,2.52c-0.02,0.04-0.05,0.09-0.09,0.17c-0.04,0.08-0.14,0.21-0.29,0.41s-0.32,0.38-0.5,0.54
		s-0.43,0.34-0.75,0.51c-0.32,0.18-0.66,0.31-1.02,0.4c-1.04,0.25-2,0.11-2.88-0.41s-1.44-1.27-1.68-2.25
		c-0.24-0.98-0.08-1.9,0.47-2.76c0.55-0.86,1.34-1.42,2.38-1.67c0.36-0.09,0.71-0.12,1.05-0.11c0.34,0.02,0.64,0.06,0.88,0.15
		s0.45,0.17,0.65,0.27c0.19,0.09,0.33,0.18,0.42,0.25l0.14,0.12l-0.7,1.15c-0.03-0.02-0.06-0.05-0.1-0.09
		c-0.04-0.04-0.14-0.1-0.28-0.18c-0.14-0.08-0.29-0.15-0.45-0.2s-0.35-0.08-0.59-0.1c-0.24-0.02-0.47,0-0.7,0.06
		c-0.64,0.15-1.12,0.5-1.44,1.02c-0.32,0.53-0.41,1.11-0.26,1.75c0.15,0.64,0.5,1.12,1.03,1.44s1.11,0.41,1.75,0.26
		c0.3-0.07,0.57-0.18,0.8-0.33c0.23-0.15,0.38-0.28,0.46-0.4l0.12-0.16l-0.22-0.92l-1.21,0.29l-0.26-1.07L60.51,79.34z"/>
	<path class="st0" d="M60.79,75.61l1.37-0.62l2.91,6.37l-1.37,0.62L60.79,75.61z"/>
	<path class="st0" d="M67.12,71.9c0.33-0.11,0.62-0.17,0.87-0.18c0.25-0.01,0.49,0,0.7,0.01c0.21,0.02,0.38,0.05,0.49,0.08
		l0.18,0.06l-0.24,1.33c-0.03-0.01-0.07-0.02-0.13-0.04c-0.05-0.02-0.16-0.04-0.33-0.07c-0.16-0.03-0.33-0.03-0.49-0.02
		c-0.16,0.01-0.36,0.05-0.59,0.12c-0.23,0.07-0.44,0.17-0.64,0.31c-0.54,0.37-0.86,0.87-0.97,1.48c-0.11,0.61,0.02,1.19,0.4,1.73
		c0.37,0.54,0.87,0.86,1.48,0.97c0.61,0.11,1.19-0.02,1.73-0.4c0.21-0.15,0.39-0.31,0.54-0.5s0.26-0.37,0.33-0.54
		c0.07-0.17,0.13-0.32,0.17-0.47c0.04-0.15,0.06-0.27,0.06-0.35l0.01-0.13l1.29,0.27c0,0.05,0,0.11-0.01,0.19s-0.04,0.24-0.1,0.48
		c-0.06,0.24-0.14,0.47-0.24,0.69c-0.1,0.22-0.27,0.47-0.49,0.75s-0.48,0.52-0.78,0.73c-0.88,0.61-1.82,0.83-2.83,0.67
		c-1.01-0.17-1.81-0.67-2.38-1.49c-0.58-0.83-0.76-1.74-0.57-2.75c0.2-1,0.73-1.81,1.61-2.42C66.48,72.18,66.79,72.02,67.12,71.9z"
		/>
	<path class="st0" d="M70.13,70.62c-0.07-1.02,0.24-1.94,0.93-2.75c0.69-0.81,1.54-1.27,2.56-1.37s1.91,0.18,2.68,0.83
		c0.77,0.65,1.19,1.49,1.26,2.51c0.07,1.02-0.24,1.94-0.93,2.75c-0.69,0.81-1.54,1.27-2.56,1.37c-1.02,0.1-1.91-0.18-2.68-0.83
		C70.62,72.48,70.2,71.64,70.13,70.62z M74.06,72.5c0.62-0.05,1.13-0.31,1.54-0.79c0.41-0.48,0.58-1.03,0.53-1.64
		c-0.06-0.62-0.33-1.14-0.82-1.56c-0.49-0.42-1.05-0.6-1.67-0.56c-0.62,0.05-1.13,0.31-1.54,0.79c-0.41,0.48-0.58,1.03-0.52,1.65
		s0.33,1.14,0.82,1.56C72.88,72.37,73.44,72.55,74.06,72.5z"/>
	<path class="st0" d="M77.13,65.39l-0.88,0.37l-0.41-1.02l-0.76,0.78l-0.65-0.69l0.85-0.73l-1.06-0.46l0.48-0.88l0.97,0.63
		l0.15-1.11l0.93,0.17l-0.23,1.07l1.08-0.21l0.17,0.94l-1.14,0.12L77.13,65.39z"/>
</g>
<g>
	<path class="st0" d="M27.73,23.88c0.54-0.47,1.14-0.7,1.79-0.67c0.65,0.03,1.2,0.29,1.64,0.79c0.44,0.5,0.63,1.08,0.57,1.73
		s-0.36,1.21-0.9,1.69l-1.09,0.95l1.52,1.73l-1.13,0.99l-4.62-5.27L27.73,23.88z M27.53,25.85l1.32,1.5l1.05-0.92
		c0.23-0.2,0.35-0.43,0.37-0.71c0.02-0.28-0.06-0.52-0.24-0.73c-0.18-0.21-0.42-0.32-0.69-0.34c-0.28-0.01-0.53,0.08-0.76,0.28
		L27.53,25.85z"/>
	<path class="st0" d="M34.99,25.19l0.26,1.74l-1.41,0.77l-0.93-7.47l1.4-0.76l5.77,4.83l-1.41,0.77l-1.32-1.16L34.99,25.19z
		 M34.45,21.38l0.35,2.43l1.5-0.81L34.45,21.38z"/>
	<path class="st0" d="M39.49,18.18c0.55-0.87,1.34-1.42,2.37-1.67s1.99-0.11,2.88,0.41c0.88,0.52,1.44,1.27,1.67,2.25
		c0.1,0.41,0.13,0.81,0.08,1.21s-0.13,0.73-0.25,0.99c-0.13,0.27-0.26,0.51-0.41,0.72c-0.14,0.21-0.27,0.37-0.38,0.47l-0.17,0.15
		c0.02,0.02,0.04,0.04,0.08,0.06c0.03,0.03,0.11,0.07,0.23,0.12s0.24,0.1,0.38,0.13s0.31,0.05,0.53,0.05c0.22,0,0.45-0.03,0.69-0.08
		l0.19-0.05l0.28,1.17l-0.29,0.07c-0.39,0.09-0.77,0.13-1.13,0.12c-0.37-0.02-0.67-0.07-0.92-0.16c-0.25-0.09-0.47-0.19-0.67-0.29
		s-0.34-0.19-0.44-0.28l-0.13-0.12c-0.14,0.05-0.3,0.1-0.5,0.15c-1.04,0.25-2,0.11-2.88-0.41c-0.88-0.52-1.44-1.27-1.67-2.25
		S38.94,19.05,39.49,18.18z M41.55,22.02c0.53,0.33,1.1,0.42,1.71,0.27c0.61-0.15,1.07-0.49,1.39-1.02c0.32-0.53,0.4-1.11,0.25-1.74
		c-0.15-0.63-0.49-1.11-1.02-1.44c-0.53-0.33-1.1-0.42-1.71-0.27c-0.61,0.15-1.07,0.49-1.39,1.02c-0.32,0.53-0.4,1.12-0.25,1.74
		C40.69,21.21,41.02,21.69,41.55,22.02z"/>
	<path class="st0" d="M52.4,21.08c0.32-0.3,0.48-0.69,0.5-1.16l0.18-4.15l1.5,0.07l-0.18,4.15c-0.04,0.85-0.36,1.55-0.96,2.1
		c-0.6,0.55-1.34,0.8-2.22,0.77c-0.87-0.04-1.59-0.36-2.14-0.96c-0.55-0.6-0.81-1.33-0.78-2.18l0.18-4.15l1.5,0.07l-0.18,4.15
		c-0.02,0.47,0.11,0.86,0.41,1.19c0.29,0.33,0.65,0.51,1.08,0.52C51.72,21.53,52.09,21.39,52.4,21.08z"/>
	<path class="st0" d="M60.97,23.36l-0.39,1.29l-5.02-1.51l2.01-6.7l4.93,1.48l-0.39,1.29l-3.49-1.05l-0.4,1.34l2.72,0.82l-0.39,1.29
		l-2.72-0.82l-0.45,1.48L60.97,23.36z"/>
	<path class="st0" d="M69.1,21.37l-0.66,1.18l-1.74-0.97l-2.75,4.93l-1.31-0.73l2.75-4.93l-1.75-0.98l0.66-1.18L69.1,21.37z"/>
	<path class="st0" d="M71.11,30.4l-0.89,1.01l-3.94-3.48l4.64-5.25l3.86,3.41l-0.9,1.01l-2.74-2.42l-0.93,1.05l2.13,1.89l-0.89,1.01
		l-2.13-1.89l-1.03,1.17L71.11,30.4z"/>
</g>
</svg>
