<?xml version="1.0" encoding="utf-8"?>
<!-- Generator: Adobe Illustrator 26.3.1, SVG Export Plug-In . SVG Version: 6.00 Build 0)  -->
<svg version="1.1" id="Capa_1" xmlns="http://www.w3.org/2000/svg" xmlns:xlink="http://www.w3.org/1999/xlink" x="0px" y="0px"
	 viewBox="0 0 100 100" style="enable-background:new 0 0 100 100;" xml:space="preserve">
<style type="text/css">
	.st0{fill:#FFFFFF;}
</style>
<g>
	<path class="st0" d="M28.16,67.16l0.96,1.16l-5.38,4.49l-0.96-1.16L28.16,67.16z"/>
	<path class="st0" d="M34.74,73.4l-4.46,5.4l-1-0.83l0.17-5.63l-2.84,3.43l-1.16-0.96l4.46-5.4l1.01,0.83l-0.18,5.63l2.84-3.44
		L34.74,73.4z"/>
	<path class="st0" d="M40.17,76.12l-0.6,1.21l-1.79-0.89l-2.51,5.07l-1.34-0.67l2.51-5.07l-1.8-0.89l0.6-1.21L40.17,76.12z"/>
	<path class="st0" d="M44.44,83.08l-0.33,1.31l-5.09-1.3l1.73-6.78l4.99,1.27l-0.33,1.31l-3.53-0.9l-0.35,1.36l2.76,0.7l-0.33,1.31
		l-2.76-0.7l-0.38,1.5L44.44,83.08z"/>
	<path class="st0" d="M53.11,81.02l-0.04,2.6c-0.03,0.03-0.07,0.08-0.13,0.14s-0.19,0.17-0.38,0.32c-0.2,0.15-0.4,0.29-0.62,0.4
		c-0.22,0.12-0.5,0.22-0.85,0.31c-0.35,0.09-0.71,0.14-1.08,0.13c-1.07-0.02-1.96-0.39-2.69-1.11c-0.72-0.73-1.08-1.59-1.06-2.6
		s0.4-1.86,1.14-2.56c0.75-0.7,1.65-1.04,2.72-1.03c0.37,0.01,0.72,0.06,1.05,0.16c0.33,0.1,0.6,0.22,0.81,0.36
		c0.21,0.14,0.4,0.28,0.56,0.42c0.16,0.14,0.28,0.26,0.35,0.35l0.11,0.15L52.02,80c-0.02-0.03-0.04-0.06-0.08-0.11
		c-0.03-0.05-0.11-0.13-0.23-0.25c-0.12-0.12-0.24-0.22-0.38-0.31c-0.14-0.09-0.32-0.17-0.55-0.25c-0.23-0.08-0.46-0.12-0.7-0.12
		c-0.65-0.01-1.2,0.2-1.65,0.63c-0.45,0.43-0.67,0.98-0.69,1.63s0.2,1.21,0.63,1.65c0.43,0.45,0.98,0.67,1.63,0.68
		c0.31,0,0.6-0.04,0.86-0.13s0.44-0.18,0.55-0.27l0.15-0.12l0.02-0.95l-1.25-0.02l0.02-1.1L53.11,81.02z"/>
	<path class="st0" d="M54.17,77.58l3.01-0.75c0.67-0.17,1.28-0.09,1.83,0.23c0.55,0.32,0.9,0.8,1.05,1.42
		c0.07,0.27,0.09,0.54,0.06,0.8c-0.03,0.26-0.08,0.47-0.16,0.65c-0.08,0.17-0.17,0.33-0.26,0.46c-0.09,0.13-0.18,0.23-0.26,0.29
		l-0.11,0.1L61.45,83l-1.56,0.39l-1.9-2.06l-1.26,0.31l0.59,2.38l-1.46,0.36L54.17,77.58z M58.19,78.26
		c-0.22-0.13-0.46-0.16-0.73-0.1l-1.5,0.37l0.45,1.8l1.5-0.37c0.27-0.07,0.47-0.21,0.6-0.42s0.17-0.44,0.11-0.69
		C58.55,78.58,58.41,78.39,58.19,78.26z"/>
	<path class="st0" d="M64.22,79.96l0.24,1.74l-1.42,0.75l-0.82-7.47l1.41-0.74l5.7,4.91l-1.42,0.75l-1.3-1.18L64.22,79.96z
		 M63.74,76.14l0.32,2.43l1.51-0.79L63.74,76.14z"/>
	<path class="st0" d="M70.89,77.87l-4.53-5.34l1.15-0.97l3.66,4.31l2.48-2.1l0.87,1.03L70.89,77.87z"/>
	<path class="st0" d="M73.33,70.69l-0.94,0.18l-0.2-1.08l-0.91,0.6l-0.49-0.81l0.98-0.54l-0.94-0.67l0.65-0.76l0.82,0.82l0.37-1.06
		l0.88,0.35l-0.45,1l1.1,0.02l-0.03,0.96l-1.15-0.12L73.33,70.69z"/>
</g>
<g>
	<path class="st0" d="M27.73,23.88c0.54-0.47,1.14-0.7,1.79-0.67c0.65,0.03,1.2,0.29,1.64,0.79c0.44,0.5,0.63,1.08,0.57,1.73
		s-0.36,1.21-0.9,1.69l-1.09,0.95l1.52,1.73l-1.13,0.99l-4.62-5.27L27.73,23.88z M27.53,25.85l1.32,1.5l1.05-0.92
		c0.23-0.2,0.35-0.43,0.37-0.71c0.02-0.28-0.06-0.52-0.24-0.73c-0.18-0.21-0.42-0.32-0.69-0.34c-0.28-0.01-0.53,0.08-0.76,0.28
		L27.53,25.85z"/>
	<path class="st0" d="M34.99,25.19l0.26,1.74l-1.41,0.77l-0.93-7.47l1.4-0.76l5.77,4.83l-1.41,0.77l-1.32-1.16L34.99,25.19z
		 M34.45,21.38l0.35,2.43l1.5-0.81L34.45,21.38z"/>
	<path class="st0" d="M39.49,18.18c0.55-0.87,1.34-1.42,2.37-1.67s1.99-0.11,2.88,0.41c0.88,0.52,1.44,1.27,1.67,2.25
		c0.1,0.41,0.13,0.81,0.08,1.21s-0.13,0.73-0.25,0.99c-0.13,0.27-0.26,0.51-0.41,0.72c-0.14,0.21-0.27,0.37-0.38,0.47l-0.17,0.15
		c0.02,0.02,0.04,0.04,0.08,0.06c0.03,0.03,0.11,0.07,0.23,0.12s0.24,0.1,0.38,0.13s0.31,0.05,0.53,0.05c0.22,0,0.45-0.03,0.69-0.08
		l0.19-0.05l0.28,1.17l-0.29,0.07c-0.39,0.09-0.77,0.13-1.13,0.12c-0.37-0.02-0.67-0.07-0.92-0.16c-0.25-0.09-0.47-0.19-0.67-0.29
		s-0.34-0.19-0.44-0.28l-0.13-0.12c-0.14,0.05-0.3,0.1-0.5,0.15c-1.04,0.25-2,0.11-2.88-0.41c-0.88-0.52-1.44-1.27-1.67-2.25
		S38.94,19.05,39.49,18.18z M41.55,22.02c0.53,0.33,1.1,0.42,1.71,0.27c0.61-0.15,1.07-0.49,1.39-1.02c0.32-0.53,0.4-1.11,0.25-1.74
		c-0.15-0.63-0.49-1.11-1.02-1.44c-0.53-0.33-1.1-0.42-1.71-0.27c-0.61,0.15-1.07,0.49-1.39,1.02c-0.32,0.53-0.4,1.12-0.25,1.74
		C40.69,21.21,41.02,21.69,41.55,22.02z"/>
	<path class="st0" d="M52.4,21.08c0.32-0.3,0.48-0.69,0.5-1.16l0.18-4.15l1.5,0.07l-0.18,4.15c-0.04,0.85-0.36,1.55-0.96,2.1
		c-0.6,0.55-1.34,0.8-2.22,0.77c-0.87-0.04-1.59-0.36-2.14-0.96c-0.55-0.6-0.81-1.33-0.78-2.18l0.18-4.15l1.5,0.07l-0.18,4.15
		c-0.02,0.47,0.11,0.86,0.41,1.19c0.29,0.33,0.65,0.51,1.08,0.52C51.72,21.53,52.09,21.39,52.4,21.08z"/>
	<path class="st0" d="M60.97,23.36l-0.39,1.29l-5.02-1.51l2.01-6.7l4.93,1.48l-0.39,1.29l-3.49-1.05l-0.4,1.34l2.72,0.82l-0.39,1.29
		l-2.72-0.82l-0.45,1.48L60.97,23.36z"/>
	<path class="st0" d="M69.1,21.37l-0.66,1.18l-1.74-0.97l-2.75,4.93l-1.31-0.73l2.75-4.93l-1.75-0.98l0.66-1.18L69.1,21.37z"/>
	<path class="st0" d="M71.11,30.4l-0.89,1.01l-3.94-3.48l4.64-5.25l3.86,3.41l-0.9,1.01l-2.74-2.42l-0.93,1.05l2.13,1.89l-0.89,1.01
		l-2.13-1.89l-1.03,1.17L71.11,30.4z"/>
</g>
</svg>
