<?xml version="1.0" encoding="utf-8"?>
<!-- Generator: Adobe Illustrator 26.3.1, SVG Export Plug-In . SVG Version: 6.00 Build 0)  -->
<svg version="1.1" id="Capa_1" xmlns="http://www.w3.org/2000/svg" xmlns:xlink="http://www.w3.org/1999/xlink" x="0px" y="0px"
	 viewBox="0 0 400.7 123" style="enable-background:new 0 0 400.7 123;" xml:space="preserve">
<style type="text/css">
	.st0{fill:#FFFFFF;}
	.st1{fill:#569D3E;}
</style>
<g>
	<circle class="st0" cx="94.2" cy="41.5" r="34.4"/>
	<g>
		<path class="st0" d="M181.7,69.2c0,2.2,1.8,4,4,4H224c0.1,0,0.2,0,0.3,0c0.1,0,0.2,0,0.3,0h42.2c2.2,0,4-1.8,4-4v-3.9
			c6.4,6.1,14.7,9.5,23.6,9.5c0.2,0,0.5,0,0.6,0c0.2,0,0.7,0,0.7,0c8.9,0,17.3-3.4,23.6-9.6c1.1-1,2.1-2.1,3.1-3.2v7.2
			c0,2.2,1.8,4,4,4h14.8c2.2,0,4-1.8,4-4V50.5l16.3,21.1c0.8,1,1.9,1.6,3.2,1.6h12.8c2.2,0,4-1.8,4-4V14.6c0-2.2-1.8-4-4-4h-14.8
			c-2.2,0-4,1.8-4,4v18.7l-16.2-21.1c-0.8-1-1.9-1.6-3.2-1.6h-12.9c-2.2,0-4,1.8-4,4v7.2c-0.9-1.1-1.9-2.1-2.9-3.1
			c-3.3-3.2-7.2-5.7-11.4-7.3l1.3-1.7c0.9-1.2,1.1-2.8,0.4-4.2c-0.7-1.4-2.1-2.2-3.6-2.2H292c-1.5,0-2.8,0.8-3.5,2.1l-2.5,4.8
			c-5.7,1.4-11,4.4-15.2,8.5c-0.2,0.2-0.4,0.4-0.7,0.6v-4.6c0-2.2-1.8-4-4-4H224c-2.2,0-4,1.8-4,4v37.4h-15.5V14.6c0-2.2-1.8-4-4-4
			h-14.8c-2.2,0-4,1.8-4,4v7.2c-0.9-1.1-1.9-2.2-3-3.1C172.3,12.4,163.9,9,155,9c-0.2,0-0.4,0-0.6,0c-0.2,0-0.5,0-0.7,0
			c-8.9,0-17.3,3.4-23.6,9.6c-2.2,2-4.1,4.3-5.6,6.9c-1.5-2.5-3.4-4.8-5.6-6.8C112.5,12.4,104.1,9,95.2,9c-0.2,0-0.5,0-0.6,0h-1
			c-8.7,0.1-17,3.4-23.2,9.4v-3.8c0-2.2-1.8-4-4-4H23.9c-2.2,0-4,1.8-4,4v13.3c0,2.2,1.8,4,4,4h14.3L19.7,53.3c-0.6,0.7-1,1.7-1,2.6
			v13.3c0,2.2,1.8,4,4,4h44.5c2.2,0,4-1.8,4-4v-3.1c6.2,5.6,14.1,8.6,22.4,8.7l0.8,0c0.2,0,0.5,0,0.7,0c8.9,0,17.3-3.4,23.7-9.6
			c1.3-1.3,2.6-2.6,3.7-4.1c0.8-1.1,1.1-2.5,0.6-3.8c-0.3-0.9-0.8-2.1-1.3-3.3c0.2,0.1,0.4,0.2,0.6,0.3c1.7,4.2,4.3,7.8,7.6,10.9
			c6.4,6.2,14.8,9.7,23.7,9.7c0.2,0,0.4,0,0.6,0c0.3,0,0.7,0,0.7,0c8.9,0,17.3-3.4,23.6-9.6c1.1-1,2.1-2.1,3-3.2V69.2z M283.9,42
			c0-0.1,0-0.1,0-0.2c-0.1-3,1.1-6,3.2-8.2c2-2,4.8-3.2,7.6-3.2l0.4,0l0.3,0c2.9,0,5.6,1.2,7.6,3.2c2.1,2.2,3.3,5.2,3.2,8.2
			c0,0.1,0,0.1,0,0.2c0.1,3.1-1.1,6.1-3.2,8.3c-0.1,0.1-0.2,0.2-0.2,0.3c-2,1.9-4.6,3-7.4,3l-0.3,0l-0.3,0c-2.9,0-5.7-1.2-7.7-3.3
			C285,48.1,283.8,45.1,283.9,42z M165.6,41.8c0,0.1,0,0.1,0,0.2c0.1,3.1-1.1,6.1-3.2,8.3c-2,2.1-4.8,3.2-7.6,3.2l-0.3,0l-0.3,0
			c-2.9,0-5.7-1.2-7.7-3.3c-2.1-2.2-3.3-5.2-3.2-8.3c0-0.1,0-0.1,0-0.2c-0.1-3,1.1-6,3.2-8.2c2-2,4.8-3.2,7.6-3.2l0.4,0l0.3,0
			c2.9,0,5.6,1.2,7.6,3.2C164.5,35.7,165.7,38.7,165.6,41.8z M67.2,51.9H50.9l9.2-10.7c0,0.2,0,0.4,0,0.6c0,1.1,0.1,2.1,0.2,3.2
			c0.2,1.6,1.3,3,2.9,3.5c0.3,0.1,0.7,0.1,1.1,0.1c1.3,0,2.5-0.6,3.2-1.6c4-5.4,9.3-9.4,15.3-11.8c-5.7,4.6-10.1,11-12.6,18.1
			C69.5,52.5,68.4,51.9,67.2,51.9z"/>
		<path class="st0" d="M381.7,108.8l-10.7-26c-0.6-1.5-2.1-2.5-3.7-2.5h-4.1c-1.6,0-3.1,1-3.7,2.5l-4.7,11.5c-0.6-3.1-2-6.1-4.4-8.6
			c-0.1-0.1-0.3-0.3-0.3-0.3c-2.5-2.6-5.9-4.4-9.5-4.9c-0.9-0.1-1.7-0.2-2.6-0.2h-9.1c-1.2,0-2.2,0.5-2.9,1.3
			c-0.7-0.8-1.8-1.3-2.9-1.3h-4.1c-0.6,0-1.1,0.1-1.6,0.4c-0.5-0.2-1.1-0.4-1.6-0.4h-4.2c-1.6,0-3.1,1-3.7,2.6l-4.2,11l-4.2-11
			c-0.6-1.5-2.1-2.6-3.7-2.6h-4.3c-1.3,0-2.6,0.7-3.3,1.7c-0.7,1.1-0.9,2.5-0.4,3.7l10.2,25.9c0.6,1.5,2.1,2.5,3.7,2.5h4.1
			c1.7,0,3.1-1,3.7-2.5l5.7-14.6v13.2c0,2.2,1.8,4,4,4h4.1c1.2,0,2.2-0.5,2.9-1.3c0.7,0.8,1.8,1.3,3,1.3h9.1c0,0,0,0,0,0
			c0.8,0,1.7-0.1,2.6-0.2c2.9-0.4,5.7-1.7,8-3.5c0.1,0.7,0.3,1.3,0.7,1.9c0.7,1.1,2,1.8,3.3,1.8h4.2c1.6,0,3.1-1,3.7-2.5l1.8-4.4
			h6.1l1.8,4.4c0.6,1.5,2.1,2.5,3.7,2.5h4.3c1.3,0,2.6-0.7,3.3-1.8C382.1,111.5,382.2,110.1,381.7,108.8z M341.4,101.2
			c-0.6,0.7-1.4,1.1-2.3,1.3c-0.4,0.1-0.8,0.1-1.2,0.1h-1V92.1h1c0.4,0,0.8,0,1.1,0.1c0.9,0.2,1.7,0.7,2.4,1.3
			C343.4,95.7,343.4,99,341.4,101.2z"/>
		<path class="st0" d="M276.4,82.8c-0.6-1.5-2.1-2.5-3.7-2.5h-4c-1.6,0-3.1,1-3.7,2.5l-8.2,19.8H249V84.4c0-2.2-1.8-4-4-4h-4.1
			c-2.2,0-4,1.8-4,4v25.9c0,2.2,1.8,4,4,4h16.4c0.2,0,0.4,0,0.5,0h4.3c1.6,0,3.1-1,3.7-2.5l1.8-4.4h6.1l1.8,4.4
			c0.6,1.5,2.1,2.5,3.7,2.5h4.2c1.3,0,2.6-0.7,3.3-1.8c0.7-1.1,0.9-2.5,0.4-3.7L276.4,82.8z"/>
		<path class="st0" d="M172.8,102.6h-2.7c1.9-0.3,3.4-2,3.4-4V95c0-1.1-0.5-2.1-1.2-2.9h0.2c2.2,0,4-1.8,4-4v-3.7c0-2.2-1.8-4-4-4
			h-18.3c-1,0-2,0.4-2.7,1.1c-0.7-0.7-1.7-1.1-2.7-1.1h-4.1c-2.2,0-4,1.8-4,4l-0.1,15.7c0,0.8-0.3,1.5-0.9,2.2
			c-0.5,0.5-1.2,0.8-1.9,0.8c-0.7,0-1.3-0.3-1.8-0.7c0,0-0.1-0.1-0.2-0.2c-0.6-0.5-0.8-1.3-0.8-2.2V84.4c0-2.2-1.8-4-4-4h-4.1
			c-2.2,0-4,1.8-4,4v2.5c-0.5-0.7-1.1-1.3-1.7-1.9c-3.4-3.2-7.8-5-12.5-5c-4.7,0-9.1,1.8-12.6,5c-0.7,0.7-1.3,1.4-1.9,2.2
			c-0.6-1.3-1.4-2.5-2.5-3.5c-2.3-2.2-5.3-3.4-8.5-3.4c-0.1,0-0.2,0-0.3,0H72.1c-2.2,0-4,1.8-4,4v12.9l-6-14.5
			c-0.6-1.5-2.1-2.5-3.7-2.5h-4c-1.6,0-3.1,1-3.7,2.5l-4.6,11c0.3-3.4-0.8-7-3.4-9.7L42.5,84c-2.4-2.3-5.5-3.6-8.8-3.6l-10.6,0
			c-2.2,0-4,1.8-4,4v26c0,2.2,1.8,4,4,4h4.1c2.2,0,4-1.8,4-4v-5.3l2.5,0c3.3,0,6.4-1.3,8.8-3.6c0.3-0.3,0.6-0.6,0.9-0.9l-3.4,8.2
			c-0.5,1.2-0.4,2.6,0.4,3.8c0.7,1.1,2,1.8,3.3,1.8h4.2c1.6,0,3.1-1,3.7-2.5l1.8-4.4h6.1l1.8,4.4c0.6,1.5,2.1,2.5,3.7,2.5h4.2
			c0.5,0,1-0.1,1.5-0.3c0.5,0.2,0.9,0.3,1.4,0.3h4.1c2.2,0,4-1.8,4-4v-5.2l4,7.2c0.7,1.3,2,2.1,3.5,2.1h4.5c1.4,0,2.7-0.8,3.5-2
			c0.5-0.8,0.6-1.8,0.5-2.8c0,0,0.1,0.1,0.1,0.1c3.3,3.2,7.6,5,12.3,5c0,0,0.7,0,0.9,0c0.3,0.4,0.7,0.7,1,1c0.9,0.7,1.8,1.4,2.8,2
			c1.4,0.9,3,1.5,4.6,1.8c1.2,0.2,2.4,0.4,3.6,0.4c0.7,0,1.4,0,2-0.1c2-0.2,3.5-1.9,3.5-4v-3.3c0-1.1-0.5-2.2-1.3-3
			c-0.7-0.7-1.7-1-2.7-1c-0.1,0-0.2,0-0.3,0c0.2-0.2,0.3-0.3,0.4-0.5c0.5-0.6,0.9-1.2,1.2-1.8c0.7,1.6,1.8,3.1,3.1,4.4
			c2.8,2.8,6.6,4.3,10.5,4.3s7.7-1.5,10.5-4.2c0.7-0.7,1.3-1.4,1.8-2.1v2c0,2.2,1.8,4,4,4h18.7c2.2,0,4-1.8,4-4v-3.7
			C176.8,104.4,175,102.6,172.8,102.6z M34.1,92.6c0,0.1,0,0.1,0,0.2c0,0.1,0,0.2-0.1,0.2c-0.1,0-0.1,0.1-0.2,0.2
			c-0.1,0.1-0.2,0.2-0.4,0.2h-2.3v-1.3h2.3C33.8,92.1,34.1,92.4,34.1,92.6z M108.8,91.9c1.5,0,2.9,0.6,3.9,1.7
			c1,1.1,1.6,2.5,1.6,3.9c0,1.5-0.6,2.9-1.7,3.9c-1,1-2.4,1.6-3.8,1.6l-0.2,0c-1.5,0-2.9-0.6-3.9-1.7c-1-1.1-1.6-2.5-1.6-3.9
			C103.2,94.3,105.7,91.9,108.8,91.9C108.7,91.9,108.7,91.9,108.8,91.9C108.7,91.9,108.7,91.9,108.8,91.9z M83.3,92.5
			c0,0,0,0.1,0,0.1c0,0,0,0-0.1,0c-0.1,0-3,0-3,0v-0.5l2.9,0c0.1,0,0.2,0.1,0.2,0.1L83.3,92.5z"/>
		<path class="st0" d="M229.5,102.6h-2.7c1.9-0.3,3.4-2,3.4-4V95c0-1.1-0.5-2.1-1.2-2.9h0.2c2.2,0,4-1.8,4-4v-3.7c0-2.2-1.8-4-4-4
			h-18.3c-2.2,0-4,1.8-4,4V87c-0.3-0.4-0.7-0.9-1.1-1.3c-0.1-0.1-0.3-0.3-0.3-0.3c-2.5-2.6-5.9-4.4-9.5-4.9
			c-0.9-0.1-1.7-0.2-2.6-0.2h-9.1c-2.2,0-4,1.8-4,4v26c0,2.2,1.8,4,4,4h9.1c0,0,0,0,0,0c0.9,0,1.7-0.1,2.6-0.2
			c3.6-0.5,7-2.2,9.4-4.8c0.5-0.5,1-1.1,1.5-1.7v2.6c0,2.2,1.8,4,4,4h18.7c2.2,0,4-1.8,4-4v-3.7
			C233.5,104.4,231.7,102.6,229.5,102.6z M196.8,101.2c-0.6,0.7-1.4,1.1-2.3,1.3c-0.4,0.1-0.8,0.1-1.2,0.1h-1V92.1h1
			c0.4,0,0.8,0,1.1,0.1c0.9,0.2,1.7,0.7,2.4,1.3C198.9,95.7,198.9,99,196.8,101.2z"/>
	</g>
	<g>
		<polygon class="st1" points="341.2,38.8 364.7,69.2 377.5,69.2 377.5,14.6 362.7,14.6 362.7,45 339.3,14.6 326.4,14.6 326.4,69.2 
			341.2,69.2 		"/>
		<polygon class="st1" points="224,55.9 200.5,55.9 200.5,14.6 185.7,14.6 185.7,69.2 224,69.2 		"/>
		<polygon class="st1" points="224.7,55.9 224.7,69.2 265.8,69.2 266.9,69.2 266.9,56.7 265.8,56.7 238.8,56.7 238.8,47.4 
			259.9,47.4 259.9,35.6 238.8,35.6 238.8,27.1 265.8,27.1 266.1,27.1 266.1,14.6 265.8,14.6 224.3,14.6 224,14.6 224,55.9 
			224.3,55.9 		"/>
		<path class="st1" d="M301.4,13.6l4.7-6.4H292l-3.4,6.4c-5.7,1.1-11,3.8-15.1,7.9c-11.2,10.4-11.9,27.9-1.6,39.2
			c0.5,0.5,1,1.1,1.6,1.6c5.8,5.6,13.5,8.7,21.6,8.5l0,0c8,0.2,15.8-2.9,21.6-8.5c5.7-5.2,8.9-12.6,8.9-20.4
			c0.1-7.7-3.2-15.1-8.9-20.4C312.5,17.4,307.2,14.6,301.4,13.6z M306,53.1c-2.8,2.9-6.8,4.6-10.8,4.5l0,0c-4.1,0.1-8-1.5-10.8-4.5
			c-2.9-3-4.5-7-4.4-11.2c-0.1-4.2,1.5-8.2,4.4-11.1c2.8-2.9,6.8-4.5,10.8-4.4l0,0c4.1-0.1,8,1.5,10.8,4.4c2.9,3,4.5,7,4.4,11.1
			C310.5,46,308.9,50.1,306,53.1L306,53.1z"/>
		<polygon class="st1" points="67.2,55.9 42.2,55.9 66.4,27.9 66.4,14.6 23.9,14.6 23.9,27.9 46.9,27.9 22.7,55.9 22.7,69.2 
			67.2,69.2 		"/>
		<path class="st1" d="M175.9,21.5c-5.8-5.6-13.5-8.7-21.5-8.5l0,0c-8-0.2-15.8,2.9-21.6,8.5c-4.3,3.9-7.2,9.1-8.4,14.9
			c-1.1-5.7-4.1-10.9-8.3-14.9c-5.8-5.6-13.5-8.7-21.6-8.5h-0.9C85.9,13,78.5,16.1,73,21.5c-5.7,5.2-8.9,12.6-8.9,20.4
			c0,1,0,1.9,0.1,2.8c6.9-9.4,17.7-15.2,29.4-15.9c5.8-0.3,11.7,0.5,17.2,2.3c0,0,0.7,0.1,0.6,0.7c-0.1,0.6-0.4,0.6-1.5,0.3
			c-5.4-1.3-11.1-0.9-16.2,1.2c-11.3,4.5-19.8,16.2-21.3,28.2h-0.1c0.2,0.3,0.5,0.5,0.8,0.8c5.5,5.4,12.9,8.4,20.6,8.5h0.9
			c8,0.2,15.8-2.9,21.6-8.5c1.2-1.1,2.3-2.3,3.3-3.6c-1.8-5.1-6.6-15.5-17.9-25.6c0,0,4.1-0.4,5.8,0.3c1.3,0.5,10.1,6.8,16.5,17.1
			c0.3-1,0.6-2.1,0.8-3.1c1.1,5.7,4,11,8.3,14.9c5.7,5.6,13.5,8.7,21.6,8.5l0,0c8,0.2,15.8-2.9,21.6-8.5c5.7-5.2,8.9-12.6,8.9-20.4
			C184.9,34.1,181.6,26.7,175.9,21.5z M94.5,27.6l-0.9-0.5l-4-2.2c-0.3-0.1-0.7-0.5-0.5-1s1.1-0.1,1.1-0.1c1.2,0.4,2.4,0.9,3.4,1.3
			c1.6,0.7,3.1,1.5,4.6,2.4L94.5,27.6z M165.2,53.1c-2.8,2.9-6.8,4.6-10.8,4.5l0,0c-4.1,0.1-8-1.5-10.8-4.5c-2.9-3-4.5-7-4.4-11.2
			c-0.1-4.2,1.5-8.2,4.4-11.1c2.8-2.9,6.8-4.5,10.8-4.4l0,0c4.1-0.1,8,1.5,10.8,4.4c2.9,3,4.5,7,4.4,11.1
			C169.7,46,168.1,50.1,165.2,53.1z"/>
		<path class="st1" d="M33.5,84.4H23.1v26h4.1v-9.3h6.3c2.3,0.1,4.5-0.8,6.2-2.4C43,95.5,43,90.3,39.9,87c-0.1-0.1-0.1-0.1-0.2-0.2
			C38,85.2,35.8,84.3,33.5,84.4z M36.7,96c-0.9,0.9-2,1.4-3.3,1.4h-6.3v-9.3h6.3c2.5,0,4.6,2,4.6,4.5c0,0,0,0.1,0,0.1
			C38.1,94,37.6,95.2,36.7,96L36.7,96z"/>
		<polygon class="st1" points="245,84.4 240.9,84.4 240.9,110.3 257.6,110.3 257.6,106.6 245,106.6 		"/>
		<path class="st1" d="M367.2,84.4h-4.1l-10.7,26h4.2l2.8-6.8h11.5l2.8,6.8h4.3L367.2,84.4z M365.2,99.7H361l4.3-10.7l0,0l4.2,10.7
			L365.2,99.7z"/>
		<polygon class="st1" points="303.4,105.1 295.4,84.4 291.1,84.4 301.3,110.3 305.4,110.3 315.6,84.4 311.3,84.4 		"/>
		<path class="st1" d="M270.7,84.4h-2l-10.8,26h4.3l2.8-6.8h11.5l2.8,6.8h4.2l-10.7-26H270.7z M270.7,99.7h-4.3l4.3-10.7l0,0
			l4.2,10.7L270.7,99.7z"/>
		<path class="st1" d="M56.4,84.4h-2l-10.8,26h4.2l2.8-6.8h11.5l2.8,6.8h4.2l-10.8-26H56.4z M56.4,99.7h-4.2L56.4,89l0,0l4.2,10.7
			L56.4,99.7z"/>
		<rect x="318.9" y="84.4" class="st1" width="4.1" height="25.9"/>
		<path class="st1" d="M144.5,100c0,1.9-0.7,3.7-2,5c-2.5,2.7-6.7,2.8-9.3,0.3c-0.1-0.1-0.2-0.2-0.3-0.3c-1.3-1.3-2-3.1-2-5V84.4
			h-4.1V100c0,2.9,1.1,5.6,3.2,7.6c4.3,4.2,11.2,4.2,15.5,0c2.1-2,3.2-4.7,3.2-7.6V84.4h-4.1L144.5,100z"/>
		<polygon class="st1" points="158.2,98.7 169.5,98.7 169.5,95 158.2,95 158.2,88.1 172.4,88.1 172.4,84.4 154.1,84.4 154.1,110.3 
			172.8,110.3 172.8,106.6 158.2,106.6 		"/>
		<path class="st1" d="M195.3,84.5c-0.7-0.1-1.3-0.1-2-0.2h-9.1v26h9.1c0.7,0,1.3,0,2-0.1c2.8-0.4,5.3-1.7,7.2-3.7
			c5-4.9,5.2-12.9,0.3-18c-0.1-0.1-0.2-0.2-0.3-0.3C200.6,86.3,198.1,84.9,195.3,84.5z M199.7,103.9c-1.2,1.2-2.7,2.1-4.4,2.5
			c-0.7,0.1-1.3,0.2-2,0.2h-5V88.1h5c0.7,0,1.3,0.1,2,0.2c1.7,0.4,3.2,1.2,4.4,2.5C203.2,94.5,203.2,100.2,199.7,103.9z"/>
		<path class="st1" d="M119.6,112.2c-0.8-0.1-1.5-0.4-2.2-0.7c-0.5-0.3-1-0.6-1.4-1c-0.3-0.3-0.6-0.5-0.8-0.8
			c-0.1-0.1-0.2-0.2-0.2-0.4l0.7-0.4c0.7-0.3,1.3-0.8,1.9-1.3c0.8-0.7,1.5-1.4,2.2-2.2c0.8-1,1.4-2.2,1.9-3.4c0.5-1.5,0.8-3,0.8-4.6
			c0.1-3.6-1.4-7-4-9.4c-5.5-5.2-14-5.2-19.5,0c-5.2,5.2-5.3,13.6-0.1,18.8c0,0,0.1,0.1,0.1,0.1c2.6,2.6,6.1,4,9.8,3.9l0,0
			c0.8,0,1.6-0.1,2.4-0.2l0.4,0.6c0.4,0.5,0.9,1,1.4,1.5c0.7,0.6,1.5,1.2,2.2,1.6c1,0.6,2.1,1,3.3,1.3c1.4,0.3,2.9,0.4,4.3,0.2v-3.3
			C121.7,112.5,120.7,112.4,119.6,112.2z M108.6,107c-5.3,0-9.5-4.3-9.5-9.6s4.3-9.5,9.6-9.5c5.3,0,9.5,4.3,9.5,9.6
			c0,2.5-1,4.9-2.8,6.7C113.7,106,111.2,107,108.6,107L108.6,107z"/>
		<polygon class="st1" points="214.9,98.7 226.2,98.7 226.2,95 214.9,95 214.9,88.1 229.1,88.1 229.1,84.4 210.8,84.4 210.8,110.3 
			229.5,110.3 229.5,106.6 214.9,106.6 		"/>
		<path class="st1" d="M339.9,84.5c-0.7-0.1-1.3-0.1-2-0.2h-9.1v26h9.1c0.7,0,1.3,0,2-0.1c2.8-0.4,5.3-1.7,7.2-3.7
			c5-4.9,5.2-12.9,0.3-18c-0.1-0.1-0.2-0.2-0.3-0.3C345.2,86.3,342.7,84.9,339.9,84.5z M344.3,103.9c-1.2,1.2-2.7,2.1-4.4,2.5
			c-0.7,0.1-1.3,0.2-2,0.2h-5V88.1h5c0.7,0,1.3,0.1,2,0.2c1.7,0.4,3.2,1.2,4.4,2.5C347.8,94.5,347.8,100.2,344.3,103.9z"/>
		<path class="st1" d="M86.7,99.7c0.5-0.2,0.9-0.5,1.3-0.8c0.5-0.4,1-0.9,1.5-1.4c0.6-0.6,1-1.4,1.3-2.2c0.4-1,0.6-2,0.5-3
			c0-2.1-0.8-4.2-2.4-5.7c-1.6-1.5-3.8-2.4-6-2.3H72.1v26h4.1v-10h5.9l5.5,10h4.5L86.1,100L86.7,99.7z M83,96.6h-6.9v-8.5H83
			c2.3,0,4.2,1.8,4.3,4.1c0,0.1,0,0.1,0,0.2c0.1,2.3-1.7,4.2-4,4.3C83.1,96.6,83.1,96.6,83,96.6L83,96.6z"/>
		<polygon class="st1" points="341.2,38.8 364.7,69.2 377.5,69.2 377.5,14.6 362.7,14.6 362.7,45 339.3,14.6 326.4,14.6 326.4,69.2 
			341.2,69.2 		"/>
		<polygon class="st1" points="224,55.9 200.5,55.9 200.5,14.6 185.7,14.6 185.7,69.2 224,69.2 		"/>
		<polygon class="st1" points="224.7,55.9 224.7,69.2 265.8,69.2 266.9,69.2 266.9,56.7 265.8,56.7 238.8,56.7 238.8,47.4 
			259.9,47.4 259.9,35.6 238.8,35.6 238.8,27.1 265.8,27.1 266.1,27.1 266.1,14.6 265.8,14.6 224.3,14.6 224,14.6 224,55.9 
			224.3,55.9 		"/>
		<path class="st1" d="M301.4,13.6l4.7-6.4H292l-3.4,6.4c-5.7,1.1-11,3.8-15.1,7.9c-11.2,10.4-11.9,27.9-1.6,39.2
			c0.5,0.5,1,1.1,1.6,1.6c5.8,5.6,13.5,8.7,21.6,8.5l0,0c8,0.2,15.8-2.9,21.6-8.5c5.7-5.2,8.9-12.6,8.9-20.4
			c0.1-7.7-3.2-15.1-8.9-20.4C312.5,17.4,307.2,14.6,301.4,13.6z M306,53.1c-2.8,2.9-6.8,4.6-10.8,4.5l0,0c-4.1,0.1-8-1.5-10.8-4.5
			c-2.9-3-4.5-7-4.4-11.2c-0.1-4.2,1.5-8.2,4.4-11.1c2.8-2.9,6.8-4.5,10.8-4.4l0,0c4.1-0.1,8,1.5,10.8,4.4c2.9,3,4.5,7,4.4,11.1
			C310.5,46,308.9,50.1,306,53.1L306,53.1z"/>
		<polygon class="st1" points="67.2,55.9 42.2,55.9 66.4,27.9 66.4,14.6 23.9,14.6 23.9,27.9 46.9,27.9 22.7,55.9 22.7,69.2 
			67.2,69.2 		"/>
		<path class="st1" d="M175.9,21.5c-5.8-5.6-13.5-8.7-21.5-8.5l0,0c-8-0.2-15.8,2.9-21.6,8.5c-4.3,3.9-7.2,9.1-8.4,14.9
			c-1.1-5.7-4.1-10.9-8.3-14.9c-5.8-5.6-13.5-8.7-21.6-8.5h-0.9C85.9,13,78.5,16.1,73,21.5c-5.7,5.2-8.9,12.6-8.9,20.4
			c0,1,0,1.9,0.1,2.8c6.9-9.4,17.7-15.2,29.4-15.9c5.8-0.3,11.7,0.5,17.2,2.3c0,0,0.7,0.1,0.6,0.7c-0.1,0.6-0.4,0.6-1.5,0.3
			c-5.4-1.3-11.1-0.9-16.2,1.2c-11.3,4.5-19.8,16.2-21.3,28.2h-0.1c0.2,0.3,0.5,0.5,0.8,0.8c5.5,5.4,12.9,8.4,20.6,8.5h0.9
			c8,0.2,15.8-2.9,21.6-8.5c1.2-1.1,2.3-2.3,3.3-3.6c-1.8-5.1-6.6-15.5-17.9-25.6c0,0,4.1-0.4,5.8,0.3c1.3,0.5,10.1,6.8,16.5,17.1
			c0.3-1,0.6-2.1,0.8-3.1c1.1,5.7,4,11,8.3,14.9c5.7,5.6,13.5,8.7,21.6,8.5l0,0c8,0.2,15.8-2.9,21.6-8.5c5.7-5.2,8.9-12.6,8.9-20.4
			C184.9,34.1,181.6,26.7,175.9,21.5z M94.5,27.6l-0.9-0.5l-4-2.2c-0.3-0.1-0.7-0.5-0.5-1s1.1-0.1,1.1-0.1c1.2,0.4,2.4,0.9,3.4,1.3
			c1.6,0.7,3.1,1.5,4.6,2.4L94.5,27.6z M165.2,53.1c-2.8,2.9-6.8,4.6-10.8,4.5l0,0c-4.1,0.1-8-1.5-10.8-4.5c-2.9-3-4.5-7-4.4-11.2
			c-0.1-4.2,1.5-8.2,4.4-11.1c2.8-2.9,6.8-4.5,10.8-4.4l0,0c4.1-0.1,8,1.5,10.8,4.4c2.9,3,4.5,7,4.4,11.1
			C169.7,46,168.1,50.1,165.2,53.1z"/>
		<polygon class="st1" points="245,84.4 240.9,84.4 240.9,110.3 257.6,110.3 257.6,106.6 245,106.6 		"/>
		<path class="st1" d="M367.2,84.4h-4.1l-10.7,26h4.2l2.8-6.8h11.5l2.8,6.8h4.3L367.2,84.4z M365.2,99.7H361l4.3-10.7l0,0l4.2,10.7
			L365.2,99.7z"/>
		<polygon class="st1" points="303.4,105.1 295.4,84.4 291.1,84.4 301.3,110.3 305.4,110.3 315.6,84.4 311.3,84.4 		"/>
		<path class="st1" d="M270.7,84.4h-2l-10.8,26h4.3l2.8-6.8h11.5l2.8,6.8h4.2l-10.7-26H270.7z M270.7,99.7h-4.3l4.3-10.7l0,0
			l4.2,10.7L270.7,99.7z"/>
		<path class="st1" d="M56.4,84.4h-2l-10.8,26h4.2l2.8-6.8h11.5l2.8,6.8h4.2l-10.8-26H56.4z M56.4,99.7h-4.2L56.4,89l0,0l4.2,10.7
			L56.4,99.7z"/>
		<rect x="318.9" y="84.4" class="st1" width="4.1" height="25.9"/>
		<path class="st1" d="M144.5,100c0,1.9-0.7,3.7-2,5c-2.5,2.7-6.7,2.8-9.3,0.3c-0.1-0.1-0.2-0.2-0.3-0.3c-1.3-1.3-2-3.1-2-5V84.4
			h-4.1V100c0,2.9,1.1,5.6,3.2,7.6c4.3,4.2,11.2,4.2,15.5,0c2.1-2,3.2-4.7,3.2-7.6V84.4h-4.1L144.5,100z"/>
		<polygon class="st1" points="158.2,98.7 169.5,98.7 169.5,95 158.2,95 158.2,88.1 172.4,88.1 172.4,84.4 154.1,84.4 154.1,110.3 
			172.8,110.3 172.8,106.6 158.2,106.6 		"/>
		<path class="st1" d="M195.3,84.5c-0.7-0.1-1.3-0.1-2-0.2h-9.1v26h9.1c0.7,0,1.3,0,2-0.1c2.8-0.4,5.3-1.7,7.2-3.7
			c5-4.9,5.2-12.9,0.3-18c-0.1-0.1-0.2-0.2-0.3-0.3C200.6,86.3,198.1,84.9,195.3,84.5z M199.7,103.9c-1.2,1.2-2.7,2.1-4.4,2.5
			c-0.7,0.1-1.3,0.2-2,0.2h-5V88.1h5c0.7,0,1.3,0.1,2,0.2c1.7,0.4,3.2,1.2,4.4,2.5C203.2,94.5,203.2,100.2,199.7,103.9z"/>
		<path class="st1" d="M119.6,112.2c-0.8-0.1-1.5-0.4-2.2-0.7c-0.5-0.3-1-0.6-1.4-1c-0.3-0.3-0.6-0.5-0.8-0.8
			c-0.1-0.1-0.2-0.2-0.2-0.4l0.7-0.4c0.7-0.3,1.3-0.8,1.9-1.3c0.8-0.7,1.5-1.4,2.2-2.2c0.8-1,1.4-2.2,1.9-3.4c0.5-1.5,0.8-3,0.8-4.6
			c0.1-3.6-1.4-7-4-9.4c-5.5-5.2-14-5.2-19.5,0c-5.2,5.2-5.3,13.6-0.1,18.8c0,0,0.1,0.1,0.1,0.1c2.6,2.6,6.1,4,9.8,3.9l0,0
			c0.8,0,1.6-0.1,2.4-0.2l0.4,0.6c0.4,0.5,0.9,1,1.4,1.5c0.7,0.6,1.5,1.2,2.2,1.6c1,0.6,2.1,1,3.3,1.3c1.4,0.3,2.9,0.4,4.3,0.2v-3.3
			C121.7,112.5,120.7,112.4,119.6,112.2z M108.6,107c-5.3,0-9.5-4.3-9.5-9.6s4.3-9.5,9.6-9.5c5.3,0,9.5,4.3,9.5,9.6
			c0,2.5-1,4.9-2.8,6.7C113.7,106,111.2,107,108.6,107L108.6,107z"/>
		<polygon class="st1" points="214.9,98.7 226.2,98.7 226.2,95 214.9,95 214.9,88.1 229.1,88.1 229.1,84.4 210.8,84.4 210.8,110.3 
			229.5,110.3 229.5,106.6 214.9,106.6 		"/>
		<path class="st1" d="M339.9,84.5c-0.7-0.1-1.3-0.1-2-0.2h-9.1v26h9.1c0.7,0,1.3,0,2-0.1c2.8-0.4,5.3-1.7,7.2-3.7
			c5-4.9,5.2-12.9,0.3-18c-0.1-0.1-0.2-0.2-0.3-0.3C345.2,86.3,342.7,84.9,339.9,84.5z M344.3,103.9c-1.2,1.2-2.7,2.1-4.4,2.5
			c-0.7,0.1-1.3,0.2-2,0.2h-5V88.1h5c0.7,0,1.3,0.1,2,0.2c1.7,0.4,3.2,1.2,4.4,2.5C347.8,94.5,347.8,100.2,344.3,103.9z"/>
		<path class="st1" d="M86.7,99.7c0.5-0.2,0.9-0.5,1.3-0.8c0.5-0.4,1-0.9,1.5-1.4c0.6-0.6,1-1.4,1.3-2.2c0.4-1,0.6-2,0.5-3
			c0-2.1-0.8-4.2-2.4-5.7c-1.6-1.5-3.8-2.4-6-2.3H72.1v26h4.1v-10h5.9l5.5,10h4.5L86.1,100L86.7,99.7z M83,96.6h-6.9v-8.5H83
			c2.3,0,4.2,1.8,4.3,4.1c0,0.1,0,0.1,0,0.2c0.1,2.3-1.7,4.2-4,4.3C83.1,96.6,83.1,96.6,83,96.6L83,96.6z"/>
		<polygon class="st1" points="341.2,38.8 364.7,69.2 377.5,69.2 377.5,14.6 362.7,14.6 362.7,45 339.3,14.6 326.4,14.6 326.4,69.2 
			341.2,69.2 		"/>
		<polygon class="st1" points="224,55.9 200.5,55.9 200.5,14.6 185.7,14.6 185.7,69.2 224,69.2 		"/>
		<polygon class="st1" points="224.7,55.9 224.7,69.2 265.8,69.2 266.9,69.2 266.9,56.7 265.8,56.7 238.8,56.7 238.8,47.4 
			259.9,47.4 259.9,35.6 238.8,35.6 238.8,27.1 265.8,27.1 266.1,27.1 266.1,14.6 265.8,14.6 224.3,14.6 224,14.6 224,55.9 
			224.3,55.9 		"/>
		<path class="st1" d="M301.4,13.6l4.7-6.4H292l-3.4,6.4c-5.7,1.1-11,3.8-15.1,7.9c-11.2,10.4-11.9,27.9-1.6,39.2
			c0.5,0.5,1,1.1,1.6,1.6c5.8,5.6,13.5,8.7,21.6,8.5l0,0c8,0.2,15.8-2.9,21.6-8.5c5.7-5.2,8.9-12.6,8.9-20.4
			c0.1-7.7-3.2-15.1-8.9-20.4C312.5,17.4,307.2,14.6,301.4,13.6z M306,53.1c-2.8,2.9-6.8,4.6-10.8,4.5l0,0c-4.1,0.1-8-1.5-10.8-4.5
			c-2.9-3-4.5-7-4.4-11.2c-0.1-4.2,1.5-8.2,4.4-11.1c2.8-2.9,6.8-4.5,10.8-4.4l0,0c4.1-0.1,8,1.5,10.8,4.4c2.9,3,4.5,7,4.4,11.1
			C310.5,46,308.9,50.1,306,53.1L306,53.1z"/>
		<polygon class="st1" points="67.2,55.9 42.2,55.9 66.4,27.9 66.4,14.6 23.9,14.6 23.9,27.9 46.9,27.9 22.7,55.9 22.7,69.2 
			67.2,69.2 		"/>
		<path class="st1" d="M175.9,21.5c-5.8-5.6-13.5-8.7-21.5-8.5l0,0c-8-0.2-15.8,2.9-21.6,8.5c-4.3,3.9-7.2,9.1-8.4,14.9
			c-1.1-5.7-4.1-10.9-8.3-14.9c-5.8-5.6-13.5-8.7-21.6-8.5h-0.9C85.9,13,78.5,16.1,73,21.5c-5.7,5.2-8.9,12.6-8.9,20.4
			c0,1,0,1.9,0.1,2.8c6.9-9.4,17.7-15.2,29.4-15.9c5.8-0.3,11.7,0.5,17.2,2.3c0,0,0.7,0.1,0.6,0.7c-0.1,0.6-0.4,0.6-1.5,0.3
			c-5.4-1.3-11.1-0.9-16.2,1.2c-11.3,4.5-19.8,16.2-21.3,28.2h-0.1c0.2,0.3,0.5,0.5,0.8,0.8c5.5,5.4,12.9,8.4,20.6,8.5h0.9
			c8,0.2,15.8-2.9,21.6-8.5c1.2-1.1,2.3-2.3,3.3-3.6c-1.8-5.1-6.6-15.5-17.9-25.6c0,0,4.1-0.4,5.8,0.3c1.3,0.5,10.1,6.8,16.5,17.1
			c0.3-1,0.6-2.1,0.8-3.1c1.1,5.7,4,11,8.3,14.9c5.7,5.6,13.5,8.7,21.6,8.5l0,0c8,0.2,15.8-2.9,21.6-8.5c5.7-5.2,8.9-12.6,8.9-20.4
			C184.9,34.1,181.6,26.7,175.9,21.5z M94.5,27.6l-0.9-0.5l-4-2.2c-0.3-0.1-0.7-0.5-0.5-1s1.1-0.1,1.1-0.1c1.2,0.4,2.4,0.9,3.4,1.3
			c1.6,0.7,3.1,1.5,4.6,2.4L94.5,27.6z M165.2,53.1c-2.8,2.9-6.8,4.6-10.8,4.5l0,0c-4.1,0.1-8-1.5-10.8-4.5c-2.9-3-4.5-7-4.4-11.2
			c-0.1-4.2,1.5-8.2,4.4-11.1c2.8-2.9,6.8-4.5,10.8-4.4l0,0c4.1-0.1,8,1.5,10.8,4.4c2.9,3,4.5,7,4.4,11.1
			C169.7,46,168.1,50.1,165.2,53.1z"/>
		<polygon class="st1" points="245,84.4 240.9,84.4 240.9,110.3 257.6,110.3 257.6,106.6 245,106.6 		"/>
		<path class="st1" d="M367.2,84.4h-4.1l-10.7,26h4.2l2.8-6.8h11.5l2.8,6.8h4.3L367.2,84.4z M365.2,99.7H361l4.3-10.7l0,0l4.2,10.7
			L365.2,99.7z"/>
		<polygon class="st1" points="303.4,105.1 295.4,84.4 291.1,84.4 301.3,110.3 305.4,110.3 315.6,84.4 311.3,84.4 		"/>
		<path class="st1" d="M270.7,84.4h-2l-10.8,26h4.3l2.8-6.8h11.5l2.8,6.8h4.2l-10.7-26H270.7z M270.7,99.7h-4.3l4.3-10.7l0,0
			l4.2,10.7L270.7,99.7z"/>
		<path class="st1" d="M56.4,84.4h-2l-10.8,26h4.2l2.8-6.8h11.5l2.8,6.8h4.2l-10.8-26H56.4z M56.4,99.7h-4.2L56.4,89l0,0l4.2,10.7
			L56.4,99.7z"/>
		<rect x="318.9" y="84.4" class="st1" width="4.1" height="25.9"/>
		<path class="st1" d="M144.5,100c0,1.9-0.7,3.7-2,5c-2.5,2.7-6.7,2.8-9.3,0.3c-0.1-0.1-0.2-0.2-0.3-0.3c-1.3-1.3-2-3.1-2-5V84.4
			h-4.1V100c0,2.9,1.1,5.6,3.2,7.6c4.3,4.2,11.2,4.2,15.5,0c2.1-2,3.2-4.7,3.2-7.6V84.4h-4.1L144.5,100z"/>
		<polygon class="st1" points="158.2,98.7 169.5,98.7 169.5,95 158.2,95 158.2,88.1 172.4,88.1 172.4,84.4 154.1,84.4 154.1,110.3 
			172.8,110.3 172.8,106.6 158.2,106.6 		"/>
		<path class="st1" d="M195.3,84.5c-0.7-0.1-1.3-0.1-2-0.2h-9.1v26h9.1c0.7,0,1.3,0,2-0.1c2.8-0.4,5.3-1.7,7.2-3.7
			c5-4.9,5.2-12.9,0.3-18c-0.1-0.1-0.2-0.2-0.3-0.3C200.6,86.3,198.1,84.9,195.3,84.5z M199.7,103.9c-1.2,1.2-2.7,2.1-4.4,2.5
			c-0.7,0.1-1.3,0.2-2,0.2h-5V88.1h5c0.7,0,1.3,0.1,2,0.2c1.7,0.4,3.2,1.2,4.4,2.5C203.2,94.5,203.2,100.2,199.7,103.9z"/>
		<path class="st1" d="M119.6,112.2c-0.8-0.1-1.5-0.4-2.2-0.7c-0.5-0.3-1-0.6-1.4-1c-0.3-0.3-0.6-0.5-0.8-0.8
			c-0.1-0.1-0.2-0.2-0.2-0.4l0.7-0.4c0.7-0.3,1.3-0.8,1.9-1.3c0.8-0.7,1.5-1.4,2.2-2.2c0.8-1,1.4-2.2,1.9-3.4c0.5-1.5,0.8-3,0.8-4.6
			c0.1-3.6-1.4-7-4-9.4c-5.5-5.2-14-5.2-19.5,0c-5.2,5.2-5.3,13.6-0.1,18.8c0,0,0.1,0.1,0.1,0.1c2.6,2.6,6.1,4,9.8,3.9l0,0
			c0.8,0,1.6-0.1,2.4-0.2l0.4,0.6c0.4,0.5,0.9,1,1.4,1.5c0.7,0.6,1.5,1.2,2.2,1.6c1,0.6,2.1,1,3.3,1.3c1.4,0.3,2.9,0.4,4.3,0.2v-3.3
			C121.7,112.5,120.7,112.4,119.6,112.2z M108.6,107c-5.3,0-9.5-4.3-9.5-9.6s4.3-9.5,9.6-9.5c5.3,0,9.5,4.3,9.5,9.6
			c0,2.5-1,4.9-2.8,6.7C113.7,106,111.2,107,108.6,107L108.6,107z"/>
		<polygon class="st1" points="214.9,98.7 226.2,98.7 226.2,95 214.9,95 214.9,88.1 229.1,88.1 229.1,84.4 210.8,84.4 210.8,110.3 
			229.5,110.3 229.5,106.6 214.9,106.6 		"/>
		<path class="st1" d="M339.9,84.5c-0.7-0.1-1.3-0.1-2-0.2h-9.1v26h9.1c0.7,0,1.3,0,2-0.1c2.8-0.4,5.3-1.7,7.2-3.7
			c5-4.9,5.2-12.9,0.3-18c-0.1-0.1-0.2-0.2-0.3-0.3C345.2,86.3,342.7,84.9,339.9,84.5z M344.3,103.9c-1.2,1.2-2.7,2.1-4.4,2.5
			c-0.7,0.1-1.3,0.2-2,0.2h-5V88.1h5c0.7,0,1.3,0.1,2,0.2c1.7,0.4,3.2,1.2,4.4,2.5C347.8,94.5,347.8,100.2,344.3,103.9z"/>
		<path class="st1" d="M86.7,99.7c0.5-0.2,0.9-0.5,1.3-0.8c0.5-0.4,1-0.9,1.5-1.4c0.6-0.6,1-1.4,1.3-2.2c0.4-1,0.6-2,0.5-3
			c0-2.1-0.8-4.2-2.4-5.7c-1.6-1.5-3.8-2.4-6-2.3H72.1v26h4.1v-10h5.9l5.5,10h4.5L86.1,100L86.7,99.7z M83,96.6h-6.9v-8.5H83
			c2.3,0,4.2,1.8,4.3,4.1c0,0.1,0,0.1,0,0.2c0.1,2.3-1.7,4.2-4,4.3C83.1,96.6,83.1,96.6,83,96.6L83,96.6z"/>
		<polygon class="st1" points="341.2,38.8 364.7,69.2 377.5,69.2 377.5,14.6 362.7,14.6 362.7,45 339.3,14.6 326.4,14.6 326.4,69.2 
			341.2,69.2 		"/>
		<polygon class="st1" points="224,55.9 200.5,55.9 200.5,14.6 185.7,14.6 185.7,69.2 224,69.2 		"/>
		<polygon class="st1" points="224.7,55.9 224.7,69.2 265.8,69.2 266.9,69.2 266.9,56.7 265.8,56.7 238.8,56.7 238.8,47.4 
			259.9,47.4 259.9,35.6 238.8,35.6 238.8,27.1 265.8,27.1 266.1,27.1 266.1,14.6 265.8,14.6 224.3,14.6 224,14.6 224,55.9 
			224.3,55.9 		"/>
		<path class="st1" d="M301.4,13.6l4.7-6.4H292l-3.4,6.4c-5.7,1.1-11,3.8-15.1,7.9c-11.2,10.4-11.9,27.9-1.6,39.2
			c0.5,0.5,1,1.1,1.6,1.6c5.8,5.6,13.5,8.7,21.6,8.5l0,0c8,0.2,15.8-2.9,21.6-8.5c5.7-5.2,8.9-12.6,8.9-20.4
			c0.1-7.7-3.2-15.1-8.9-20.4C312.5,17.4,307.2,14.6,301.4,13.6z M306,53.1c-2.8,2.9-6.8,4.6-10.8,4.5l0,0c-4.1,0.1-8-1.5-10.8-4.5
			c-2.9-3-4.5-7-4.4-11.2c-0.1-4.2,1.5-8.2,4.4-11.1c2.8-2.9,6.8-4.5,10.8-4.4l0,0c4.1-0.1,8,1.5,10.8,4.4c2.9,3,4.5,7,4.4,11.1
			C310.5,46,308.9,50.1,306,53.1L306,53.1z"/>
		<polygon class="st1" points="67.2,55.9 42.2,55.9 66.4,27.9 66.4,14.6 23.9,14.6 23.9,27.9 46.9,27.9 22.7,55.9 22.7,69.2 
			67.2,69.2 		"/>
		<path class="st1" d="M175.9,21.5c-5.8-5.6-13.5-8.7-21.5-8.5l0,0c-8-0.2-15.8,2.9-21.6,8.5c-4.3,3.9-7.2,9.1-8.4,14.9
			c-1.1-5.7-4.1-10.9-8.3-14.9c-5.8-5.6-13.5-8.7-21.6-8.5h-0.9C85.9,13,78.5,16.1,73,21.5c-5.7,5.2-8.9,12.6-8.9,20.4
			c0,1,0,1.9,0.1,2.8c6.9-9.4,17.7-15.2,29.4-15.9c5.8-0.3,11.7,0.5,17.2,2.3c0,0,0.7,0.1,0.6,0.7c-0.1,0.6-0.4,0.6-1.5,0.3
			c-5.4-1.3-11.1-0.9-16.2,1.2c-11.3,4.5-19.8,16.2-21.3,28.2h-0.1c0.2,0.3,0.5,0.5,0.8,0.8c5.5,5.4,12.9,8.4,20.6,8.5h0.9
			c8,0.2,15.8-2.9,21.6-8.5c1.2-1.1,2.3-2.3,3.3-3.6c-1.8-5.1-6.6-15.5-17.9-25.6c0,0,4.1-0.4,5.8,0.3c1.3,0.5,10.1,6.8,16.5,17.1
			c0.3-1,0.6-2.1,0.8-3.1c1.1,5.7,4,11,8.3,14.9c5.7,5.6,13.5,8.7,21.6,8.5l0,0c8,0.2,15.8-2.9,21.6-8.5c5.7-5.2,8.9-12.6,8.9-20.4
			C184.9,34.1,181.6,26.7,175.9,21.5z M94.5,27.6l-0.9-0.5l-4-2.2c-0.3-0.1-0.7-0.5-0.5-1s1.1-0.1,1.1-0.1c1.2,0.4,2.4,0.9,3.4,1.3
			c1.6,0.7,3.1,1.5,4.6,2.4L94.5,27.6z M165.2,53.1c-2.8,2.9-6.8,4.6-10.8,4.5l0,0c-4.1,0.1-8-1.5-10.8-4.5c-2.9-3-4.5-7-4.4-11.2
			c-0.1-4.2,1.5-8.2,4.4-11.1c2.8-2.9,6.8-4.5,10.8-4.4l0,0c4.1-0.1,8,1.5,10.8,4.4c2.9,3,4.5,7,4.4,11.1
			C169.7,46,168.1,50.1,165.2,53.1z"/>
		<path class="st1" d="M33.5,84.4H23.1v26h4.1v-9.3h6.3c2.3,0.1,4.5-0.8,6.2-2.4C43,95.5,43,90.3,39.9,87c-0.1-0.1-0.1-0.1-0.2-0.2
			C38,85.2,35.8,84.3,33.5,84.4z M36.7,96c-0.9,0.9-2,1.4-3.3,1.4h-6.3v-9.3h6.3c2.5,0,4.6,2,4.6,4.5c0,0,0,0.1,0,0.1
			C38.1,94,37.6,95.2,36.7,96L36.7,96z"/>
		<polygon class="st1" points="245,84.4 240.9,84.4 240.9,110.3 257.6,110.3 257.6,106.6 245,106.6 		"/>
		<path class="st1" d="M367.2,84.4h-4.1l-10.7,26h4.2l2.8-6.8h11.5l2.8,6.8h4.3L367.2,84.4z M365.2,99.7H361l4.3-10.7l0,0l4.2,10.7
			L365.2,99.7z"/>
		<polygon class="st1" points="303.4,105.1 295.4,84.4 291.1,84.4 301.3,110.3 305.4,110.3 315.6,84.4 311.3,84.4 		"/>
		<path class="st1" d="M270.7,84.4h-2l-10.8,26h4.3l2.8-6.8h11.5l2.8,6.8h4.2l-10.7-26H270.7z M270.7,99.7h-4.3l4.3-10.7l0,0
			l4.2,10.7L270.7,99.7z"/>
		<path class="st1" d="M56.4,84.4h-2l-10.8,26h4.2l2.8-6.8h11.5l2.8,6.8h4.2l-10.8-26H56.4z M56.4,99.7h-4.2L56.4,89l0,0l4.2,10.7
			L56.4,99.7z"/>
		<rect x="318.9" y="84.4" class="st1" width="4.1" height="25.9"/>
		<path class="st1" d="M144.5,100c0,1.9-0.7,3.7-2,5c-2.5,2.7-6.7,2.8-9.3,0.3c-0.1-0.1-0.2-0.2-0.3-0.3c-1.3-1.3-2-3.1-2-5V84.4
			h-4.1V100c0,2.9,1.1,5.6,3.2,7.6c4.3,4.2,11.2,4.2,15.5,0c2.1-2,3.2-4.7,3.2-7.6V84.4h-4.1L144.5,100z"/>
		<polygon class="st1" points="158.2,98.7 169.5,98.7 169.5,95 158.2,95 158.2,88.1 172.4,88.1 172.4,84.4 154.1,84.4 154.1,110.3 
			172.8,110.3 172.8,106.6 158.2,106.6 		"/>
		<path class="st1" d="M195.3,84.5c-0.7-0.1-1.3-0.1-2-0.2h-9.1v26h9.1c0.7,0,1.3,0,2-0.1c2.8-0.4,5.3-1.7,7.2-3.7
			c5-4.9,5.2-12.9,0.3-18c-0.1-0.1-0.2-0.2-0.3-0.3C200.6,86.3,198.1,84.9,195.3,84.5z M199.7,103.9c-1.2,1.2-2.7,2.1-4.4,2.5
			c-0.7,0.1-1.3,0.2-2,0.2h-5V88.1h5c0.7,0,1.3,0.1,2,0.2c1.7,0.4,3.2,1.2,4.4,2.5C203.2,94.5,203.2,100.2,199.7,103.9z"/>
		<path class="st1" d="M119.6,112.2c-0.8-0.1-1.5-0.4-2.2-0.7c-0.5-0.3-1-0.6-1.4-1c-0.3-0.3-0.6-0.5-0.8-0.8
			c-0.1-0.1-0.2-0.2-0.2-0.4l0.7-0.4c0.7-0.3,1.3-0.8,1.9-1.3c0.8-0.7,1.5-1.4,2.2-2.2c0.8-1,1.4-2.2,1.9-3.4c0.5-1.5,0.8-3,0.8-4.6
			c0.1-3.6-1.4-7-4-9.4c-5.5-5.2-14-5.2-19.5,0c-5.2,5.2-5.3,13.6-0.1,18.8c0,0,0.1,0.1,0.1,0.1c2.6,2.6,6.1,4,9.8,3.9l0,0
			c0.8,0,1.6-0.1,2.4-0.2l0.4,0.6c0.4,0.5,0.9,1,1.4,1.5c0.7,0.6,1.5,1.2,2.2,1.6c1,0.6,2.1,1,3.3,1.3c1.4,0.3,2.9,0.4,4.3,0.2v-3.3
			C121.7,112.5,120.7,112.4,119.6,112.2z M108.6,107c-5.3,0-9.5-4.3-9.5-9.6s4.3-9.5,9.6-9.5c5.3,0,9.5,4.3,9.5,9.6
			c0,2.5-1,4.9-2.8,6.7C113.7,106,111.2,107,108.6,107L108.6,107z"/>
		<polygon class="st1" points="214.9,98.7 226.2,98.7 226.2,95 214.9,95 214.9,88.1 229.1,88.1 229.1,84.4 210.8,84.4 210.8,110.3 
			229.5,110.3 229.5,106.6 214.9,106.6 		"/>
		<path class="st1" d="M339.9,84.5c-0.7-0.1-1.3-0.1-2-0.2h-9.1v26h9.1c0.7,0,1.3,0,2-0.1c2.8-0.4,5.3-1.7,7.2-3.7
			c5-4.9,5.2-12.9,0.3-18c-0.1-0.1-0.2-0.2-0.3-0.3C345.2,86.3,342.7,84.9,339.9,84.5z M344.3,103.9c-1.2,1.2-2.7,2.1-4.4,2.5
			c-0.7,0.1-1.3,0.2-2,0.2h-5V88.1h5c0.7,0,1.3,0.1,2,0.2c1.7,0.4,3.2,1.2,4.4,2.5C347.8,94.5,347.8,100.2,344.3,103.9z"/>
		<path class="st1" d="M86.7,99.7c0.5-0.2,0.9-0.5,1.3-0.8c0.5-0.4,1-0.9,1.5-1.4c0.6-0.6,1-1.4,1.3-2.2c0.4-1,0.6-2,0.5-3
			c0-2.1-0.8-4.2-2.4-5.7c-1.6-1.5-3.8-2.4-6-2.3H72.1v26h4.1v-10h5.9l5.5,10h4.5L86.1,100L86.7,99.7z M83,96.6h-6.9v-8.5H83
			c2.3,0,4.2,1.8,4.3,4.1c0,0.1,0,0.1,0,0.2c0.1,2.3-1.7,4.2-4,4.3C83.1,96.6,83.1,96.6,83,96.6L83,96.6z"/>
		<polygon class="st1" points="341.2,38.8 364.7,69.2 377.5,69.2 377.5,14.6 362.7,14.6 362.7,45 339.3,14.6 326.4,14.6 326.4,69.2 
			341.2,69.2 		"/>
		<polygon class="st1" points="224,55.9 200.5,55.9 200.5,14.6 185.7,14.6 185.7,69.2 224,69.2 		"/>
		<polygon class="st1" points="224.7,55.9 224.7,69.2 265.8,69.2 266.9,69.2 266.9,56.7 265.8,56.7 238.8,56.7 238.8,47.4 
			259.9,47.4 259.9,35.6 238.8,35.6 238.8,27.1 265.8,27.1 266.1,27.1 266.1,14.6 265.8,14.6 224.3,14.6 224,14.6 224,55.9 
			224.3,55.9 		"/>
		<path class="st1" d="M301.4,13.6l4.7-6.4H292l-3.4,6.4c-5.7,1.1-11,3.8-15.1,7.9c-11.2,10.4-11.9,27.9-1.6,39.2
			c0.5,0.5,1,1.1,1.6,1.6c5.8,5.6,13.5,8.7,21.6,8.5l0,0c8,0.2,15.8-2.9,21.6-8.5c5.7-5.2,8.9-12.6,8.9-20.4
			c0.1-7.7-3.2-15.1-8.9-20.4C312.5,17.4,307.2,14.6,301.4,13.6z M306,53.1c-2.8,2.9-6.8,4.6-10.8,4.5l0,0c-4.1,0.1-8-1.5-10.8-4.5
			c-2.9-3-4.5-7-4.4-11.2c-0.1-4.2,1.5-8.2,4.4-11.1c2.8-2.9,6.8-4.5,10.8-4.4l0,0c4.1-0.1,8,1.5,10.8,4.4c2.9,3,4.5,7,4.4,11.1
			C310.5,46,308.9,50.1,306,53.1L306,53.1z"/>
		<polygon class="st1" points="67.2,55.9 42.2,55.9 66.4,27.9 66.4,14.6 23.9,14.6 23.9,27.9 46.9,27.9 22.7,55.9 22.7,69.2 
			67.2,69.2 		"/>
		<path class="st1" d="M175.9,21.5c-5.8-5.6-13.5-8.7-21.5-8.5l0,0c-8-0.2-15.8,2.9-21.6,8.5c-4.3,3.9-7.2,9.1-8.4,14.9
			c-1.1-5.7-4.1-10.9-8.3-14.9c-5.8-5.6-13.5-8.7-21.6-8.5h-0.9C85.9,13,78.5,16.1,73,21.5c-5.7,5.2-8.9,12.6-8.9,20.4
			c0,1,0,1.9,0.1,2.8c6.9-9.4,17.7-15.2,29.4-15.9c5.8-0.3,11.7,0.5,17.2,2.3c0,0,0.7,0.1,0.6,0.7c-0.1,0.6-0.4,0.6-1.5,0.3
			c-5.4-1.3-11.1-0.9-16.2,1.2c-11.3,4.5-19.8,16.2-21.3,28.2h-0.1c0.2,0.3,0.5,0.5,0.8,0.8c5.5,5.4,12.9,8.4,20.6,8.5h0.9
			c8,0.2,15.8-2.9,21.6-8.5c1.2-1.1,2.3-2.3,3.3-3.6c-1.8-5.1-6.6-15.5-17.9-25.6c0,0,4.1-0.4,5.8,0.3c1.3,0.5,10.1,6.8,16.5,17.1
			c0.3-1,0.6-2.1,0.8-3.1c1.1,5.7,4,11,8.3,14.9c5.7,5.6,13.5,8.7,21.6,8.5l0,0c8,0.2,15.8-2.9,21.6-8.5c5.7-5.2,8.9-12.6,8.9-20.4
			C184.9,34.1,181.6,26.7,175.9,21.5z M94.5,27.6l-0.9-0.5l-4-2.2c-0.3-0.1-0.7-0.5-0.5-1s1.1-0.1,1.1-0.1c1.2,0.4,2.4,0.9,3.4,1.3
			c1.6,0.7,3.1,1.5,4.6,2.4L94.5,27.6z M165.2,53.1c-2.8,2.9-6.8,4.6-10.8,4.5l0,0c-4.1,0.1-8-1.5-10.8-4.5c-2.9-3-4.5-7-4.4-11.2
			c-0.1-4.2,1.5-8.2,4.4-11.1c2.8-2.9,6.8-4.5,10.8-4.4l0,0c4.1-0.1,8,1.5,10.8,4.4c2.9,3,4.5,7,4.4,11.1
			C169.7,46,168.1,50.1,165.2,53.1z"/>
		<polygon class="st1" points="245,84.4 240.9,84.4 240.9,110.3 257.6,110.3 257.6,106.6 245,106.6 		"/>
		<path class="st1" d="M367.2,84.4h-4.1l-10.7,26h4.2l2.8-6.8h11.5l2.8,6.8h4.3L367.2,84.4z M365.2,99.7H361l4.3-10.7l0,0l4.2,10.7
			L365.2,99.7z"/>
		<polygon class="st1" points="303.4,105.1 295.4,84.4 291.1,84.4 301.3,110.3 305.4,110.3 315.6,84.4 311.3,84.4 		"/>
		<path class="st1" d="M270.7,84.4h-2l-10.8,26h4.3l2.8-6.8h11.5l2.8,6.8h4.2l-10.7-26H270.7z M270.7,99.7h-4.3l4.3-10.7l0,0
			l4.2,10.7L270.7,99.7z"/>
		<path class="st1" d="M56.4,84.4h-2l-10.8,26h4.2l2.8-6.8h11.5l2.8,6.8h4.2l-10.8-26H56.4z M56.4,99.7h-4.2L56.4,89l0,0l4.2,10.7
			L56.4,99.7z"/>
		<rect x="318.9" y="84.4" class="st1" width="4.1" height="25.9"/>
		<path class="st1" d="M144.5,100c0,1.9-0.7,3.7-2,5c-2.5,2.7-6.7,2.8-9.3,0.3c-0.1-0.1-0.2-0.2-0.3-0.3c-1.3-1.3-2-3.1-2-5V84.4
			h-4.1V100c0,2.9,1.1,5.6,3.2,7.6c4.3,4.2,11.2,4.2,15.5,0c2.1-2,3.2-4.7,3.2-7.6V84.4h-4.1L144.5,100z"/>
		<polygon class="st1" points="158.2,98.7 169.5,98.7 169.5,95 158.2,95 158.2,88.1 172.4,88.1 172.4,84.4 154.1,84.4 154.1,110.3 
			172.8,110.3 172.8,106.6 158.2,106.6 		"/>
		<path class="st1" d="M195.3,84.5c-0.7-0.1-1.3-0.1-2-0.2h-9.1v26h9.1c0.7,0,1.3,0,2-0.1c2.8-0.4,5.3-1.7,7.2-3.7
			c5-4.9,5.2-12.9,0.3-18c-0.1-0.1-0.2-0.2-0.3-0.3C200.6,86.3,198.1,84.9,195.3,84.5z M199.7,103.9c-1.2,1.2-2.7,2.1-4.4,2.5
			c-0.7,0.1-1.3,0.2-2,0.2h-5V88.1h5c0.7,0,1.3,0.1,2,0.2c1.7,0.4,3.2,1.2,4.4,2.5C203.2,94.5,203.2,100.2,199.7,103.9z"/>
		<path class="st1" d="M119.6,112.2c-0.8-0.1-1.5-0.4-2.2-0.7c-0.5-0.3-1-0.6-1.4-1c-0.3-0.3-0.6-0.5-0.8-0.8
			c-0.1-0.1-0.2-0.2-0.2-0.4l0.7-0.4c0.7-0.3,1.3-0.8,1.9-1.3c0.8-0.7,1.5-1.4,2.2-2.2c0.8-1,1.4-2.2,1.9-3.4c0.5-1.5,0.8-3,0.8-4.6
			c0.1-3.6-1.4-7-4-9.4c-5.5-5.2-14-5.2-19.5,0c-5.2,5.2-5.3,13.6-0.1,18.8c0,0,0.1,0.1,0.1,0.1c2.6,2.6,6.1,4,9.8,3.9l0,0
			c0.8,0,1.6-0.1,2.4-0.2l0.4,0.6c0.4,0.5,0.9,1,1.4,1.5c0.7,0.6,1.5,1.2,2.2,1.6c1,0.6,2.1,1,3.3,1.3c1.4,0.3,2.9,0.4,4.3,0.2v-3.3
			C121.7,112.5,120.7,112.4,119.6,112.2z M108.6,107c-5.3,0-9.5-4.3-9.5-9.6s4.3-9.5,9.6-9.5c5.3,0,9.5,4.3,9.5,9.6
			c0,2.5-1,4.9-2.8,6.7C113.7,106,111.2,107,108.6,107L108.6,107z"/>
		<polygon class="st1" points="214.9,98.7 226.2,98.7 226.2,95 214.9,95 214.9,88.1 229.1,88.1 229.1,84.4 210.8,84.4 210.8,110.3 
			229.5,110.3 229.5,106.6 214.9,106.6 		"/>
		<path class="st1" d="M339.9,84.5c-0.7-0.1-1.3-0.1-2-0.2h-9.1v26h9.1c0.7,0,1.3,0,2-0.1c2.8-0.4,5.3-1.7,7.2-3.7
			c5-4.9,5.2-12.9,0.3-18c-0.1-0.1-0.2-0.2-0.3-0.3C345.2,86.3,342.7,84.9,339.9,84.5z M344.3,103.9c-1.2,1.2-2.7,2.1-4.4,2.5
			c-0.7,0.1-1.3,0.2-2,0.2h-5V88.1h5c0.7,0,1.3,0.1,2,0.2c1.7,0.4,3.2,1.2,4.4,2.5C347.8,94.5,347.8,100.2,344.3,103.9z"/>
		<path class="st1" d="M86.7,99.7c0.5-0.2,0.9-0.5,1.3-0.8c0.5-0.4,1-0.9,1.5-1.4c0.6-0.6,1-1.4,1.3-2.2c0.4-1,0.6-2,0.5-3
			c0-2.1-0.8-4.2-2.4-5.7c-1.6-1.5-3.8-2.4-6-2.3H72.1v26h4.1v-10h5.9l5.5,10h4.5L86.1,100L86.7,99.7z M83,96.6h-6.9v-8.5H83
			c2.3,0,4.2,1.8,4.3,4.1c0,0.1,0,0.1,0,0.2c0.1,2.3-1.7,4.2-4,4.3C83.1,96.6,83.1,96.6,83,96.6L83,96.6z"/>
		<polygon class="st1" points="341.2,38.8 364.7,69.2 377.5,69.2 377.5,14.6 362.7,14.6 362.7,45 339.3,14.6 326.4,14.6 326.4,69.2 
			341.2,69.2 		"/>
		<polygon class="st1" points="224,55.9 200.5,55.9 200.5,14.6 185.7,14.6 185.7,69.2 224,69.2 		"/>
		<polygon class="st1" points="224.7,55.9 224.7,69.2 265.8,69.2 266.9,69.2 266.9,56.7 265.8,56.7 238.8,56.7 238.8,47.4 
			259.9,47.4 259.9,35.6 238.8,35.6 238.8,27.1 265.8,27.1 266.1,27.1 266.1,14.6 265.8,14.6 224.3,14.6 224,14.6 224,55.9 
			224.3,55.9 		"/>
		<path class="st1" d="M301.4,13.6l4.7-6.4H292l-3.4,6.4c-5.7,1.1-11,3.8-15.1,7.9c-11.2,10.4-11.9,27.9-1.6,39.2
			c0.5,0.5,1,1.1,1.6,1.6c5.8,5.6,13.5,8.7,21.6,8.5l0,0c8,0.2,15.8-2.9,21.6-8.5c5.7-5.2,8.9-12.6,8.9-20.4
			c0.1-7.7-3.2-15.1-8.9-20.4C312.5,17.4,307.2,14.6,301.4,13.6z M306,53.1c-2.8,2.9-6.8,4.6-10.8,4.5l0,0c-4.1,0.1-8-1.5-10.8-4.5
			c-2.9-3-4.5-7-4.4-11.2c-0.1-4.2,1.5-8.2,4.4-11.1c2.8-2.9,6.8-4.5,10.8-4.4l0,0c4.1-0.1,8,1.5,10.8,4.4c2.9,3,4.5,7,4.4,11.1
			C310.5,46,308.9,50.1,306,53.1L306,53.1z"/>
		<polygon class="st1" points="67.2,55.9 42.2,55.9 66.4,27.9 66.4,14.6 23.9,14.6 23.9,27.9 46.9,27.9 22.7,55.9 22.7,69.2 
			67.2,69.2 		"/>
		<path class="st1" d="M175.9,21.5c-5.8-5.6-13.5-8.7-21.5-8.5l0,0c-8-0.2-15.8,2.9-21.6,8.5c-4.3,3.9-7.2,9.1-8.4,14.9
			c-1.1-5.7-4.1-10.9-8.3-14.9c-5.8-5.6-13.5-8.7-21.6-8.5h-0.9C85.9,13,78.5,16.1,73,21.5c-5.7,5.2-8.9,12.6-8.9,20.4
			c0,1,0,1.9,0.1,2.8c6.9-9.4,17.7-15.2,29.4-15.9c5.8-0.3,11.7,0.5,17.2,2.3c0,0,0.7,0.1,0.6,0.7c-0.1,0.6-0.4,0.6-1.5,0.3
			c-5.4-1.3-11.1-0.9-16.2,1.2c-11.3,4.5-19.8,16.2-21.3,28.2h-0.1c0.2,0.3,0.5,0.5,0.8,0.8c5.5,5.4,12.9,8.4,20.6,8.5h0.9
			c8,0.2,15.8-2.9,21.6-8.5c1.2-1.1,2.3-2.3,3.3-3.6c-1.8-5.1-6.6-15.5-17.9-25.6c0,0,4.1-0.4,5.8,0.3c1.3,0.5,10.1,6.8,16.5,17.1
			c0.3-1,0.6-2.1,0.8-3.1c1.1,5.7,4,11,8.3,14.9c5.7,5.6,13.5,8.7,21.6,8.5l0,0c8,0.2,15.8-2.9,21.6-8.5c5.7-5.2,8.9-12.6,8.9-20.4
			C184.9,34.1,181.6,26.7,175.9,21.5z M94.5,27.6l-0.9-0.5l-4-2.2c-0.3-0.1-0.7-0.5-0.5-1s1.1-0.1,1.1-0.1c1.2,0.4,2.4,0.9,3.4,1.3
			c1.6,0.7,3.1,1.5,4.6,2.4L94.5,27.6z M165.2,53.1c-2.8,2.9-6.8,4.6-10.8,4.5l0,0c-4.1,0.1-8-1.5-10.8-4.5c-2.9-3-4.5-7-4.4-11.2
			c-0.1-4.2,1.5-8.2,4.4-11.1c2.8-2.9,6.8-4.5,10.8-4.4l0,0c4.1-0.1,8,1.5,10.8,4.4c2.9,3,4.5,7,4.4,11.1
			C169.7,46,168.1,50.1,165.2,53.1z"/>
		<polygon class="st1" points="245,84.4 240.9,84.4 240.9,110.3 257.6,110.3 257.6,106.6 245,106.6 		"/>
		<path class="st1" d="M367.2,84.4h-4.1l-10.7,26h4.2l2.8-6.8h11.5l2.8,6.8h4.3L367.2,84.4z M365.2,99.7H361l4.3-10.7l0,0l4.2,10.7
			L365.2,99.7z"/>
		<polygon class="st1" points="303.4,105.1 295.4,84.4 291.1,84.4 301.3,110.3 305.4,110.3 315.6,84.4 311.3,84.4 		"/>
		<path class="st1" d="M270.7,84.4h-2l-10.8,26h4.3l2.8-6.8h11.5l2.8,6.8h4.2l-10.7-26H270.7z M270.7,99.7h-4.3l4.3-10.7l0,0
			l4.2,10.7L270.7,99.7z"/>
		<path class="st1" d="M56.4,84.4h-2l-10.8,26h4.2l2.8-6.8h11.5l2.8,6.8h4.2l-10.8-26H56.4z M56.4,99.7h-4.2L56.4,89l0,0l4.2,10.7
			L56.4,99.7z"/>
		<rect x="318.9" y="84.4" class="st1" width="4.1" height="25.9"/>
		<path class="st1" d="M144.5,100c0,1.9-0.7,3.7-2,5c-2.5,2.7-6.7,2.8-9.3,0.3c-0.1-0.1-0.2-0.2-0.3-0.3c-1.3-1.3-2-3.1-2-5V84.4
			h-4.1V100c0,2.9,1.1,5.6,3.2,7.6c4.3,4.2,11.2,4.2,15.5,0c2.1-2,3.2-4.7,3.2-7.6V84.4h-4.1L144.5,100z"/>
		<polygon class="st1" points="158.2,98.7 169.5,98.7 169.5,95 158.2,95 158.2,88.1 172.4,88.1 172.4,84.4 154.1,84.4 154.1,110.3 
			172.8,110.3 172.8,106.6 158.2,106.6 		"/>
		<path class="st1" d="M195.3,84.5c-0.7-0.1-1.3-0.1-2-0.2h-9.1v26h9.1c0.7,0,1.3,0,2-0.1c2.8-0.4,5.3-1.7,7.2-3.7
			c5-4.9,5.2-12.9,0.3-18c-0.1-0.1-0.2-0.2-0.3-0.3C200.6,86.3,198.1,84.9,195.3,84.5z M199.7,103.9c-1.2,1.2-2.7,2.1-4.4,2.5
			c-0.7,0.1-1.3,0.2-2,0.2h-5V88.1h5c0.7,0,1.3,0.1,2,0.2c1.7,0.4,3.2,1.2,4.4,2.5C203.2,94.5,203.2,100.2,199.7,103.9z"/>
		<path class="st1" d="M119.6,112.2c-0.8-0.1-1.5-0.4-2.2-0.7c-0.5-0.3-1-0.6-1.4-1c-0.3-0.3-0.6-0.5-0.8-0.8
			c-0.1-0.1-0.2-0.2-0.2-0.4l0.7-0.4c0.7-0.3,1.3-0.8,1.9-1.3c0.8-0.7,1.5-1.4,2.2-2.2c0.8-1,1.4-2.2,1.9-3.4c0.5-1.5,0.8-3,0.8-4.6
			c0.1-3.6-1.4-7-4-9.4c-5.5-5.2-14-5.2-19.5,0c-5.2,5.2-5.3,13.6-0.1,18.8c0,0,0.1,0.1,0.1,0.1c2.6,2.6,6.1,4,9.8,3.9l0,0
			c0.8,0,1.6-0.1,2.4-0.2l0.4,0.6c0.4,0.5,0.9,1,1.4,1.5c0.7,0.6,1.5,1.2,2.2,1.6c1,0.6,2.1,1,3.3,1.3c1.4,0.3,2.9,0.4,4.3,0.2v-3.3
			C121.7,112.5,120.7,112.4,119.6,112.2z M108.6,107c-5.3,0-9.5-4.3-9.5-9.6s4.3-9.5,9.6-9.5c5.3,0,9.5,4.3,9.5,9.6
			c0,2.5-1,4.9-2.8,6.7C113.7,106,111.2,107,108.6,107L108.6,107z"/>
		<polygon class="st1" points="214.9,98.7 226.2,98.7 226.2,95 214.9,95 214.9,88.1 229.1,88.1 229.1,84.4 210.8,84.4 210.8,110.3 
			229.5,110.3 229.5,106.6 214.9,106.6 		"/>
		<path class="st1" d="M339.9,84.5c-0.7-0.1-1.3-0.1-2-0.2h-9.1v26h9.1c0.7,0,1.3,0,2-0.1c2.8-0.4,5.3-1.7,7.2-3.7
			c5-4.9,5.2-12.9,0.3-18c-0.1-0.1-0.2-0.2-0.3-0.3C345.2,86.3,342.7,84.9,339.9,84.5z M344.3,103.9c-1.2,1.2-2.7,2.1-4.4,2.5
			c-0.7,0.1-1.3,0.2-2,0.2h-5V88.1h5c0.7,0,1.3,0.1,2,0.2c1.7,0.4,3.2,1.2,4.4,2.5C347.8,94.5,347.8,100.2,344.3,103.9z"/>
		<path class="st1" d="M86.7,99.7c0.5-0.2,0.9-0.5,1.3-0.8c0.5-0.4,1-0.9,1.5-1.4c0.6-0.6,1-1.4,1.3-2.2c0.4-1,0.6-2,0.5-3
			c0-2.1-0.8-4.2-2.4-5.7c-1.6-1.5-3.8-2.4-6-2.3H72.1v26h4.1v-10h5.9l5.5,10h4.5L86.1,100L86.7,99.7z M83,96.6h-6.9v-8.5H83
			c2.3,0,4.2,1.8,4.3,4.1c0,0.1,0,0.1,0,0.2c0.1,2.3-1.7,4.2-4,4.3C83.1,96.6,83.1,96.6,83,96.6L83,96.6z"/>
		<polygon class="st1" points="341.2,38.8 364.7,69.2 377.5,69.2 377.5,14.6 362.7,14.6 362.7,45 339.3,14.6 326.4,14.6 326.4,69.2 
			341.2,69.2 		"/>
		<polygon class="st1" points="224,55.9 200.5,55.9 200.5,14.6 185.7,14.6 185.7,69.2 224,69.2 		"/>
		<polygon class="st1" points="224.7,55.9 224.7,69.2 265.8,69.2 266.9,69.2 266.9,56.7 265.8,56.7 238.8,56.7 238.8,47.4 
			259.9,47.4 259.9,35.6 238.8,35.6 238.8,27.1 265.8,27.1 266.1,27.1 266.1,14.6 265.8,14.6 224.3,14.6 224,14.6 224,55.9 
			224.3,55.9 		"/>
		<path class="st1" d="M301.4,13.6l4.7-6.4H292l-3.4,6.4c-5.7,1.1-11,3.8-15.1,7.9c-11.2,10.4-11.9,27.9-1.6,39.2
			c0.5,0.5,1,1.1,1.6,1.6c5.8,5.6,13.5,8.7,21.6,8.5l0,0c8,0.2,15.8-2.9,21.6-8.5c5.7-5.2,8.9-12.6,8.9-20.4
			c0.1-7.7-3.2-15.1-8.9-20.4C312.5,17.4,307.2,14.6,301.4,13.6z M306,53.1c-2.8,2.9-6.8,4.6-10.8,4.5l0,0c-4.1,0.1-8-1.5-10.8-4.5
			c-2.9-3-4.5-7-4.4-11.2c-0.1-4.2,1.5-8.2,4.4-11.1c2.8-2.9,6.8-4.5,10.8-4.4l0,0c4.1-0.1,8,1.5,10.8,4.4c2.9,3,4.5,7,4.4,11.1
			C310.5,46,308.9,50.1,306,53.1L306,53.1z"/>
		<polygon class="st1" points="67.2,55.9 42.2,55.9 66.4,27.9 66.4,14.6 23.9,14.6 23.9,27.9 46.9,27.9 22.7,55.9 22.7,69.2 
			67.2,69.2 		"/>
		<path class="st1" d="M175.9,21.5c-5.8-5.6-13.5-8.7-21.5-8.5l0,0c-8-0.2-15.8,2.9-21.6,8.5c-4.3,3.9-7.2,9.1-8.4,14.9
			c-1.1-5.7-4.1-10.9-8.3-14.9c-5.8-5.6-13.5-8.7-21.6-8.5h-0.9C85.9,13,78.5,16.1,73,21.5c-5.7,5.2-8.9,12.6-8.9,20.4
			c0,1,0,1.9,0.1,2.8c6.9-9.4,17.7-15.2,29.4-15.9c5.8-0.3,11.7,0.5,17.2,2.3c0,0,0.7,0.1,0.6,0.7c-0.1,0.6-0.4,0.6-1.5,0.3
			c-5.4-1.3-11.1-0.9-16.2,1.2c-11.3,4.5-19.8,16.2-21.3,28.2h-0.1c0.2,0.3,0.5,0.5,0.8,0.8c5.5,5.4,12.9,8.4,20.6,8.5h0.9
			c8,0.2,15.8-2.9,21.6-8.5c1.2-1.1,2.3-2.3,3.3-3.6c-1.8-5.1-6.6-15.5-17.9-25.6c0,0,4.1-0.4,5.8,0.3c1.3,0.5,10.1,6.8,16.5,17.1
			c0.3-1,0.6-2.1,0.8-3.1c1.1,5.7,4,11,8.3,14.9c5.7,5.6,13.5,8.7,21.6,8.5l0,0c8,0.2,15.8-2.9,21.6-8.5c5.7-5.2,8.9-12.6,8.9-20.4
			C184.9,34.1,181.6,26.7,175.9,21.5z M94.5,27.6l-0.9-0.5l-4-2.2c-0.3-0.1-0.7-0.5-0.5-1s1.1-0.1,1.1-0.1c1.2,0.4,2.4,0.9,3.4,1.3
			c1.6,0.7,3.1,1.5,4.6,2.4L94.5,27.6z M165.2,53.1c-2.8,2.9-6.8,4.6-10.8,4.5l0,0c-4.1,0.1-8-1.5-10.8-4.5c-2.9-3-4.5-7-4.4-11.2
			c-0.1-4.2,1.5-8.2,4.4-11.1c2.8-2.9,6.8-4.5,10.8-4.4l0,0c4.1-0.1,8,1.5,10.8,4.4c2.9,3,4.5,7,4.4,11.1
			C169.7,46,168.1,50.1,165.2,53.1z"/>
		<path class="st1" d="M33.5,84.4H23.1v26h4.1v-9.3h6.3c2.3,0.1,4.5-0.8,6.2-2.4C43,95.5,43,90.3,39.9,87c-0.1-0.1-0.1-0.1-0.2-0.2
			C38,85.2,35.8,84.3,33.5,84.4z M36.7,96c-0.9,0.9-2,1.4-3.3,1.4h-6.3v-9.3h6.3c2.5,0,4.6,2,4.6,4.5c0,0,0,0.1,0,0.1
			C38.1,94,37.6,95.2,36.7,96L36.7,96z"/>
		<polygon class="st1" points="245,84.4 240.9,84.4 240.9,110.3 257.6,110.3 257.6,106.6 245,106.6 		"/>
		<path class="st1" d="M367.2,84.4h-4.1l-10.7,26h4.2l2.8-6.8h11.5l2.8,6.8h4.3L367.2,84.4z M365.2,99.7H361l4.3-10.7l0,0l4.2,10.7
			L365.2,99.7z"/>
		<polygon class="st1" points="303.4,105.1 295.4,84.4 291.1,84.4 301.3,110.3 305.4,110.3 315.6,84.4 311.3,84.4 		"/>
		<path class="st1" d="M270.7,84.4h-2l-10.8,26h4.3l2.8-6.8h11.5l2.8,6.8h4.2l-10.7-26H270.7z M270.7,99.7h-4.3l4.3-10.7l0,0
			l4.2,10.7L270.7,99.7z"/>
		<path class="st1" d="M56.4,84.4h-2l-10.8,26h4.2l2.8-6.8h11.5l2.8,6.8h4.2l-10.8-26H56.4z M56.4,99.7h-4.2L56.4,89l0,0l4.2,10.7
			L56.4,99.7z"/>
		<rect x="318.9" y="84.4" class="st1" width="4.1" height="25.9"/>
		<path class="st1" d="M144.5,100c0,1.9-0.7,3.7-2,5c-2.5,2.7-6.7,2.8-9.3,0.3c-0.1-0.1-0.2-0.2-0.3-0.3c-1.3-1.3-2-3.1-2-5V84.4
			h-4.1V100c0,2.9,1.1,5.6,3.2,7.6c4.3,4.2,11.2,4.2,15.5,0c2.1-2,3.2-4.7,3.2-7.6V84.4h-4.1L144.5,100z"/>
		<polygon class="st1" points="158.2,98.7 169.5,98.7 169.5,95 158.2,95 158.2,88.1 172.4,88.1 172.4,84.4 154.1,84.4 154.1,110.3 
			172.8,110.3 172.8,106.6 158.2,106.6 		"/>
		<path class="st1" d="M195.3,84.5c-0.7-0.1-1.3-0.1-2-0.2h-9.1v26h9.1c0.7,0,1.3,0,2-0.1c2.8-0.4,5.3-1.7,7.2-3.7
			c5-4.9,5.2-12.9,0.3-18c-0.1-0.1-0.2-0.2-0.3-0.3C200.6,86.3,198.1,84.9,195.3,84.5z M199.7,103.9c-1.2,1.2-2.7,2.1-4.4,2.5
			c-0.7,0.1-1.3,0.2-2,0.2h-5V88.1h5c0.7,0,1.3,0.1,2,0.2c1.7,0.4,3.2,1.2,4.4,2.5C203.2,94.5,203.2,100.2,199.7,103.9z"/>
		<path class="st1" d="M119.6,112.2c-0.8-0.1-1.5-0.4-2.2-0.7c-0.5-0.3-1-0.6-1.4-1c-0.3-0.3-0.6-0.5-0.8-0.8
			c-0.1-0.1-0.2-0.2-0.2-0.4l0.7-0.4c0.7-0.3,1.3-0.8,1.9-1.3c0.8-0.7,1.5-1.4,2.2-2.2c0.8-1,1.4-2.2,1.9-3.4c0.5-1.5,0.8-3,0.8-4.6
			c0.1-3.6-1.4-7-4-9.4c-5.5-5.2-14-5.2-19.5,0c-5.2,5.2-5.3,13.6-0.1,18.8c0,0,0.1,0.1,0.1,0.1c2.6,2.6,6.1,4,9.8,3.9l0,0
			c0.8,0,1.6-0.1,2.4-0.2l0.4,0.6c0.4,0.5,0.9,1,1.4,1.5c0.7,0.6,1.5,1.2,2.2,1.6c1,0.6,2.1,1,3.3,1.3c1.4,0.3,2.9,0.4,4.3,0.2v-3.3
			C121.7,112.5,120.7,112.4,119.6,112.2z M108.6,107c-5.3,0-9.5-4.3-9.5-9.6s4.3-9.5,9.6-9.5c5.3,0,9.5,4.3,9.5,9.6
			c0,2.5-1,4.9-2.8,6.7C113.7,106,111.2,107,108.6,107L108.6,107z"/>
		<polygon class="st1" points="214.9,98.7 226.2,98.7 226.2,95 214.9,95 214.9,88.1 229.1,88.1 229.1,84.4 210.8,84.4 210.8,110.3 
			229.5,110.3 229.5,106.6 214.9,106.6 		"/>
		<path class="st1" d="M339.9,84.5c-0.7-0.1-1.3-0.1-2-0.2h-9.1v26h9.1c0.7,0,1.3,0,2-0.1c2.8-0.4,5.3-1.7,7.2-3.7
			c5-4.9,5.2-12.9,0.3-18c-0.1-0.1-0.2-0.2-0.3-0.3C345.2,86.3,342.7,84.9,339.9,84.5z M344.3,103.9c-1.2,1.2-2.7,2.1-4.4,2.5
			c-0.7,0.1-1.3,0.2-2,0.2h-5V88.1h5c0.7,0,1.3,0.1,2,0.2c1.7,0.4,3.2,1.2,4.4,2.5C347.8,94.5,347.8,100.2,344.3,103.9z"/>
		<path class="st1" d="M86.7,99.7c0.5-0.2,0.9-0.5,1.3-0.8c0.5-0.4,1-0.9,1.5-1.4c0.6-0.6,1-1.4,1.3-2.2c0.4-1,0.6-2,0.5-3
			c0-2.1-0.8-4.2-2.4-5.7c-1.6-1.5-3.8-2.4-6-2.3H72.1v26h4.1v-10h5.9l5.5,10h4.5L86.1,100L86.7,99.7z M83,96.6h-6.9v-8.5H83
			c2.3,0,4.2,1.8,4.3,4.1c0,0.1,0,0.1,0,0.2c0.1,2.3-1.7,4.2-4,4.3C83.1,96.6,83.1,96.6,83,96.6L83,96.6z"/>
		<polygon class="st1" points="341.2,38.8 364.7,69.2 377.5,69.2 377.5,14.6 362.7,14.6 362.7,45 339.3,14.6 326.4,14.6 326.4,69.2 
			341.2,69.2 		"/>
		<polygon class="st1" points="224,55.9 200.5,55.9 200.5,14.6 185.7,14.6 185.7,69.2 224,69.2 		"/>
		<polygon class="st1" points="224.7,55.9 224.7,69.2 265.8,69.2 266.9,69.2 266.9,56.7 265.8,56.7 238.8,56.7 238.8,47.4 
			259.9,47.4 259.9,35.6 238.8,35.6 238.8,27.1 265.8,27.1 266.1,27.1 266.1,14.6 265.8,14.6 224.3,14.6 224,14.6 224,55.9 
			224.3,55.9 		"/>
		<path class="st1" d="M301.4,13.6l4.7-6.4H292l-3.4,6.4c-5.7,1.1-11,3.8-15.1,7.9c-11.2,10.4-11.9,27.9-1.6,39.2
			c0.5,0.5,1,1.1,1.6,1.6c5.8,5.6,13.5,8.7,21.6,8.5l0,0c8,0.2,15.8-2.9,21.6-8.5c5.7-5.2,8.9-12.6,8.9-20.4
			c0.1-7.7-3.2-15.1-8.9-20.4C312.5,17.4,307.2,14.6,301.4,13.6z M306,53.1c-2.8,2.9-6.8,4.6-10.8,4.5l0,0c-4.1,0.1-8-1.5-10.8-4.5
			c-2.9-3-4.5-7-4.4-11.2c-0.1-4.2,1.5-8.2,4.4-11.1c2.8-2.9,6.8-4.5,10.8-4.4l0,0c4.1-0.1,8,1.5,10.8,4.4c2.9,3,4.5,7,4.4,11.1
			C310.5,46,308.9,50.1,306,53.1L306,53.1z"/>
		<polygon class="st1" points="67.2,55.9 42.2,55.9 66.4,27.9 66.4,14.6 23.9,14.6 23.9,27.9 46.9,27.9 22.7,55.9 22.7,69.2 
			67.2,69.2 		"/>
		<path class="st1" d="M175.9,21.5c-5.8-5.6-13.5-8.7-21.5-8.5l0,0c-8-0.2-15.8,2.9-21.6,8.5c-4.3,3.9-7.2,9.1-8.4,14.9
			c-1.1-5.7-4.1-10.9-8.3-14.9c-5.8-5.6-13.5-8.7-21.6-8.5h-0.9C85.9,13,78.5,16.1,73,21.5c-5.7,5.2-8.9,12.6-8.9,20.4
			c0,1,0,1.9,0.1,2.8c6.9-9.4,17.7-15.2,29.4-15.9c5.8-0.3,11.7,0.5,17.2,2.3c0,0,0.7,0.1,0.6,0.7c-0.1,0.6-0.4,0.6-1.5,0.3
			c-5.4-1.3-11.1-0.9-16.2,1.2c-11.3,4.5-19.8,16.2-21.3,28.2h-0.1c0.2,0.3,0.5,0.5,0.8,0.8c5.5,5.4,12.9,8.4,20.6,8.5h0.9
			c8,0.2,15.8-2.9,21.6-8.5c1.2-1.1,2.3-2.3,3.3-3.6c-1.8-5.1-6.6-15.5-17.9-25.6c0,0,4.1-0.4,5.8,0.3c1.3,0.5,10.1,6.8,16.5,17.1
			c0.3-1,0.6-2.1,0.8-3.1c1.1,5.7,4,11,8.3,14.9c5.7,5.6,13.5,8.7,21.6,8.5l0,0c8,0.2,15.8-2.9,21.6-8.5c5.7-5.2,8.9-12.6,8.9-20.4
			C184.9,34.1,181.6,26.7,175.9,21.5z M94.5,27.6l-0.9-0.5l-4-2.2c-0.3-0.1-0.7-0.5-0.5-1s1.1-0.1,1.1-0.1c1.2,0.4,2.4,0.9,3.4,1.3
			c1.6,0.7,3.1,1.5,4.6,2.4L94.5,27.6z M165.2,53.1c-2.8,2.9-6.8,4.6-10.8,4.5l0,0c-4.1,0.1-8-1.5-10.8-4.5c-2.9-3-4.5-7-4.4-11.2
			c-0.1-4.2,1.5-8.2,4.4-11.1c2.8-2.9,6.8-4.5,10.8-4.4l0,0c4.1-0.1,8,1.5,10.8,4.4c2.9,3,4.5,7,4.4,11.1
			C169.7,46,168.1,50.1,165.2,53.1z"/>
		<polygon class="st1" points="245,84.4 240.9,84.4 240.9,110.3 257.6,110.3 257.6,106.6 245,106.6 		"/>
		<path class="st1" d="M367.2,84.4h-4.1l-10.7,26h4.2l2.8-6.8h11.5l2.8,6.8h4.3L367.2,84.4z M365.2,99.7H361l4.3-10.7l0,0l4.2,10.7
			L365.2,99.7z"/>
		<polygon class="st1" points="303.4,105.1 295.4,84.4 291.1,84.4 301.3,110.3 305.4,110.3 315.6,84.4 311.3,84.4 		"/>
		<path class="st1" d="M270.7,84.4h-2l-10.8,26h4.3l2.8-6.8h11.5l2.8,6.8h4.2l-10.7-26H270.7z M270.7,99.7h-4.3l4.3-10.7l0,0
			l4.2,10.7L270.7,99.7z"/>
		<path class="st1" d="M56.4,84.4h-2l-10.8,26h4.2l2.8-6.8h11.5l2.8,6.8h4.2l-10.8-26H56.4z M56.4,99.7h-4.2L56.4,89l0,0l4.2,10.7
			L56.4,99.7z"/>
		<rect x="318.9" y="84.4" class="st1" width="4.1" height="25.9"/>
		<path class="st1" d="M144.5,100c0,1.9-0.7,3.7-2,5c-2.5,2.7-6.7,2.8-9.3,0.3c-0.1-0.1-0.2-0.2-0.3-0.3c-1.3-1.3-2-3.1-2-5V84.4
			h-4.1V100c0,2.9,1.1,5.6,3.2,7.6c4.3,4.2,11.2,4.2,15.5,0c2.1-2,3.2-4.7,3.2-7.6V84.4h-4.1L144.5,100z"/>
		<polygon class="st1" points="158.2,98.7 169.5,98.7 169.5,95 158.2,95 158.2,88.1 172.4,88.1 172.4,84.4 154.1,84.4 154.1,110.3 
			172.8,110.3 172.8,106.6 158.2,106.6 		"/>
		<path class="st1" d="M195.3,84.5c-0.7-0.1-1.3-0.1-2-0.2h-9.1v26h9.1c0.7,0,1.3,0,2-0.1c2.8-0.4,5.3-1.7,7.2-3.7
			c5-4.9,5.2-12.9,0.3-18c-0.1-0.1-0.2-0.2-0.3-0.3C200.6,86.3,198.1,84.9,195.3,84.5z M199.7,103.9c-1.2,1.2-2.7,2.1-4.4,2.5
			c-0.7,0.1-1.3,0.2-2,0.2h-5V88.1h5c0.7,0,1.3,0.1,2,0.2c1.7,0.4,3.2,1.2,4.4,2.5C203.2,94.5,203.2,100.2,199.7,103.9z"/>
		<path class="st1" d="M119.6,112.2c-0.8-0.1-1.5-0.4-2.2-0.7c-0.5-0.3-1-0.6-1.4-1c-0.3-0.3-0.6-0.5-0.8-0.8
			c-0.1-0.1-0.2-0.2-0.2-0.4l0.7-0.4c0.7-0.3,1.3-0.8,1.9-1.3c0.8-0.7,1.5-1.4,2.2-2.2c0.8-1,1.4-2.2,1.9-3.4c0.5-1.5,0.8-3,0.8-4.6
			c0.1-3.6-1.4-7-4-9.4c-5.5-5.2-14-5.2-19.5,0c-5.2,5.2-5.3,13.6-0.1,18.8c0,0,0.1,0.1,0.1,0.1c2.6,2.6,6.1,4,9.8,3.9l0,0
			c0.8,0,1.6-0.1,2.4-0.2l0.4,0.6c0.4,0.5,0.9,1,1.4,1.5c0.7,0.6,1.5,1.2,2.2,1.6c1,0.6,2.1,1,3.3,1.3c1.4,0.3,2.9,0.4,4.3,0.2v-3.3
			C121.7,112.5,120.7,112.4,119.6,112.2z M108.6,107c-5.3,0-9.5-4.3-9.5-9.6s4.3-9.5,9.6-9.5c5.3,0,9.5,4.3,9.5,9.6
			c0,2.5-1,4.9-2.8,6.7C113.7,106,111.2,107,108.6,107L108.6,107z"/>
		<polygon class="st1" points="214.9,98.7 226.2,98.7 226.2,95 214.9,95 214.9,88.1 229.1,88.1 229.1,84.4 210.8,84.4 210.8,110.3 
			229.5,110.3 229.5,106.6 214.9,106.6 		"/>
		<path class="st1" d="M339.9,84.5c-0.7-0.1-1.3-0.1-2-0.2h-9.1v26h9.1c0.7,0,1.3,0,2-0.1c2.8-0.4,5.3-1.7,7.2-3.7
			c5-4.9,5.2-12.9,0.3-18c-0.1-0.1-0.2-0.2-0.3-0.3C345.2,86.3,342.7,84.9,339.9,84.5z M344.3,103.9c-1.2,1.2-2.7,2.1-4.4,2.5
			c-0.7,0.1-1.3,0.2-2,0.2h-5V88.1h5c0.7,0,1.3,0.1,2,0.2c1.7,0.4,3.2,1.2,4.4,2.5C347.8,94.5,347.8,100.2,344.3,103.9z"/>
		<path class="st1" d="M86.7,99.7c0.5-0.2,0.9-0.5,1.3-0.8c0.5-0.4,1-0.9,1.5-1.4c0.6-0.6,1-1.4,1.3-2.2c0.4-1,0.6-2,0.5-3
			c0-2.1-0.8-4.2-2.4-5.7c-1.6-1.5-3.8-2.4-6-2.3H72.1v26h4.1v-10h5.9l5.5,10h4.5L86.1,100L86.7,99.7z M83,96.6h-6.9v-8.5H83
			c2.3,0,4.2,1.8,4.3,4.1c0,0.1,0,0.1,0,0.2c0.1,2.3-1.7,4.2-4,4.3C83.1,96.6,83.1,96.6,83,96.6L83,96.6z"/>
		<polygon class="st1" points="341.2,38.8 364.7,69.2 377.5,69.2 377.5,14.6 362.7,14.6 362.7,45 339.3,14.6 326.4,14.6 326.4,69.2 
			341.2,69.2 		"/>
		<polygon class="st1" points="224,55.9 200.5,55.9 200.5,14.6 185.7,14.6 185.7,69.2 224,69.2 		"/>
		<polygon class="st1" points="222.7,69.2 265.8,69.2 266.9,69.2 266.9,56.7 265.8,56.7 238.8,56.7 238.8,47.4 259.9,47.4 
			259.9,35.6 238.8,35.6 238.8,27.1 265.8,27.1 266.1,27.1 266.1,14.6 265.8,14.6 224.3,14.6 224,14.6 224,55.9 		"/>
		<path class="st1" d="M301.4,13.6l4.7-6.4H292l-3.4,6.4c-5.7,1.1-11,3.8-15.1,7.9c-11.2,10.4-11.9,27.9-1.6,39.2
			c0.5,0.5,1,1.1,1.6,1.6c5.8,5.6,13.5,8.7,21.6,8.5l0,0c8,0.2,15.8-2.9,21.6-8.5c5.7-5.2,8.9-12.6,8.9-20.4
			c0.1-7.7-3.2-15.1-8.9-20.4C312.5,17.4,307.2,14.6,301.4,13.6z M306,53.1c-2.8,2.9-6.8,4.6-10.8,4.5l0,0c-4.1,0.1-8-1.5-10.8-4.5
			c-2.9-3-4.5-7-4.4-11.2c-0.1-4.2,1.5-8.2,4.4-11.1c2.8-2.9,6.8-4.5,10.8-4.4l0,0c4.1-0.1,8,1.5,10.8,4.4c2.9,3,4.5,7,4.4,11.1
			C310.5,46,308.9,50.1,306,53.1L306,53.1z"/>
		<polygon class="st1" points="67.2,55.9 42.2,55.9 66.4,27.9 66.4,14.6 23.9,14.6 23.9,27.9 46.9,27.9 22.7,55.9 22.7,69.2 
			67.2,69.2 		"/>
		<path class="st1" d="M175.9,21.5c-5.8-5.6-13.5-8.7-21.5-8.5l0,0c-8-0.2-15.8,2.9-21.6,8.5c-4.3,3.9-7.2,9.1-8.4,14.9
			c-1.1-5.7-4.1-10.9-8.3-14.9c-5.8-5.6-13.5-8.7-21.6-8.5h-0.9C85.9,13,78.5,16.1,73,21.5c-5.7,5.2-8.9,12.6-8.9,20.4
			c0,1,0,1.9,0.1,2.8c6.9-9.4,17.7-15.2,29.4-15.9c5.8-0.3,11.7,0.5,17.2,2.3c0,0,0.7,0.1,0.6,0.7c-0.1,0.6-0.4,0.6-1.5,0.3
			c-5.4-1.3-11.1-0.9-16.2,1.2c-11.3,4.5-19.8,16.2-21.3,28.2h-0.1c0.2,0.3,0.5,0.5,0.8,0.8c5.5,5.4,12.9,8.4,20.6,8.5h0.9
			c8,0.2,15.8-2.9,21.6-8.5c1.2-1.1,2.3-2.3,3.3-3.6c-1.8-5.1-6.6-15.5-17.9-25.6c0,0,4.1-0.4,5.8,0.3c1.3,0.5,10.1,6.8,16.5,17.1
			c0.3-1,0.6-2.1,0.8-3.1c1.1,5.7,4,11,8.3,14.9c5.7,5.6,13.5,8.7,21.6,8.5l0,0c8,0.2,15.8-2.9,21.6-8.5c5.7-5.2,8.9-12.6,8.9-20.4
			C184.9,34.1,181.6,26.7,175.9,21.5z M94.5,27.6l-0.9-0.5l-4-2.2c-0.3-0.1-0.7-0.5-0.5-1s1.1-0.1,1.1-0.1c1.2,0.4,2.4,0.9,3.4,1.3
			c1.6,0.7,3.1,1.5,4.6,2.4L94.5,27.6z M165.2,53.1c-2.8,2.9-6.8,4.6-10.8,4.5l0,0c-4.1,0.1-8-1.5-10.8-4.5c-2.9-3-4.5-7-4.4-11.2
			c-0.1-4.2,1.5-8.2,4.4-11.1c2.8-2.9,6.8-4.5,10.8-4.4l0,0c4.1-0.1,8,1.5,10.8,4.4c2.9,3,4.5,7,4.4,11.1
			C169.7,46,168.1,50.1,165.2,53.1z"/>
		<polygon class="st1" points="245,84.4 240.9,84.4 240.9,110.3 257.6,110.3 257.6,106.6 245,106.6 		"/>
		<path class="st1" d="M367.2,84.4h-4.1l-10.7,26h4.2l2.8-6.8h11.5l2.8,6.8h4.3L367.2,84.4z M365.2,99.7H361l4.3-10.7l0,0l4.2,10.7
			L365.2,99.7z"/>
		<polygon class="st1" points="303.4,105.1 295.4,84.4 291.1,84.4 301.3,110.3 305.4,110.3 315.6,84.4 311.3,84.4 		"/>
		<path class="st1" d="M270.7,84.4h-2l-10.8,26h4.3l2.8-6.8h11.5l2.8,6.8h4.2l-10.7-26H270.7z M270.7,99.7h-4.3l4.3-10.7l0,0
			l4.2,10.7L270.7,99.7z"/>
		<path class="st1" d="M56.4,84.4h-2l-10.8,26h4.2l2.8-6.8h11.5l2.8,6.8h4.2l-10.8-26H56.4z M56.4,99.7h-4.2L56.4,89l0,0l4.2,10.7
			L56.4,99.7z"/>
		<rect x="318.9" y="84.4" class="st1" width="4.1" height="25.9"/>
		<path class="st1" d="M144.5,100c0,1.9-0.7,3.7-2,5c-2.5,2.7-6.7,2.8-9.3,0.3c-0.1-0.1-0.2-0.2-0.3-0.3c-1.3-1.3-2-3.1-2-5V84.4
			h-4.1V100c0,2.9,1.1,5.6,3.2,7.6c4.3,4.2,11.2,4.2,15.5,0c2.1-2,3.2-4.7,3.2-7.6V84.4h-4.1L144.5,100z"/>
		<polygon class="st1" points="158.2,98.7 169.5,98.7 169.5,95 158.2,95 158.2,88.1 172.4,88.1 172.4,84.4 154.1,84.4 154.1,110.3 
			172.8,110.3 172.8,106.6 158.2,106.6 		"/>
		<path class="st1" d="M195.3,84.5c-0.7-0.1-1.3-0.1-2-0.2h-9.1v26h9.1c0.7,0,1.3,0,2-0.1c2.8-0.4,5.3-1.7,7.2-3.7
			c5-4.9,5.2-12.9,0.3-18c-0.1-0.1-0.2-0.2-0.3-0.3C200.6,86.3,198.1,84.9,195.3,84.5z M199.7,103.9c-1.2,1.2-2.7,2.1-4.4,2.5
			c-0.7,0.1-1.3,0.2-2,0.2h-5V88.1h5c0.7,0,1.3,0.1,2,0.2c1.7,0.4,3.2,1.2,4.4,2.5C203.2,94.5,203.2,100.2,199.7,103.9z"/>
		<path class="st1" d="M119.6,112.2c-0.8-0.1-1.5-0.4-2.2-0.7c-0.5-0.3-1-0.6-1.4-1c-0.3-0.3-0.6-0.5-0.8-0.8
			c-0.1-0.1-0.2-0.2-0.2-0.4l0.7-0.4c0.7-0.3,1.3-0.8,1.9-1.3c0.8-0.7,1.5-1.4,2.2-2.2c0.8-1,1.4-2.2,1.9-3.4c0.5-1.5,0.8-3,0.8-4.6
			c0.1-3.6-1.4-7-4-9.4c-5.5-5.2-14-5.2-19.5,0c-5.2,5.2-5.3,13.6-0.1,18.8c0,0,0.1,0.1,0.1,0.1c2.6,2.6,6.1,4,9.8,3.9l0,0
			c0.8,0,1.6-0.1,2.4-0.2l0.4,0.6c0.4,0.5,0.9,1,1.4,1.5c0.7,0.6,1.5,1.2,2.2,1.6c1,0.6,2.1,1,3.3,1.3c1.4,0.3,2.9,0.4,4.3,0.2v-3.3
			C121.7,112.5,120.7,112.4,119.6,112.2z M108.6,107c-5.3,0-9.5-4.3-9.5-9.6s4.3-9.5,9.6-9.5c5.3,0,9.5,4.3,9.5,9.6
			c0,2.5-1,4.9-2.8,6.7C113.7,106,111.2,107,108.6,107L108.6,107z"/>
		<polygon class="st1" points="214.9,98.7 226.2,98.7 226.2,95 214.9,95 214.9,88.1 229.1,88.1 229.1,84.4 210.8,84.4 210.8,110.3 
			229.5,110.3 229.5,106.6 214.9,106.6 		"/>
		<path class="st1" d="M339.9,84.5c-0.7-0.1-1.3-0.1-2-0.2h-9.1v26h9.1c0.7,0,1.3,0,2-0.1c2.8-0.4,5.3-1.7,7.2-3.7
			c5-4.9,5.2-12.9,0.3-18c-0.1-0.1-0.2-0.2-0.3-0.3C345.2,86.3,342.7,84.9,339.9,84.5z M344.3,103.9c-1.2,1.2-2.7,2.1-4.4,2.5
			c-0.7,0.1-1.3,0.2-2,0.2h-5V88.1h5c0.7,0,1.3,0.1,2,0.2c1.7,0.4,3.2,1.2,4.4,2.5C347.8,94.5,347.8,100.2,344.3,103.9z"/>
		<path class="st1" d="M86.7,99.7c0.5-0.2,0.9-0.5,1.3-0.8c0.5-0.4,1-0.9,1.5-1.4c0.6-0.6,1-1.4,1.3-2.2c0.4-1,0.6-2,0.5-3
			c0-2.1-0.8-4.2-2.4-5.7c-1.6-1.5-3.8-2.4-6-2.3H72.1v26h4.1v-10h5.9l5.5,10h4.5L86.1,100L86.7,99.7z M83,96.6h-6.9v-8.5H83
			c2.3,0,4.2,1.8,4.3,4.1c0,0.1,0,0.1,0,0.2c0.1,2.3-1.7,4.2-4,4.3C83.1,96.6,83.1,96.6,83,96.6L83,96.6z"/>
	</g>
</g>
</svg>
