<?xml version="1.0" encoding="utf-8"?>
<!-- Generator: Adobe Illustrator 25.4.1, SVG Export Plug-In . SVG Version: 6.00 Build 0)  -->
<svg version="1.1" id="Capa_1" xmlns="http://www.w3.org/2000/svg" xmlns:xlink="http://www.w3.org/1999/xlink" x="0px" y="0px"
	 viewBox="0 0 162 157" style="enable-background:new 0 0 162 157;" xml:space="preserve">
<style type="text/css">
	.st0{fill:#FFFFFF;}
	.st1{fill:#D0D4D7;}
	.st2{fill:#00823D;}
	.st3{fill:#F9B000;}
</style>
<g>
	<path class="st0" d="M161.9,136.7c0,11.2-9.1,20.2-20.2,20.2H20.3c-11.2,0-20.2-9.1-20.2-20.2V20.3C0.1,9.2,9.1,0.1,20.3,0.1h121.4
		c11.2,0,20.2,9.1,20.2,20.2V136.7z"/>
	<path class="st1" d="M99,40.2c-1.1,0-2.2,0.1-3.3,0.2c17,14.5,29.9,33.8,36.7,55.8h6.2C130.7,74,116.8,54.7,99,40.2z M71.5,24.4
		C71.5,24.4,71.5,24.4,71.5,24.4c3.3,1.7,6.5,3.5,9.6,5.4c0.9-0.1,1.8-0.1,2.7-0.1c-4.2-2.5-8.5-4.7-12.9-6.7c0,0,0,0.1,0,0.1
		C70.8,23.6,71.1,24.1,71.5,24.4z M113.4,39.2c0.1,0,0.2,0,0.3,0c0.2,0,0.4-0.1,0.6-0.1c-6-1.8-12.4-2.8-19.1-2.8
		c-34.3,0-62.4,26.4-65.1,59.9h8.2C40.8,63.7,68,38,101.2,38C105.4,38,109.5,38.5,113.4,39.2z"/>
	<path class="st2" d="M136.6,15.3H25.4c-5.6,0-10.1,4.5-10.1,10.1V75c13.2-25.7,40-43.2,70.8-43.2c9.8,0,19.3,1.8,28,5.1
		c0.5,0.1,0.9,0.6,0.9,1.2c0,0.7-0.6,1.2-1.2,1.2c-0.1,0-0.2,0-0.3,0c-3.9-0.8-8-1.2-12.2-1.2c-33.2,0-60.4,25.6-63,58.2h94.2
		c-6.8-22-19.7-41.2-36.7-55.8c1.8-0.2,3.7-0.3,5.6-0.3c1.6,0,3.3,0.1,4.9,0.2c9.1,6.9,17.2,14.9,24.1,24c0,0.1,0.1,0.1,0.1,0.2
		c0.4,0.5,0.7,1,1.1,1.5c0,0,0.1,0.1,0.1,0.1c0.4,0.5,0.7,1,1.1,1.5c0,0,0,0.1,0.1,0.1c0.4,0.5,0.7,1,1.1,1.6c0,0,0,0,0,0
		c4.2,6.1,7.9,12.5,11,19.3c0,0,0,0,0,0c0.3,0.6,0.5,1.1,0.8,1.7c0.4,0.9,0.7,1.7,1.1,2.6V25.4C146.8,19.8,142.2,15.3,136.6,15.3z
		 M86.1,29.6c-1.6,0-3.3,0.1-4.9,0.1c-3.1-1.9-6.3-3.7-9.6-5.4c0,0,0,0,0,0c-0.5-0.2-0.7-0.7-0.7-1.3c0.1-0.7,0.7-1.2,1.4-1.1
		c0.1,0,0.2,0,0.3,0.1c5.9,2.1,11.6,4.7,17,7.6C88.4,29.7,87.2,29.6,86.1,29.6z"/>
	<g>
		<path class="st3" d="M14.6,128l6.3-8c1.2-1.4,2.1-2.4,3.2-3.6v-0.1h-8.9v-5h16.5v3.8l-6.1,7.7c-1.1,1.3-2.1,2.6-3.3,3.7v0.1l9.7,0
			v5H14.6V128z"/>
		<path class="st3" d="M53.4,121.3c0,7.3-5.2,10.7-10.5,10.7c-5.8,0-10.3-3.8-10.3-10.3c0-6.4,4.2-10.6,10.7-10.6
			C49.3,111.1,53.4,115.3,53.4,121.3z M38.4,121.5c0,3.4,1.4,6,4.1,6c2.4,0,4-2.4,4-6c0-3-1.1-6-4-6
			C39.5,115.5,38.4,118.6,38.4,121.5z"/>
		<path class="st3" d="M75.7,121.3c0,7.3-5.2,10.7-10.5,10.7c-5.8,0-10.3-3.8-10.3-10.3c0-6.4,4.2-10.6,10.7-10.6
			C71.7,111.1,75.7,115.3,75.7,121.3z M61.3,121.5c0,3.4,1.4,6,4.1,6c2.4,0,4-2.4,4-6c0-3-1.1-6-4-6
			C62.4,115.5,61.3,118.6,61.3,121.5z"/>
		<path class="st3" d="M77.2,102.6h6.2v29h-6.2V102.6z"/>
		<path class="st3" d="M90.9,123.5c0.2,2.6,2.7,3.8,5.6,3.8c2.1,0,3.8-0.3,5.5-0.8l0.8,4.2c-2,0.8-4.5,1.3-7.2,1.3
			c-6.8,0-10.7-4-10.7-10.2c0-5.1,3.1-10.7,10.1-10.7c6.4,0,8.9,5,8.9,10c0,1.1-0.1,2-0.2,2.4H90.9z M98.2,119.3c0-1.5-0.7-4-3.5-4
			c-2.6,0-3.7,2.4-3.8,4H98.2z"/>
		<path class="st3" d="M126.3,121.3c0,7.3-5.2,10.7-10.5,10.7c-5.8,0-10.3-3.8-10.3-10.3c0-6.4,4.2-10.6,10.7-10.6
			C122.2,111.1,126.3,115.3,126.3,121.3z M111.8,121.5c0,3.4,1.4,6,4.1,6c2.4,0,4-2.4,4-6c0-3-1.1-6-4-6
			C113,115.5,111.8,118.6,111.8,121.5z M122.4,102.9l-5,6.2h-4.3l3.5-6.2H122.4z"/>
		<path class="st3" d="M127.8,118c0-2.5-0.1-4.6-0.2-6.4h5.4l0.3,2.7h0.1c0.8-1.3,2.9-3.2,6.2-3.2c4.1,0,7.1,2.7,7.1,8.6v11.8h-6.2
			v-11.1c0-2.6-0.9-4.3-3.1-4.3c-1.7,0-2.7,1.2-3.1,2.3c-0.2,0.4-0.2,1-0.2,1.6v11.5h-6.2V118z"/>
	</g>
	<g>
		<path class="st2" d="M15.3,136.7c0.5-0.1,1.2-0.2,2.2-0.2c1.1,0,1.8,0.2,2.3,0.6c0.5,0.4,0.8,1,0.8,1.8c0,0.8-0.2,1.4-0.7,1.8
			c-0.6,0.6-1.5,0.8-2.5,0.8c-0.3,0-0.5,0-0.7,0v3h-1.4V136.7z M16.7,140.4c0.2,0,0.4,0.1,0.7,0.1c1.1,0,1.7-0.5,1.7-1.5
			c0-0.9-0.6-1.4-1.6-1.4c-0.4,0-0.7,0-0.8,0.1V140.4z"/>
		<path class="st2" d="M26.1,143.2c0,0.5,0,1,0.1,1.4h-1.3l-0.1-0.6h0c-0.4,0.4-1,0.8-1.7,0.8c-1.2,0-1.8-0.8-1.8-1.7
			c0-1.5,1.3-2.2,3.4-2.2v-0.1c0-0.4-0.2-1-1.2-1c-0.6,0-1.2,0.2-1.5,0.4l-0.3-0.9c0.4-0.3,1.2-0.5,2.1-0.5c1.8,0,2.4,1.2,2.4,2.4
			V143.2z M24.6,141.8c-1,0-2,0.2-2,1.1c0,0.6,0.4,0.8,0.8,0.8c0.6,0,1-0.4,1.1-0.8c0-0.1,0-0.2,0-0.3V141.8z"/>
		<path class="st2" d="M27.6,140.7c0-0.8,0-1.3,0-1.8h1.3l0,1.1h0c0.3-0.8,1-1.2,1.6-1.2c0.1,0,0.2,0,0.3,0v1.4c-0.1,0-0.2,0-0.4,0
			c-0.7,0-1.2,0.4-1.3,1.1c0,0.1,0,0.3,0,0.4v3h-1.4V140.7z"/>
		<path class="st2" d="M35.6,143.8L35.6,143.8c-0.4,0.6-1,0.9-1.8,0.9c-1.3,0-2.4-1.1-2.4-2.9c0-2.1,1.3-3.1,2.6-3.1
			c0.8,0,1.4,0.3,1.7,0.9l0,0l0-0.8h1.4c0,0.5,0,1.1,0,1.7v6.4h-1.4V143.8z M35.6,141.2c0-0.1,0-0.2,0-0.4c-0.1-0.5-0.6-1-1.2-1
			c-0.9,0-1.5,0.8-1.5,1.9c0,1,0.5,1.8,1.4,1.8c0.6,0,1.1-0.4,1.2-1c0-0.1,0.1-0.3,0.1-0.4V141.2z"/>
		<path class="st2" d="M43.7,142.9c0,0.7,0,1.2,0,1.7h-1.3l-0.1-0.9h0c-0.2,0.4-0.8,1-1.8,1c-1,0-2-0.6-2-2.5v-3.4H40v3.1
			c0,1,0.3,1.6,1.1,1.6c0.6,0,1-0.4,1.1-0.8c0-0.1,0.1-0.3,0.1-0.4v-3.5h1.4V142.9z"/>
		<path class="st2" d="M46.3,142.1c0,1,0.8,1.5,1.8,1.5c0.7,0,1.2-0.1,1.6-0.3l0.2,1c-0.5,0.2-1.2,0.4-2,0.4c-1.9,0-3-1.2-3-2.9
			c0-1.6,1-3.1,2.8-3.1c1.9,0,2.5,1.5,2.5,2.8c0,0.3,0,0.5,0,0.6H46.3z M48.9,141.1c0-0.5-0.2-1.4-1.2-1.4c-0.9,0-1.3,0.8-1.3,1.4
			H48.9z"/>
		<path class="st2" d="M53.4,143.8l4.1-5.9v0h-3.7v-1.2h5.6v0.8l-4,5.8v0h4.1v1.2h-6V143.8z"/>
		<path class="st2" d="M65.9,141.7c0,2.1-1.5,3.1-2.9,3.1c-1.6,0-2.9-1.1-2.9-3c0-1.9,1.2-3,3-3C64.8,138.7,65.9,139.9,65.9,141.7z
			 M61.6,141.7c0,1.1,0.5,1.9,1.4,1.9c0.8,0,1.4-0.8,1.4-2c0-0.9-0.4-1.9-1.4-1.9C62,139.8,61.6,140.8,61.6,141.7z"/>
		<path class="st2" d="M72.6,141.7c0,2.1-1.5,3.1-2.9,3.1c-1.6,0-2.9-1.1-2.9-3c0-1.9,1.2-3,3-3C71.4,138.7,72.6,139.9,72.6,141.7z
			 M68.3,141.7c0,1.1,0.5,1.9,1.4,1.9c0.8,0,1.4-0.8,1.4-2c0-0.9-0.4-1.9-1.4-1.9C68.7,139.8,68.3,140.8,68.3,141.7z"/>
		<path class="st2" d="M73.8,136.2h1.5v8.4h-1.5V136.2z"/>
		<path class="st2" d="M82.3,141.7c0,2.1-1.5,3.1-2.9,3.1c-1.6,0-2.9-1.1-2.9-3c0-1.9,1.2-3,3-3C81.2,138.7,82.3,139.9,82.3,141.7z
			 M78,141.7c0,1.1,0.5,1.9,1.4,1.9c0.8,0,1.4-0.8,1.4-2c0-0.9-0.4-1.9-1.4-1.9C78.4,139.8,78,140.8,78,141.7z M81.1,136.4l-1.4,1.7
			h-1l1-1.7H81.1z"/>
		<path class="st2" d="M88.7,143.7c0,1.2-0.2,2.1-0.8,2.6c-0.6,0.5-1.4,0.7-2.2,0.7c-0.7,0-1.5-0.2-2-0.5l0.3-1.1
			c0.4,0.2,1,0.4,1.7,0.4c0.9,0,1.6-0.5,1.6-1.7v-0.5h0c-0.3,0.5-0.9,0.8-1.7,0.8c-1.4,0-2.4-1.2-2.4-2.8c0-1.9,1.2-3,2.6-3
			c0.9,0,1.4,0.4,1.7,0.9h0l0.1-0.8h1.3c0,0.4,0,0.9,0,1.6V143.7z M87.3,141.1c0-0.1,0-0.3,0-0.4c-0.2-0.5-0.6-0.9-1.2-0.9
			c-0.8,0-1.4,0.7-1.4,1.9c0,1,0.5,1.8,1.4,1.8c0.5,0,1-0.4,1.2-0.9c0-0.2,0.1-0.4,0.1-0.5V141.1z"/>
		<path class="st2" d="M91.8,137.2c0,0.4-0.3,0.8-0.8,0.8c-0.5,0-0.8-0.3-0.8-0.8c0-0.4,0.3-0.8,0.8-0.8
			C91.5,136.5,91.8,136.8,91.8,137.2z M90.2,144.6v-5.7h1.5v5.7H90.2z"/>
		<path class="st2" d="M97.5,144.4c-0.3,0.1-0.9,0.3-1.6,0.3c-1.8,0-3-1.2-3-2.9c0-1.7,1.2-3.1,3.2-3.1c0.5,0,1.1,0.1,1.4,0.3
			l-0.3,1.1c-0.2-0.1-0.6-0.2-1.1-0.2c-1.1,0-1.8,0.8-1.8,1.9c0,1.2,0.8,1.8,1.8,1.8c0.5,0,0.9-0.1,1.1-0.2L97.5,144.4z"/>
		<path class="st2" d="M103.9,141.7c0,2.1-1.5,3.1-2.9,3.1c-1.6,0-2.9-1.1-2.9-3c0-1.9,1.2-3,3-3
			C102.8,138.7,103.9,139.9,103.9,141.7z M99.6,141.7c0,1.1,0.5,1.9,1.4,1.9c0.8,0,1.4-0.8,1.4-2c0-0.9-0.4-1.9-1.4-1.9
			C100,139.8,99.6,140.8,99.6,141.7z"/>
		<path class="st2" d="M112.9,136.2v6.8c0,0.6,0,1.2,0,1.6h-1.3l-0.1-0.9h0c-0.3,0.6-1,1-1.9,1c-1.4,0-2.5-1.2-2.5-2.9
			c0-1.9,1.2-3.1,2.6-3.1c0.8,0,1.4,0.3,1.6,0.8h0v-3.3H112.9z M111.5,141.2c0-0.1,0-0.3,0-0.4c-0.1-0.6-0.6-1-1.2-1
			c-0.9,0-1.4,0.8-1.4,1.9c0,1,0.5,1.8,1.4,1.8c0.6,0,1.1-0.4,1.2-1c0-0.1,0-0.3,0-0.4V141.2z"/>
		<path class="st2" d="M115.5,142.1c0,1,0.8,1.5,1.8,1.5c0.7,0,1.2-0.1,1.6-0.3l0.2,1c-0.5,0.2-1.2,0.4-2,0.4c-1.9,0-3-1.2-3-2.9
			c0-1.6,1-3.1,2.8-3.1c1.9,0,2.5,1.5,2.5,2.8c0,0.3,0,0.5,0,0.6H115.5z M118,141.1c0-0.5-0.2-1.4-1.2-1.4c-0.9,0-1.3,0.8-1.3,1.4
			H118z"/>
		<path class="st2" d="M123.1,136.6h1.4v6.7h3.3v1.2h-4.7V136.6z"/>
		<path class="st2" d="M129.8,142.1c0,1,0.8,1.5,1.8,1.5c0.7,0,1.2-0.1,1.6-0.3l0.2,1c-0.5,0.2-1.2,0.4-2,0.4c-1.9,0-3-1.2-3-2.9
			c0-1.6,1-3.1,2.8-3.1c1.9,0,2.5,1.5,2.5,2.8c0,0.3,0,0.5,0,0.6H129.8z M132.3,141.1c0-0.5-0.2-1.4-1.2-1.4c-0.9,0-1.3,0.8-1.3,1.4
			H132.3z"/>
		<path class="st2" d="M140.3,141.7c0,2.1-1.5,3.1-2.9,3.1c-1.6,0-2.9-1.1-2.9-3c0-1.9,1.2-3,3-3
			C139.2,138.7,140.3,139.9,140.3,141.7z M136,141.7c0,1.1,0.5,1.9,1.4,1.9c0.8,0,1.4-0.8,1.4-2c0-0.9-0.4-1.9-1.4-1.9
			C136.4,139.8,136,140.8,136,141.7z M139.2,136.4l-1.4,1.7h-1l1-1.7H139.2z"/>
		<path class="st2" d="M141.5,140.6c0-0.7,0-1.2,0-1.7h1.3l0.1,0.9h0c0.2-0.4,0.9-1,1.8-1c1,0,2,0.6,2,2.5v3.4h-1.4v-3.2
			c0-0.8-0.3-1.4-1.1-1.4c-0.6,0-1,0.4-1.1,0.8c0,0.1-0.1,0.3-0.1,0.5v3.4h-1.5V140.6z"/>
	</g>
	<g>
		<path class="st2" d="M149.6,9.4c1.8,0,3.3,1.4,3.3,3.3c0,1.9-1.5,3.3-3.3,3.3c-1.9,0-3.3-1.4-3.3-3.3
			C146.2,10.8,147.7,9.4,149.6,9.4L149.6,9.4z M149.5,10c-1.5,0-2.6,1.2-2.6,2.7c0,1.5,1.1,2.7,2.6,2.7c1.5,0,2.6-1.2,2.6-2.7
			C152.1,11.2,151,10,149.5,10L149.5,10z M148.9,14.4h-0.6V11c0.3-0.1,0.7-0.1,1.2-0.1c0.6,0,0.9,0.1,1.1,0.3
			c0.2,0.1,0.3,0.4,0.3,0.7c0,0.4-0.3,0.7-0.7,0.8v0c0.3,0.1,0.5,0.4,0.6,0.8c0.1,0.5,0.2,0.7,0.2,0.9h-0.7
			c-0.1-0.1-0.2-0.4-0.3-0.9c-0.1-0.4-0.3-0.5-0.8-0.5h-0.4V14.4z M148.9,12.5h0.4c0.5,0,0.9-0.1,0.9-0.6c0-0.3-0.2-0.6-0.8-0.6
			c-0.2,0-0.4,0-0.5,0V12.5z"/>
	</g>
	<g>
		<path class="st3" d="M143.4,101.2c1.8,0,3.3,1.4,3.3,3.3c0,1.9-1.5,3.3-3.3,3.3c-1.9,0-3.3-1.4-3.3-3.3
			C140,102.6,141.5,101.2,143.4,101.2L143.4,101.2z M143.4,101.8c-1.5,0-2.6,1.2-2.6,2.7c0,1.5,1.1,2.7,2.6,2.7
			c1.5,0,2.6-1.2,2.6-2.7C146,103,144.9,101.8,143.4,101.8L143.4,101.8z M142.8,106.3h-0.6v-3.4c0.3-0.1,0.7-0.1,1.2-0.1
			c0.6,0,0.9,0.1,1.1,0.3c0.2,0.1,0.3,0.4,0.3,0.7c0,0.4-0.3,0.7-0.7,0.8v0c0.3,0.1,0.5,0.4,0.6,0.8c0.1,0.5,0.2,0.7,0.2,0.9h-0.7
			c-0.1-0.1-0.2-0.4-0.3-0.9c-0.1-0.4-0.3-0.5-0.8-0.5h-0.4V106.3z M142.8,104.4h0.4c0.5,0,0.9-0.1,0.9-0.6c0-0.3-0.2-0.6-0.8-0.6
			c-0.2,0-0.4,0-0.5,0V104.4z"/>
	</g>
</g>
</svg>
