<?xml version="1.0" encoding="utf-8"?>
<!-- Generator: Adobe Illustrator 25.4.1, SVG Export Plug-In . SVG Version: 6.00 Build 0)  -->
<svg version="1.1" id="Capa_1" xmlns="http://www.w3.org/2000/svg" xmlns:xlink="http://www.w3.org/1999/xlink" x="0px" y="0px"
	 viewBox="0 0 273 81" style="enable-background:new 0 0 273 81;" xml:space="preserve">
<style type="text/css">
	.st0{fill:#FFFFFF;}
	.st1{fill:#D2D7DB;}
	.st2{fill:#008242;}
	.st3{fill:#F7B406;}
</style>
<g>
	<path class="st0" d="M272.7,66.3c0,8.1-6.6,14.7-14.7,14.7H15C6.9,81,0.3,74.4,0.3,66.3V14.7C0.3,6.6,6.9,0,15,0h243
		c8.1,0,14.7,6.6,14.7,14.7V66.3z"/>
	<path class="st1" d="M72.3,29.2c-0.8,0-1.6,0.1-2.4,0.2C82.2,39.9,91.7,53.9,96.6,70h4.5C95.4,53.8,85.3,39.8,72.3,29.2z
		 M52.3,17.7C52.3,17.7,52.3,17.7,52.3,17.7c2.4,1.2,4.7,2.5,7,3.9c0.6,0,1.3-0.1,2-0.1c-3-1.8-6.2-3.4-9.4-4.9c0,0,0,0.1,0,0.1
		C51.7,17.1,51.9,17.5,52.3,17.7z M82.8,28.5c0.1,0,0.1,0,0.2,0c0.1,0,0.3,0,0.4-0.1c-4.4-1.3-9.1-2.1-13.9-2.1
		c-24.9,0-45.4,19.2-47.4,43.6H28c1.9-23.7,21.7-42.3,45.9-42.3C76.9,27.6,79.9,27.9,82.8,28.5z"/>
	<path class="st2" d="M99.7,11h-81c-4.1,0-7.4,3.3-7.4,7.4v36.1C20.9,35.8,40.4,23,62.9,23c7.2,0,14,1.3,20.3,3.7
		c0.4,0.1,0.7,0.5,0.7,0.9c0,0.5-0.4,0.9-0.9,0.9c-0.1,0-0.1,0-0.2,0c-2.9-0.6-5.8-0.9-8.9-0.9c-24.2,0-44,18.6-45.9,42.3h68.6
		c-5-16-14.4-30-26.7-40.6c1.3-0.1,2.7-0.2,4-0.2c1.2,0,2.4,0.1,3.6,0.1c6.6,5,12.5,10.9,17.5,17.5c0,0,0.1,0.1,0.1,0.1
		c0.3,0.4,0.5,0.7,0.8,1.1c0,0,0,0.1,0.1,0.1c0.3,0.4,0.5,0.7,0.8,1.1c0,0,0,0,0.1,0.1c0.3,0.4,0.5,0.8,0.8,1.1c0,0,0,0,0,0
		c3.1,4.4,5.7,9.1,8,14.1c0,0,0,0,0,0c0.2,0.4,0.4,0.8,0.6,1.2c0.3,0.6,0.5,1.2,0.8,1.9V18.4C107,14.3,103.8,11,99.7,11z M62.9,21.5
		c-1.2,0-2.4,0-3.6,0.1c-2.3-1.4-4.6-2.7-7-3.9c0,0,0,0,0,0c-0.3-0.2-0.5-0.5-0.5-0.9c0.1-0.5,0.5-0.8,1-0.8c0.1,0,0.1,0,0.2,0.1
		c4.3,1.5,8.4,3.4,12.4,5.5C64.6,21.5,63.7,21.5,62.9,21.5z"/>
	<g>
		<path class="st3" d="M117.3,43.9l6.9-8.7c1.3-1.5,2.3-2.6,3.5-3.9v-0.1h-9.7v-5.4h18v4.1l-6.6,8.4c-1.2,1.4-2.3,2.9-3.6,4.1v0.1
			l10.6,0v5.5h-19.1V43.9z"/>
		<path class="st3" d="M159.7,36.6c0,8-5.7,11.6-11.5,11.6c-6.4,0-11.3-4.2-11.3-11.2s4.6-11.5,11.6-11.5
			C155.3,25.5,159.7,30,159.7,36.6z M143.4,36.8c0,3.7,1.6,6.6,4.5,6.6c2.6,0,4.3-2.6,4.3-6.6c0-3.3-1.2-6.6-4.3-6.6
			C144.6,30.3,143.4,33.6,143.4,36.8z"/>
		<path class="st3" d="M184.1,36.6c0,8-5.7,11.6-11.5,11.6c-6.4,0-11.3-4.2-11.3-11.2S166,25.5,173,25.5
			C179.7,25.5,184.1,30,184.1,36.6z M168.4,36.8c0,3.7,1.6,6.6,4.5,6.6c2.6,0,4.3-2.6,4.3-6.6c0-3.3-1.2-6.6-4.3-6.6
			C169.6,30.3,168.4,33.6,168.4,36.8z"/>
		<path class="st3" d="M185.8,16.2h6.8v31.6h-6.8V16.2z"/>
		<path class="st3" d="M200.7,39c0.2,2.8,3,4.1,6.2,4.1c2.3,0,4.2-0.3,6-0.9l0.9,4.6c-2.2,0.9-4.9,1.4-7.9,1.4
			c-7.4,0-11.6-4.3-11.6-11.1c0-5.5,3.4-11.6,11-11.6c7,0,9.7,5.5,9.7,10.9c0,1.2-0.1,2.2-0.2,2.7H200.7z M208.6,34.4
			c0-1.6-0.7-4.4-3.8-4.4c-2.9,0-4,2.6-4.2,4.4H208.6z"/>
		<path class="st3" d="M239.3,36.6c0,8-5.7,11.6-11.5,11.6c-6.4,0-11.3-4.2-11.3-11.2s4.6-11.5,11.6-11.5
			C234.9,25.5,239.3,30,239.3,36.6z M223.6,36.8c0,3.7,1.6,6.6,4.5,6.6c2.6,0,4.3-2.6,4.3-6.6c0-3.3-1.2-6.6-4.3-6.6
			C224.8,30.3,223.6,33.6,223.6,36.8z M235.1,16.4l-5.4,6.8h-4.7l3.8-6.8H235.1z"/>
		<path class="st3" d="M241,33c0-2.7-0.1-5-0.2-7h5.9l0.3,3h0.1c0.9-1.4,3.1-3.5,6.7-3.5c4.5,0,7.8,2.9,7.8,9.4v12.9h-6.8V35.7
			c0-2.8-1-4.7-3.4-4.7c-1.9,0-3,1.3-3.4,2.5c-0.2,0.4-0.3,1.1-0.3,1.7v12.6H241V33z"/>
	</g>
	<g>
		<path class="st2" d="M118.1,53.4c0.6-0.1,1.4-0.2,2.4-0.2c1.2,0,2,0.2,2.6,0.7c0.5,0.4,0.8,1.1,0.8,1.9c0,0.8-0.3,1.5-0.7,2
			c-0.6,0.6-1.6,0.9-2.7,0.9c-0.3,0-0.6,0-0.8-0.1V62h-1.6V53.4z M119.7,57.5c0.2,0.1,0.5,0.1,0.8,0.1c1.2,0,1.9-0.6,1.9-1.6
			c0-1-0.7-1.5-1.8-1.5c-0.4,0-0.7,0-0.9,0.1V57.5z"/>
		<path class="st2" d="M129.9,60.5c0,0.6,0,1.1,0.1,1.5h-1.4l-0.1-0.7h0c-0.4,0.5-1,0.8-1.9,0.8c-1.3,0-2-0.9-2-1.9
			c0-1.6,1.4-2.4,3.7-2.4v-0.1c0-0.4-0.2-1.1-1.3-1.1c-0.6,0-1.3,0.2-1.7,0.5l-0.3-1c0.5-0.3,1.3-0.6,2.3-0.6c2,0,2.6,1.3,2.6,2.6
			V60.5z M128.3,58.9c-1.1,0-2.2,0.2-2.2,1.2c0,0.6,0.4,0.9,0.9,0.9c0.6,0,1.1-0.4,1.2-0.9c0-0.1,0.1-0.2,0.1-0.3V58.9z"/>
		<path class="st2" d="M131.6,57.7c0-0.8,0-1.5-0.1-2h1.4l0.1,1.2h0.1c0.3-0.9,1-1.3,1.7-1.3c0.2,0,0.2,0,0.4,0v1.5
			c-0.1,0-0.3-0.1-0.5-0.1c-0.8,0-1.3,0.5-1.4,1.2c0,0.1-0.1,0.3-0.1,0.5V62h-1.6V57.7z"/>
		<path class="st2" d="M140.3,61.1L140.3,61.1c-0.4,0.6-1.1,1-2,1c-1.4,0-2.6-1.2-2.6-3.2c0-2.3,1.5-3.4,2.8-3.4
			c0.9,0,1.5,0.4,1.8,1l0,0l0-0.8h1.5c0,0.6-0.1,1.2-0.1,1.8v7h-1.6V61.1z M140.3,58.3c0-0.1,0-0.3,0-0.4c-0.1-0.6-0.6-1.1-1.4-1.1
			c-1,0-1.6,0.9-1.6,2c0,1.1,0.6,2,1.6,2c0.6,0,1.2-0.4,1.4-1c0.1-0.2,0.1-0.3,0.1-0.5V58.3z"/>
		<path class="st2" d="M149.2,60.1c0,0.7,0,1.4,0.1,1.9h-1.4l-0.1-1h0c-0.3,0.5-0.9,1.1-2,1.1c-1.1,0-2.2-0.7-2.2-2.7v-3.7h1.6v3.4
			c0,1,0.3,1.7,1.2,1.7c0.6,0,1-0.5,1.2-0.8c0.1-0.1,0.1-0.3,0.1-0.5v-3.8h1.6V60.1z"/>
		<path class="st2" d="M152,59.3c0,1.1,0.9,1.6,1.9,1.6c0.7,0,1.3-0.1,1.7-0.3l0.2,1.1c-0.5,0.2-1.3,0.4-2.2,0.4
			c-2,0-3.2-1.3-3.2-3.2c0-1.7,1.1-3.4,3.1-3.4c2,0,2.7,1.7,2.7,3.1c0,0.3,0,0.5-0.1,0.7H152z M154.8,58.2c0-0.6-0.2-1.5-1.3-1.5
			c-1,0-1.4,0.9-1.5,1.5H154.8z"/>
		<path class="st2" d="M159.8,61.1l4.4-6.4v0h-4v-1.3h6.1v0.9l-4.4,6.4v0.1h4.4V62h-6.6V61.1z"/>
		<path class="st2" d="M173.4,58.8c0,2.3-1.6,3.3-3.2,3.3c-1.8,0-3.1-1.2-3.1-3.2c0-2.1,1.4-3.3,3.2-3.3
			C172.2,55.6,173.4,56.9,173.4,58.8z M168.7,58.8c0,1.2,0.6,2.1,1.6,2.1c0.9,0,1.5-0.9,1.5-2.1c0-1-0.4-2.1-1.5-2.1
			C169.1,56.7,168.7,57.8,168.7,58.8z"/>
		<path class="st2" d="M180.7,58.8c0,2.3-1.6,3.3-3.2,3.3c-1.8,0-3.1-1.2-3.1-3.2c0-2.1,1.4-3.3,3.2-3.3
			C179.4,55.6,180.7,56.9,180.7,58.8z M176,58.8c0,1.2,0.6,2.1,1.6,2.1c0.9,0,1.5-0.9,1.5-2.1c0-1-0.4-2.1-1.5-2.1
			C176.4,56.7,176,57.8,176,58.8z"/>
		<path class="st2" d="M182,52.8h1.6V62H182V52.8z"/>
		<path class="st2" d="M191.3,58.8c0,2.3-1.6,3.3-3.2,3.3c-1.8,0-3.1-1.2-3.1-3.2c0-2.1,1.4-3.3,3.2-3.3
			C190.1,55.6,191.3,56.9,191.3,58.8z M186.6,58.8c0,1.2,0.6,2.1,1.6,2.1c0.9,0,1.5-0.9,1.5-2.1c0-1-0.4-2.1-1.5-2.1
			C187,56.7,186.6,57.8,186.6,58.8z M190,53l-1.6,1.9h-1.1l1.1-1.9H190z"/>
		<path class="st2" d="M198.3,61.1c0,1.3-0.3,2.3-0.9,2.8c-0.7,0.6-1.6,0.8-2.4,0.8c-0.8,0-1.6-0.2-2.2-0.5l0.3-1.2
			c0.4,0.2,1.1,0.5,1.8,0.5c1,0,1.8-0.5,1.8-1.9V61h0c-0.4,0.6-1,0.9-1.8,0.9c-1.6,0-2.7-1.3-2.7-3.1c0-2.1,1.3-3.3,2.8-3.3
			c1,0,1.5,0.5,1.8,1h0l0.1-0.8h1.4c0,0.4-0.1,0.9-0.1,1.8V61.1z M196.7,58.2c0-0.1,0-0.3-0.1-0.4c-0.2-0.6-0.6-1-1.3-1
			c-0.9,0-1.5,0.8-1.5,2c0,1.1,0.5,1.9,1.5,1.9c0.6,0,1.1-0.4,1.3-1c0-0.2,0.1-0.4,0.1-0.6V58.2z"/>
		<path class="st2" d="M201.7,54c0,0.5-0.3,0.8-0.9,0.8c-0.5,0-0.9-0.4-0.9-0.8c0-0.5,0.4-0.9,0.9-0.9
			C201.3,53.1,201.6,53.5,201.7,54z M200,62v-6.3h1.6V62H200z"/>
		<path class="st2" d="M207.9,61.8c-0.3,0.2-1,0.3-1.8,0.3c-2,0-3.2-1.3-3.2-3.2c0-1.9,1.3-3.3,3.5-3.3c0.6,0,1.2,0.1,1.5,0.3
			l-0.3,1.2c-0.3-0.1-0.6-0.2-1.2-0.2c-1.2,0-1.9,0.9-1.9,2c0,1.3,0.8,2,1.9,2c0.6,0,0.9-0.1,1.2-0.2L207.9,61.8z"/>
		<path class="st2" d="M214.9,58.8c0,2.3-1.6,3.3-3.2,3.3c-1.8,0-3.1-1.2-3.1-3.2c0-2.1,1.4-3.3,3.2-3.3
			C213.7,55.6,214.9,56.9,214.9,58.8z M210.2,58.8c0,1.2,0.6,2.1,1.6,2.1c0.9,0,1.5-0.9,1.5-2.1c0-1-0.4-2.1-1.5-2.1
			C210.7,56.7,210.2,57.8,210.2,58.8z"/>
		<path class="st2" d="M224.7,52.8v7.4c0,0.6,0,1.3,0.1,1.8h-1.4l-0.1-1h0c-0.4,0.7-1.1,1.1-2,1.1c-1.5,0-2.7-1.3-2.7-3.2
			c0-2.1,1.3-3.3,2.8-3.3c0.9,0,1.5,0.4,1.8,0.8h0v-3.6H224.7z M223.1,58.3c0-0.1,0-0.3,0-0.4c-0.1-0.6-0.6-1.1-1.4-1.1
			c-1,0-1.6,0.9-1.6,2.1c0,1.1,0.6,2,1.6,2c0.6,0,1.2-0.4,1.4-1.1c0-0.1,0.1-0.3,0.1-0.5V58.3z"/>
		<path class="st2" d="M227.6,59.3c0,1.1,0.9,1.6,1.9,1.6c0.7,0,1.3-0.1,1.7-0.3l0.2,1.1c-0.5,0.2-1.3,0.4-2.2,0.4
			c-2,0-3.2-1.3-3.2-3.2c0-1.7,1.1-3.4,3.1-3.4c2,0,2.7,1.7,2.7,3.1c0,0.3,0,0.5-0.1,0.7H227.6z M230.3,58.2c0-0.6-0.2-1.5-1.3-1.5
			c-1,0-1.4,0.9-1.5,1.5H230.3z"/>
		<path class="st2" d="M235.9,53.3h1.6v7.3h3.6V62h-5.1V53.3z"/>
		<path class="st2" d="M243.2,59.3c0,1.1,0.9,1.6,1.9,1.6c0.7,0,1.3-0.1,1.7-0.3l0.2,1.1c-0.5,0.2-1.3,0.4-2.2,0.4
			c-2,0-3.2-1.3-3.2-3.2c0-1.7,1.1-3.4,3.1-3.4c2,0,2.7,1.7,2.7,3.1c0,0.3,0,0.5-0.1,0.7H243.2z M245.9,58.2c0-0.6-0.2-1.5-1.3-1.5
			c-1,0-1.4,0.9-1.5,1.5H245.9z"/>
		<path class="st2" d="M254.7,58.8c0,2.3-1.6,3.3-3.2,3.3c-1.8,0-3.1-1.2-3.1-3.2c0-2.1,1.3-3.3,3.2-3.3
			C253.4,55.6,254.7,56.9,254.7,58.8z M249.9,58.8c0,1.2,0.6,2.1,1.6,2.1c0.9,0,1.5-0.9,1.5-2.1c0-1-0.4-2.1-1.5-2.1
			C250.4,56.7,249.9,57.8,249.9,58.8z M253.4,53l-1.6,1.9h-1.1l1.1-1.9H253.4z"/>
		<path class="st2" d="M256,57.6c0-0.7,0-1.3-0.1-1.9h1.4l0.1,0.9h0c0.3-0.5,1-1.1,2-1.1c1.1,0,2.2,0.7,2.2,2.7V62h-1.6v-3.5
			c0-0.9-0.3-1.6-1.2-1.6c-0.6,0-1.1,0.5-1.2,0.9c-0.1,0.1-0.1,0.3-0.1,0.5V62H256V57.6z"/>
	</g>
	<g>
		<path class="st2" d="M108.9,6.8c1.3,0,2.4,1,2.4,2.4c0,1.4-1.1,2.4-2.4,2.4c-1.4,0-2.4-1-2.4-2.4C106.5,7.8,107.5,6.8,108.9,6.8
			L108.9,6.8z M108.9,7.2c-1.1,0-1.9,0.9-1.9,2c0,1.1,0.8,2,1.9,2c1.1,0,1.9-0.9,1.9-2C110.8,8.1,110,7.2,108.9,7.2L108.9,7.2z
			 M108.5,10.5H108V8c0.3,0,0.5-0.1,0.9-0.1c0.4,0,0.6,0.1,0.8,0.2c0.1,0.1,0.3,0.3,0.3,0.5c0,0.3-0.2,0.5-0.5,0.6v0
			c0.2,0.1,0.3,0.3,0.4,0.6c0.1,0.4,0.1,0.5,0.2,0.6h-0.5c-0.1-0.1-0.1-0.3-0.2-0.7c-0.1-0.3-0.2-0.4-0.6-0.4h-0.3V10.5z M108.5,9.1
			h0.3c0.3,0,0.6-0.1,0.6-0.4c0-0.2-0.1-0.4-0.6-0.4c-0.2,0-0.3,0-0.4,0V9.1z"/>
	</g>
	<g>
		<path class="st3" d="M259.4,17.3c1.3,0,2.4,1,2.4,2.4c0,1.4-1.1,2.4-2.4,2.4c-1.4,0-2.4-1-2.4-2.4C256.9,18.4,258,17.3,259.4,17.3
			L259.4,17.3z M259.4,17.7c-1.1,0-1.9,0.9-1.9,2c0,1.1,0.8,2,1.9,2c1.1,0,1.9-0.9,1.9-2C261.3,18.6,260.5,17.7,259.4,17.7
			L259.4,17.7z M258.9,21h-0.5v-2.5c0.3,0,0.5-0.1,0.9-0.1c0.4,0,0.6,0.1,0.8,0.2c0.1,0.1,0.3,0.3,0.3,0.5c0,0.3-0.2,0.5-0.5,0.6v0
			c0.2,0.1,0.3,0.3,0.4,0.6c0.1,0.4,0.1,0.5,0.2,0.6H260c-0.1-0.1-0.1-0.3-0.2-0.7c-0.1-0.3-0.2-0.4-0.6-0.4h-0.3V21z M258.9,19.6
			h0.3c0.3,0,0.6-0.1,0.6-0.4c0-0.2-0.1-0.4-0.6-0.4c-0.2,0-0.3,0-0.4,0V19.6z"/>
	</g>
</g>
</svg>
