<?xml version="1.0" encoding="utf-8"?>
<!-- Generator: Adobe Illustrator 26.0.0, SVG Export Plug-In . SVG Version: 6.00 Build 0)  -->
<svg version="1.1" id="Capa_1" xmlns="http://www.w3.org/2000/svg" xmlns:xlink="http://www.w3.org/1999/xlink" x="0px" y="0px"
	 viewBox="0 0 36 36" style="enable-background:new 0 0 36 36;" xml:space="preserve">
<style type="text/css">
	.st0{fill:#FFFFFF;}
</style>
<path class="st0" d="M18,0C8.06,0,0,8.06,0,18s8.06,18,18,18c9.94,0,18-8.06,18-18S27.94,0,18,0z M22.55,11.31
	c-0.11,0-0.19,0-0.27,0c-0.66,0-1.31-0.02-1.97,0.01c-0.9,0.03-1.56,0.37-1.59,1.5c-0.02,0.82-0.03,2.7-0.03,2.7s2.11,0,3.03,0
	c0.23,0,0.47,0,0.73,0c-0.17,1.3-0.33,2.56-0.5,3.82h-3.23v9.55h-3.96v-9.56h-3.24v-3.8h3.26v-0.29c0-0.77-0.02-1.53,0-2.29
	c0.01-0.49,0.03-0.98,0.12-1.46c0.2-1.16,0.74-2.14,1.71-2.84c0.85-0.61,1.82-0.86,2.85-0.88c0.67-0.02,1.34,0.02,2.02,0.05
	c0.37,0.02,0.73,0.07,1.08,0.1V11.31z"/>
</svg>
