<?xml version="1.0" encoding="utf-8"?>
<!-- Generator: Adobe Illustrator 26.0.0, SVG Export Plug-In . SVG Version: 6.00 Build 0)  -->
<svg version="1.1" id="Capa_1" xmlns="http://www.w3.org/2000/svg" xmlns:xlink="http://www.w3.org/1999/xlink" x="0px" y="0px"
	 viewBox="0 0 36 36" style="enable-background:new 0 0 36 36;" xml:space="preserve">
<style type="text/css">
	.st0{fill:#FFFFFF;}
</style>
<g>
	<path class="st0" d="M22.98,10.41c-1.62-0.25-7.7-0.23-9.39-0.04c-1.66,0.19-2.77,1.22-3.02,2.87c-0.27,1.75-0.21,8.31,0,9.62
		c0.23,1.37,1.01,2.31,2.37,2.69c1.43,0.4,8.3,0.31,9.83,0.14c1.67-0.18,2.78-1.21,3.04-2.88c0.26-1.68,0.21-7.8,0.04-9.36
		C25.67,11.77,24.64,10.67,22.98,10.41z M18.19,22.93c-2.7,0-4.89-2.19-4.89-4.89c0-2.7,2.19-4.89,4.89-4.89
		c2.7,0,4.89,2.19,4.89,4.89C23.08,20.74,20.89,22.93,18.19,22.93z M23.27,14.1c-0.63,0-1.14-0.52-1.14-1.15
		c0-0.63,0.52-1.14,1.15-1.14c0.63,0,1.14,0.52,1.14,1.15C24.41,13.59,23.9,14.11,23.27,14.1z"/>
	<path class="st0" d="M18.21,14.87c-1.75-0.02-3.17,1.39-3.19,3.13c-0.02,1.75,1.39,3.17,3.13,3.19c1.75,0.02,3.17-1.39,3.19-3.13
		C21.36,16.32,19.96,14.89,18.21,14.87z"/>
	<path class="st0" d="M18,0C8.06,0,0,8.06,0,18s8.06,18,18,18s18-8.06,18-18S27.94,0,18,0z M27.44,23.54
		c-0.57,2.17-1.98,3.46-4.18,3.81c-1.66,0.27-9.05,0.32-10.55-0.07c-2.17-0.56-3.47-1.97-3.83-4.16c-0.27-1.6-0.36-9.08,0.1-10.7
		c0.59-2.11,1.99-3.35,4.13-3.7c1.87-0.31,7.19-0.23,9.43-0.11c1.32,0.07,2.52,0.48,3.5,1.42c0.93,0.89,1.41,2,1.54,3.25
		C27.72,14.79,27.87,21.88,27.44,23.54z"/>
</g>
</svg>
