<?xml version="1.0" encoding="utf-8"?>
<!-- Generator: Adobe Illustrator 26.0.0, SVG Export Plug-In . SVG Version: 6.00 Build 0)  -->
<svg version="1.1" id="Capa_1" xmlns="http://www.w3.org/2000/svg" xmlns:xlink="http://www.w3.org/1999/xlink" x="0px" y="0px"
	 viewBox="0 0 36 36" style="enable-background:new 0 0 36 36;" xml:space="preserve">
<style type="text/css">
	.st0{fill:#FFFFFF;}
</style>
<path class="st0" d="M18,0.03C8.08,0.03,0.03,8.08,0.03,18c0,9.92,8.04,17.97,17.97,17.97c9.92,0,17.97-8.04,17.97-17.97
	C35.97,8.08,27.92,0.03,18,0.03z M27.47,15.53c-1.85,0.08-3.48-0.53-5.08-1.55c-0.02,0.26-0.05,0.44-0.05,0.63
	c0,2.28,0.01,4.55,0,6.83c-0.02,3.84-2.77,6.64-6.75,6.9c-3.19,0.21-6.38-2.57-6.88-5.98c-0.6-4.08,2.85-7.89,6.96-7.69
	c0.22,0.01,0.44,0.06,0.7,0.09c0,1.21,0,2.38,0,3.63c-0.19,0-0.39,0.01-0.58,0c-1.86-0.1-3.34,1.19-3.41,2.96
	c-0.06,1.69,1.27,3.15,2.93,3.22c1.88,0.07,3.32-1.24,3.33-3.12c0.02-4.55,0.01-9.1,0.01-13.65c0-0.33,0-0.65,0-1.02
	c1.3,0,2.47,0,3.64,0c0.35,3.11,2.15,4.75,5.19,5.18C27.47,13.14,27.47,14.3,27.47,15.53z"/>
</svg>
