<?xml version="1.0" encoding="utf-8"?>
<!-- Generator: Adobe Illustrator 26.0.0, SVG Export Plug-In . SVG Version: 6.00 Build 0)  -->
<svg version="1.1" id="Capa_1" xmlns="http://www.w3.org/2000/svg" xmlns:xlink="http://www.w3.org/1999/xlink" x="0px" y="0px"
	 viewBox="0 0 36 36" style="enable-background:new 0 0 36 36;" xml:space="preserve">
<style type="text/css">
	.st0{fill:#FFFFFF;}
</style>
<path class="st0" d="M18,0C8.06,0,0,8.06,0,18s8.06,18,18,18s18-8.06,18-18S27.94,0,18,0z M28.58,12.87
	c-0.45,0.55-0.96,1.04-1.54,1.46c-0.05,0.04-0.07,0.07-0.07,0.13c0.02,0.63,0,1.26-0.08,1.88c-0.16,1.31-0.53,2.57-1.09,3.77
	c-0.58,1.24-1.34,2.36-2.29,3.34c-1.61,1.67-3.55,2.74-5.82,3.24c-0.78,0.17-1.56,0.26-2.36,0.28c-2.44,0.07-4.7-0.54-6.77-1.82
	c-0.03-0.02-0.05-0.03-0.1-0.06c1.48,0.16,2.88-0.03,4.23-0.58c0.72-0.29,1.38-0.68,2.01-1.17c-2.2-0.08-3.57-1.65-3.94-2.94
	c0.61,0.12,1.21,0.09,1.81-0.05c0.02,0,0.03-0.01,0.06-0.03c-1.19-0.28-2.11-0.91-2.75-1.94c-0.42-0.68-0.63-1.43-0.62-2.25
	c0.59,0.32,1.22,0.5,1.88,0.51c-0.9-0.65-1.5-1.49-1.74-2.57c-0.24-1.08-0.09-2.1,0.45-3.07c2.29,2.7,5.19,4.18,8.73,4.42
	c-0.02-0.17-0.05-0.31-0.07-0.46c-0.12-1,0.08-1.92,0.62-2.77c0.67-1.06,1.63-1.71,2.87-1.91c1.42-0.23,2.67,0.17,3.7,1.18
	c0.07,0.07,0.13,0.09,0.23,0.07c0.87-0.19,1.69-0.5,2.46-0.95c0.02-0.01,0.04-0.02,0.06-0.03c0,0,0.01,0,0.03,0
	c-0.34,0.98-0.94,1.74-1.81,2.3c0.82-0.09,1.6-0.31,2.36-0.63c0.01,0.01,0.01,0.01,0.02,0.02C28.91,12.45,28.75,12.66,28.58,12.87z"
	/>
</svg>
