<?xml version="1.0" encoding="utf-8"?>
<!-- Generator: Adobe Illustrator 26.0.0, SVG Export Plug-In . SVG Version: 6.00 Build 0)  -->
<svg version="1.1" id="Capa_1" xmlns="http://www.w3.org/2000/svg" xmlns:xlink="http://www.w3.org/1999/xlink" x="0px" y="0px"
	 viewBox="0 0 36 36" style="enable-background:new 0 0 36 36;" xml:space="preserve">
<style type="text/css">
	.st0{fill:#FFFFFF;}
</style>
<g>
	<path class="st0" d="M18-0.03C8.04-0.03-0.03,8.04-0.03,18S8.04,36.03,18,36.03S36.03,27.96,36.03,18S27.96-0.03,18-0.03z
		 M26.88,23.12c-0.22,0.47-0.57,0.8-1.03,1.04c-1.22,0.64-13.78,0.63-15.38,0.1c-0.72-0.23-1.2-0.7-1.46-1.41
		c-0.63-1.73-0.82-8.98,0.4-10.41c0.42-0.49,0.95-0.77,1.58-0.84c3.27-0.35,13.38-0.3,14.54,0.12c0.68,0.25,1.17,0.69,1.43,1.38
		C27.66,14.87,27.68,21.39,26.88,23.12z"/>
	<path class="st0" d="M15.66,20.86c1.97-1.02,3.92-2.03,5.89-3.05c-1.98-1.03-3.93-2.05-5.89-3.07
		C15.66,16.78,15.66,18.81,15.66,20.86z"/>
</g>
</svg>
