<?xml version="1.0" encoding="utf-8"?>
<!-- Generator: Adobe Illustrator 26.3.1, SVG Export Plug-In . SVG Version: 6.00 Build 0)  -->
<svg version="1.1" id="Capa_1" xmlns="http://www.w3.org/2000/svg" xmlns:xlink="http://www.w3.org/1999/xlink" x="0px" y="0px"
	 viewBox="0 0 60 60" style="enable-background:new 0 0 60 60;" xml:space="preserve">
<style type="text/css">
	.st0{fill:#A51C80;}
	.st1{fill:#FFFFFF;}
</style>
<g>
	<circle class="st0" cx="30" cy="30" r="30"/>
	<g>
		<path class="st1" d="M42.73,46.03c-0.65-0.18-1.25-0.44-1.7-0.96c-0.46-0.53-0.93-1.04-1.4-1.56c-2.91-3.26-5.82-6.51-8.72-9.77
			c-0.1-0.12-0.21-0.23-0.34-0.37c-0.51,0.51-1,1.01-1.53,1.55c-0.08-0.1-0.14-0.2-0.22-0.28c-3.62-3.63-7.23-7.27-10.88-10.87
			c-1.61-1.59-2.27-3.49-2.16-5.7c0.06-1.35,0.42-2.62,0.92-3.86c0.06-0.15,0.14-0.22,0.3-0.2c0.01,0,0.02,0,0.03,0
			c0.64-0.11,1.08,0.15,1.54,0.61c8.65,8.69,17.32,17.36,26,26.03c0.65,0.65,1.25,1.31,1.4,2.25c0,0.21,0,0.42,0,0.63
			c-0.02,0.05-0.04,0.09-0.05,0.14c-0.13,0.79-0.51,1.42-1.17,1.85c-0.35,0.22-0.76,0.34-1.15,0.51
			C43.32,46.03,43.03,46.03,42.73,46.03z"/>
		<path class="st1" d="M16.67,46.03c-0.26-0.06-0.52-0.11-0.78-0.19c-1.76-0.55-2.48-2.83-1.36-4.29c0.13-0.16,0.26-0.33,0.41-0.47
			c2.88-2.88,5.76-5.77,8.64-8.65c0.06-0.06,0.12-0.11,0.16-0.15c1.32,1.32,2.64,2.64,3.97,3.98c-0.04,0.05-0.12,0.14-0.21,0.22
			c-2.84,2.84-5.67,5.67-8.5,8.52c-0.55,0.55-1.16,0.94-1.96,0.99c-0.04,0-0.08,0.03-0.11,0.05C16.84,46.03,16.76,46.03,16.67,46.03
			z"/>
		<path class="st1" d="M44.57,19.33c0.48,0.48,0.91,0.9,1.43,1.42c-0.1,0.06-0.23,0.1-0.31,0.18c-2.05,2.05-4.11,4.08-6.14,6.15
			c-0.95,0.97-2.07,1.51-3.41,1.61c-0.05,0-0.11-0.01-0.15,0.02c-0.48,0.27-0.75-0.03-1.05-0.34c-1.18-1.2-2.36-2.38-3.56-3.56
			c-0.18-0.18-0.24-0.32-0.16-0.59c0.11-0.36,0.12-0.76,0.19-1.14c0.17-0.92,0.58-1.72,1.23-2.37c2.18-2.2,4.37-4.38,6.56-6.57
			c0.04-0.04,0.08-0.06,0.1-0.08c0.44,0.44,0.87,0.87,1.3,1.3c-1.66,1.66-3.34,3.34-4.99,4.99c0.46,0.46,0.89,0.89,1.32,1.32
			c1.63-1.63,3.31-3.31,4.97-4.97c0.46,0.46,0.9,0.89,1.33,1.32c-1.65,1.65-3.34,3.34-5.02,5.02c0.47,0.47,0.9,0.9,1.33,1.33
			C41.22,22.7,42.9,21.01,44.57,19.33z"/>
	</g>
</g>
</svg>
