<?xml version="1.0" encoding="utf-8"?>
<!-- Generator: Adobe Illustrator 26.3.1, SVG Export Plug-In . SVG Version: 6.00 Build 0)  -->
<svg version="1.1" id="Capa_1" xmlns="http://www.w3.org/2000/svg" xmlns:xlink="http://www.w3.org/1999/xlink" x="0px" y="0px"
	 viewBox="0 0 60 60" style="enable-background:new 0 0 60 60;" xml:space="preserve">
<style type="text/css">
	.st0{fill:#A51C80;}
	.st1{fill:#FFFFFF;}
</style>
<g>
	<circle class="st0" cx="30" cy="30" r="30"/>
	<g>
		<g>
			<g>
				<path class="st1" d="M17.68,29.41l8.46,8.67v9.37h-7v-2.62l-7.08-9.34c-0.28-0.35-0.47-0.78-0.47-1.25V19.88
					c0-1.13,0.91-2.04,2.04-2.04c1.12,0,2.04,0.91,2.04,2.04v8.29c-0.49,0.11-0.96,0.31-1.33,0.68c-1.09,1.05-1.11,2.79-0.06,3.88
					l3.86,3.96l0.53-0.52l-3.86-3.95c-0.78-0.81-0.75-2.09,0.04-2.85c0.24-0.24,0.54-0.41,0.85-0.49c0.33-0.1,0.68-0.11,1.02-0.03
					C17.09,28.95,17.42,29.14,17.68,29.41L17.68,29.41z"/>
				<path class="st1" d="M42.31,29.41l-8.46,8.67v9.37h7v-2.62l7.08-9.34c0.29-0.35,0.47-0.78,0.47-1.25V19.88
					c0-1.13-0.91-2.04-2.04-2.04c-1.13,0-2.04,0.91-2.04,2.04v8.29c0.49,0.11,0.96,0.31,1.33,0.68c1.09,1.05,1.11,2.79,0.06,3.88
					l-3.86,3.96l-0.53-0.52l3.86-3.95c0.78-0.81,0.75-2.09-0.04-2.86c-0.24-0.23-0.54-0.4-0.85-0.48c-0.34-0.1-0.68-0.11-1.02-0.03
					C42.91,28.95,42.58,29.14,42.31,29.41L42.31,29.41z"/>
			</g>
			<path class="st1" d="M29.59,32.59c0.13,0.07,0.27,0.1,0.41,0.1c0.14,0,0.28-0.03,0.41-0.1c4.28-2.26,7.36-4.83,9.15-7.62
				c1.96-3.05,1.89-5.6,1.49-7.21c-0.75-3.02-3.4-5.21-6.29-5.21c-1.82,0-3.47,0.82-4.76,2.35c-1.29-1.52-2.94-2.35-4.76-2.35
				c-2.9,0-5.54,2.19-6.3,5.21c-0.4,1.6-0.46,4.16,1.49,7.21C22.23,27.76,25.31,30.32,29.59,32.59L29.59,32.59z"/>
		</g>
	</g>
</g>
</svg>
