<?xml version="1.0" encoding="utf-8"?>
<!-- Generator: Adobe Illustrator 26.3.1, SVG Export Plug-In . SVG Version: 6.00 Build 0)  -->
<svg version="1.1" id="Capa_1" xmlns="http://www.w3.org/2000/svg" xmlns:xlink="http://www.w3.org/1999/xlink" x="0px" y="0px"
	 viewBox="0 0 60 60" style="enable-background:new 0 0 60 60;" xml:space="preserve">
<style type="text/css">
	.st0{fill:#A51C80;}
	.st1{fill:#FFFFFF;}
</style>
<g>
	<circle class="st0" cx="30" cy="30" r="30"/>
	<g>
		<g>
			<path class="st1" d="M28.7,9.92c0.87,0,1.73,0,2.6,0c0.48,0.06,0.95,0.11,1.43,0.19c3.57,0.53,6.78,1.93,9.57,4.27
				c3.9,3.27,6.26,7.48,7.06,12.59c0.09,0.56,0.15,1.13,0.23,1.7c0,0.89,0,1.78,0,2.67c-0.06,0.48-0.11,0.96-0.18,1.43
				c-0.69,4.74-2.69,8.8-6.17,12.01c-4.85,4.48-10.56,6.13-16.98,4.92c-4.83-0.91-8.76-3.45-11.76-7.43
				c-3.34-4.44-4.61-9.5-3.9-15.05c0.42-3.29,1.61-6.3,3.53-8.97c3.23-4.49,7.53-7.19,12.91-8.08C27.59,10.06,28.15,10,28.7,9.92z
				 M15,21.24c1.36,0.68,2.69,1.35,4.03,2.02c0.91,0.46,1.1,0.94,0.77,1.93c-0.65,1.95-1.3,3.89-1.94,5.84
				c-0.06,0.17-0.08,0.4-0.02,0.55c1.03,2.37,2.07,4.73,3.11,7.09c0.35,0.79,0.95,1.15,1.73,1.09c0.77-0.07,1.32-0.56,1.52-1.42
				c0.39-1.67,0.77-3.35,1.13-5.02c0.19-0.91,0.45-1.75,1.06-2.5c1.46-1.78,2.84-3.63,4.26-5.44c0.52-0.67,0.71-1.4,0.5-2.23
				c-0.18-0.68-0.34-1.36-0.53-2.04c-0.23-0.84-0.76-1.37-1.59-1.57c-0.54-0.13-1.09-0.25-1.64-0.37c-1.37-0.3-2.74-0.58-4.1-0.89
				c-0.75-0.17-1.07-0.6-1.08-1.38c0-0.18,0-0.37,0-0.55c0-0.7,0-1.4,0-2.12C19.68,15.39,16.67,18.08,15,21.24z M45.2,21.58
				c-0.71,0.86-1.41,1.69-2.09,2.54c-0.08,0.1-0.09,0.26-0.09,0.4c-0.01,1.29-0.02,2.59,0,3.88c0.01,0.51-0.14,0.93-0.42,1.34
				c-1.04,1.49-2.05,2.99-3.08,4.48c-0.44,0.65-0.61,1.34-0.52,2.14c0.21,1.73,0.4,3.47,0.54,5.21c0.05,0.65,0.2,1.12,0.82,1.46
				c0.84,0.47,0.83,0.53,1.51-0.17c4.88-5.02,6.45-10.98,4.71-17.84C46.28,23.83,45.81,22.7,45.2,21.58z M28.74,47.65
				c1.81,0.16,3.53-0.02,5.29-0.43c-0.49-0.65-0.92-1.26-1.39-1.84c-0.39-0.48-0.93-0.58-1.48-0.32c-0.41,0.2-0.82,0.41-1.22,0.64
				c-0.17,0.1-0.35,0.24-0.44,0.41C29.23,46.6,29,47.1,28.74,47.65z"/>
		</g>
	</g>
</g>
</svg>
