<?xml version="1.0" encoding="utf-8"?>
<!-- Generator: Adobe Illustrator 26.3.1, SVG Export Plug-In . SVG Version: 6.00 Build 0)  -->
<svg version="1.1" id="Capa_1" xmlns="http://www.w3.org/2000/svg" xmlns:xlink="http://www.w3.org/1999/xlink" x="0px" y="0px"
	 viewBox="0 0 60 60" style="enable-background:new 0 0 60 60;" xml:space="preserve">
<style type="text/css">
	.st0{fill:#A51C80;}
	.st1{fill:#FFFFFF;}
</style>
<g>
	<circle class="st0" cx="29.96" cy="29.97" r="30"/>
	<g>
		<path class="st1" d="M49.49,27.91c0,0.59,0,1.17,0,1.76c-0.02,0.06-0.06,0.11-0.07,0.17c-0.23,1.71-0.91,3.2-2.03,4.51
			c-2.33,2.72-6.41,3.67-9.69,2.21c-0.3-0.14-0.48-0.11-0.72,0.12c-1.82,1.69-3.99,2.68-6.45,2.88c-3.5,0.28-6.53-0.84-9-3.36
			c-0.28-0.29-0.5-0.33-0.87-0.19c-3.16,1.19-6.83,0.07-8.79-2.66c-2.75-3.84-1.48-9.16,2.72-11.3c0.37-0.19,0.53-0.4,0.61-0.8
			c1-4.98,6.31-7.61,10.87-5.4c0.27,0.13,0.44,0.13,0.69-0.09c2.38-2.09,5.18-2.93,8.27-2.38c3.91,0.7,6.53,3.03,7.84,6.8
			c0.09,0.25,0.19,0.39,0.46,0.47c3.21,1,5.18,3.16,5.97,6.41C49.39,27.34,49.44,27.63,49.49,27.91z"/>
		<path class="st1" d="M47.83,44.86c-0.12,0.4-0.26,0.79-0.54,1.12c-0.64,0.74-1.78,0.96-2.65,0.49c-0.93-0.5-1.38-1.55-1.09-2.52
			c0.28-0.97,1.13-1.58,2.1-1.6c1.02-0.01,1.9,0.72,2.13,1.74c0.01,0.05,0.03,0.09,0.05,0.13C47.83,44.44,47.83,44.65,47.83,44.86z"
			/>
		<path class="st1" d="M40.2,44.79c-1.39,0.04-2.66-1.14-2.7-2.51c-0.04-1.57,1.09-2.79,2.62-2.84c1.4-0.04,2.68,1.15,2.71,2.53
			C42.87,43.54,41.74,44.75,40.2,44.79z"/>
	</g>
</g>
</svg>
