<?xml version="1.0" encoding="utf-8"?>
<!-- Generator: Adobe Illustrator 26.3.1, SVG Export Plug-In . SVG Version: 6.00 Build 0)  -->
<svg version="1.1" id="Capa_1" xmlns="http://www.w3.org/2000/svg" xmlns:xlink="http://www.w3.org/1999/xlink" x="0px" y="0px"
	 viewBox="0 0 60 60" style="enable-background:new 0 0 60 60;" xml:space="preserve">
<style type="text/css">
	.st0{fill:#0F9E39;}
	.st1{fill:#FFFFFF;}
</style>
<g>
	<circle class="st0" cx="30" cy="30" r="30"/>
	<g>
		<g>
			<path class="st1" d="M40.79,18.15c-4-3.73-10.26-3.52-14,0.48c-3.73,4-3.52,10.26,0.48,14s10.26,3.52,14-0.48
				C45,28.15,44.79,21.88,40.79,18.15z M28.76,31.02c-3.11-2.91-3.28-7.79-0.37-10.9c2.91-3.11,7.79-3.28,10.9-0.37
				c3.11,2.91,3.28,7.79,0.37,10.9C36.76,33.76,31.88,33.93,28.76,31.02z"/>
		</g>
		<g>
			<path class="st1" d="M26.34,33.62c-4.54-4.24-4.78-11.38-0.54-15.92s11.38-4.78,15.92-0.54s4.78,11.38,0.54,15.92
				S30.88,37.86,26.34,33.62z M41.26,17.64c-4.27-3.99-10.99-3.76-14.98,0.51s-3.76,10.99,0.51,14.98
				c4.27,3.99,10.99,3.76,14.98-0.51S45.54,21.63,41.26,17.64z"/>
		</g>
		<path class="st1" d="M15.45,41.27c-1.03,1.1-0.97,2.83,0.13,3.86c1.1,1.03,2.83,0.97,3.86-0.13l2.29-2.46l-4-3.73L15.45,41.27z"/>
		<path class="st1" d="M28.06,35.78c-0.79-0.44-1.54-0.97-2.23-1.61s-1.27-1.36-1.76-2.12l-5.76,6.17l4,3.73L28.06,35.78z"/>
	</g>
</g>
</svg>
