<?xml version="1.0" encoding="utf-8"?>
<!-- Generator: Adobe Illustrator 26.3.1, SVG Export Plug-In . SVG Version: 6.00 Build 0)  -->
<svg version="1.1" id="Capa_1" xmlns="http://www.w3.org/2000/svg" xmlns:xlink="http://www.w3.org/1999/xlink" x="0px" y="0px"
	 viewBox="0 0 506 196" style="enable-background:new 0 0 506 196;" xml:space="preserve">
<style type="text/css">
	.st0{fill:#E8E8EB;}
	.st1{fill-rule:evenodd;clip-rule:evenodd;fill:#E8E8EB;}
</style>
<g>
	<path class="st0" d="M6.24,112.65h0.01V24.98h107.94v87.71h0.01c-0.02,0.7-0.34,11.73-5.88,22.38c-2.8,5.39-6.95,10.64-13.08,14.28
		c-6.2,3.68-11.61,6.72-16.39,9.4l-0.26,0.14c-4.03,2.26-7.71,4.32-11.15,6.43c-2.63,1.62-5.04,3.22-7.21,4.88
		c-4.94-3.78-11.09-7.23-18.34-11.3v0l-0.01-0.01l-0.17-0.09c-4.81-2.7-10.24-5.75-16.49-9.46c-6.14-3.65-10.29-8.9-13.09-14.3
		C6.49,124.26,6.24,113.07,6.24,112.65 M0.31,21.98v90.67l0.01,0.01c0,0.19,0.22,13.01,6.55,25.18c3.25,6.25,8.1,12.37,15.35,16.67
		c6.41,3.8,11.82,6.84,16.6,9.53l0.17,0.09l0,0l0.01,0.01c7.96,4.46,14.55,8.16,19.33,12.17l1.89,1.59l1.89-1.59
		c2.38-2,5.19-3.91,8.38-5.87c3.18-1.96,6.9-4.04,10.96-6.32l0.26-0.15c4.76-2.67,10.15-5.69,16.51-9.47
		c7.24-4.3,12.09-10.41,15.34-16.65c6.34-12.17,6.55-24.97,6.56-25.14l0.01-0.04V21.98v-3h-2.97H3.28H0.31V21.98z"/>
	<path class="st1" d="M28.98,106.51c-4.55-6.17-5.74-15.83-3.9-23.74c-3.88,3.45-4.85,7.21-4.85,7.21
		c-0.7-2.91,0.17-7.06,1.25-10.49c-2.03,0.11-3.71-1.32-3.7-4.1c7.72,1.84,7.38-8.27,20.61-7.72c-6.74,3.15-8.91,5.45-13.65,11.45
		c0,0,3.79-2.42,7.27-3.24C26.97,85.66,26.51,97.97,28.98,106.51 M63.84,66.17c-3.65,0.25-7.99,0.63-11.38,1.9
		c-2.14-2.2-5.41-2.88-8.18-2.17c-6.43,1.66-7.87,10.93-4.1,16.04c-2.09-0.29-4.05-1.21-4.83-3.5c-3.38,5.46-8.76,19.29-0.41,27.72
		c-2.86-6.46-0.5-17.05,6.68-22.71c-4.75-10.41,3.82-19.59,9.83-10.33c0,0-0.75,0.43-2.03,1.98c-4.32-2.82-7.2,3.11-6.19,7.12
		c1.79-2.19,6.1-3.4,9.6-4.03c-4.78,3.82-5.82,9.85-5.58,13.21c1.71-6.35,5.72-11.48,12.28-12.07
		C57.59,75.73,56.55,67.95,63.84,66.17z M73.5,74.54c3.11-3.32,7.63-3.07,7.63-3.07s0.48,3.13-1.09,5.31
		c-3.75-1.29-4.71-1.94-3.64-3.08C74.59,73.92,73.5,74.54,73.5,74.54z M70.22,133.25c5.83-5.61,8.33-13.83,7.38-20.23
		c0.67,0.07,1.17-0.21,1.49-0.7c-0.95-0.65-3.48-3.54-4.81-7.08c-6.45-2.97-5.19-7.04-5.19-7.04c1.9,3.15,4.65,4,4.85,4.05
		c3.16,0.79,7.05,0.43,10.35-2.25c4.39-0.29,7.92,6.8,9.1,6.8c2.05-1.71,3.68-3.71,4.84-5.64c0.42-0.7-0.69-1.33-0.15-1.91
		c0.91-0.99,1.71-2.24,2.18-3.69c-1.26,0.83-3.4,1.8-5.22,1.8c-3.94,0-6.39-2.76-6.39-5.94c0-2.91,1.57-5.02,4.02-5.94
		c2.81-1.05,5.61-0.22,7.32,1.37c0.83,0.78,1.59,1.82,1.92,3.09c1.83-3.78,0.16-4.08,1.21-5.54c0.62-0.86,1.34-2.03,1.39-4.18
		c0-0.78-0.08-2.11-1.68-2.96c-1.69-0.9-2.29-1.1-2.45-1.73c-0.13-0.49,0.77-0.56,1.44-0.33c0.92,0.31,2.03,0.51,2.63-1
		c0.36-1.12,0.18-2.14,0.18-2.14s-8.34,0-11.26,0c-2.95,0-4.56,1.64-4.56,1.64c-4.64-6.13-14.16-7.79-22.31-7.63
		c-6.48,4.25-3.94,9.89-0.5,13.94c-2.77,0.8-5.56,1.48-8.14,2.83c-9.86,5.59-12.88,21.38-2.92,27.96c-0.93-2.7-1.49-7.01-0.06-9.57
		C59.54,112.22,73.64,114.36,70.22,133.25z"/>
	<path class="st1" d="M22.34,90.88c-6,12.3-2.8,31.22,3.75,37.95c-1.37-5.19-0.61-8.19-0.33-11.78c1.92,9.24,7.9,15.56,15.01,19.26
		c0,0-1.79-3.67-3.04-8.59c10.08,6.3,23.66,9.26,21.17,25.49c10.77-13.06,10.95-29.05,0.33-40.57c1.82,8.43-0.18,9.4-3.03,7.5
		c-9.7-6.41-16.94-23.02-10.38-35.21c-15.91,15.52-5.01,31.91,3.67,43.18c-5.23-3.09-12.78-9.28-17.11-20.96
		c-0.29,2.9-0.52,5.76-0.75,8.24C27.85,113.02,21.83,101.94,22.34,90.88"/>
	<path class="st1" d="M68.38,61.93c0.79,0.84,1.52,1.57,1.97,2.56c-4.5-0.98-14.06-1.51-18.64-1.67c1.1,1.13,1.59,2.01,1.98,3.22
		c-4.02-3.89-12.05-3.57-19.08,0.45c1.19-1.27,2.56-2.92,3.94-3.88c-0.08-1.09-0.19-2.33-0.3-3.3c5.54-1.96,11.95-3.16,18.8-3.31
		c6.86-0.14,13.34,0.74,18.92,2.46c-0.11,0.97-0.14,1.92-0.18,2.82c3.14,2.38,3.62,3.69,4.76,5.54
		C75.96,63.94,74.28,63.13,68.38,61.93 M63.41,50.24c0.96,0.53,1.53,0.92,2.24,1.77c0.97-0.63,1.65-0.85,2.72-1.06
		c-0.93-0.49-1.54-0.92-2.24-1.77C65.15,49.81,64.5,50.06,63.41,50.24z M57.14,46.73c-1.55,0-2.81,1.26-2.81,2.81
		c0,1.55,1.26,2.81,2.81,2.81c1.55,0,2.82-1.26,2.82-2.81C59.95,47.99,58.69,46.73,57.14,46.73z M50.33,50.73
		c-0.96,0.53-1.54,0.92-2.24,1.77c-0.97-0.63-1.65-0.85-2.72-1.06c0.93-0.49,1.53-0.92,2.24-1.77
		C48.58,50.29,49.23,50.54,50.33,50.73z M41.05,51.68c-0.55,0-1,0.45-1,1c0,0.55,0.45,1,1,1c0.55,0,1-0.45,1-1
		C42.05,52.12,41.6,51.68,41.05,51.68z M72.3,50.98c-0.55,0-1,0.45-1,1c0,0.55,0.45,1,1,1c0.55,0,1-0.45,1-1
		C73.3,51.42,72.85,50.98,72.3,50.98z M56.84,30.44L56.84,30.44c-2.46,3.44-3.14,4.73-2.08,6.86c-0.35-0.11-0.69-0.21-1.06-0.17
		c-1.35,0.04-2.44,1.06-2.45,2.35c0,1.29,1.13,2.3,2.49,2.26c0.57-0.01,1.11-0.18,1.52-0.48c0.94,4.81-7.26,5.26-10.14,2.21
		c0.42-0.4,0.67-0.93,0.65-1.5c-0.02-1.19-1.05-2.19-2.4-2.15c-1.3,0.05-2.34,1.02-2.32,2.22c0.02,1.19,1.06,2.13,2.29,2.18
		c0.61,1.65,0.95,4.09-1.78,4.63c-3.42,0.64-5.57-0.79-6.34-2.1c0.96-0.16,1.7-0.92,1.69-1.85c-0.04-1.04-0.95-1.86-2.04-1.83
		c-1.04,0.04-1.94,0.83-1.94,1.81c-1.13-0.08-2.65-0.27-4.71-0.96c0,0,6.32,4.84,8.44,8.7c0.64,1.19,1.06,3.07,1.37,5.04
		c5.65-2,12.11-3.19,19.02-3.32c6.91-0.14,13.39,0.75,19.07,2.48c0.27-1.98,0.67-3.88,1.29-5.12c2.03-3.92,8.28-9.03,8.28-9.03
		c-2.04,0.76-3.58,0.98-4.69,1.17c-0.05-0.99-0.91-1.75-2-1.72c-1.09,0.03-1.96,0.88-1.96,1.86c0,0.93,0.72,1.67,1.67,1.82
		c-0.73,1.33-2.84,2.86-6.28,2.36c-2.73-0.44-2.44-2.88-1.86-4.54c1.26-0.11,2.25-1.09,2.28-2.27c-0.01-1.19-1.1-2.14-2.41-2.09
		c-1.29,0-2.34,1.02-2.32,2.22c0,0.62,0.23,1.12,0.64,1.5c-2.84,3.17-10.96,3.11-10.12-1.78c0.42,0.27,0.92,0.41,1.49,0.39
		c1.35-0.04,2.45-1.06,2.45-2.35c0-1.29-1.13-2.3-2.49-2.26c-0.37,0.04-0.74,0.09-1.02,0.25C60.04,34.99,59.36,33.75,56.84,30.44z"
		/>
	<rect x="156.14" y="0.09" class="st0" width="5.95" height="195.83"/>
	<path class="st0" d="M488.09,131h17.6V46.04h-17.96v31.56c0,4.11,0.04,8.21,0.08,12.3c0.04,4.11,0.1,8.18,0.15,12.22l-0.23,0.12
		c-2.62-3.7-5.26-7.35-7.88-10.97c-2.64-3.64-5.32-7.29-8.08-10.97l-25.46-34.26h-17.6V131h17.96V99.43c0-4.11-0.02-8.21-0.08-12.3
		c-0.04-4.11-0.1-8.18-0.15-12.22l0.23-0.12c2.62,3.68,5.26,7.33,7.9,10.97c2.62,3.62,5.32,7.28,8.06,10.97L488.09,131z
		 M388.83,18.47h-15.96l-9.86,19.24h12.2L388.83,18.47z M372.63,132.29c5.06-0.02,9.83-0.74,14.29-2.17
		c4.48-1.45,8.54-3.46,12.22-6.1c3.66-2.64,6.83-5.77,9.49-9.39c2.66-3.64,4.71-7.65,6.16-12.05c1.45-4.4,2.17-9.09,2.19-14.06
		c-0.02-4.97-0.74-9.66-2.19-14.06c-1.45-4.4-3.5-8.41-6.16-12.05c-2.66-3.62-5.83-6.75-9.49-9.39c-3.68-2.64-7.74-4.67-12.22-6.1
		c-4.46-1.43-9.23-2.15-14.29-2.17c-5.06,0.02-9.84,0.74-14.3,2.17c-4.48,1.43-8.55,3.46-12.23,6.1c-3.66,2.64-6.83,5.77-9.49,9.39
		c-2.66,3.64-4.71,7.65-6.16,12.05c-1.45,4.4-2.17,9.09-2.19,14.06c0.02,4.97,0.74,9.66,2.19,14.06c1.44,4.4,3.5,8.41,6.16,12.05
		c2.66,3.62,5.83,6.75,9.49,9.39c3.68,2.64,7.74,4.65,12.23,6.1C362.79,131.55,367.57,132.27,372.63,132.29z M372.63,115.39
		c-3.68-0.02-7.08-0.73-10.21-2.09c-3.11-1.37-5.83-3.26-8.14-5.71c-2.33-2.45-4.13-5.28-5.4-8.53c-1.29-3.25-1.94-6.77-1.96-10.54
		c0.02-3.77,0.67-7.29,1.96-10.54c1.27-3.25,3.07-6.08,5.4-8.53c2.31-2.44,5.03-4.36,8.14-5.71c3.13-1.37,6.53-2.07,10.21-2.09
		c3.7,0.02,7.08,0.72,10.21,2.09c3.11,1.35,5.83,3.27,8.13,5.71c2.32,2.44,4.12,5.28,5.4,8.53c1.29,3.25,1.93,6.77,1.95,10.54
		c-0.02,3.77-0.66,7.29-1.95,10.54c-1.27,3.25-3.07,6.08-5.4,8.53c-2.31,2.44-5.03,4.34-8.13,5.71
		C379.71,114.67,376.33,115.37,372.63,115.39z M266.2,131h53.74v-16.31h-35.08V94.51h29.1V79.02h-29.1V62.35h33.79V46.04H266.2V131z
		 M201.08,131h55.86v-16.31h-37.2V46.04h-18.66V131z"/>
	<path class="st0" d="M498.17,158.7c0.22-0.32,0.43-0.66,0.66-1.01c0.22-0.34,0.44-0.68,0.66-1.01c0.21-0.33,0.41-0.64,0.59-0.93
		l0.04,0.02c-0.01,0.3-0.02,0.64-0.02,0.99c0,0.35-0.01,0.72-0.02,1.1c0,0.38-0.01,0.75-0.01,1.11v2.95h-4.01l-0.02-0.05
		L498.17,158.7z M491.78,164.3h8.29v3.8h2.88v-3.8h2.74v-2.38h-2.74v-10.5h-2.65l-8.54,12.83L491.78,164.3z M478.86,168.05
		l0.03,0.04h11.45v-2.6h-5.92l-0.02-0.04l2.44-3.06c0.62-0.78,1.14-1.5,1.57-2.19c0.43-0.69,0.76-1.36,0.99-2.02
		c0.23-0.65,0.34-1.33,0.34-2.01c0-0.79-0.15-1.5-0.44-2.11c-0.29-0.62-0.68-1.14-1.19-1.57c-0.51-0.43-1.1-0.75-1.78-0.98
		c-0.68-0.22-1.41-0.34-2.19-0.34c-0.58,0-1.12,0.06-1.62,0.17c-0.5,0.11-0.95,0.25-1.36,0.44c-0.41,0.18-0.77,0.37-1.07,0.58v2.81
		c0.41-0.3,0.83-0.55,1.27-0.75c0.44-0.2,0.87-0.36,1.3-0.45c0.44-0.1,0.85-0.15,1.25-0.15c0.57,0,1.08,0.1,1.51,0.29
		c0.43,0.2,0.77,0.49,1.01,0.87c0.24,0.38,0.36,0.86,0.37,1.42c0,0.46-0.1,0.93-0.29,1.42c-0.19,0.48-0.48,1.01-0.87,1.59
		c-0.39,0.57-0.88,1.23-1.47,1.97L478.86,168.05z M465.28,159.76c0,1.46,0.13,2.72,0.39,3.78c0.26,1.06,0.65,1.95,1.18,2.67
		c0.35,0.47,0.75,0.87,1.2,1.18c0.45,0.32,0.95,0.56,1.47,0.73c0.54,0.16,1.09,0.24,1.68,0.24s1.14-0.08,1.68-0.24
		c0.53-0.17,1.03-0.4,1.47-0.73c0.45-0.31,0.86-0.71,1.2-1.18c0.53-0.72,0.92-1.61,1.18-2.67c0.26-1.06,0.38-2.32,0.38-3.78
		c0-1.46-0.13-2.72-0.38-3.78c-0.26-1.06-0.65-1.95-1.18-2.67c-0.35-0.47-0.75-0.87-1.2-1.18c-0.45-0.32-0.95-0.56-1.47-0.72
		c-0.54-0.16-1.09-0.24-1.68-0.24s-1.14,0.08-1.68,0.24c-0.53,0.16-1.02,0.4-1.47,0.72c-0.45,0.31-0.85,0.71-1.2,1.18
		c-0.53,0.72-0.92,1.61-1.18,2.67C465.41,157.04,465.28,158.3,465.28,159.76z M468.2,159.76c0-0.69,0.03-1.34,0.09-1.96
		c0.06-0.62,0.16-1.18,0.3-1.69c0.15-0.5,0.34-0.93,0.6-1.28c0.23-0.32,0.51-0.56,0.85-0.74c0.33-0.18,0.71-0.27,1.15-0.27
		c0.44,0.01,0.82,0.09,1.16,0.27c0.34,0.18,0.62,0.42,0.85,0.74c0.26,0.35,0.45,0.78,0.6,1.28c0.15,0.51,0.25,1.07,0.31,1.69
		c0.06,0.62,0.09,1.27,0.09,1.96c0,0.69-0.03,1.34-0.09,1.96c-0.06,0.62-0.16,1.18-0.31,1.69c-0.15,0.5-0.34,0.93-0.6,1.28
		c-0.23,0.32-0.51,0.56-0.85,0.74c-0.33,0.18-0.72,0.27-1.16,0.27c-0.44-0.01-0.82-0.09-1.15-0.27c-0.33-0.18-0.62-0.42-0.85-0.74
		c-0.26-0.35-0.45-0.78-0.6-1.28c-0.15-0.51-0.24-1.07-0.3-1.69C468.23,161.1,468.2,160.45,468.2,159.76z M451.32,168.05l0.03,0.04
		h11.44v-2.6h-5.92l-0.02-0.04l2.44-3.06c0.62-0.78,1.14-1.5,1.57-2.19c0.43-0.69,0.77-1.36,0.99-2.02
		c0.23-0.65,0.34-1.33,0.34-2.01c0-0.79-0.15-1.5-0.44-2.11c-0.29-0.62-0.68-1.14-1.19-1.57c-0.51-0.43-1.1-0.75-1.78-0.98
		c-0.68-0.22-1.41-0.34-2.19-0.34c-0.58,0-1.12,0.06-1.62,0.17c-0.5,0.11-0.95,0.25-1.36,0.44c-0.41,0.18-0.77,0.37-1.07,0.58v2.81
		c0.41-0.3,0.83-0.55,1.27-0.75c0.44-0.2,0.87-0.36,1.3-0.45c0.44-0.1,0.85-0.15,1.25-0.15c0.57,0,1.08,0.1,1.51,0.29
		c0.43,0.2,0.77,0.49,1.01,0.87c0.24,0.38,0.36,0.86,0.37,1.42c0,0.46-0.1,0.93-0.29,1.42c-0.19,0.48-0.48,1.01-0.87,1.59
		c-0.39,0.57-0.88,1.23-1.47,1.97L451.32,168.05z M444.74,162.89h5.57v-2.35h-5.57V162.89z M436.98,168.1h2.93v-16.92l-6.54,2.44
		v2.74l3.62-1.33V168.1z M419.04,168.05l0.03,0.04h11.44v-2.6h-5.92l-0.02-0.04l2.44-3.06c0.62-0.78,1.14-1.5,1.57-2.19
		c0.43-0.69,0.76-1.36,0.99-2.02c0.23-0.65,0.34-1.33,0.34-2.01c0-0.79-0.15-1.5-0.44-2.11c-0.29-0.62-0.68-1.14-1.19-1.57
		c-0.51-0.43-1.1-0.75-1.78-0.98c-0.68-0.22-1.4-0.34-2.19-0.34c-0.58,0-1.12,0.06-1.62,0.17c-0.5,0.11-0.95,0.25-1.36,0.44
		c-0.41,0.18-0.77,0.37-1.07,0.58v2.81c0.41-0.3,0.83-0.55,1.27-0.75c0.44-0.2,0.87-0.36,1.31-0.45c0.43-0.1,0.85-0.15,1.25-0.15
		c0.57,0,1.07,0.1,1.5,0.29c0.43,0.2,0.77,0.49,1.01,0.87c0.24,0.38,0.36,0.86,0.37,1.42c0,0.46-0.09,0.93-0.29,1.42
		c-0.19,0.48-0.48,1.01-0.87,1.59c-0.39,0.57-0.88,1.23-1.47,1.97L419.04,168.05z M405.45,159.76c0,1.46,0.12,2.72,0.38,3.78
		c0.26,1.06,0.65,1.95,1.18,2.67c0.35,0.47,0.75,0.87,1.2,1.18c0.45,0.32,0.94,0.56,1.47,0.73c0.54,0.16,1.09,0.24,1.68,0.24
		c0.59,0,1.14-0.08,1.68-0.24c0.53-0.17,1.02-0.4,1.47-0.73c0.45-0.31,0.86-0.71,1.2-1.18c0.53-0.72,0.92-1.61,1.18-2.67
		c0.26-1.06,0.38-2.32,0.38-3.78c0-1.46-0.13-2.72-0.38-3.78c-0.26-1.06-0.65-1.95-1.18-2.67c-0.35-0.47-0.75-0.87-1.2-1.18
		c-0.45-0.32-0.95-0.56-1.47-0.72c-0.54-0.16-1.09-0.24-1.68-0.24c-0.59,0-1.14,0.08-1.68,0.24c-0.53,0.16-1.02,0.4-1.47,0.72
		c-0.45,0.31-0.86,0.71-1.2,1.18c-0.53,0.72-0.92,1.61-1.18,2.67C405.58,157.04,405.45,158.3,405.45,159.76z M408.38,159.76
		c0-0.69,0.03-1.34,0.09-1.96c0.06-0.62,0.16-1.18,0.3-1.69c0.15-0.5,0.34-0.93,0.6-1.28c0.23-0.32,0.51-0.56,0.85-0.74
		c0.33-0.18,0.72-0.27,1.15-0.27c0.44,0.01,0.83,0.09,1.16,0.27c0.33,0.18,0.61,0.42,0.84,0.74c0.25,0.35,0.45,0.78,0.59,1.28
		c0.15,0.51,0.25,1.07,0.3,1.69c0.06,0.62,0.09,1.27,0.09,1.96c0,0.69-0.03,1.34-0.09,1.96c-0.06,0.62-0.16,1.18-0.3,1.69
		c-0.15,0.5-0.34,0.93-0.59,1.28c-0.23,0.32-0.51,0.56-0.84,0.74c-0.34,0.18-0.72,0.27-1.16,0.27c-0.44-0.01-0.82-0.09-1.15-0.27
		c-0.33-0.18-0.62-0.42-0.85-0.74c-0.26-0.35-0.45-0.78-0.6-1.28c-0.14-0.51-0.24-1.07-0.3-1.69
		C408.41,161.1,408.37,160.45,408.38,159.76z M391.5,168.05l0.03,0.04h11.45v-2.6h-5.92l-0.02-0.04l2.44-3.06
		c0.62-0.78,1.14-1.5,1.57-2.19c0.43-0.69,0.76-1.36,0.99-2.02c0.23-0.65,0.34-1.33,0.34-2.01c0-0.79-0.15-1.5-0.44-2.11
		c-0.29-0.62-0.69-1.14-1.19-1.57c-0.51-0.43-1.1-0.75-1.78-0.98c-0.68-0.22-1.4-0.34-2.19-0.34c-0.59,0-1.12,0.06-1.62,0.17
		c-0.5,0.11-0.95,0.25-1.36,0.44c-0.41,0.18-0.77,0.37-1.07,0.58v2.81c0.41-0.3,0.83-0.55,1.27-0.75c0.44-0.2,0.87-0.36,1.3-0.45
		c0.44-0.1,0.85-0.15,1.25-0.15c0.57,0,1.07,0.1,1.51,0.29c0.43,0.2,0.77,0.49,1.01,0.87c0.24,0.38,0.36,0.86,0.37,1.42
		c0,0.46-0.09,0.93-0.29,1.42c-0.19,0.48-0.48,1.01-0.87,1.59c-0.39,0.57-0.88,1.23-1.47,1.97L391.5,168.05z M376.05,168.35
		c0.99,0,1.91-0.14,2.78-0.42c0.87-0.28,1.65-0.68,2.36-1.2c0.71-0.52,1.32-1.13,1.84-1.84c0.51-0.71,0.91-1.5,1.19-2.37
		c0.28-0.86,0.42-1.78,0.42-2.76c0-0.97-0.14-1.89-0.42-2.76c-0.28-0.87-0.68-1.65-1.19-2.37c-0.52-0.71-1.12-1.32-1.84-1.84
		c-0.71-0.52-1.49-0.92-2.36-1.2c-0.87-0.28-1.79-0.42-2.78-0.42c-0.98,0-1.91,0.14-2.77,0.42c-0.87,0.28-1.66,0.68-2.37,1.2
		c-0.71,0.52-1.32,1.13-1.83,1.84c-0.51,0.71-0.91,1.5-1.19,2.37c-0.28,0.86-0.42,1.78-0.42,2.76c0,0.97,0.15,1.89,0.42,2.76
		c0.28,0.87,0.68,1.65,1.19,2.37c0.51,0.71,1.12,1.32,1.83,1.84c0.71,0.52,1.5,0.92,2.37,1.2
		C374.13,168.2,375.06,168.35,376.05,168.35z M376.05,165.68c-0.82-0.01-1.57-0.16-2.25-0.46c-0.69-0.3-1.29-0.72-1.8-1.26
		c-0.51-0.54-0.91-1.16-1.19-1.88c-0.28-0.71-0.42-1.49-0.43-2.32c0-0.83,0.14-1.61,0.43-2.33c0.28-0.71,0.68-1.34,1.19-1.88
		c0.51-0.54,1.11-0.96,1.8-1.26c0.69-0.3,1.44-0.45,2.25-0.46c0.82,0,1.57,0.15,2.25,0.46c0.69,0.3,1.29,0.72,1.79,1.26
		c0.51,0.54,0.9,1.16,1.19,1.88c0.28,0.72,0.42,1.5,0.43,2.33c0,0.83-0.15,1.61-0.43,2.32c-0.29,0.72-0.68,1.34-1.19,1.88
		c-0.51,0.54-1.1,0.96-1.79,1.26C377.61,165.52,376.86,165.67,376.05,165.68z M358.13,168.1h2.92v-14.07h5.5v-2.6h-13.89v2.6h5.46
		V168.1z M338.81,168.1v-7c0-0.88,0-1.75-0.01-2.59c0-0.85-0.01-1.66-0.04-2.44l0.05-0.03c0.48,0.67,0.97,1.33,1.46,2
		c0.49,0.67,1,1.34,1.51,2.03l6.04,8.04h2.76v-16.67h-2.83v7c0,0.88,0,1.75,0.01,2.6c0.01,0.85,0.02,1.66,0.04,2.44l-0.05,0.03
		c-0.48-0.67-0.97-1.33-1.46-2c-0.49-0.67-1-1.34-1.51-2.03l-6.03-8.04h-2.76v16.67H338.81z M323.2,168.1h10.18v-2.6h-7.25v-4.83
		h6.1v-2.49h-6.1v-4.14h7.02v-2.6h-9.95V168.1z M316.89,168.1h2.92v-16.67h-2.92V168.1z M296.99,168.1h2.83v-8.25
		c0-0.63,0-1.25,0-1.85c0-0.6-0.01-1.19-0.02-1.77l0.05-0.03c0.34,0.53,0.7,1.06,1.07,1.59c0.37,0.53,0.75,1.08,1.14,1.64l3.13,4.46
		l3.13-4.46c0.39-0.56,0.77-1.11,1.14-1.64c0.37-0.53,0.73-1.06,1.07-1.59l0.04,0.03c-0.01,0.58-0.01,1.16-0.02,1.77
		c0,0.6,0,1.21,0,1.85v8.25h2.93v-16.67h-2.79l-5.43,7.76l-5.43-7.76h-2.83V168.1z M285.22,159.12c0.29-0.75,0.56-1.49,0.84-2.22
		c0.27-0.73,0.55-1.48,0.82-2.25h0.05c0.27,0.75,0.54,1.49,0.81,2.23c0.28,0.74,0.56,1.49,0.84,2.24l0.97,2.51h-5.3L285.22,159.12z
		 M288.38,151.42h-2.86l-6.84,16.67h3.02l1.61-4.08h7.18l1.59,4.08h3.11L288.38,151.42z M271.8,168.1h2.93v-14.07h5.5v-2.6h-13.89
		v2.6h5.46V168.1z M252.48,168.1v-7c0-0.88,0-1.75-0.01-2.59c0-0.85-0.01-1.66-0.04-2.44l0.05-0.03c0.49,0.67,0.97,1.33,1.46,2
		c0.49,0.67,1,1.34,1.51,2.03l6.03,8.04h2.76v-16.67h-2.83v7c0,0.88,0,1.75,0.01,2.6c0,0.85,0.01,1.66,0.04,2.44l-0.05,0.03
		c-0.48-0.67-0.97-1.33-1.46-2c-0.49-0.67-0.99-1.34-1.51-2.03l-6.03-8.04h-2.76v16.67H252.48z M233.62,165.66
		c0.37,0.56,0.84,1.04,1.4,1.44c0.56,0.4,1.22,0.71,1.96,0.92c0.74,0.21,1.55,0.32,2.44,0.32c0.86,0,1.66-0.1,2.4-0.3
		c0.74-0.21,1.4-0.5,1.98-0.9c0.58-0.4,1.06-0.88,1.45-1.45c0.31-0.47,0.55-0.99,0.73-1.56c0.18-0.57,0.3-1.2,0.37-1.88
		c0.07-0.69,0.1-1.45,0.1-2.27v-8.57h-2.83v8.61c0.01,0.91-0.04,1.68-0.14,2.33c-0.09,0.64-0.27,1.19-0.53,1.64
		c-0.29,0.52-0.72,0.93-1.27,1.23c-0.56,0.29-1.27,0.45-2.14,0.45c-0.64-0.01-1.19-0.09-1.65-0.24c-0.46-0.16-0.84-0.37-1.14-0.63
		c-0.31-0.26-0.55-0.55-0.73-0.88c-0.16-0.28-0.28-0.6-0.38-0.96c-0.09-0.36-0.16-0.78-0.2-1.27c-0.04-0.48-0.06-1.05-0.06-1.7
		v-8.57h-2.92v8.75c0,0.75,0.03,1.46,0.1,2.12c0.07,0.65,0.19,1.27,0.36,1.83C233.08,164.68,233.31,165.19,233.62,165.66z
		 M221.76,168.1h2.93v-7.55l6.38-9.12h-3.29l-2.37,3.48c-0.37,0.54-0.73,1.09-1.09,1.62c-0.36,0.54-0.7,1.05-1.02,1.56h-0.05
		c-0.32-0.5-0.66-1.01-1.01-1.53c-0.35-0.53-0.71-1.06-1.08-1.6l-2.42-3.52h-3.41l6.45,9.14V168.1z M207.62,159.12
		c0.29-0.75,0.56-1.49,0.83-2.22c0.27-0.73,0.55-1.48,0.82-2.25h0.05c0.27,0.75,0.54,1.49,0.81,2.23c0.28,0.74,0.56,1.49,0.84,2.24
		l0.97,2.51h-5.29L207.62,159.12z M210.77,151.42h-2.85l-6.84,16.67h3.02l1.61-4.08h7.19l1.59,4.08h3.11L210.77,151.42z"/>
</g>
</svg>
