<?xml version="1.0" encoding="utf-8"?>
<!-- Generator: Adobe Illustrator 26.0.0, SVG Export Plug-In . SVG Version: 6.00 Build 0)  -->
<svg version="1.1" id="Capa_1" xmlns="http://www.w3.org/2000/svg" xmlns:xlink="http://www.w3.org/1999/xlink" x="0px" y="0px"
	 viewBox="0 0 60 60" style="enable-background:new 0 0 60 60;" xml:space="preserve">
<style type="text/css">
	.st0{fill:#0F9E39;}
	.st1{fill:#F9F9F9;}
</style>
<g>
	<circle class="st0" cx="30" cy="30" r="30"/>
	<path class="st1" d="M42.98,13.36h-3.24c-0.5-2.23-2.5-3.9-4.88-3.9c-2.76,0-5.01,2.24-5.01,5c0,0.09,0.01,0.17,0.01,0.26
		c-0.17,1.23-0.04,2.58,0.4,4.04c0.73,2.41,2.38,4.71,4.13,7.15c0.78,1.08,1.57,2.2,2.33,3.38c-2.13-1.42-4.68-2.25-7.42-2.25
		c-7.38,0-13.39,6.01-13.39,13.39c0,0.43,0.08,1.78,0.14,2.13c0.04,0.23,0.09,0.45,0.13,0.55c1.37,4.26,4.46,6.91,8.6,7.37
		c0.4,0.04,0.79,0.06,1.19,0.06c3.81,0,7.48-1.98,9.01-4.99c1.22-2.41,1.17-5.13-0.15-7.46c-1.15-2.03-3.07-3.44-4.9-3.57
		c-0.61-0.04-1.14,0.41-1.18,1.02c-0.04,0.61,0.41,1.14,1.02,1.18c1.08,0.08,2.37,1.09,3.14,2.45c0.56,0.99,1.31,3,0.1,5.38
		c-1.26,2.49-4.7,4.09-7.98,3.73c-1.91-0.21-5.21-1.24-6.69-5.71c-0.14-0.7-0.21-1.42-0.21-2.15c0-6.17,5.02-11.18,11.19-11.18
		c5.34,0,9.8,3.76,10.91,8.77c0.23,1.78,0.19,3.7-0.26,5.81c0,0.02,0,0.04,0,0.06c-0.14,0.56,0.16,1.15,0.72,1.32
		c0.11,0.04,0.22,0.05,0.34,0.05c0.47,0,0.9-0.3,1.05-0.77c0.42-1.3,0.63-2.67,0.63-4.06c0-0.97-0.11-1.92-0.31-2.83
		c-0.74-5.33-3.68-9.46-6.19-12.97c-1.41-1.97-2.75-3.85-3.5-5.65c0.66,0.32,1.39,0.5,2.17,0.5c2.38,0,4.37-1.67,4.88-3.9h3.24
		c0.61,0,1.1-0.49,1.1-1.1C44.08,13.86,43.59,13.36,42.98,13.36z M34.86,17.26c-1.54,0-2.79-1.25-2.8-2.79c0,0,0-0.01,0-0.01
		c0-1.54,1.26-2.79,2.8-2.79c1.54,0,2.8,1.25,2.8,2.8C37.66,16.01,36.41,17.26,34.86,17.26z"/>
</g>
</svg>
