<?xml version="1.0" encoding="utf-8"?>
<!-- Generator: Adobe Illustrator 26.0.0, SVG Export Plug-In . SVG Version: 6.00 Build 0)  -->
<svg version="1.1" id="Capa_1" xmlns="http://www.w3.org/2000/svg" xmlns:xlink="http://www.w3.org/1999/xlink" x="0px" y="0px"
	 viewBox="0 0 60 60" style="enable-background:new 0 0 60 60;" xml:space="preserve">
<style type="text/css">
	.st0{fill:#0F9E39;}
	.st1{fill:#FFFFFF;}
</style>
<g>
	<circle class="st0" cx="30" cy="30" r="30"/>
	<g>
		<path class="st1" d="M35.45,13.72c-0.05-0.02-0.1-0.03-0.15-0.04c-1.68-0.51-3.46-0.79-5.3-0.79c-10.05,0-18.23,8.18-18.23,18.23
			c0,4.08,1.33,7.95,3.86,11.19c0.19,0.24,0.48,0.39,0.79,0.39h6.04c0.56,0,1.01-0.45,1.01-1.01v-3.18c0-0.97,0.79-1.75,1.75-1.75
			c0.97,0,1.75,0.79,1.75,1.75v3.18c0,0.56,0.45,1.01,1.01,1.01h6.18c0.56,0,1.01-0.45,1.01-1.01s-0.45-1.01-1.01-1.01h-5.17v-2.17
			c0-2.08-1.69-3.77-3.77-3.77c-2.08,0-3.77,1.69-3.77,3.77v2.17h-4.53c-2.06-2.8-3.14-6.09-3.14-9.56
			c0-8.94,7.27-16.21,16.21-16.21c0.2,0,0.4,0.02,0.59,0.03c-2.27,1.46-3.78,4.01-3.78,6.9c0,4.53,3.68,8.21,8.21,8.21
			c0.56,0,1.01-0.45,1.01-1.01s-0.45-1.01-1.01-1.01c-3.42,0-6.2-2.78-6.2-6.2c0-3.36,2.69-6.09,6.02-6.19
			c6.58,2.07,11.36,8.22,11.36,15.47c0,1.87-0.32,7.98-4.49,8.14c-0.79,0.03-1.35-0.24-1.67-0.79c-0.37-0.64-0.35-1.58,0.06-2.22
			c0.33-0.52,0.84-0.76,1.5-0.71c0.56,0.05,1.04-0.37,1.08-0.93c0.04-0.55-0.37-1.04-0.93-1.08c-1.41-0.11-2.63,0.5-3.35,1.65
			c-0.8,1.28-0.84,3.01-0.09,4.3c0.7,1.2,1.97,1.86,3.49,1.8c4.03-0.15,6.43-3.95,6.43-10.15C48.23,22.96,42.85,16.05,35.45,13.72z"
			/>
		<path class="st1" d="M40.06,26.6c0.78,0,1.42-0.64,1.42-1.42s-0.64-1.42-1.42-1.42c-0.78,0-1.42,0.64-1.42,1.42
			S39.28,26.6,40.06,26.6z"/>
	</g>
</g>
</svg>
