<?xml version="1.0" encoding="utf-8"?>
<!-- Generator: Adobe Illustrator 26.0.0, SVG Export Plug-In . SVG Version: 6.00 Build 0)  -->
<svg version="1.1" id="Capa_1" xmlns="http://www.w3.org/2000/svg" xmlns:xlink="http://www.w3.org/1999/xlink" x="0px" y="0px"
	 viewBox="0 0 60 60" style="enable-background:new 0 0 60 60;" xml:space="preserve">
<style type="text/css">
	.st0{fill:#0F9E39;}
	.st1{fill:#F9F9F9;}
</style>
<g>
	<circle class="st0" cx="30" cy="30" r="30"/>
	<g>
		<path class="st1" d="M44.04,24.5c-1.31,0-4.21,1.04-5.35,1.47c-1.73-6.09-7.32-10.57-13.96-10.57c-8.01,0-14.52,6.51-14.52,14.52
			c0,1.9,0.37,3.75,1.08,5.5c0.4,3.26,1.62,6.31,3.54,8.81c0.19,0.24,0.47,0.38,0.78,0.38h5.65c0.45,0,0.85-0.31,0.96-0.76
			c0.71-2.95,2.31-4.94,3.98-4.94c1.67,0,3.27,1.98,3.98,4.94c0.11,0.44,0.5,0.76,0.95,0.76h5.65c0.3,0,0.59-0.14,0.78-0.39
			c1.22-1.6,2.16-3.41,2.79-5.39c0.52-1.63,2-2.72,3.7-2.72c3.18,0,5.77-2.61,5.77-5.81C49.8,27.1,47.21,24.5,44.04,24.5z
			 M24.72,17.37c6.91,0,12.54,5.63,12.54,12.54c0,1.45-0.24,2.87-0.73,4.21H12.91c-0.48-1.35-0.73-2.77-0.73-4.21
			C12.18,23,17.81,17.37,24.72,17.37z M44.03,34.13c-2.55,0-4.79,1.65-5.57,4.09c-0.51,1.6-1.25,3.08-2.19,4.4h-4.41
			c-1.05-3.48-3.23-5.69-5.69-5.69c-2.46,0-4.64,2.21-5.69,5.69h-4.4c-1.36-1.9-2.29-4.13-2.72-6.52h23.85
			c0.4,0,0.76-0.24,0.91-0.61c0.74-1.77,1.11-3.65,1.11-5.59c0-0.67-0.06-1.33-0.15-1.99c1.48-0.57,4.08-1.45,4.94-1.45
			c2.1,0,3.8,1.72,3.8,3.83C47.84,32.41,46.13,34.13,44.03,34.13z"/>
		<path class="st1" d="M44.5,27.6c-0.77,0-1.39,0.63-1.39,1.39c0,0.77,0.63,1.4,1.39,1.4c0.77,0,1.4-0.63,1.4-1.4
			C45.89,28.22,45.27,27.6,44.5,27.6z"/>
	</g>
</g>
</svg>
